<svg width="158" height="182" viewBox="0 0 158 182" fill="none" xmlns="http://www.w3.org/2000/svg">
<path d="M119.577 74.2083L123.702 73.5037C123.929 71.678 122.807 67.4469 122.688 65.7787C122.556 63.9483 120.075 62.251 120.075 62.251L118.337 65.8813L118.389 66.2068C118.389 66.2068 118.37 69.3916 117.665 70.7716C117.261 71.5602 117.327 72.7956 116.32 73.9634C115.566 74.8371 119.577 74.2083 119.577 74.2083Z" fill="#EFAEA6"/>
<path opacity="0.14" d="M118.789 64.9344L119.375 64.7139C119.375 64.7139 120.701 65.8874 121.048 66.3681C121.556 67.0692 120.248 69.3837 118.204 68.7012L118.789 64.9344Z" fill="#1F1F3B"/>
<path d="M119.406 58.9279C118.354 60.0583 115.231 61.3334 116.046 61.9808C116.862 62.6283 113.822 64.3665 114.665 65.0874C116.709 66.8338 120.171 67.4287 121.243 66.6285C122.315 65.8282 124.404 62.8674 124.404 62.8674L119.406 58.9268V58.9279Z" fill="#EFAEA6"/>
<path d="M120.653 61.8202C119.93 61.3699 119.786 61.5099 119.499 60.9137C119.212 60.3176 120.519 60.3165 119.768 59.4812C119.016 58.6459 118.109 57.834 118.799 56.7677C119.799 55.2244 120.892 56.4633 121.546 57.2565C121.965 57.7675 122.957 56.7654 123.928 57.6182C124.689 58.2878 124.232 58.6774 124.885 59.305C125.28 59.6842 126.664 59.6445 126.925 60.6898C127.405 62.6286 125.456 62.9809 125.679 64.8183C125.939 66.9612 121.178 67.2856 121.098 66.7221C121.004 66.0653 122.524 65.2744 122.373 64.6829C122.144 63.7905 121.688 64.2233 120.853 64.2933C119.96 64.368 118.993 63.6435 120.335 63.1932C121.676 62.7429 121.306 62.2285 120.652 61.8202H120.653Z" fill="#1F1F3B"/>
<path d="M109.786 175.203C109.605 173.413 109.739 168.88 109.739 168.88L114.683 168.708L114.417 175.516L111.15 177.681L109.786 175.204V175.203Z" fill="white"/>
<path d="M109.385 173.733C108.968 173.415 108.04 174.533 107.847 175.285C107.409 177.005 101.893 177.224 100.91 177.379C100.402 177.459 99.5857 179.987 102.109 179.977C104.292 179.967 111.284 179.961 113.672 179.937C114.171 179.932 114.608 179.606 114.728 179.14C115.157 177.479 115.21 173.581 114.543 173.528C113.645 173.728 110.973 174.949 109.383 173.733H109.385Z" fill="#1F1F3B"/>
<path d="M128.782 175.234C128.591 173.445 128.7 168.911 128.7 168.911L133.644 168.711L133.417 175.521L130.161 177.703L128.782 175.234Z" fill="white"/>
<path d="M128.239 173.2C127.707 173.234 127.804 173.732 127.619 174.484C127.196 176.209 120.918 177.326 119.937 177.49C119.43 177.574 118.636 180.11 121.161 180.077C123.343 180.049 130.334 179.985 132.722 179.939C133.222 179.93 133.656 179.601 133.771 179.134C134.185 177.47 134.34 172.899 133.673 172.85C132.777 173.059 130.661 173.044 128.238 173.2H128.239Z" fill="#1F1F3B"/>
<path d="M135.859 116.067C135.796 116.877 135.713 117.757 135.598 118.721C135.173 122.337 134.274 134.532 134.494 142.278C134.713 149.987 134.259 169.41 134.696 170.601C135.132 171.793 127.01 172.266 126.926 170.83C126.842 169.394 126.302 155.902 125.643 142.876C125.107 132.3 124.954 133.361 123.01 119.893V119.895C122.987 119.957 122.513 121.269 121.824 123.287C120.348 127.597 117.884 135.126 116.702 140.576C114.86 149.08 115.822 171.246 115.05 172.01C114.585 173.001 108.866 173.494 107.828 171.616C107.828 171.616 107.388 144.204 108.205 139.911C108.759 136.992 113.434 108.384 114.478 100.699C114.478 100.699 135.07 96.2089 135.701 103.243C135.787 104.206 135.813 105.055 135.801 105.865C135.785 106.956 135.846 107.969 135.905 109.078C136.002 110.891 136.097 112.963 135.859 116.067Z" fill="#3B3B4D"/>
<path opacity="0.46" d="M124.822 116.025C124.822 116.025 124.821 116.03 124.819 116.036C124.782 116.013 124.767 116.001 124.763 115.998C124.773 115.999 124.823 116.025 124.823 116.025H124.822Z" fill="#1F1F3B"/>
<path opacity="0.62" d="M123.009 119.892V119.894C122.985 119.956 122.08 122.505 121.391 124.523L122.595 115.959C122.595 115.959 122.813 117.197 123.009 119.892Z" fill="#1F1F3B"/>
<path opacity="0.43" d="M135.979 113.953C135.808 113.916 127.871 112.223 126.798 108.249C126.798 108.249 133.698 108.841 135.905 109.078C136.002 110.891 136.048 112.926 135.979 113.953Z" fill="#1F1F3B"/>
<path d="M123.612 69.3261C121.828 68.842 121.654 71.7899 119.856 71.9322C118.906 72.0069 119.116 71.5939 118.668 71.1565C118.392 70.887 118.133 70.5848 117.696 71.0328C108.821 80.1402 118.063 103.103 116.933 104.705C116.009 106.015 123.521 108.875 128.239 107.725C134.708 106.147 134.315 99.1215 134.127 97.7788C133.94 96.4372 129.773 73.6284 129.773 73.6284C129.773 73.6284 126.496 71.8949 123.613 69.3273L123.612 69.3261Z" fill="white"/>
<path d="M123.587 88.016C123.868 91.5181 125.182 96.5623 126.03 99.3772C127.557 104.447 125.47 107.261 127.532 109.434C130.022 112.057 135.855 113.242 137.855 110.574C139.455 108.442 136.49 103.249 135.339 98.262H135.338C134.812 95.986 134.388 93.9282 134.412 92.6765C134.413 92.6088 134.414 92.5423 134.416 92.4782C134.422 92.1713 134.429 91.8879 134.44 91.6207C134.45 91.2964 134.459 90.9989 134.471 90.719C134.493 90.2232 134.514 89.7845 134.534 89.3599C134.581 88.38 134.615 87.4782 134.596 86.1262C134.595 86.0107 134.594 85.8928 134.59 85.7715C134.574 85.0098 134.542 84.1092 134.491 82.9881C134.325 79.5712 133.349 74.8979 131.797 73.281C128.106 69.4348 123.613 69.3252 123.613 69.3252C123.446 71.4297 122.989 80.5651 123.587 88.016Z" fill="#0069A8"/>
<path opacity="0.25" d="M131.282 83.1284C131.282 83.1284 131.748 88.5833 134.416 92.4797C134.422 92.1729 134.429 91.8894 134.439 91.6222C134.45 91.2979 134.459 91.0004 134.471 90.7205C134.493 90.2247 134.514 89.786 134.534 89.3614C134.58 88.3815 134.614 87.4797 134.595 86.1277L131.281 83.1284H131.282Z" fill="#1F1F3B"/>
<path d="M132.212 73.0728C139.091 81.0697 144.773 88.7166 145.163 89.6008C146.207 91.9666 147.198 106.901 147.024 107.817C146.849 108.734 141.956 108.174 141.684 107.55C141.365 106.817 141.393 96.1698 139.856 92.7657C138.897 90.6414 127.756 78.4122 126.592 76.996C125.428 75.5786 125.158 69.9126 127.624 70.4375C130.09 70.9625 132.212 73.074 132.212 73.074V73.0728Z" fill="#0069A8"/>
<path d="M147.15 115.684L147.124 114.643L147.102 113.653C147.087 112.956 146.772 112.367 146.338 112.126H146.337C146.195 112.045 146.044 112.005 145.882 112.008L142.579 112.087H142.54L142.482 112.089H142.481H142.457L141.66 112.108C141.346 112.117 141.062 112.296 140.859 112.588C140.667 112.86 140.543 113.227 140.522 113.638C140.52 113.69 140.519 113.744 140.52 113.799L140.543 114.758L140.568 115.798L140.581 116.393L141.411 116.373V116.363L141.397 115.783L141.373 114.741L141.367 114.544V114.534C141.367 114.501 141.366 114.469 141.367 114.438C141.389 113.795 141.757 113.284 142.219 113.273L142.462 113.267L145.375 113.198C145.499 113.196 145.617 113.228 145.724 113.292H145.725C146.044 113.476 146.274 113.914 146.286 114.429L146.292 114.656L146.317 115.698L146.33 116.256L147.16 116.236L147.146 115.683L147.15 115.684Z" fill="#201B2C"/>
<path d="M142.594 107.677C142.451 108.638 142.198 108.375 141.838 109.612C141.477 110.85 140.396 112.563 141.035 112.766C141.674 112.969 142.182 112.227 142.498 112.081C142.814 111.934 142.087 112.655 142.459 113.26C142.832 113.866 144.44 114.236 145.181 113.774C145.921 113.312 146.444 112.363 146.497 111.123C146.551 109.883 145.971 108.192 145.855 107.647C145.74 107.102 142.594 107.678 142.594 107.678V107.677Z" fill="#EEADA5"/>
<path d="M142.481 112.089H142.48H142.456L141.658 112.1C141.343 112.107 141.059 112.288 140.855 112.581C140.663 112.856 140.538 113.226 140.52 113.638C140.518 113.69 140.517 113.744 140.518 113.799L140.541 114.758L140.566 115.798L140.58 116.383L141.409 116.364L141.395 115.784L141.371 114.743L141.367 114.546V114.535C141.367 114.502 141.366 114.471 141.367 114.439C141.385 113.794 141.753 113.274 142.218 113.263L142.353 112.768V112.763L142.457 112.382V112.377L142.46 112.376V112.373L142.539 112.086H142.48L142.481 112.089Z" fill="#201B2C"/>
<path d="M131.428 118.603L131.639 130.149C131.652 130.833 132.216 131.379 132.901 131.366H132.938L153.523 131.253C155.845 131.211 155.8 129.571 155.787 128.887L155.914 117.989C155.901 117.304 155.043 115.518 153.185 115.578L134.873 115.901L134.186 115.912C132.674 115.94 131.4 117.053 131.429 118.603H131.428Z" fill="#603A3E"/>
<path d="M131.428 118.603L131.639 130.149C131.652 130.833 132.216 131.379 132.901 131.366H132.938C133.164 130.678 133.297 129.596 133.152 127.893C132.803 123.776 133.903 119.083 134.873 115.901L134.186 115.913C132.674 115.941 131.4 117.053 131.429 118.603H131.428Z" fill="#775155"/>
<path opacity="0.26" d="M119.496 72.3994C119.669 72.4519 119.774 72.6071 119.857 72.7529C119.959 72.9337 120.026 73.0982 120.139 73.0282C120.297 72.9384 121.609 75.0977 123.551 76.2806C124.174 76.6598 125.009 77.0307 125.744 77.1031C126.027 77.1311 127.968 77.257 128.762 77.1847C130.083 77.0622 135.291 76.7438 135.291 76.7438C135.291 76.7438 133.061 73.9673 132.756 73.7177C131.539 74.0443 128.054 74.8936 127.115 75.0371C126.645 75.1106 126.231 75.1327 125.889 75.0814C125.734 75.0581 125.581 75.0277 125.431 74.9951C124.766 74.8446 124.142 74.5973 123.565 74.2951C122.47 73.7223 121.545 72.9524 120.837 72.2828C120.448 71.9141 120.413 71.752 119.935 71.6762C119.93 71.675 119.926 71.675 119.922 71.6738C119.716 71.9748 119.289 72.3388 119.497 72.4006L119.496 72.3994Z" fill="#1F1F39"/>
<path d="M157.995 78.2816C157.938 78.8148 157.227 79.6722 156.261 80.0117C156.045 80.0875 155.454 80.1575 154.644 80.2147C151.845 80.4141 146.419 80.4725 144.716 80.1703C142.946 79.8542 141.329 78.8708 139.866 77.9177C138.368 76.9401 137.031 75.9963 135.86 75.8423C133.62 75.5472 128.917 76.589 126.155 76.4116C126.064 76.4058 125.976 76.4 125.888 76.3906C122.86 76.0908 120.541 72.4511 120.335 72.5771C120.192 72.6634 120.055 72.7498 119.857 72.7544C119.771 72.7568 119.672 72.7439 119.555 72.7089C119.29 72.6308 119.289 72.0907 119.321 71.7885C119.352 71.4852 119.587 71.0022 120.228 71.0547C120.711 71.0944 120.743 71.2939 121.131 71.6602C122.082 72.5596 123.422 73.6375 125.043 74.1811C125.409 74.3036 125.79 74.3993 126.185 74.46C128.139 74.7574 132.503 72.5981 135.639 72.8653C135.929 72.8886 136.208 72.9341 136.474 73.0029C139.617 73.8277 140.461 76.7138 145.01 77.6389C149.558 78.5628 154.566 76.8386 155.907 77.1291C157.248 77.4184 158.053 77.7497 157.997 78.2828L157.995 78.2816Z" fill="#F4AD00"/>
<path d="M103.497 69.4616C104.145 66.7271 107.274 64.4955 108.327 63.0967C108.917 62.3128 112.4 62.8494 112.055 63.5762C111.71 64.303 109.932 62.7841 109.097 64.7241C108.783 65.4544 110.982 66.1532 110.571 67.1529C110.161 68.1527 107.88 67.7864 107.426 69.7007C106.972 71.6151 103.497 69.4627 103.497 69.4627V69.4616Z" fill="#EFAEA6"/>
<path d="M120.869 107.413C120.828 109.267 120.316 109.863 119.613 110.499C118.35 111.64 115.232 113.996 113.12 111.831C113.001 111.709 112.891 111.579 112.786 111.438C109.951 107.636 111.991 97.1442 112.283 94.5824C112.402 93.5488 112.661 92.1559 112.884 90.7117C113.158 88.9163 112.976 85.5123 111.442 85.2988C109.518 85.0316 98.3472 90.2159 95.4611 87.2225C92.8538 84.5195 102.102 68.3485 103.264 67.0186C103.701 66.5193 108.432 68.8641 108.235 69.851C107.882 71.6207 102.318 80.2114 102.659 80.6652C103.367 81.6089 109.357 75.1426 117.59 71.0888C117.59 71.0888 117.634 71.3909 117.639 72.0734C117.645 72.638 117.622 73.4628 117.527 74.5932C117.472 75.2534 117.391 76.0199 117.276 76.8995C116.55 82.4512 119.713 86.4012 119.071 93.1172C118.795 96.0138 118.851 98.9337 118.969 101.609C119.091 104.348 120.912 105.468 120.87 107.415L120.869 107.413Z" fill="#0069A8"/>
<path d="M61.1352 102.535V112.264C61.1352 113.811 60.0378 115.064 58.6865 115.061L53.3358 115.047L50.6964 115.039L18.7227 114.953C18.2593 114.953 17.8032 114.839 17.4001 114.626L4.60142 107.857C4.12229 107.603 4.11082 106.96 4.58277 106.693L16.3974 99.9957C16.822 99.7561 17.3097 99.6285 17.806 99.6299L46.5334 99.7059L52.8811 99.7217L58.698 99.7375C60.045 99.7418 61.1352 100.993 61.1352 102.535Z" fill="#0069A8"/>
<path d="M61.1221 58.4154V71.9858C61.1221 73.2496 59.8884 74.1462 58.6863 73.7574L52.6255 71.7936L49.7594 70.864L10.573 58.1629C10.1685 58.0223 9.80558 57.7756 9.52011 57.4471L0.438262 47.014C0.0982839 46.6238 0.289078 45.9969 0.783982 45.8807L13.1896 42.9443C13.6357 42.8395 14.1005 42.8639 14.5337 43.0146L47.8042 53.0245L52.8551 54.5437L59.7966 56.6323C60.5842 56.869 61.1221 57.5934 61.1221 58.4154Z" fill="#0069A8"/>
<path opacity="0.26" d="M53.3356 115.046L50.6961 115.039L47.0123 112.544L46.5332 99.7051L52.8809 99.7209L53.3356 115.046Z" fill="#1F1F3B"/>
<path opacity="0.26" d="M52.8553 54.5436C52.8094 62.0231 52.6918 68.5988 52.6258 71.7935L49.7597 70.8639L47.6309 68.6117L47.8044 53.0244L52.8553 54.5436Z" fill="#1F1F3B"/>
<path d="M42.2666 18.1422L42.2666 179.858C42.2666 181.041 43.5624 182 45.161 182H47.3723C48.9708 182 50.2666 181.041 50.2666 179.858L50.2666 18.1422C50.2666 16.9591 48.9708 16 47.3723 16H45.161C43.5624 16 42.2666 16.9591 42.2666 18.1422Z" fill="#5E5E6D"/>
<path d="M88.7937 99.2483C88.7507 99.4964 88.5742 99.7159 88.3045 99.7805L76.2676 102.628C75.8344 102.73 75.3839 102.707 74.9636 102.561L69.5369 100.775L31.7808 88.3446C31.118 88.1266 30.6776 87.5011 30.6948 86.8039L31.0291 73.6008C31.0563 72.5335 32.1121 71.8005 33.1206 72.1476L78.8052 87.8626C79.1983 87.9989 79.5512 88.2384 79.828 88.5583L88.6388 98.6802C88.7837 98.8452 88.8296 99.056 88.7937 99.2483Z" fill="#0069A8"/>
<path d="M77.9864 132.731L78.266 121.327C78.3057 119.709 76.2939 118.598 74.3038 119.138L22.2981 133.254C21.755 133.409 21.2642 133.671 20.8745 134.017L8.50777 144.998C8.04406 145.41 8.28222 146.054 8.93899 146.165L25.3979 148.944C25.9879 149.044 26.6104 149.009 27.1896 148.845L75.8807 135.003C77.1167 134.651 77.9611 133.741 77.9846 132.731H77.9864Z" fill="#0069A8"/>
<path d="M91.8473 35.1516L88.8492 36.9017L80.7413 41.637C80.2794 41.8507 79.7587 41.9626 79.2279 41.964L56.207 42.0186L33.4974 42.0716C31.9495 42.0759 30.6943 40.8222 30.6943 39.2758V29.5455C30.6943 28.0034 31.9424 26.7526 33.4845 26.7497L80.278 26.6421C80.8461 26.6407 81.4026 26.7669 81.8889 27.0079L91.8688 33.9882C92.4082 34.255 92.3967 34.8977 91.8473 35.1516Z" fill="#0069A8"/>
<path opacity="0.17" d="M88.8492 36.9014L80.7414 41.6367C80.2795 41.8504 79.7587 41.9623 79.228 41.9637L56.207 42.0182C63.2519 40.4905 75.8669 38.0389 88.8492 36.9014Z" fill="#1F1F3B"/>
<path opacity="0.17" d="M88.7939 99.2471C88.7509 99.4953 88.5744 99.7147 88.3047 99.7793L76.2678 102.627C75.8346 102.729 75.3841 102.706 74.9638 102.559L69.5371 100.773C73.0818 99.4651 79.2831 98.1497 88.7939 99.2471Z" fill="#1F1F3B"/>
<path d="M41.4679 31.815C41.9859 31.815 42.4386 31.92 42.8259 32.13C43.2179 32.3353 43.5189 32.6247 43.7289 32.998C43.9389 33.3713 44.0439 33.7983 44.0439 34.279C44.0439 34.755 43.9366 35.1797 43.7219 35.553C43.5119 35.9263 43.2109 36.2203 42.8189 36.435C42.4316 36.645 41.9812 36.75 41.4679 36.75H39.5149V31.815H41.4679ZM41.3629 35.539C41.7642 35.539 42.0792 35.4293 42.3079 35.21C42.5366 34.9907 42.6509 34.6803 42.6509 34.279C42.6509 33.873 42.5366 33.5603 42.3079 33.341C42.0792 33.117 41.7642 33.005 41.3629 33.005H40.8869V35.539H41.3629ZM45.6554 32.459C45.4127 32.459 45.2167 32.3937 45.0674 32.263C44.9227 32.1277 44.8504 31.9597 44.8504 31.759C44.8504 31.5537 44.9227 31.3833 45.0674 31.248C45.2167 31.1127 45.4127 31.045 45.6554 31.045C45.8934 31.045 46.0847 31.1127 46.2294 31.248C46.3787 31.3833 46.4534 31.5537 46.4534 31.759C46.4534 31.9597 46.3787 32.1277 46.2294 32.263C46.0847 32.3937 45.8934 32.459 45.6554 32.459ZM46.3344 32.823V36.75H44.9624V32.823H46.3344ZM48.7877 33.369C48.895 33.187 49.0467 33.0423 49.2427 32.935C49.4387 32.8277 49.6697 32.774 49.9357 32.774C50.2483 32.774 50.5307 32.8557 50.7827 33.019C51.0393 33.1823 51.24 33.4157 51.3847 33.719C51.534 34.0223 51.6087 34.377 51.6087 34.783C51.6087 35.189 51.534 35.546 51.3847 35.854C51.24 36.1573 51.0393 36.3907 50.7827 36.554C50.5307 36.7173 50.2483 36.799 49.9357 36.799C49.6697 36.799 49.4387 36.7453 49.2427 36.638C49.0513 36.5307 48.8997 36.386 48.7877 36.204V38.626H47.4157V32.823H48.7877V33.369ZM50.2157 34.783C50.2157 34.5263 50.1457 34.328 50.0057 34.188C49.8703 34.0433 49.7023 33.971 49.5017 33.971C49.301 33.971 49.1307 34.0433 48.9907 34.188C48.8553 34.3327 48.7877 34.531 48.7877 34.783C48.7877 35.0397 48.8553 35.2403 48.9907 35.385C49.1307 35.5297 49.301 35.602 49.5017 35.602C49.7023 35.602 49.8703 35.5297 50.0057 35.385C50.1457 35.2357 50.2157 35.035 50.2157 34.783ZM53.8455 31.57V36.75H52.4735V31.57H53.8455ZM56.7538 36.799C56.3618 36.799 56.0095 36.7173 55.6968 36.554C55.3888 36.3907 55.1461 36.1573 54.9688 35.854C54.7915 35.5507 54.7028 35.1937 54.7028 34.783C54.7028 34.377 54.7915 34.0223 54.9688 33.719C55.1508 33.4157 55.3958 33.1823 55.7038 33.019C56.0165 32.8557 56.3688 32.774 56.7608 32.774C57.1528 32.774 57.5028 32.8557 57.8108 33.019C58.1235 33.1823 58.3685 33.4157 58.5458 33.719C58.7278 34.0223 58.8188 34.377 58.8188 34.783C58.8188 35.189 58.7278 35.546 58.5458 35.854C58.3685 36.1573 58.1235 36.3907 57.8108 36.554C57.4981 36.7173 57.1458 36.799 56.7538 36.799ZM56.7538 35.609C56.9451 35.609 57.1038 35.539 57.2298 35.399C57.3605 35.2543 57.4258 35.049 57.4258 34.783C57.4258 34.517 57.3605 34.314 57.2298 34.174C57.1038 34.034 56.9475 33.964 56.7608 33.964C56.5741 33.964 56.4178 34.034 56.2918 34.174C56.1658 34.314 56.1028 34.517 56.1028 34.783C56.1028 35.0537 56.1635 35.259 56.2848 35.399C56.4061 35.539 56.5625 35.609 56.7538 35.609ZM64.808 32.788C65.3027 32.788 65.69 32.9373 65.97 33.236C66.2547 33.5347 66.397 33.943 66.397 34.461V36.75H65.025V34.643C65.025 34.433 64.9667 34.2697 64.85 34.153C64.7333 34.0363 64.5747 33.978 64.374 33.978C64.1733 33.978 64.0147 34.0363 63.898 34.153C63.7813 34.2697 63.723 34.433 63.723 34.643V36.75H62.351V34.643C62.351 34.433 62.2927 34.2697 62.176 34.153C62.064 34.0363 61.9077 33.978 61.707 33.978C61.5017 33.978 61.3407 34.0363 61.224 34.153C61.1073 34.2697 61.049 34.433 61.049 34.643V36.75H59.677V32.823H61.049V33.341C61.1703 33.173 61.3267 33.04 61.518 32.942C61.714 32.8393 61.938 32.788 62.19 32.788C62.4793 32.788 62.736 32.851 62.96 32.977C63.1887 33.103 63.3683 33.2803 63.499 33.509C63.639 33.2943 63.8233 33.1217 64.052 32.991C64.2807 32.8557 64.5327 32.788 64.808 32.788ZM67.2247 34.783C67.2247 34.377 67.297 34.0223 67.4417 33.719C67.591 33.4157 67.7917 33.1823 68.0437 33.019C68.3004 32.8557 68.585 32.774 68.8977 32.774C69.1684 32.774 69.4017 32.8277 69.5977 32.935C69.7937 33.0423 69.9454 33.187 70.0527 33.369V32.823H71.4247V36.75H70.0527V36.204C69.9454 36.386 69.7914 36.5307 69.5907 36.638C69.3947 36.7453 69.1637 36.799 68.8977 36.799C68.585 36.799 68.3004 36.7173 68.0437 36.554C67.7917 36.3907 67.591 36.1573 67.4417 35.854C67.297 35.546 67.2247 35.189 67.2247 34.783ZM70.0527 34.783C70.0527 34.531 69.9827 34.3327 69.8427 34.188C69.7074 34.0433 69.5394 33.971 69.3387 33.971C69.1334 33.971 68.963 34.0433 68.8277 34.188C68.6924 34.328 68.6247 34.5263 68.6247 34.783C68.6247 35.035 68.6924 35.2357 68.8277 35.385C68.963 35.5297 69.1334 35.602 69.3387 35.602C69.5394 35.602 69.7074 35.5297 69.8427 35.385C69.9827 35.2403 70.0527 35.0397 70.0527 34.783Z" fill="white"/>
<path d="M36.6371 82.1367C36.6699 81.6525 36.7946 81.2526 37.0111 80.9371C37.2324 80.6183 37.5278 80.4114 37.8973 80.3165C38.2671 80.2169 38.6829 80.2416 39.1448 80.3905C39.7311 80.5796 40.2129 80.9039 40.5903 81.3634C40.9679 81.8182 41.1954 82.3459 41.2727 82.9465L39.867 82.4932C39.7953 82.2798 39.6872 82.0998 39.5428 81.9533C39.4028 81.8083 39.2352 81.7042 39.0397 81.6412C38.7377 81.5438 38.4879 81.5798 38.2904 81.7493C38.0976 81.9155 37.9884 82.1871 37.9629 82.5643C37.937 82.9461 38.0052 83.2797 38.1674 83.5651C38.3344 83.8473 38.5689 84.0371 38.8709 84.1345C39.0663 84.1975 39.2406 84.2038 39.3938 84.1533C39.5514 84.1042 39.6788 84.0002 39.7758 83.8411L41.1815 84.2944C41.0278 84.8206 40.74 85.1845 40.3179 85.3862C39.8961 85.5832 39.392 85.5871 38.8058 85.3981C38.3439 85.2491 37.9423 85.0126 37.6012 84.6885C37.2604 84.3597 37.0051 83.9753 36.8352 83.5351C36.67 83.0917 36.604 82.6256 36.6371 82.1367ZM45.6704 85.528C45.6632 85.6351 45.6493 85.74 45.6287 85.8428L43.157 85.0457C43.1558 85.2642 43.2005 85.4427 43.2909 85.5813C43.3862 85.7167 43.5115 85.8095 43.6669 85.8596C43.8846 85.9298 44.047 85.8775 44.1541 85.7027L45.5465 86.1517C45.4705 86.4031 45.3408 86.6087 45.1575 86.7685C44.979 86.925 44.7591 87.023 44.4977 87.0624C44.2364 87.1018 43.9525 87.0721 43.646 86.9733C43.2774 86.8544 42.9542 86.6669 42.6766 86.4109C42.4033 86.1562 42.1948 85.8511 42.051 85.4955C41.9116 85.1413 41.8557 84.7593 41.8835 84.3496C41.9112 83.9398 42.0151 83.6118 42.1952 83.3653C42.3756 83.1143 42.6134 82.9531 42.9087 82.8818C43.2084 82.8119 43.5448 82.8371 43.9179 82.9575C44.2866 83.0763 44.6076 83.2608 44.8812 83.5107C45.1547 83.7607 45.3613 84.0605 45.501 84.41C45.6411 84.7549 45.6975 85.1276 45.6704 85.528ZM44.3612 84.7561C44.3725 84.5885 44.328 84.4409 44.2278 84.3134C44.1278 84.1813 43.9979 84.0894 43.838 84.0378C43.6781 83.9863 43.5439 83.9906 43.4354 84.0508C43.3273 84.1063 43.2517 84.2175 43.2086 84.3844L44.3612 84.7561ZM47.8789 84.9913C48.0406 84.8151 48.2302 84.6954 48.4478 84.6324C48.6653 84.5693 48.894 84.5765 49.1339 84.6538L49.035 86.1135L48.6686 85.9953C48.3844 85.9036 48.1695 85.8938 48.0239 85.9658C47.8783 86.0378 47.7958 86.2181 47.7762 86.5068L47.6604 88.2179L46.3546 87.7968L46.6199 83.8788L47.9257 84.2999L47.8789 84.9913ZM51.904 88.3946L51.825 89.5609L51.2587 89.3783C50.3038 89.0704 49.86 88.4205 49.9271 87.4288L50.0146 86.1368L49.5549 85.9885L49.632 84.8501L50.0917 84.9984L50.156 84.0486L51.4684 84.4718L51.4041 85.4216L52.0837 85.6408L52.0066 86.7792L51.327 86.56L51.2381 87.873C51.2309 87.9801 51.2479 88.0641 51.2892 88.125C51.3349 88.1873 51.4132 88.2363 51.5243 88.2722L51.904 88.3946ZM53.6589 85.7777C53.428 85.7032 53.2458 85.5778 53.1125 85.4016C52.984 85.2222 52.9265 85.0324 52.9401 84.8322C52.9539 84.6273 53.0343 84.4796 53.1811 84.389C53.3324 84.2998 53.5235 84.2924 53.7544 84.3669C53.981 84.4399 54.1585 84.5662 54.287 84.7456C54.42 84.9265 54.4796 85.1193 54.4657 85.3242C54.4521 85.5244 54.3697 85.6691 54.2185 85.7583C54.0719 85.8443 53.8854 85.8507 53.6589 85.7777ZM54.2806 86.3492L54.0152 90.2673L52.7095 89.8462L52.9748 85.9281L54.2806 86.3492ZM57.2512 88.4705L56.665 88.2814L56.4767 91.0611L55.1643 90.6378L55.3525 87.8582L54.9461 87.7271L55.0232 86.5887L55.4296 86.7198L55.432 86.6849C55.466 86.182 55.6319 85.843 55.9297 85.6679C56.2322 85.4895 56.6478 85.4855 57.1763 85.656C57.2829 85.6903 57.3649 85.7192 57.4223 85.7424L57.3434 86.9088C57.3081 86.8926 57.2594 86.8746 57.1973 86.8545C57.0551 86.8087 56.9484 86.8099 56.877 86.8583C56.806 86.902 56.761 86.9969 56.742 87.143L57.3283 87.3321L57.2512 88.4705ZM58.7646 87.4242C58.5337 87.3497 58.3515 87.2244 58.2183 87.0482C58.0897 86.8687 58.0322 86.6789 58.0458 86.4787C58.0596 86.2739 58.14 86.1261 58.2868 86.0355C58.4381 85.9463 58.6292 85.9389 58.8602 86.0134C59.0867 86.0865 59.2642 86.2127 59.3927 86.3921C59.5257 86.573 59.5853 86.7658 59.5714 86.9707C59.5578 87.1709 59.4754 87.3156 59.3242 87.4048C59.1777 87.4908 58.9911 87.4972 58.7646 87.4242ZM59.3863 87.9958L59.121 91.9138L57.8152 91.4927L58.0805 87.5747L59.3863 87.9958ZM60.0698 90.2144C60.0972 89.8093 60.2011 89.4813 60.3815 89.2302C60.5619 88.9791 60.7997 88.8179 61.095 88.7466C61.3947 88.6768 61.7289 88.7013 62.0976 88.8202C62.5728 88.9734 62.9632 89.2397 63.2689 89.6189C63.5748 89.9935 63.7578 90.4403 63.818 90.9593L62.4323 90.5124C62.3697 90.2305 62.2229 90.0524 61.9919 89.9779C61.8276 89.9249 61.6917 89.9548 61.5842 90.0676C61.4815 90.1772 61.4208 90.3694 61.4022 90.6441C61.3836 90.9188 61.4161 91.1434 61.4996 91.3178C61.5875 91.4936 61.7136 91.608 61.878 91.661C62.1134 91.737 62.2775 91.659 62.3703 91.4273L63.7561 91.8742C63.63 92.3283 63.3956 92.6405 63.0527 92.8106C62.7099 92.9808 62.3009 92.9892 61.8256 92.836C61.457 92.7171 61.1339 92.5296 60.8562 92.2736C60.583 92.0189 60.3767 91.7145 60.2373 91.3603C60.0979 91.0061 60.042 90.6241 60.0698 90.2144ZM64.402 91.6115C64.4295 91.2064 64.5223 90.8748 64.6805 90.6165C64.8431 90.3597 65.0498 90.1885 65.3007 90.1029C65.556 90.0187 65.8325 90.0246 66.13 90.1206C66.3876 90.2037 66.6061 90.3288 66.7854 90.4961C66.9647 90.6633 67.0992 90.8542 67.1891 91.0687L67.226 90.524L68.5317 90.9451L68.2664 94.8631L66.9607 94.442L66.9975 93.8972C66.8831 94.0459 66.7268 94.1429 66.5285 94.1884C66.3347 94.2354 66.1113 94.218 65.8581 94.1364C65.5605 94.0404 65.2951 93.8716 65.0619 93.6298C64.8331 93.3895 64.6578 93.0951 64.5362 92.7467C64.4193 92.395 64.3746 92.0166 64.402 91.6115ZM67.0936 92.4795C67.1106 92.2281 67.0574 92.0087 66.9339 91.8214C66.8149 91.6355 66.6599 91.5118 66.4689 91.4502C66.2734 91.3872 66.1065 91.4071 65.9679 91.5099C65.8296 91.608 65.7518 91.7851 65.7345 92.0412C65.7174 92.2926 65.7683 92.5136 65.887 92.7041C66.006 92.89 66.1633 93.0144 66.3587 93.0775C66.5497 93.1391 66.7144 93.1185 66.853 93.0157C66.996 92.9143 67.0762 92.7356 67.0936 92.4795ZM71.5802 94.7399L71.5012 95.9063L70.9349 95.7236C69.98 95.4157 69.5361 94.7659 69.6033 93.7741L69.6908 92.4821L69.2311 92.3338L69.3082 91.1955L69.7679 91.3437L69.8322 90.3939L71.1446 90.8171L71.0803 91.7669L71.7599 91.9861L71.6828 93.1245L71.0032 92.9053L70.9143 94.2183C70.9071 94.3254 70.9241 94.4094 70.9653 94.4703C71.011 94.5326 71.0894 94.5817 71.2004 94.6175L71.5802 94.7399ZM76.0923 95.3386C76.085 95.4457 76.0711 95.5507 76.0505 95.6535L73.5789 94.8564C73.5777 95.0749 73.6223 95.2534 73.7128 95.392C73.808 95.5274 73.9334 95.6201 74.0888 95.6702C74.3064 95.7404 74.4688 95.6881 74.576 95.5133L75.9684 95.9624C75.8923 96.2138 75.7627 96.4194 75.5794 96.5791C75.4009 96.7357 75.1809 96.8336 74.9196 96.873C74.6582 96.9125 74.3743 96.8828 74.0679 96.7839C73.6992 96.665 73.3761 96.4776 73.0984 96.2215C72.8252 95.9669 72.6167 95.6618 72.4728 95.3061C72.3334 94.9519 72.2776 94.5699 72.3053 94.1602C72.3331 93.7505 72.437 93.4224 72.6171 93.176C72.7975 92.9249 73.0353 92.7637 73.3306 92.6924C73.6303 92.6226 73.9667 92.6478 74.3398 92.7681C74.7084 92.887 75.0295 93.0714 75.303 93.3214C75.5766 93.5714 75.7832 93.8711 75.9229 94.2207C76.0629 94.5656 76.1194 94.9382 76.0923 95.3386ZM74.783 94.5667C74.7944 94.3991 74.7499 94.2516 74.6496 94.1241C74.5496 93.9919 74.4197 93.9001 74.2598 93.8485C74.0999 93.7969 73.9658 93.8012 73.8573 93.8614C73.7492 93.9169 73.6735 94.0281 73.6305 94.195L74.783 94.5667Z" fill="white"/>
<path d="M28.5871 142.489C28.2405 142.584 27.9326 142.61 27.6635 142.569C27.3945 142.527 27.1822 142.415 27.0266 142.232C26.8755 142.047 26.8031 141.796 26.8096 141.476L28.0387 141.141C28.048 141.318 28.1021 141.442 28.2009 141.511C28.3 141.576 28.4328 141.586 28.5994 141.541C28.7705 141.494 28.9075 141.417 29.0103 141.311C29.1134 141.2 29.1684 141.073 29.1754 140.928C29.1812 140.807 29.1455 140.718 29.0683 140.661C28.9955 140.602 28.9019 140.563 28.7873 140.544C28.6772 140.523 28.5179 140.509 28.3094 140.502C28.008 140.487 27.7628 140.458 27.5739 140.412C27.385 140.367 27.2254 140.268 27.095 140.115C26.9646 139.962 26.9068 139.732 26.9216 139.424C26.9435 138.967 27.1205 138.567 27.4525 138.224C27.7847 137.875 28.2074 137.631 28.7207 137.492C29.243 137.349 29.6577 137.365 29.9648 137.539C30.2722 137.708 30.426 138.02 30.4263 138.476L29.1769 138.816C29.1755 138.66 29.1252 138.552 29.0259 138.492C28.9268 138.427 28.7962 138.416 28.6342 138.46C28.4946 138.498 28.3801 138.569 28.2908 138.671C28.2016 138.769 28.1536 138.89 28.1467 139.035C28.139 139.193 28.2051 139.297 28.345 139.347C28.4848 139.396 28.7053 139.43 29.0065 139.449C29.3075 139.473 29.5502 139.508 29.7346 139.554C29.9235 139.599 30.0833 139.696 30.2139 139.845C30.3445 139.993 30.4028 140.214 30.3886 140.508C30.3752 140.787 30.2932 141.06 30.1427 141.327C29.9966 141.592 29.7898 141.828 29.5221 142.034C29.2545 142.241 28.9428 142.392 28.5871 142.489ZM33.8246 137.121C34.2568 137.004 34.5963 137.058 34.8431 137.285C35.0901 137.508 35.2012 137.878 35.1763 138.395L35.0668 140.675L33.9187 140.988L34.0205 138.869C34.0331 138.608 33.9775 138.423 33.8539 138.314C33.7303 138.205 33.5582 138.181 33.3375 138.241C33.1169 138.301 32.9379 138.421 32.8003 138.601C32.6628 138.781 32.5878 139.002 32.5752 139.263L32.4734 141.382L31.3186 141.696L31.5673 136.522L32.7221 136.208L32.6357 138.004C32.7611 137.8 32.9275 137.619 33.1351 137.461C33.3426 137.303 33.5724 137.19 33.8246 137.121ZM37.8715 139.965C37.5023 140.066 37.173 140.075 36.8837 139.993C36.5989 139.91 36.3782 139.74 36.2217 139.483C36.0697 139.226 36.0034 138.894 36.0229 138.489C36.0421 138.088 36.1446 137.713 36.3303 137.363C36.5161 137.009 36.7616 136.71 37.0666 136.465C37.3716 136.221 37.7087 136.049 38.0779 135.948C38.4471 135.848 38.7763 135.838 39.0656 135.92C39.3549 136.003 39.5778 136.174 39.7341 136.435C39.8906 136.692 39.9592 137.02 39.94 137.421C39.9207 137.822 39.8159 138.2 39.6255 138.556C39.4398 138.905 39.1922 139.203 38.8827 139.448C38.5777 139.692 38.2407 139.865 37.8715 139.965ZM37.9212 138.93C38.1418 138.87 38.3327 138.735 38.4938 138.526C38.6595 138.315 38.7498 138.054 38.7648 137.741C38.7798 137.429 38.7148 137.21 38.5698 137.084C38.4293 136.956 38.2487 136.923 38.0281 136.983C37.803 137.044 37.6121 137.179 37.4555 137.388C37.2991 137.591 37.2132 137.851 37.198 138.168C37.183 138.481 37.2435 138.701 37.3795 138.83C37.52 138.957 37.7006 138.991 37.9212 138.93ZM42.0594 135.56C42.2048 135.309 42.3817 135.095 42.5902 134.918C42.7988 134.737 43.027 134.613 43.2746 134.545L43.2138 135.811L42.8963 135.897C42.6082 135.976 42.3889 136.1 42.2386 136.27C42.0885 136.435 42.0057 136.679 41.9902 137L41.9032 138.811L40.7483 139.126L40.9358 135.224L42.0907 134.91L42.0594 135.56ZM46.0756 136.673L46.0268 137.687L45.4393 137.847C45.0206 137.961 44.6992 137.945 44.4751 137.799C44.2513 137.649 44.1509 137.333 44.174 136.853L44.2486 135.301L43.7894 135.426L43.8371 134.433L44.2963 134.308L44.3421 133.357L45.4969 133.043L45.4512 133.993L46.2076 133.787L46.1599 134.78L45.4035 134.986L45.3282 136.553C45.3226 136.669 45.3456 136.746 45.3971 136.782C45.4487 136.819 45.5375 136.82 45.6636 136.785L46.0756 136.673ZM48.5443 135.075C48.5638 134.67 48.6596 134.294 48.8318 133.948C49.0084 133.601 49.2425 133.307 49.534 133.067C49.83 132.825 50.1626 132.654 50.5318 132.553C51.0045 132.424 51.3923 132.445 51.6952 132.616C52.0025 132.785 52.1945 133.089 52.2711 133.528L51.042 133.863C50.9528 133.593 50.7596 133.499 50.4624 133.58C50.2508 133.637 50.0778 133.77 49.9435 133.976C49.8094 134.179 49.7347 134.438 49.7194 134.755C49.7042 135.072 49.7555 135.3 49.8732 135.438C49.9912 135.571 50.1561 135.609 50.3677 135.551C50.6648 135.47 50.8723 135.267 50.9902 134.94L52.2194 134.605C52.0984 135.089 51.8718 135.505 51.5396 135.853C51.2073 136.201 50.8071 136.439 50.3389 136.567C49.9697 136.667 49.6449 136.675 49.3646 136.591C49.0888 136.505 48.8771 136.333 48.7296 136.074C48.5866 135.814 48.5248 135.481 48.5443 135.075ZM54.7714 135.358C54.4022 135.459 54.0729 135.468 53.7836 135.386C53.4988 135.303 53.2782 135.133 53.1216 134.877C52.9696 134.619 52.9033 134.287 52.9228 133.882C52.9421 133.481 53.0446 133.106 53.2302 132.756C53.4161 132.402 53.6615 132.103 53.9665 131.859C54.2715 131.614 54.6086 131.442 54.9778 131.341C55.347 131.241 55.6763 131.231 55.9656 131.314C56.2549 131.396 56.4777 131.567 56.634 131.828C56.7905 132.085 56.8592 132.413 56.8399 132.814C56.8206 133.215 56.7158 133.593 56.5254 133.949C56.3398 134.298 56.0922 134.596 55.7827 134.841C55.4777 135.085 55.1406 135.258 54.7714 135.358ZM54.8211 134.324C55.0418 134.263 55.2326 134.129 55.3938 133.919C55.5594 133.708 55.6498 133.447 55.6648 133.134C55.6798 132.822 55.6148 132.603 55.4698 132.477C55.3293 132.35 55.1487 132.316 54.9281 132.376C54.703 132.438 54.5121 132.572 54.3554 132.781C54.199 132.984 54.1132 133.245 54.0979 133.562C54.0829 133.874 54.1434 134.094 54.2794 134.223C54.42 134.35 54.6005 134.384 54.8211 134.324ZM61.557 129.603L61.3695 133.505L60.2146 133.819L60.2401 133.288C60.1148 133.492 59.9482 133.676 59.7405 133.838C59.5374 133.995 59.3144 134.106 59.0712 134.172C58.7831 134.251 58.5318 134.255 58.3175 134.185C58.1034 134.11 57.9416 133.963 57.8321 133.744C57.7226 133.526 57.6761 133.246 57.6924 132.906L57.802 130.627L58.9501 130.314L58.8483 132.432C58.8357 132.693 58.8913 132.878 59.0149 132.987C59.1385 133.096 59.3106 133.12 59.5313 133.06C59.7564 132.999 59.9377 132.878 60.0752 132.698C60.2127 132.518 60.2878 132.297 60.3003 132.036L60.4021 129.918L61.557 129.603ZM63.7996 129.634C63.9449 129.382 64.1218 129.168 64.3303 128.992C64.5389 128.811 64.7671 128.687 65.0147 128.619L64.9539 129.885L64.6365 129.971C64.3483 130.05 64.1291 130.174 63.9787 130.344C63.8286 130.509 63.7458 130.752 63.7303 131.074L63.6433 132.885L62.4884 133.2L62.676 129.298L63.8308 128.983L63.7996 129.634ZM67.197 131.971C66.8683 132.061 66.5784 132.082 66.3274 132.036C66.0764 131.989 65.8814 131.886 65.7424 131.726C65.6037 131.561 65.5314 131.356 65.5255 131.109L66.6669 130.798C66.6739 130.929 66.7294 131.022 66.8334 131.077C66.9374 131.131 67.0682 131.137 67.2258 131.094C67.3699 131.055 67.4815 130.997 67.5608 130.92C67.6447 130.837 67.6889 130.749 67.6934 130.656C67.6988 130.544 67.6464 130.478 67.5364 130.457C67.4265 130.432 67.247 130.421 66.9981 130.425C66.731 130.433 66.5092 130.427 66.3324 130.406C66.1559 130.38 66.0061 130.309 65.8829 130.19C65.76 130.067 65.7049 129.873 65.7176 129.607C65.7284 129.384 65.7967 129.165 65.9225 128.951C66.053 128.732 66.2356 128.537 66.4704 128.367C66.7097 128.196 66.9892 128.067 67.3088 127.98C67.7816 127.851 68.1472 127.871 68.4057 128.04C68.6687 128.207 68.8108 128.486 68.8321 128.876L67.765 129.167C67.7535 129.036 67.7001 128.945 67.6049 128.893C67.5141 128.839 67.39 128.834 67.2324 128.877C67.0973 128.914 66.9924 128.97 66.9177 129.046C66.8432 129.117 66.8037 129.199 66.7992 129.292C66.7938 129.404 66.8461 129.472 66.956 129.498C67.0703 129.522 67.2477 129.528 67.4882 129.518C67.7637 129.517 67.9875 129.529 68.1595 129.556C68.3318 129.578 68.4792 129.653 68.602 129.78C68.7294 129.902 68.7889 130.097 68.7804 130.367C68.7694 130.595 68.6965 130.817 68.5617 131.033C68.4317 131.244 68.2471 131.432 68.008 131.598C67.7735 131.763 67.5031 131.888 67.197 131.971ZM73.3711 128.246C73.3657 128.358 73.3534 128.476 73.3341 128.601L70.7204 129.313C70.7268 129.551 70.7921 129.717 70.9164 129.812C71.0454 129.901 71.2067 129.919 71.4003 129.866C71.6885 129.788 71.8949 129.607 72.0196 129.325L73.2487 128.99C73.1734 129.263 73.0475 129.525 72.871 129.776C72.6991 130.025 72.4865 130.242 72.2332 130.426C71.98 130.61 71.7003 130.744 71.3942 130.827C71.025 130.928 70.7002 130.936 70.4199 130.851C70.1396 130.767 69.9257 130.595 69.7781 130.336C69.6306 130.077 69.5666 129.745 69.5861 129.34C69.6056 128.934 69.7014 128.558 69.8736 128.212C70.0502 127.865 70.2865 127.571 70.5825 127.329C70.8785 127.087 71.2134 126.916 71.5871 126.814C71.9518 126.714 72.2721 126.705 72.5481 126.786C72.8242 126.868 73.0339 127.033 73.1774 127.284C73.3254 127.534 73.3899 127.854 73.3711 128.246ZM72.2044 128.253C72.2142 128.048 72.1545 127.903 72.0253 127.819C71.896 127.735 71.7301 127.72 71.5275 127.775C71.3339 127.828 71.1668 127.931 71.0261 128.085C70.8899 128.237 70.8009 128.424 70.7591 128.647L72.2044 128.253Z" fill="white"/>
</svg>
