<svg width="30" height="24" viewBox="0 0 30 24" fill="none" xmlns="http://www.w3.org/2000/svg">
<path d="M16.3125 21.75C16.875 22.6406 17.625 23.4375 18.5156 24H3.75C1.64062 24 0 22.3594 0 20.25V3.75C0 1.6875 1.64062 0 3.75 0H18.75C19.9688 0 21 1.03125 21 2.25V9.32812C20.1562 9.5625 19.4062 9.9375 18.75 10.3594V2.25H3.75C2.90625 2.25 2.25 2.95312 2.25 3.75V16.8281C2.67188 16.6406 3.1875 16.5 3.75 16.5H15C15 16.7812 15 17.0156 15 17.25C15 17.7656 15.0469 18.2812 15.1406 18.75H3.75C2.90625 18.75 2.25 19.4531 2.25 20.25C2.25 21.0938 2.90625 21.75 3.75 21.75H16.3125ZM23.25 10.5C26.9531 10.5 30 13.5469 30 17.25C30 21 26.9531 24 23.25 24C19.5 24 16.5 20.9062 16.5 17.25C16.5 13.5469 19.5 10.5 23.25 10.5ZM26.3906 17.4375C26.5312 17.2969 26.625 17.1094 26.625 16.875C26.625 16.6875 26.5312 16.5 26.3906 16.3594L23.7656 13.7344C23.4844 13.4531 22.9688 13.4531 22.6875 13.7344L20.0625 16.3594C19.7812 16.6406 19.7812 17.1562 20.0625 17.4375C20.3438 17.7188 20.8594 17.7188 21.1406 17.4375L22.5 16.0781V20.25C22.5 20.6719 22.8281 21 23.25 21C23.625 21 24 20.6719 24 20.25V16.0781L25.3125 17.4375C25.5938 17.7188 26.1094 17.7188 26.3906 17.4375Z" fill="#ED1C24"/>
</svg>
