<svg width="24" height="23" viewBox="0 0 24 23" fill="none" xmlns="http://www.w3.org/2000/svg">
<path d="M21 4.5C22.6406 4.5 24 5.85938 24 7.5V19.5C24 21.1875 22.6406 22.5 21 22.5H3C1.3125 22.5 0 21.1875 0 19.5V7.5C0 5.85938 1.3125 4.5 3 4.5H6V3C6 1.35938 7.3125 0 9 0H15C16.6406 0 18 1.35938 18 3V4.5H21ZM9 2.25C8.57812 2.25 8.25 2.625 8.25 3V4.5H15.75V3C15.75 2.625 15.375 2.25 15 2.25H9ZM3 6.75C2.57812 6.75 2.25 7.125 2.25 7.5V12H21.75V7.5C21.75 7.125 21.375 6.75 21 6.75H3ZM21 20.25C21.375 20.25 21.75 19.9219 21.75 19.5V14.25H15V15C15 15.8438 14.2969 16.5 13.5 16.5H10.5C9.65625 16.5 9 15.8438 9 15V14.25H2.25V19.5C2.25 19.9219 2.57812 20.25 3 20.25H21Z" fill="#ED1C24"/>
</svg>
