<svg width="64" height="64" viewBox="0 0 64 64" fill="none" xmlns="http://www.w3.org/2000/svg">
<rect width="64" height="64" rx="12" fill="#6A288A" fill-opacity="0.2"/>
<path d="M23 20C23.5156 20 23.9844 20.4219 24.0781 20.9375L24.1719 21.5H43.8594C44.8438 21.5 45.5938 22.4844 45.3125 23.4219L42.7812 32.4219C42.5938 33.0781 42.0312 33.5 41.3281 33.5H26.4688L26.8906 35.75H41.375C41.9844 35.75 42.5 36.2656 42.5 36.875C42.5 37.5312 41.9844 38 41.375 38H25.9531C25.4375 38 24.9688 37.625 24.875 37.1094L22.0625 22.25H19.625C18.9688 22.25 18.5 21.7812 18.5 21.125C18.5 20.5156 18.9688 20 19.625 20H23ZM40.7656 31.25L42.875 23.75H24.6406L26.0469 31.25H40.7656ZM24.5 41.75C24.5 40.5312 25.4844 39.5 26.75 39.5C27.9688 39.5 29 40.5312 29 41.75C29 43.0156 27.9688 44 26.75 44C25.4844 44 24.5 43.0156 24.5 41.75ZM42.5 41.75C42.5 43.0156 41.4688 44 40.25 44C38.9844 44 38 43.0156 38 41.75C38 40.5312 38.9844 39.5 40.25 39.5C41.4688 39.5 42.5 40.5312 42.5 41.75Z" fill="#6A288A"/>
</svg>
