<svg width="64" height="64" viewBox="0 0 64 64" fill="none" xmlns="http://www.w3.org/2000/svg">
<rect width="64" height="64" rx="12" fill="#B10F1F" fill-opacity="0.2"/>
<path d="M31.9531 39.9219L36.7344 35H39.875L33.0312 42.0781C32.7031 42.3594 32.3281 42.5 31.9531 42.5C31.5781 42.5 31.2031 42.3594 30.875 42.0781L24.0781 35H27.2188L31.9531 39.9219ZM41.7031 22.9531C44.6094 25.4844 44.75 29.9844 42.125 32.7031L41.3281 33.5469H35.9844L34.9531 31.4375L32.6094 36.125C32.3281 36.6875 31.4844 36.6406 31.25 36.0781L28.5781 30.1719L27.1719 33.5469H22.625L21.8281 32.7031C19.2031 29.9844 19.3438 25.4844 22.25 22.9531C23.375 21.9688 24.8281 21.5 26.2344 21.5C27.9688 21.5 29.75 22.25 31.0625 23.5625L32 24.5469L32.8906 23.5625C34.2031 22.25 35.9844 21.5 37.7188 21.5C39.125 21.5 40.5781 21.9688 41.7031 22.9531ZM40.4844 31.1562C42.0312 29.5625 42.3594 26.5156 40.2031 24.6875C38.3281 23.0469 35.75 23.8906 34.5312 25.1562L32 27.7812L29.4219 25.1562C28.2031 23.8438 25.625 23.0469 23.75 24.6875C21.5938 26.5156 21.9688 29.5625 23.4688 31.1562L24.3125 32.0469H26.1875L27.875 27.9688C28.1094 27.3594 28.9531 27.3594 29.2344 27.9688L31.9531 34.0156L34.25 29.4219C34.5312 28.9062 35.3281 28.9062 35.6094 29.4219L36.875 32.0469H39.6406L40.4844 31.1562Z" fill="#B10F1F"/>
</svg>
