<svg width="64" height="64" viewBox="0 0 64 64" fill="none" xmlns="http://www.w3.org/2000/svg">
<rect width="64" height="64" rx="12" fill="#F9F1D0"/>
<path d="M27.9219 27.7812C28.2969 26.7031 29.2812 26 30.4062 26H33.125C34.7656 26 36.125 27.3594 36.125 29C36.125 30.0312 35.5156 31.0156 34.625 31.5312L33.0781 32.4219C33.0781 33.0312 32.6094 33.5 32 33.5C31.3438 33.5 30.875 33.0312 30.875 32.375V31.7656C30.875 31.3438 31.0625 30.9688 31.4375 30.7812L33.5 29.6094C33.7344 29.4688 33.875 29.2344 33.875 29C33.875 28.5781 33.5469 28.25 33.125 28.25H30.4062C30.2656 28.25 30.125 28.3906 30.0781 28.5312L30.0312 28.5781C29.8438 29.1875 29.1875 29.4688 28.5781 29.2812C28.0156 29.0469 27.6875 28.3906 27.9219 27.8281V27.7812ZM33.5 36.5C33.5 37.3438 32.7969 38 32 38C31.1562 38 30.5 37.3438 30.5 36.5C30.5 35.7031 31.1562 35 32 35C32.7969 35 33.5 35.7031 33.5 36.5ZM35.75 23H38.75C39.9688 23 41 24.0312 41 25.25V28.25L43.1094 30.4062C44 31.2969 44 32.7031 43.1094 33.5938L41 35.75V38.75C41 40.0156 39.9688 41 38.75 41H35.7031L33.5469 43.1562C32.7031 44 31.25 44 30.4062 43.1562L28.25 41H25.25C23.9844 41 23 40.0156 23 38.75V35.75L20.8438 33.5938C19.9531 32.7031 19.9531 31.2969 20.8438 30.4062L23 28.25V25.25C23 24.0312 23.9844 23 25.25 23H28.2031L30.4062 20.8438C31.25 20 32.7031 20 33.5469 20.8438L35.75 23ZM25.25 25.25V28.25C25.25 28.8594 24.9688 29.4219 24.5469 29.8438L22.4375 32L24.5469 34.1562C24.9688 34.5781 25.25 35.1406 25.25 35.75V38.75H28.25C28.8594 38.75 29.4219 39.0312 29.8438 39.4531L32 41.5625L34.1094 39.4531C34.5312 39.0312 35.0938 38.75 35.7031 38.75H38.75V35.75C38.75 35.1406 38.9844 34.5781 39.4062 34.1562L41.5156 32L39.4062 29.8438C38.9844 29.4219 38.75 28.8594 38.75 28.25V25.25H35.75C35.1406 25.25 34.5781 25.0156 34.1562 24.5938L31.9531 22.4375L29.7969 24.5938C29.375 25.0156 28.8125 25.25 28.2031 25.25H25.25Z" fill="#AC851A"/>
</svg>
