<svg width="64" height="64" viewBox="0 0 64 64" fill="none" xmlns="http://www.w3.org/2000/svg">
<rect width="64" height="64" rx="12" fill="#629C51" fill-opacity="0.2"/>
<path d="M32.6094 20.1406L41.4219 23.8906C42.4531 24.3594 43.25 25.3438 43.25 26.5625C43.2031 31.25 41.2812 39.7344 33.2188 43.625C32.4219 44 31.5312 44 30.7344 43.625C22.6719 39.7344 20.75 31.25 20.75 26.5625C20.7031 25.3438 21.5 24.3594 22.5312 23.8906L31.3438 20.1406C31.5312 20.0469 31.7656 20 32 20C32.1875 20 32.4219 20.0469 32.6094 20.1406ZM26.75 30.4062C26.75 31.1562 27.0312 31.9062 27.5938 32.4219L31.4375 36.3125C31.7656 36.5938 32.2344 36.5938 32.5156 36.3125L36.4062 32.4219C36.9219 31.9062 37.25 31.1562 37.25 30.4062C37.25 28.8125 35.9375 27.5 34.3438 27.5C33.5938 27.5 32.8438 27.8281 32.3281 28.3438L32 28.7188L31.625 28.3438C31.1094 27.8281 30.3594 27.5 29.6094 27.5C28.0156 27.5 26.75 28.8125 26.75 30.4062Z" fill="#629C51"/>
</svg>
