<svg width="18" height="19" viewBox="0 0 18 19" fill="none" xmlns="http://www.w3.org/2000/svg">
<path d="M6.60938 5.45312C6.85547 5.27734 7.20703 5.27734 7.45312 5.45312L12.5156 8.54688C12.7617 8.6875 12.9375 8.96875 12.9375 9.25C12.9375 9.56641 12.7617 9.84766 12.5156 9.98828L7.45312 13.082C7.20703 13.2227 6.85547 13.2578 6.60938 13.082C6.32812 12.9414 6.1875 12.6602 6.1875 12.3438V6.15625C6.1875 5.875 6.32812 5.59375 6.60938 5.45312ZM18 9.25C18 14.2422 13.957 18.25 9 18.25C4.00781 18.25 0 14.2422 0 9.25C0 4.29297 4.00781 0.25 9 0.25C13.957 0.25 18 4.29297 18 9.25ZM9 1.9375C4.95703 1.9375 1.6875 5.24219 1.6875 9.25C1.6875 13.293 4.95703 16.5625 9 16.5625C13.0078 16.5625 16.3125 13.293 16.3125 9.25C16.3125 5.24219 13.0078 1.9375 9 1.9375Z" fill="#0B68D4"/>
</svg>
