<svg width="64" height="64" viewBox="0 0 64 64" fill="none" xmlns="http://www.w3.org/2000/svg">
<rect width="64" height="64" rx="12" fill="#E0F0FF"/>
<path d="M30.4531 24.5469V23.75H30.4062C30.7344 23.1875 31.1094 22.6719 31.625 22.2031C33.4062 20.375 35.9844 19.6719 38.4688 20.2812C39.0312 20.4219 39.5 20.8438 39.6406 21.4531C39.8281 22.0156 39.6406 22.625 39.2656 23L36.5 25.7188L36.7344 27.2656L38.2812 27.5L41 24.7344C41.375 24.3594 41.9844 24.1719 42.5938 24.3125C43.1562 24.5 43.5781 24.9219 43.7188 25.5312C44.3281 27.9688 43.5781 30.6406 41.7969 32.375C41.375 32.7969 40.9062 33.1719 40.4375 33.4531L38.9844 32C38.8906 31.9531 38.7969 31.8594 38.75 31.8125C39.2656 31.5781 39.7812 31.25 40.2031 30.7812C41.1875 29.8438 41.7031 28.5312 41.7031 27.2188L38.9844 29.8906L34.7656 29.1875L34.0625 24.9688L36.7812 22.2969H36.7344C35.4219 22.2969 34.1562 22.7656 33.2188 23.75C32.0469 24.9219 31.5312 26.5625 31.8594 28.2031L30.4531 26.7969V24.5469ZM24.9688 41.2812L30.5 35.6562C30.5 36.5469 30.7812 37.3906 31.25 38.1406L26.5156 42.8281C25.7656 43.5781 24.7812 43.9531 23.7969 43.9531C22.8125 43.9531 21.8281 43.5781 21.125 42.8281C20.375 42.125 19.9531 41.0938 20 40.1094C20 39.1719 20.375 38.1875 21.125 37.4375L27.4062 31.1562L29 32.75L22.6719 39.125C22.3906 39.4062 22.2031 39.7812 22.2031 40.2031C22.2031 40.625 22.3906 41 22.6719 41.2812C23.2812 41.8906 24.3594 41.8906 24.9688 41.2812ZM43.4844 38.5625C44.1406 39.2656 44.1406 40.3438 43.4844 40.9531L41 43.4375C40.2969 44.0938 39.2188 44.0938 38.5156 43.4375L33.0312 37.9531C31.9531 36.875 31.7656 35.2344 32.375 33.9219L27.4062 28.9531H24.5L20 23L23 20L28.9531 24.5V27.4062L33.9688 32.4219C35.2812 31.7656 36.875 32 38 33.0781L43.4844 38.5625Z" fill="#023E83"/>
</svg>
