<svg width="60" height="48" viewBox="0 0 60 48" fill="none" xmlns="http://www.w3.org/2000/svg">
<path d="M25.6875 28.5C34.6875 28.5 42 35.8125 42 44.8125C42 46.5938 40.5 48 38.7188 48H3.1875C1.40625 48 0 46.5938 0 44.8125C0 35.8125 7.21875 28.5 16.2188 28.5H25.6875ZM38.7188 45C38.8125 45 39 44.9062 39 44.8125C39 37.5 33 31.5 25.6875 31.5H16.2188C8.90625 31.5 3 37.5 3 44.8125C3 44.9062 3.09375 45 3.1875 45H38.7188ZM21 24C14.3438 24 9 18.6562 9 12C9 5.4375 14.3438 0 21 0C27.5625 0 33 5.4375 33 12C33 18.6562 27.5625 24 21 24ZM21 3C16.0312 3 12 7.125 12 12C12 16.9688 16.0312 21 21 21C25.875 21 30 16.9688 30 12C30 7.125 25.875 3 21 3ZM35.1562 22.5938C34.5 22.2188 34.2188 21.2812 34.6875 20.625C35.0625 19.875 36 19.5938 36.75 20.0625C37.875 20.7188 39.0938 21 40.5 21C44.625 21 48 17.7188 48 13.5C48 9.375 44.625 6 40.5 6C39.5625 6 38.7188 6.1875 37.9688 6.46875C37.2188 6.75 36.2812 6.375 36 5.53125C35.7188 4.78125 36.1875 3.9375 36.9375 3.65625C38.0625 3.28125 39.2812 3 40.5 3C46.2188 3 51 7.78125 51 13.5C51 19.3125 46.2188 24 40.5 24C38.625 24 36.75 23.5312 35.1562 22.5938ZM45.9375 30C53.7188 30 60 36.2812 60 44.0625C60 46.2188 58.125 48 55.9688 48H46.5C45.6562 48 45 47.3438 45 46.5C45 45.75 45.6562 45 46.5 45H55.9688C56.5312 45 57 44.625 57 44.0625C57 37.9688 52.0312 33 45.9375 33H42C41.1562 33 40.5 32.3438 40.5 31.5C40.5 30.75 41.1562 30 42 30H45.9375Z" fill="#78B6FD"/>
</svg>
