<svg width="64" height="64" viewBox="0 0 64 64" fill="none" xmlns="http://www.w3.org/2000/svg">
<rect width="64" height="64" rx="12" fill="#29ACA6" fill-opacity="0.2"/>
<path d="M28.1562 41.75C28.4375 42.6406 28.9062 43.3906 29.5625 44H21.5C21.0781 44 20.75 43.8594 20.4688 43.625C20.1875 43.3438 20 43.0156 20 42.6406L18.5469 28.25H18.125C17.7969 28.25 17.5156 28.1562 17.3281 27.9219C17.0938 27.7344 17 27.4531 17 27.125C17 26.8438 17.0938 26.5625 17.3281 26.3281C17.5156 26.1406 17.7969 26 18.125 26H24.3594L25.4844 21.4531C25.5781 21.0312 25.8125 20.6562 26.1406 20.4219C26.4688 20.1406 26.8906 20 27.3125 20H29.375C29.6562 20 29.9375 20.1406 30.125 20.375C30.3594 20.5625 30.5 20.8438 30.5 21.125C30.5 21.4531 30.3594 21.7344 30.125 21.9219C29.9375 22.1562 29.6562 22.25 29.375 22.25H27.5938L26.6562 26H32.375C32.6562 26 32.9375 26.1406 33.1719 26.3281C33.3594 26.5625 33.5 26.8438 33.5 27.125C33.5 27.4531 33.3594 27.7344 33.1719 27.9219C32.9375 28.1562 32.6562 28.25 32.375 28.25H20.7969L22.1562 41.75H28.1562ZM41.1875 32.9375C41.0469 32.7969 41 32.6094 41 32.375C41 32.2344 41 32.0938 41.0938 32C41.1875 31.8594 41.2812 31.7656 41.4219 31.7188C41.5625 31.625 41.75 31.625 41.8906 31.6719C42.0312 31.6719 42.1719 31.7656 42.2656 31.8594C42.3594 31.9531 42.4531 32.0938 42.4531 32.2344C42.5 32.375 42.4531 32.5625 42.4062 32.7031C42.3594 32.7969 42.2656 32.9375 42.125 33.0312C42.0312 33.125 41.8906 33.125 41.75 33.125C41.5156 33.125 41.3281 33.0781 41.1875 32.9375ZM37.4375 32.1875C37.2969 32.0469 37.25 31.8594 37.25 31.625C37.25 31.4844 37.25 31.3438 37.3438 31.25C37.4375 31.1094 37.5312 31.0156 37.6719 30.9688C37.8125 30.875 38 30.875 38.1406 30.9219C38.2812 30.9219 38.4219 31.0156 38.5156 31.1094C38.6094 31.2031 38.7031 31.3438 38.7031 31.4844C38.75 31.625 38.7031 31.8125 38.6562 31.9531C38.6094 32.0469 38.5156 32.1875 38.375 32.2812C38.2812 32.375 38.1406 32.375 38 32.375C37.7656 32.375 37.5781 32.3281 37.4375 32.1875ZM33.6875 32.9375C33.5469 32.7969 33.5 32.6094 33.5 32.375C33.5 32.2344 33.5 32.0938 33.5938 32C33.6875 31.8594 33.7812 31.7656 33.9219 31.7188C34.0625 31.625 34.25 31.625 34.3906 31.6719C34.5312 31.6719 34.6719 31.7656 34.7656 31.8594C34.8594 31.9531 34.9531 32.0938 34.9531 32.2344C35 32.375 34.9531 32.5625 34.9062 32.7031C34.8594 32.7969 34.7656 32.9375 34.625 33.0312C34.5312 33.125 34.3906 33.125 34.25 33.125C34.0156 33.125 33.8281 33.0781 33.6875 32.9375ZM46.8125 38.375C46.7188 38.6094 46.5781 38.8438 46.3906 38.9844C46.5312 39.3594 46.5781 39.7344 46.625 40.0625C46.5781 41.1406 46.2031 42.125 45.4531 42.875C44.7031 43.625 43.7188 44 42.6875 44H33.3125C32.2344 44 31.25 43.625 30.5 42.875C29.75 42.125 29.375 41.1406 29.375 40.0625C29.375 39.7344 29.4219 39.3594 29.5625 38.9844C29.375 38.7969 29.2344 38.6094 29.1406 38.3281C29 38.0938 28.9531 37.8125 29 37.5312C29 37.2969 29.0938 37.0156 29.1875 36.7812C29.3281 36.5469 29.5156 36.3594 29.7031 36.1719C29.4219 35.6562 29.3281 35 29.375 34.3906C29.4219 33.7812 29.6094 33.2188 29.9844 32.7031C30.9219 31.5312 32.1406 30.5469 33.5469 29.9375C34.9062 29.2812 36.4531 28.9531 38 29C39.5 28.9531 41.0469 29.2812 42.4062 29.9375C43.8125 30.5469 45.0312 31.5312 45.9688 32.7031C46.3438 33.2188 46.5312 33.7812 46.5781 34.3906C46.625 35 46.5312 35.6562 46.25 36.1719C46.4375 36.3594 46.625 36.5938 46.7656 36.8281C46.9062 37.0625 46.9531 37.3438 47 37.625C47 37.9062 46.9062 38.1406 46.8125 38.375ZM31.8125 33.9688C31.6719 34.1562 31.625 34.3438 31.5781 34.5781C31.5781 34.7656 31.625 34.9531 31.7188 35.1406C31.8125 35.3281 31.9531 35.5156 32.1406 35.6094C32.3281 35.7031 32.5156 35.75 32.75 35.75H43.2031C43.4375 35.75 43.625 35.7031 43.8125 35.6094C44 35.5156 44.1406 35.3281 44.2344 35.1406C44.3281 35 44.375 34.7656 44.3281 34.5781C44.3281 34.3438 44.2812 34.1562 44.1406 33.9688C43.3906 33.0781 42.4531 32.375 41.375 31.9062C40.2969 31.4375 39.125 31.2031 38 31.25C36.8281 31.2031 35.6562 31.4375 34.5781 31.9062C33.5 32.375 32.5625 33.0781 31.8125 33.9688ZM43.8594 41.2812C44.1875 40.9531 44.375 40.5312 44.375 40.0625C44.375 39.9219 44.2812 39.7812 44.1875 39.6875C44.0938 39.5938 43.9531 39.5 43.8125 39.5H32.1875C32 39.5 31.8594 39.5938 31.7656 39.6875C31.6719 39.7812 31.625 39.9219 31.625 40.0625C31.625 40.5312 31.7656 40.9531 32.0938 41.2812C32.4219 41.6094 32.8438 41.75 33.3125 41.75H42.6875C43.1094 41.75 43.5312 41.6094 43.8594 41.2812Z" fill="#198D88"/>
</svg>
