<svg width="48" height="48" viewBox="0 0 48 48" fill="none" xmlns="http://www.w3.org/2000/svg">
<rect width="48" height="48" rx="12" fill="#B10F1F" fill-opacity="0.2"/>
<path d="M23.25 20.25C23.25 21.0938 22.5469 21.75 21.75 21.75C20.9062 21.75 20.25 21.0938 20.25 20.25C20.25 19.4531 20.9062 18.75 21.75 18.75C22.5469 18.75 23.25 19.4531 23.25 20.25ZM24.75 20.25C24.75 19.4531 25.4062 18.75 26.25 18.75C27.0469 18.75 27.75 19.4531 27.75 20.25C27.75 21.0938 27.0469 21.75 26.25 21.75C25.4062 21.75 24.75 21.0938 24.75 20.25ZM24.75 15H27.75C29.8125 15 31.5 16.6875 31.5 18.75V23.25C31.5 25.3594 29.8125 27 27.75 27H20.25C18.1406 27 16.5 25.3594 16.5 23.25V18.75C16.5 16.6875 18.1406 15 20.25 15H23.25V12.75C23.25 12.375 23.5781 12 24 12C24.375 12 24.75 12.375 24.75 12.75V15ZM29.25 18.75C29.25 17.9531 28.5469 17.25 27.75 17.25H20.25C19.4062 17.25 18.75 17.9531 18.75 18.75V23.25C18.75 24.0938 19.4062 24.75 20.25 24.75V24C20.25 23.625 20.5781 23.25 21 23.25C21.375 23.25 21.75 23.625 21.75 24V24.75H23.25V24C23.25 23.625 23.5781 23.25 24 23.25C24.375 23.25 24.75 23.625 24.75 24V24.75H26.25V24C26.25 23.625 26.5781 23.25 27 23.25C27.375 23.25 27.75 23.625 27.75 24V24.75C28.5469 24.75 29.25 24.0938 29.25 23.25V18.75ZM15.75 36C14.4844 36 13.5 35.0156 13.5 33.75V33C13.5 30.5156 15.4688 28.5 18 28.5H30C32.4844 28.5 34.5 30.5156 34.5 33V33.75C34.5 35.0156 33.4688 36 32.25 36H15.75ZM32.25 33C32.25 31.7812 31.2188 30.75 30 30.75H18C16.7344 30.75 15.75 31.7812 15.75 33V33.75H20.25V32.25C20.25 31.875 20.5781 31.5 21 31.5C21.375 31.5 21.75 31.875 21.75 32.25V33.75H23.25V32.25C23.25 31.875 23.5781 31.5 24 31.5C24.375 31.5 24.75 31.875 24.75 32.25V33.75H26.25V32.25C26.25 31.875 26.5781 31.5 27 31.5C27.375 31.5 27.75 31.875 27.75 32.25V33.75H32.25V33ZM15 18.75V23.25C15 23.6719 14.625 24 14.25 24C13.8281 24 13.5 23.6719 13.5 23.25V18.75C13.5 18.375 13.8281 18 14.25 18C14.625 18 15 18.375 15 18.75ZM34.5 23.25C34.5 23.6719 34.125 24 33.75 24C33.3281 24 33 23.6719 33 23.25V18.75C33 18.375 33.3281 18 33.75 18C34.125 18 34.5 18.375 34.5 18.75V23.25Z" fill="#B10F1F"/>
</svg>
