<svg width="64" height="64" viewBox="0 0 64 64" fill="none" xmlns="http://www.w3.org/2000/svg">
<rect width="64" height="64" rx="12" fill="#F9E0D8"/>
<path d="M44 32C44 32.0469 44 32.0938 44 32.1406C43.9531 33.875 42.4062 35 40.6719 35H36.125C34.8594 35 33.875 36.0312 33.875 37.25C33.875 37.4375 33.875 37.5781 33.9219 37.7188C34.0156 38.2344 34.2031 38.6562 34.3906 39.125C34.6719 39.7812 34.9531 40.4375 34.9531 41.0938C34.9531 42.5938 33.9688 43.9531 32.4688 44C32.3281 44 32.1406 44 31.9531 44C25.3438 44 20 38.6562 20 32C20 25.3906 25.3438 20 32 20C38.6094 20 44 25.3906 44 32ZM26 33.5C26 32.7031 25.2969 32 24.5 32C23.6562 32 23 32.7031 23 33.5C23 34.3438 23.6562 35 24.5 35C25.2969 35 26 34.3438 26 33.5ZM26 29C26.7969 29 27.5 28.3438 27.5 27.5C27.5 26.7031 26.7969 26 26 26C25.1562 26 24.5 26.7031 24.5 27.5C24.5 28.3438 25.1562 29 26 29ZM33.5 24.5C33.5 23.7031 32.7969 23 32 23C31.1562 23 30.5 23.7031 30.5 24.5C30.5 25.3438 31.1562 26 32 26C32.7969 26 33.5 25.3438 33.5 24.5ZM38 29C38.7969 29 39.5 28.3438 39.5 27.5C39.5 26.7031 38.7969 26 38 26C37.1562 26 36.5 26.7031 36.5 27.5C36.5 28.3438 37.1562 29 38 29Z" fill="#E0663C"/>
</svg>
