<svg width="64" height="64" viewBox="0 0 64 64" fill="none" xmlns="http://www.w3.org/2000/svg">
<rect width="64" height="64" rx="12" fill="#E0F0FF"/>
<path d="M20 24.5C20 22.8594 21.3125 21.5 23 21.5H41C42.6406 21.5 44 22.8594 44 24.5V36.5H41V24.5H23V36.5H20V24.5ZM17 38.9375C17 38.4219 17.375 38 17.8906 38H46.0625C46.5781 38 47 38.4219 47 38.9375C47 40.9062 45.3594 42.5 43.3906 42.5H20.5625C18.5938 42.5 17 40.9062 17 38.9375ZM30.1719 29.7969L28.7188 31.25L30.1719 32.7031C30.5938 33.1719 30.5938 33.875 30.1719 34.2969C29.7031 34.7656 29 34.7656 28.5781 34.2969L26.3281 32.0469C25.8594 31.625 25.8594 30.9219 26.3281 30.4531L28.5781 28.2031C29 27.7812 29.7031 27.7812 30.1719 28.2031C30.5938 28.6719 30.5938 29.375 30.1719 29.7969ZM35.4219 28.2031L37.6719 30.4531C38.0938 30.9219 38.0938 31.625 37.6719 32.0469L35.4219 34.2969C34.9531 34.7656 34.25 34.7656 33.8281 34.2969C33.3594 33.875 33.3594 33.1719 33.8281 32.7031L35.2812 31.25L33.8281 29.7969C33.3594 29.375 33.3594 28.6719 33.8281 28.25C34.25 27.7812 34.9531 27.7812 35.4219 28.25V28.2031Z" fill="#005DA4"/>
</svg>
