<svg width="64" height="64" viewBox="0 0 64 64" fill="none" xmlns="http://www.w3.org/2000/svg">
<rect width="64" height="64" rx="12" fill="#F9F1D0"/>
<path d="M32 20C38.6094 20 44 25.3906 44 32C44 38.6562 38.6094 44 32 44C25.3438 44 20 38.6562 20 32C20 25.3906 25.3438 20 32 20ZM32 41.75C32.3281 41.75 33.2188 41.4219 34.2031 39.5C34.625 38.6562 34.9531 37.6719 35.2344 36.5H28.7188C29 37.6719 29.3281 38.6562 29.75 39.5C30.7344 41.4219 31.625 41.75 32 41.75ZM28.3438 34.25H35.6094C35.7031 33.5469 35.75 32.7969 35.75 32C35.75 31.25 35.7031 30.5 35.6094 29.75H28.3438C28.25 30.5 28.25 31.25 28.25 32C28.25 32.7969 28.25 33.5469 28.3438 34.25ZM35.2344 27.5C34.9531 26.375 34.625 25.3906 34.2031 24.5469C33.2188 22.625 32.3281 22.25 32 22.25C31.625 22.25 30.7344 22.625 29.75 24.5469C29.3281 25.3906 29 26.375 28.7188 27.5H35.2344ZM37.8594 29.75C37.9531 30.5 38 31.25 38 32C38 32.7969 37.9531 33.5469 37.8594 34.25H41.4688C41.6562 33.5469 41.75 32.7969 41.75 32C41.75 31.25 41.6562 30.5 41.4688 29.75H37.8594ZM36.0312 23.1406C36.6875 24.3594 37.2031 25.8594 37.5312 27.5H40.625C39.6406 25.5781 38 24.0312 36.0312 23.1406ZM27.9219 23.1406C25.9531 24.0312 24.3125 25.5781 23.3281 27.5H26.4219C26.75 25.8594 27.2656 24.3594 27.9219 23.1406ZM22.25 32C22.25 32.7969 22.2969 33.5469 22.4844 34.25H26.0938C26 33.5469 26 32.7969 26 32C26 31.25 26 30.5 26.0938 29.75H22.4844C22.2969 30.5 22.25 31.25 22.25 32ZM40.625 36.5H37.5312C37.2031 38.1875 36.6875 39.6875 36.0312 40.9062C38 40.0156 39.6406 38.4688 40.625 36.5ZM26.4219 36.5H23.3281C24.3125 38.4688 25.9531 40.0156 27.9219 40.9062C27.2656 39.6875 26.75 38.1875 26.4219 36.5Z" fill="#AC851A"/>
</svg>
