<svg width="48" height="48" viewBox="0 0 48 48" fill="none" xmlns="http://www.w3.org/2000/svg">
<rect width="48" height="48" rx="12" fill="#F9E0D8"/>
<path d="M36 24C36 24.0469 36 24.0938 36 24.1406C35.9531 25.875 34.4062 27 32.6719 27H28.125C26.8594 27 25.875 28.0312 25.875 29.25C25.875 29.4375 25.875 29.5781 25.9219 29.7188C26.0156 30.2344 26.2031 30.6562 26.3906 31.125C26.6719 31.7812 26.9531 32.4375 26.9531 33.0938C26.9531 34.5938 25.9688 35.9531 24.4688 36C24.3281 36 24.1406 36 23.9531 36C17.3438 36 12 30.6562 12 24C12 17.3906 17.3438 12 24 12C30.6094 12 36 17.3906 36 24ZM18 25.5C18 24.7031 17.2969 24 16.5 24C15.6562 24 15 24.7031 15 25.5C15 26.3438 15.6562 27 16.5 27C17.2969 27 18 26.3438 18 25.5ZM18 21C18.7969 21 19.5 20.3438 19.5 19.5C19.5 18.7031 18.7969 18 18 18C17.1562 18 16.5 18.7031 16.5 19.5C16.5 20.3438 17.1562 21 18 21ZM25.5 16.5C25.5 15.7031 24.7969 15 24 15C23.1562 15 22.5 15.7031 22.5 16.5C22.5 17.3438 23.1562 18 24 18C24.7969 18 25.5 17.3438 25.5 16.5ZM30 21C30.7969 21 31.5 20.3438 31.5 19.5C31.5 18.7031 30.7969 18 30 18C29.1562 18 28.5 18.7031 28.5 19.5C28.5 20.3438 29.1562 21 30 21Z" fill="#E0663C"/>
</svg>
