<svg width="48" height="48" viewBox="0 0 48 48" fill="none" xmlns="http://www.w3.org/2000/svg">
<rect width="48" height="48" rx="12" fill="#E0F0FF"/>
<path d="M12 16.5C12 14.8594 13.3125 13.5 15 13.5H33C34.6406 13.5 36 14.8594 36 16.5V28.5H33V16.5H15V28.5H12V16.5ZM9 30.9375C9 30.4219 9.375 30 9.89062 30H38.0625C38.5781 30 39 30.4219 39 30.9375C39 32.9062 37.3594 34.5 35.3906 34.5H12.5625C10.5938 34.5 9 32.9062 9 30.9375ZM22.1719 21.7969L20.7188 23.25L22.1719 24.7031C22.5938 25.1719 22.5938 25.875 22.1719 26.2969C21.7031 26.7656 21 26.7656 20.5781 26.2969L18.3281 24.0469C17.8594 23.625 17.8594 22.9219 18.3281 22.4531L20.5781 20.2031C21 19.7812 21.7031 19.7812 22.1719 20.2031C22.5938 20.6719 22.5938 21.375 22.1719 21.7969ZM27.4219 20.2031L29.6719 22.4531C30.0938 22.9219 30.0938 23.625 29.6719 24.0469L27.4219 26.2969C26.9531 26.7656 26.25 26.7656 25.8281 26.2969C25.3594 25.875 25.3594 25.1719 25.8281 24.7031L27.2812 23.25L25.8281 21.7969C25.3594 21.375 25.3594 20.6719 25.8281 20.25C26.25 19.7812 26.9531 19.7812 27.4219 20.25V20.2031Z" fill="#005DA4"/>
</svg>
