<svg width="64" height="64" viewBox="0 0 64 64" fill="none" xmlns="http://www.w3.org/2000/svg">
<rect width="64" height="64" rx="12" fill="#6A288A" fill-opacity="0.2"/>
<path d="M40.7188 26L47 26.0469V38H43.9531C43.1562 38 42.5 37.2969 42.5 36.5V28.25H39.875C39.6406 28.2031 39.4531 28.0625 39.3125 27.875C39.3125 27.875 37.3906 25.3438 34.625 24.9219C34.1094 24.8281 33.5938 25.0156 33.2656 25.3906L29.2344 29.4688C29.0469 29.6562 28.9531 29.8438 28.9531 30.0781C28.9531 30.3125 29.0469 30.5 29.2344 30.6406C29.5156 30.9688 30.0781 30.9688 30.3594 30.6406L32.8906 28.1094C33.3594 27.6875 34.0625 27.6875 34.4844 28.1094C34.9062 28.5781 34.9062 29.2812 34.4844 29.7031L34.1094 30.125L39.7344 34.7188C40.8125 35.5625 40.9531 37.1562 40.1094 38.2344L38.7969 39.875C38.0938 40.7656 36.9219 41.0469 35.9375 40.6719C35.5156 41.0469 34.9531 41.3281 34.3438 41.375C33.6406 41.4688 32.8906 41.2344 32.3281 40.7656H32.2812C31.7656 41.0938 31.2031 41.3281 30.5469 41.375C30.4062 41.375 30.2656 41.375 30.125 41.375C29.2344 41.375 28.3906 41.0938 27.6875 40.5312L24.0781 37.25H21.2656C20.9844 37.7188 20.5156 38 20 38H17V26.0469H21.5V35H24.9688L29.1875 38.8438C29.4688 39.0781 29.8906 39.1719 30.3125 39.125C30.7344 39.0781 31.1562 38.8906 31.3906 38.5625L31.5312 38.4219L32.2812 37.7188L33.7812 39.0312C33.9219 39.125 34.0156 39.125 34.1094 39.125C34.2031 39.0781 34.3438 39.0781 34.4375 38.9375L35.6562 37.625L36.6875 38.5156C36.7812 38.5625 36.9688 38.5625 37.0625 38.4688L38.3281 36.7812C38.4219 36.6406 38.4219 36.5 38.3281 36.4062L32.5156 31.6719L31.9531 32.1875C31.3906 32.7969 30.5938 33.125 29.7969 33.125C28.9531 33.125 28.2031 32.8438 27.5938 32.2344C26.9844 31.6719 26.7031 30.875 26.7031 30.0781C26.7031 29.2344 27.0312 28.4844 27.6406 27.9219L30.3594 25.1094C30.0312 24.9219 29.7031 24.875 29.3281 24.9219C26.5156 25.3438 24.6406 27.8281 24.6406 27.875C24.4062 28.1562 24.0781 28.3438 23.7031 28.3438C23.5156 28.3438 23.2812 28.25 23.0469 28.1094C22.5781 27.7344 22.4375 27.0312 22.8125 26.5625C22.9062 26.4219 25.25 23.2812 29 22.6719C30.0781 22.5312 31.1562 22.8594 31.9531 23.5156C32.8438 22.8125 33.875 22.4844 34.9531 22.625C37.8125 23.0938 39.875 25.0156 40.7188 26ZM19.25 36.5C19.625 36.5 20 36.1719 20 35.7969C20 35.375 19.625 35.0469 19.25 35.0469C18.8281 35.0469 18.5 35.375 18.5 35.7969C18.5 36.1719 18.8281 36.5 19.25 36.5ZM44.75 36.5C45.125 36.5 45.5 36.1719 45.5 35.7969C45.5 35.375 45.125 35.0469 44.75 35.0469C44.3281 35.0469 44 35.375 44 35.7969C44 36.1719 44.3281 36.5 44.75 36.5Z" fill="#6A288A"/>
</svg>
