<svg width="48" height="48" viewBox="0 0 48 48" fill="none" xmlns="http://www.w3.org/2000/svg">
<rect width="48" height="48" rx="12" fill="#29ACA6" fill-opacity="0.2"/>
<path d="M27 12H28.5C29.2969 12 30 12.7031 30 13.5C30 14.3438 29.2969 15 28.5 15V21.2344C28.5 21.7969 28.6406 22.3594 28.9219 22.8281L33.9844 31.0781C34.3125 31.5938 34.5 32.1562 34.5 32.7656C34.5 34.5469 33 36 31.2188 36H16.7344C14.9531 36 13.5 34.5469 13.5 32.7656C13.5 32.1562 13.6406 31.5938 13.9688 31.0781L19.0312 22.8281C19.3125 22.3594 19.5 21.7969 19.5 21.2344V15C18.6562 15 18 14.3438 18 13.5C18 12.7031 18.6562 12 19.5 12H21H27ZM22.5 21.2344C22.5 22.3594 22.1719 23.4375 21.6094 24.375L19.9688 27H27.9844L26.3906 24.375C25.7812 23.4375 25.5 22.3594 25.5 21.2344V15H22.5V21.2344Z" fill="#29ACA6"/>
</svg>
