<svg width="64" height="64" viewBox="0 0 64 64" fill="none" xmlns="http://www.w3.org/2000/svg">
<rect width="64" height="64" rx="12" fill="#B10F1F" fill-opacity="0.2"/>
<path d="M31.25 28.25C31.25 29.0938 30.5469 29.75 29.75 29.75C28.9062 29.75 28.25 29.0938 28.25 28.25C28.25 27.4531 28.9062 26.75 29.75 26.75C30.5469 26.75 31.25 27.4531 31.25 28.25ZM32.75 28.25C32.75 27.4531 33.4062 26.75 34.25 26.75C35.0469 26.75 35.75 27.4531 35.75 28.25C35.75 29.0938 35.0469 29.75 34.25 29.75C33.4062 29.75 32.75 29.0938 32.75 28.25ZM32.75 23H35.75C37.8125 23 39.5 24.6875 39.5 26.75V31.25C39.5 33.3594 37.8125 35 35.75 35H28.25C26.1406 35 24.5 33.3594 24.5 31.25V26.75C24.5 24.6875 26.1406 23 28.25 23H31.25V20.75C31.25 20.375 31.5781 20 32 20C32.375 20 32.75 20.375 32.75 20.75V23ZM37.25 26.75C37.25 25.9531 36.5469 25.25 35.75 25.25H28.25C27.4062 25.25 26.75 25.9531 26.75 26.75V31.25C26.75 32.0938 27.4062 32.75 28.25 32.75V32C28.25 31.625 28.5781 31.25 29 31.25C29.375 31.25 29.75 31.625 29.75 32V32.75H31.25V32C31.25 31.625 31.5781 31.25 32 31.25C32.375 31.25 32.75 31.625 32.75 32V32.75H34.25V32C34.25 31.625 34.5781 31.25 35 31.25C35.375 31.25 35.75 31.625 35.75 32V32.75C36.5469 32.75 37.25 32.0938 37.25 31.25V26.75ZM23.75 44C22.4844 44 21.5 43.0156 21.5 41.75V41C21.5 38.5156 23.4688 36.5 26 36.5H38C40.4844 36.5 42.5 38.5156 42.5 41V41.75C42.5 43.0156 41.4688 44 40.25 44H23.75ZM40.25 41C40.25 39.7812 39.2188 38.75 38 38.75H26C24.7344 38.75 23.75 39.7812 23.75 41V41.75H28.25V40.25C28.25 39.875 28.5781 39.5 29 39.5C29.375 39.5 29.75 39.875 29.75 40.25V41.75H31.25V40.25C31.25 39.875 31.5781 39.5 32 39.5C32.375 39.5 32.75 39.875 32.75 40.25V41.75H34.25V40.25C34.25 39.875 34.5781 39.5 35 39.5C35.375 39.5 35.75 39.875 35.75 40.25V41.75H40.25V41ZM23 26.75V31.25C23 31.6719 22.625 32 22.25 32C21.8281 32 21.5 31.6719 21.5 31.25V26.75C21.5 26.375 21.8281 26 22.25 26C22.625 26 23 26.375 23 26.75ZM42.5 31.25C42.5 31.6719 42.125 32 41.75 32C41.3281 32 41 31.6719 41 31.25V26.75C41 26.375 41.3281 26 41.75 26C42.125 26 42.5 26.375 42.5 26.75V31.25Z" fill="#B10F1F"/>
</svg>
