<svg width="36" height="29" viewBox="0 0 36 29" fill="none" xmlns="http://www.w3.org/2000/svg">
<path d="M7.00781 10.125C7.00781 8.92188 7.99219 7.9375 9.19531 7.9375C10.4531 7.9375 11.3828 8.92188 11.3828 10.125C11.3828 11.3828 10.4531 12.3125 9.19531 12.3125C7.99219 12.3125 7.00781 11.3828 7.00781 10.125ZM11.8203 1.8125L12.1484 3.34375C12.6953 3.5625 13.1875 3.83594 13.625 4.16406L15.1016 3.72656C15.4297 3.61719 15.7578 3.72656 15.9766 3.94531C16.8516 4.92969 17.5078 6.07812 17.9453 7.39062C18.0547 7.66406 17.9453 7.99219 17.7266 8.21094L16.5781 9.25C16.6328 9.57812 16.6328 9.90625 16.6328 10.1797C16.6328 10.4531 16.6328 10.7812 16.6328 11.0547L17.7266 12.0938C17.9453 12.3125 18.0547 12.6406 17.9453 12.9141C17.5078 14.2266 16.8516 15.375 15.9766 16.3594C15.7578 16.5781 15.4297 16.6875 15.1016 16.5781L13.7344 16.1406C13.2422 16.5234 12.6953 16.8516 12.1484 17.0703L11.8203 18.4922C11.7109 18.8203 11.4922 19.0391 11.2188 19.1484C10.5625 19.2578 9.90625 19.3125 9.19531 19.3125C8.53906 19.3125 7.88281 19.2578 7.22656 19.1484C6.95312 19.0391 6.73438 18.8203 6.625 18.4922L6.29688 17.0703C5.75 16.8516 5.20312 16.5234 4.71094 16.1406L3.34375 16.5781C3.01562 16.6875 2.6875 16.5781 2.46875 16.3594C1.59375 15.375 0.9375 14.2266 0.5 12.9141C0.390625 12.6406 0.5 12.3125 0.71875 12.0938L1.8125 11.0547C1.8125 10.7812 1.8125 10.4531 1.8125 10.1797C1.8125 9.90625 1.8125 9.57812 1.86719 9.25L0.71875 8.21094C0.5 7.99219 0.390625 7.66406 0.5 7.39062C0.9375 6.07812 1.59375 4.92969 2.46875 3.94531C2.6875 3.72656 3.01562 3.61719 3.34375 3.72656L4.82031 4.16406C5.25781 3.83594 5.75 3.5625 6.29688 3.34375L6.625 1.8125C6.73438 1.48438 6.95312 1.26562 7.22656 1.15625C7.88281 1.04688 8.53906 0.9375 9.19531 0.9375C9.90625 0.9375 10.5625 1.04688 11.2188 1.15625C11.4922 1.26562 11.7109 1.48438 11.8203 1.8125ZM3.94531 10.1797C3.94531 10.3984 4 10.6172 4 10.7812L4.10938 11.875L2.90625 13.0234C3.07031 13.4609 3.28906 13.8438 3.5625 14.2266L5.14844 13.7344L6.07812 14.3906C6.40625 14.6641 6.78906 14.8828 7.17188 15.0469L8.15625 15.4844L8.53906 17.125C8.75781 17.125 8.97656 17.125 9.19531 17.125C9.46875 17.125 9.6875 17.125 9.90625 17.125L10.2891 15.4844L11.2734 15.0469C11.6562 14.8828 12.0391 14.6641 12.3672 14.3906L13.2969 13.7344L14.8828 14.2266C15.1562 13.8438 15.375 13.4609 15.5391 13.0234L14.3359 11.875L14.4453 10.7812C14.4453 10.6172 14.4453 10.3984 14.4453 10.1797C14.4453 9.96094 14.4453 9.74219 14.4453 9.52344L14.2812 8.42969L15.5391 7.28125C15.375 6.84375 15.1562 6.46094 14.8828 6.07812L13.1875 6.57031L12.3125 5.91406C11.9844 5.69531 11.6562 5.47656 11.2734 5.3125L10.2891 4.875L9.90625 3.17969C9.6875 3.17969 9.46875 3.125 9.19531 3.125C8.97656 3.125 8.75781 3.17969 8.53906 3.17969L8.15625 4.875L7.17188 5.3125C6.78906 5.47656 6.46094 5.69531 6.13281 5.91406L5.25781 6.57031L3.5625 6.07812C3.28906 6.46094 3.07031 6.84375 2.90625 7.28125L4.16406 8.42969L4 9.52344C4 9.74219 3.94531 9.96094 3.94531 10.1797ZM25.875 17.5625C27.0781 17.5625 28.0625 18.5469 28.0625 19.75C28.0625 21.0078 27.0781 21.9375 25.875 21.9375C24.6172 21.9375 23.6875 21.0078 23.6875 19.75C23.6875 18.5469 24.6172 17.5625 25.875 17.5625ZM32.2734 13.8984L31.8359 15.375C32.1641 15.8125 32.4375 16.3047 32.6562 16.8516L34.1875 17.1797C34.5156 17.2344 34.7344 17.5078 34.8438 17.7812C34.9531 18.4375 35.0625 19.0938 35.0625 19.75C35.0625 20.4609 34.9531 21.1172 34.8438 21.7188C34.7344 22.0469 34.5156 22.2656 34.1875 22.375L32.6562 22.7031C32.4375 23.25 32.1641 23.7422 31.8359 24.1797L32.2734 25.6562C32.3828 25.9844 32.2734 26.3125 32.0547 26.5312C31.0703 27.4062 29.9219 28.0625 28.6094 28.5C28.3359 28.6094 28.0078 28.5 27.7891 28.2812L26.6953 27.1328C26.4219 27.1875 26.0938 27.1875 25.8203 27.1875C25.5469 27.1875 25.2188 27.1875 24.9453 27.1875L23.9062 28.2812C23.6875 28.5 23.3594 28.6094 23.0859 28.5C21.7734 28.0625 20.625 27.4062 19.6406 26.5312C19.4219 26.3125 19.3125 25.9844 19.4219 25.6562L19.8594 24.2891C19.4766 23.7969 19.1484 23.25 18.9297 22.7031L17.5078 22.375C17.1797 22.2656 16.9609 22.0469 16.8516 21.7188C16.7422 21.1172 16.6328 20.4609 16.6328 19.75C16.6328 19.0938 16.7422 18.4375 16.8516 17.7812C16.9609 17.5078 17.1797 17.2344 17.5078 17.1797L18.9297 16.8516C19.1484 16.3047 19.4766 15.7578 19.8594 15.2656L19.4219 13.8984C19.3125 13.5703 19.4219 13.2422 19.6406 13.0234C20.625 12.1484 21.7734 11.4922 23.0859 11.0547C23.3594 10.9453 23.6875 11.0547 23.9062 11.2734L24.9453 12.3672C25.2188 12.3672 25.5469 12.3125 25.8203 12.3125C26.0938 12.3125 26.4219 12.3672 26.6953 12.3672L27.7891 11.2734C28.0078 11.0547 28.3359 10.9453 28.6094 11.0547C29.9219 11.4922 31.0703 12.1484 32.0547 13.0234C32.2734 13.2422 32.3828 13.5703 32.2734 13.8984ZM25.8203 14.5C25.6016 14.5 25.3828 14.5547 25.2188 14.5547L24.125 14.6641L22.9766 13.4609C22.5391 13.625 22.1562 13.8438 21.7734 14.1172L22.2656 15.7031L21.5547 16.6328C21.3359 16.9609 21.1172 17.3438 20.9531 17.7266L20.5156 18.7109L18.875 19.0938C18.875 19.3125 18.875 19.5312 18.875 19.75C18.875 20.0234 18.875 20.2422 18.875 20.4609L20.5156 20.8438L20.9531 21.8281C21.1172 22.2109 21.3359 22.5938 21.5547 22.9219L22.2656 23.7969L21.7734 25.4375C22.1562 25.7109 22.5391 25.9297 22.9766 26.0938L24.125 24.8906L25.2188 25C25.3828 25 25.6016 25 25.8203 25C26.0391 25 26.2578 25 26.4766 25L27.5703 24.8359L28.7188 26.0938C29.1562 25.9297 29.5391 25.7109 29.9219 25.4375L29.4297 23.7422L30.0859 22.8672C30.3047 22.5391 30.5234 22.2109 30.6875 21.8281L31.125 20.8438L32.8203 20.4609C32.8203 20.2422 32.875 20.0234 32.875 19.75C32.875 19.5312 32.8203 19.3125 32.8203 19.0938L31.125 18.7109L30.6875 17.6719C30.5234 17.3438 30.3047 16.9609 30.0859 16.6875L29.4297 15.8125L29.9219 14.1172C29.5391 13.8438 29.1562 13.625 28.7188 13.4609L27.5703 14.7188L26.4766 14.5547C26.2578 14.5547 26.0391 14.5 25.8203 14.5Z" fill="#ED1C24"/>
</svg>
