<svg width="64" height="64" viewBox="0 0 64 64" fill="none" xmlns="http://www.w3.org/2000/svg">
<rect width="64" height="64" rx="12" fill="#B10F1F" fill-opacity="0.2"/>
<path d="M25.1094 26.1875C27.7344 23.5625 32 23.5625 34.625 26.1875C37.1562 28.6719 37.25 32.7031 34.9531 35.375L34.6719 35.6562C34.25 36.125 33.5469 36.1719 33.0781 35.7969C32.6094 35.375 32.5625 34.6719 32.9844 34.2031L33.2188 33.9219C34.8125 32.1406 34.7188 29.4688 33.0312 27.7812C31.2969 26 28.4375 26 26.6562 27.7812L21.3594 33.0781C19.625 34.8594 19.625 37.6719 21.3594 39.4531C23.0469 41.0938 25.7188 41.1875 27.5 39.6406L27.7812 39.4062C28.25 38.9844 28.9531 39.0312 29.375 39.5C29.7969 39.9688 29.75 40.6719 29.2812 41.0938L29 41.3281C26.3281 43.6719 22.2969 43.5312 19.7656 41.0469C17.1406 38.4219 17.1406 34.1094 19.7656 31.4844L25.1094 26.1875ZM38.8906 37.8594C36.2188 40.4844 31.9531 40.4844 29.3281 37.8594C26.7969 35.3281 26.7031 31.3438 29 28.6719L29.2344 28.3906C29.6562 27.9219 30.3594 27.875 30.8281 28.2969C31.2969 28.7188 31.3438 29.4219 30.9219 29.8906L30.7344 30.125C29.1406 31.9062 29.2344 34.5781 30.9219 36.2656C32.6562 38 35.5156 38 37.2969 36.2656L42.5938 30.9688C44.3281 29.1875 44.3281 26.375 42.5938 24.5938C40.9062 22.9531 38.2344 22.8594 36.4531 24.4062L36.1719 24.6406C35.7031 25.0625 35 25.0156 34.5781 24.5469C34.1562 24.0781 34.2031 23.375 34.6719 22.9531L34.9531 22.7188C37.625 20.375 41.6562 20.5156 44.1875 23C46.8125 25.625 46.8125 29.8906 44.1875 32.5625L38.8906 37.8594Z" fill="#B10F1F"/>
</svg>
