<svg width="65" height="64" viewBox="0 0 65 64" fill="none" xmlns="http://www.w3.org/2000/svg">
<rect x="0.5" width="64" height="64" rx="12" fill="#E0F0FF"/>
<path d="M45.625 21.5469C46.5625 21.3125 47.5 22.0625 47.5 23.0469V39.5C47.5 40.2031 46.9844 40.8125 46.2812 40.9531L32.7812 43.9062C32.5938 43.9531 32.3594 43.9531 32.1719 43.9062L18.6719 40.9531C17.9688 40.8125 17.5 40.2031 17.5 39.5V23.0469C17.5 22.0625 18.3906 21.3125 19.3281 21.5469L19.75 21.6875V38.9375L32.5 41.75L45.25 38.9375V21.6875L45.625 21.5469ZM22.0469 37.625C21.5781 37.4844 21.25 37.0156 21.25 36.5V21.125C21.25 20.7969 21.3906 20.5156 21.625 20.2812C21.9062 20.0469 22.2344 20 22.5625 20.0469L32.5 21.875L42.3906 20.0469C42.7188 20 43.0469 20.0469 43.3281 20.2812C43.5625 20.5156 43.75 20.7969 43.75 21.125V36.5C43.75 37.0156 43.375 37.4844 42.9062 37.625L32.7812 40.25C32.6875 40.25 32.5938 40.25 32.5 40.25C32.3594 40.25 32.2656 40.25 32.1719 40.25L22.0469 37.625ZM33.625 23.9375V37.6719L41.5 35.6562V22.4844L33.625 23.9375ZM23.5 22.4844V35.6562L31.375 37.6719V23.9375L23.5 22.4844Z" fill="#023E83"/>
</svg>
