<svg width="48" height="48" viewBox="0 0 48 48" fill="none" xmlns="http://www.w3.org/2000/svg">
<rect width="48" height="48" rx="12" fill="#6A288A" fill-opacity="0.2"/>
<path d="M33 16.5C34.6406 16.5 36 17.8594 36 19.5V31.5C36 33.1875 34.6406 34.5 33 34.5H15C13.3125 34.5 12 33.1875 12 31.5V19.5C12 17.8594 13.3125 16.5 15 16.5H18V15C18 13.3594 19.3125 12 21 12H27C28.6406 12 30 13.3594 30 15V16.5H33ZM21 14.25C20.5781 14.25 20.25 14.625 20.25 15V16.5H27.75V15C27.75 14.625 27.375 14.25 27 14.25H21ZM15 18.75C14.5781 18.75 14.25 19.125 14.25 19.5V24H33.75V19.5C33.75 19.125 33.375 18.75 33 18.75H15ZM33 32.25C33.375 32.25 33.75 31.9219 33.75 31.5V26.25H27V27C27 27.8438 26.2969 28.5 25.5 28.5H22.5C21.6562 28.5 21 27.8438 21 27V26.25H14.25V31.5C14.25 31.9219 14.5781 32.25 15 32.25H33Z" fill="#6A288A"/>
</svg>
