<svg width="21" height="16" viewBox="0 0 21 16" fill="none" xmlns="http://www.w3.org/2000/svg">
<path d="M0 6.125C0 3.03125 2.48438 0.5 5.625 0.5H6C6.79688 0.5 7.5 1.20312 7.5 2C7.5 2.84375 6.79688 3.5 6 3.5H5.625C4.17188 3.5 3 4.71875 3 6.125V6.5H6C7.64062 6.5 9 7.85938 9 9.5V12.5C9 14.1875 7.64062 15.5 6 15.5H3C1.3125 15.5 0 14.1875 0 12.5V11V9.5V6.125ZM12 6.125C12 3.03125 14.4844 0.5 17.625 0.5H18C18.7969 0.5 19.5 1.20312 19.5 2C19.5 2.84375 18.7969 3.5 18 3.5H17.625C16.1719 3.5 15 4.71875 15 6.125V6.5H18C19.6406 6.5 21 7.85938 21 9.5V12.5C21 14.1875 19.6406 15.5 18 15.5H15C13.3125 15.5 12 14.1875 12 12.5V11V9.5V6.125Z" fill="#ED1C24"/>
</svg>
