<svg width="64" height="64" viewBox="0 0 64 64" fill="none" xmlns="http://www.w3.org/2000/svg">
<rect width="64" height="64" rx="12" fill="#629C51" fill-opacity="0.2"/>
<path d="M42.7812 21.875C43.5312 23.6094 44 25.7188 44 27.7812C44 33.7812 40.6719 38.7969 35.75 40.4375C34.8125 40.8125 33.7812 41 32.75 41C29.4688 41 26.6094 39.125 25.2969 36.3125C22.8594 38.7969 22.25 41.4219 22.2031 41.6094C22.1094 42.1719 21.6406 42.5 21.125 42.5C21.0312 42.5 20.9375 42.5 20.8906 42.5C20.2812 42.3594 19.8594 41.7969 20 41.1875C20 41.1406 20.8438 37.25 24.5938 33.9688C24.5 33.5938 24.5 33.1719 24.5 32.7969C24.5 28.2031 28.1562 24.5 32.75 24.5C33.3594 24.5 34.0156 24.5938 34.625 24.7344C35.1406 24.875 35.6562 24.9219 36.1719 24.9219C38.3281 24.9219 40.4375 23.8906 41.6094 21.875C41.75 21.6406 41.9844 21.5 42.1719 21.5C42.4062 21.5 42.6406 21.6406 42.7812 21.875ZM35.0469 38.2812C39.0312 36.9688 41.75 32.75 41.75 27.7812C41.75 26.9844 41.6562 26.1406 41.4688 25.3438C39.9688 26.4688 38.1406 27.125 36.125 27.125C35.4219 27.125 34.7188 27.0312 34.0625 26.8906C33.6406 26.7969 33.1719 26.75 32.7031 26.75C29.5156 26.75 26.8906 29.2344 26.7031 32.375C28.8594 31.0625 31.5781 30.0781 35.1875 29.75C35.7969 29.7031 36.3594 30.125 36.4062 30.7344C36.5 31.3906 36.0312 31.9062 35.4219 32C31.7188 32.3281 29.0469 33.4531 27.125 34.7656C27.9688 37.0625 30.125 38.75 32.7031 38.75C33.4531 38.75 34.2031 38.6094 34.9062 38.3281L35 38.2812H35.0469Z" fill="#629C51"/>
</svg>
