<svg width="64" height="64" viewBox="0 0 64 64" fill="none" xmlns="http://www.w3.org/2000/svg">
<rect width="64" height="64" rx="12" fill="#29ACA6" fill-opacity="0.2"/>
<path d="M35 20H36.5C37.2969 20 38 20.7031 38 21.5C38 22.3438 37.2969 23 36.5 23V29.2344C36.5 29.7969 36.6406 30.3594 36.9219 30.8281L41.9844 39.0781C42.3125 39.5938 42.5 40.1562 42.5 40.7656C42.5 42.5469 41 44 39.2188 44H24.7344C22.9531 44 21.5 42.5469 21.5 40.7656C21.5 40.1562 21.6406 39.5938 21.9688 39.0781L27.0312 30.8281C27.3125 30.3594 27.5 29.7969 27.5 29.2344V23C26.6562 23 26 22.3438 26 21.5C26 20.7031 26.6562 20 27.5 20H29H35ZM30.5 29.2344C30.5 30.3594 30.1719 31.4375 29.6094 32.375L27.9688 35H35.9844L34.3906 32.375C33.7812 31.4375 33.5 30.3594 33.5 29.2344V23H30.5V29.2344Z" fill="#29ACA6"/>
</svg>
