<svg width="64" height="64" viewBox="0 0 64 64" fill="none" xmlns="http://www.w3.org/2000/svg">
<rect width="64" height="64" rx="12" fill="#6A288A" fill-opacity="0.2"/>
<path d="M28.625 22.25C28.3906 22.25 28.25 22.4375 28.25 22.625V24.5H35.75V22.625C35.75 22.4375 35.5625 22.25 35.375 22.25H28.625ZM26 22.625C26 21.2188 27.1719 20 28.625 20H35.375C36.7812 20 38 21.2188 38 22.625V24.5H41C42.6406 24.5 44 25.8594 44 27.5V32H35H29H20V27.5C20 25.8594 21.3125 24.5 23 24.5H26V22.625ZM44 33.5V39.5C44 41.1875 42.6406 42.5 41 42.5H23C21.3125 42.5 20 41.1875 20 39.5V33.5H29V35C29 35.8438 29.6562 36.5 30.5 36.5H33.5C34.2969 36.5 35 35.8438 35 35V33.5H44Z" fill="#6A288A"/>
</svg>
