<svg width="26" height="29" viewBox="0 0 26 29" fill="none" xmlns="http://www.w3.org/2000/svg">
<path d="M18.25 4.875C22.0781 4.875 25.25 8.04688 25.25 11.875V25C25.25 26.9688 23.6641 28.5 21.75 28.5H4.25C2.28125 28.5 0.75 26.9688 0.75 25V11.875C0.75 8.04688 3.86719 4.875 7.75 4.875H8.1875V3.5625C8.1875 1.92188 9.55469 0.5 11.25 0.5H14.75C16.3906 0.5 17.8125 1.92188 17.8125 3.5625V4.875H18.25ZM10.8125 3.5625V4.875H15.1875V3.5625C15.1875 3.34375 14.9688 3.125 14.75 3.125H11.25C10.9766 3.125 10.8125 3.34375 10.8125 3.5625ZM18.25 25.875V22.375H7.75V25.875H18.25ZM18.25 19.75V18C18.25 17.0703 17.4297 16.25 16.5 16.25H9.5C8.51562 16.25 7.75 17.0703 7.75 18V19.75H18.25ZM22.625 25V11.875C22.625 9.46875 20.6562 7.5 18.25 7.5H7.75C5.28906 7.5 3.375 9.46875 3.375 11.875V25C3.375 25.4922 3.75781 25.875 4.25 25.875H5.125V18C5.125 15.5938 7.03906 13.625 9.5 13.625H16.5C18.9062 13.625 20.875 15.5938 20.875 18V25.875H21.75C22.1875 25.875 22.625 25.4922 22.625 25ZM17.375 9.25C17.8125 9.25 18.25 9.6875 18.25 10.125V11C18.25 11.4922 17.8125 11.875 17.375 11.875H8.625C8.13281 11.875 7.75 11.4922 7.75 11V10.125C7.75 9.6875 8.13281 9.25 8.57031 9.25H17.375Z" fill="#ED1C24"/>
</svg>
