<svg width="48" height="48" viewBox="0 0 48 48" fill="none" xmlns="http://www.w3.org/2000/svg">
<rect width="48" height="48" rx="12" fill="#F3F3F7"/>
<path d="M18 12H31.5H33C33.7969 12 34.5 12.7031 34.5 13.5V28.5C34.5 29.3438 33.7969 30 33 30V33C33.7969 33 34.5 33.7031 34.5 34.5C34.5 35.3438 33.7969 36 33 36H31.5H18C15.5156 36 13.5 33.9844 13.5 31.5V16.5C13.5 14.0156 15.5156 12 18 12ZM18 30C17.1562 30 16.5 30.7031 16.5 31.5C16.5 32.3438 17.1562 33 18 33H30V30H18ZM19.5 18.75C19.5 19.1719 19.8281 19.5 20.25 19.5H29.25C29.625 19.5 30 19.1719 30 18.75C30 18.375 29.625 18 29.25 18H20.25C19.8281 18 19.5 18.375 19.5 18.75ZM20.25 21C19.8281 21 19.5 21.375 19.5 21.75C19.5 22.1719 19.8281 22.5 20.25 22.5H29.25C29.625 22.5 30 22.1719 30 21.75C30 21.375 29.625 21 29.25 21H20.25Z" fill="#56596B"/>
</svg>
