<svg width="22" height="29" viewBox="0 0 22 29" fill="none" xmlns="http://www.w3.org/2000/svg">
<path d="M18.7656 17.5625L21.3906 24.2344C21.5547 24.6719 21.5 25.1641 21.1719 25.5469C20.8984 25.8203 20.5703 26.0391 20.1875 26.0391C20.0781 26.0391 19.9688 25.9844 19.9141 25.9844L17.4531 25.4922L16.25 27.7891C16.0312 28.2812 15.5938 28.5 15.1016 28.5C15.0469 28.5 15.0469 28.5 15.0469 28.5C14.5 28.5 14.0625 28.1719 13.8984 27.7344L11.4375 21.5H10.5625L8.04688 27.7344C7.88281 28.1719 7.44531 28.5 6.89844 28.5C6.89844 28.5 6.89844 28.5 6.84375 28.5C6.35156 28.5 5.91406 28.2266 5.69531 27.7891L4.49219 25.4922L2.03125 25.9844C1.97656 25.9844 1.86719 26.0391 1.75781 26.0391C1.375 26.0391 1.04688 25.8203 0.773438 25.5469C0.445312 25.1641 0.390625 24.6719 0.554688 24.2344L3.23438 17.6172C2.74219 17.3438 2.25 16.9062 1.86719 16.25C1.32031 15.2656 1.375 14.2812 1.375 13.6797C1.375 13.625 1.375 13.625 1.375 13.625C1.375 13.5703 1.375 13.5703 1.375 13.5703C1.04688 13.0781 0.5 12.2031 0.5 11C0.5 9.85156 1.04688 8.97656 1.375 8.48438C1.375 8.48438 1.375 8.48438 1.375 8.42969C1.375 8.42969 1.375 8.42969 1.375 8.375C1.375 7.77344 1.32031 6.78906 1.86719 5.75C2.46875 4.76562 3.34375 4.32812 3.89062 4.05469C3.94531 4.05469 3.94531 4 3.94531 4C3.94531 4 4 4 4 3.94531C4.27344 3.39844 4.71094 2.52344 5.69531 1.92188C6.29688 1.59375 7.00781 1.42969 7.77344 1.42969C7.9375 1.42969 8.15625 1.42969 8.32031 1.42969C8.375 1.42969 8.375 1.42969 8.375 1.42969C8.42969 1.42969 8.42969 1.42969 8.42969 1.42969C8.92188 1.10156 9.79688 0.5 11 0.5C12.1484 0.5 13.0234 1.10156 13.4609 1.42969H13.5156H13.5703C13.7344 1.42969 13.9531 1.42969 14.1172 1.42969C14.9375 1.42969 15.5938 1.59375 16.1953 1.92188C17.1797 2.52344 17.6172 3.39844 17.8906 3.94531C17.9453 4 17.9453 4 17.9453 4C17.9453 4 17.9453 4.05469 18 4.05469C18.5469 4.32812 19.4219 4.76562 20.0234 5.75C20.5703 6.78906 20.5156 7.77344 20.5156 8.375C20.5156 8.42969 20.5156 8.42969 20.5156 8.42969C20.5156 8.48438 20.5156 8.48438 20.5156 8.48438C20.8438 8.97656 21.4453 9.85156 21.4453 11C21.4453 12.2031 20.8984 13.0781 20.5703 13.625C20.5703 13.6797 20.5703 13.6797 20.5703 13.7344C20.5703 14.3359 20.625 15.3203 20.0781 16.3047C19.6953 16.9062 19.2031 17.2891 18.7656 17.5625ZM17.7812 14.9375C18.1094 14.3906 17.7812 13.5703 17.9453 12.9141C18.1641 12.2578 18.875 11.7109 18.875 11C18.875 10.3438 18.1641 9.79688 18 9.14062C17.7812 8.48438 18.1094 7.66406 17.7812 7.0625C17.4531 6.51562 16.5781 6.35156 16.0859 5.91406C15.6484 5.42188 15.4844 4.54688 14.9375 4.21875C14.7188 4.10938 14.4453 4.05469 14.1719 4.05469C13.8984 4.05469 13.625 4.10938 13.3516 4.10938C13.1875 4.10938 13.0234 4.05469 12.8594 4.05469C12.2031 3.83594 11.6562 3.125 11 3.125C10.2891 3.125 9.74219 3.83594 9.08594 4C8.92188 4.05469 8.75781 4.10938 8.59375 4.10938C8.32031 4.10938 8.04688 4.05469 7.77344 4.05469C7.5 4.05469 7.22656 4.10938 7.0625 4.21875C6.46094 4.54688 6.29688 5.42188 5.85938 5.91406C5.36719 6.35156 4.49219 6.51562 4.16406 7.0625C3.83594 7.66406 4.16406 8.48438 4 9.14062C3.78125 9.79688 3.125 10.3438 3.125 11C3.125 11.7109 3.78125 12.2578 4 12.9141C4.16406 13.5703 3.83594 14.3906 4.16406 14.9375C4.49219 15.5391 5.36719 15.7031 5.85938 16.1406C6.29688 16.6328 6.46094 17.5078 7.00781 17.7812C7.22656 17.9453 7.5 17.9453 7.77344 17.9453C8.04688 17.9453 8.32031 17.9453 8.59375 17.9453C8.75781 17.9453 8.92188 18 9.08594 18C9.74219 18.2188 10.2891 18.875 11 18.875C11.6562 18.875 12.2031 18.1641 12.8594 18C13.0234 18 13.1875 17.9453 13.3516 17.9453C13.625 17.9453 13.8984 18 14.1719 18C14.4453 18 14.7188 17.9453 14.8828 17.8359C15.4844 17.5078 15.6484 16.6328 16.0859 16.1406C16.5781 15.7031 17.4531 15.5391 17.7812 14.9375ZM11 7.5C12.9141 7.5 14.5 9.08594 14.5 11C14.5 12.9688 12.9141 14.5 11 14.5C9.03125 14.5 7.5 12.9688 7.5 11C7.5 9.08594 9.03125 7.5 11 7.5Z" fill="#ED1C24"/>
</svg>
