<svg width="48" height="48" viewBox="0 0 48 48" fill="none" xmlns="http://www.w3.org/2000/svg">
<rect width="48" height="48" rx="12" fill="#629C51" fill-opacity="0.2"/>
<path d="M24.6094 12.1406L33.4219 15.8906C34.4531 16.3594 35.25 17.3438 35.25 18.5625C35.2031 23.25 33.2812 31.7344 25.2188 35.625C24.4219 36 23.5312 36 22.7344 35.625C14.6719 31.7344 12.75 23.25 12.75 18.5625C12.7031 17.3438 13.5 16.3594 14.5312 15.8906L23.3438 12.1406C23.5312 12.0469 23.7656 12 24 12C24.1875 12 24.4219 12.0469 24.6094 12.1406ZM18.75 22.4062C18.75 23.1562 19.0312 23.9062 19.5938 24.4219L23.4375 28.3125C23.7656 28.5938 24.2344 28.5938 24.5156 28.3125L28.4062 24.4219C28.9219 23.9062 29.25 23.1562 29.25 22.4062C29.25 20.8125 27.9375 19.5 26.3438 19.5C25.5938 19.5 24.8438 19.8281 24.3281 20.3438L24 20.7188L23.625 20.3438C23.1094 19.8281 22.3594 19.5 21.6094 19.5C20.0156 19.5 18.75 20.8125 18.75 22.4062Z" fill="#629C51"/>
</svg>
