<svg width="65" height="64" viewBox="0 0 65 64" fill="none" xmlns="http://www.w3.org/2000/svg">
<rect x="0.5" width="64" height="64" rx="12" fill="#629C51" fill-opacity="0.2"/>
<path d="M37.9844 36.9688C39.1562 37.5781 40 38.8438 40 40.25C40 42.3594 38.3125 44 36.25 44C34.1406 44 32.4531 42.3594 32.4531 40.25C32.4531 39.7344 32.5938 39.2188 32.7812 38.75L26.1719 32.9844C25.6094 33.3125 24.9531 33.5 24.25 33.5C22.1406 33.5 20.5 31.8594 20.5 29.75C20.5 27.6875 22.1406 26 24.25 26C25.375 26 26.4531 26.5625 27.1094 27.4062L35.5 24.0781C35.5 23.9844 35.5 23.8906 35.5 23.75C35.5 21.6875 37.1406 20 39.25 20C41.3125 20 43 21.6875 43 23.75C43 25.6719 41.5469 27.2656 39.6719 27.5L37.9844 36.9688ZM39.25 22.25C38.4062 22.25 37.75 22.9531 37.75 23.75C37.75 24.5938 38.4062 25.25 39.25 25.25C40.0469 25.25 40.75 24.5938 40.75 23.75C40.75 22.9531 40.0469 22.25 39.25 22.25ZM27.9531 29.4688C27.9531 29.5625 27.9531 29.6562 27.9531 29.75C27.9531 30.3125 27.8594 30.8281 27.6719 31.2969L34.2812 37.0625C34.7031 36.7812 35.2188 36.5938 35.7812 36.5469L37.4688 27.0781C37.0469 26.8438 36.625 26.5156 36.3438 26.1406L27.9531 29.4688ZM36.25 38.75C35.4062 38.75 34.75 39.4531 34.75 40.25C34.75 41.0938 35.4062 41.75 36.25 41.75C37.0469 41.75 37.75 41.0938 37.75 40.25C37.75 39.4531 37.0469 38.75 36.25 38.75ZM24.2031 31.25C25.0469 31.25 25.7031 30.5938 25.7031 29.75C25.7031 28.9531 25.0469 28.25 24.2031 28.25C23.4062 28.25 22.7031 28.9531 22.7031 29.75C22.7031 30.5938 23.4062 31.25 24.2031 31.25Z" fill="#629C51"/>
</svg>
