<svg width="355" height="42" viewBox="0 0 355 42" fill="none" xmlns="http://www.w3.org/2000/svg">
<path d="M46.7296 -0.000927055L-0.0015915 20.9068L46.7296 41.8145L53.5938 34.1873L46.7296 27.322L53.5938 20.9068L46.7296 14.4915L53.5938 7.62797L46.7296 -0.000927055Z" fill="#EECF93"/>
<rect x="308" y="0.00195312" width="47" height="41.82" rx="9" fill="#393C47"/>
<path d="M332 -0.000934699L53.9586 -0.000927055H47.0944L53.9586 7.62797L47.0944 14.4915L53.9586 20.9068L47.0944 27.322L53.9586 34.1873L47.0944 41.8145H53.9586L332 41.8144V-0.000934699Z" fill="#328F7D"/>
<path d="M16.9531 13.3269V28.4961L0.000874945 20.9115L16.9531 13.3269Z" fill="#21282A"/>
<path d="M278.755 21.206L275.985 21.3764C275.836 20.6733 275.211 20.098 274.16 20.098C273.222 20.098 272.484 20.5241 272.491 21.1776C272.484 21.7031 272.86 22.0511 273.876 22.2713L275.85 22.669C277.967 23.1023 278.996 24.0469 279.004 25.6236C278.996 27.7756 276.972 29.2173 274.146 29.2173C271.255 29.2173 269.479 27.9318 269.195 25.8438L272.171 25.6875C272.356 26.5753 273.073 27.0369 274.153 27.0369C275.211 27.0369 275.914 26.5753 275.928 25.929C275.914 25.3821 275.481 25.0341 274.529 24.8423L272.64 24.4659C270.509 24.0398 269.479 22.9815 269.487 21.348C269.479 19.2457 271.319 17.9531 274.11 17.9531C276.866 17.9531 278.485 19.196 278.755 21.206Z" fill="white"/>
<path d="M267.252 14.457V29.0025H264.227V14.457H267.252Z" fill="white"/>
<path d="M261.803 14.457V29.0025H258.777V14.457H261.803Z" fill="white"/>
<path d="M253.328 29.0034V18.0943H256.354V29.0034H253.328ZM254.848 16.688C253.953 16.688 253.215 15.9991 253.215 15.1539C253.215 14.3159 253.953 13.627 254.848 13.627C255.75 13.627 256.489 14.3159 256.489 15.1539C256.489 15.9991 255.75 16.688 254.848 16.688Z" fill="white"/>
<path d="M241.688 29.0025V14.457H244.713V22.234H244.876L248.371 18.0934H251.844L247.795 22.8164L252.05 29.0025H248.506L245.53 24.6062L244.713 25.5366V29.0025H241.688Z" fill="white"/>
<path d="M239.536 21.206L236.766 21.3764C236.617 20.6733 235.992 20.098 234.941 20.098C234.004 20.098 233.265 20.5241 233.272 21.1776C233.265 21.7031 233.641 22.0511 234.657 22.2713L236.631 22.669C238.748 23.1023 239.778 24.0469 239.785 25.6236C239.778 27.7756 237.754 29.2173 234.927 29.2173C232.036 29.2173 230.261 27.9318 229.977 25.8438L232.952 25.6875C233.137 26.5753 233.854 27.0369 234.934 27.0369C235.992 27.0369 236.695 26.5753 236.71 25.929C236.695 25.3821 236.262 25.0341 235.31 24.8423L233.421 24.4659C231.29 24.0398 230.261 22.9815 230.268 21.348C230.261 19.2457 232.1 17.9531 234.891 17.9531C237.647 17.9531 239.266 19.196 239.536 21.206Z" fill="white"/>
<path d="M223.404 14.457V29.0025H220.379V14.457H223.404Z" fill="white"/>
<path d="M211.892 29.2102C209.811 29.2102 208.27 28.1165 208.27 25.9574C208.27 23.5213 210.208 22.7969 212.368 22.598C214.264 22.4134 215.01 22.321 215.01 21.6179V21.5753C215.01 20.6804 214.42 20.1619 213.39 20.1619C212.304 20.1619 211.657 20.6946 211.451 21.419L208.653 21.1918C209.072 19.2031 210.791 17.9531 213.404 17.9531C215.833 17.9531 218.035 19.0469 218.035 21.6463V29.0043H215.166V27.4915H215.081C214.548 28.5071 213.504 29.2102 211.892 29.2102ZM212.758 27.1222C214.086 27.1222 215.031 26.2486 215.031 25.1051V23.9474C214.669 24.1889 213.589 24.3452 212.929 24.4375C211.863 24.5866 211.16 25.0057 211.16 25.858C211.16 26.6889 211.828 27.1222 212.758 27.1222Z" fill="white"/>
<path d="M199.362 22.6974V29.0043H196.336V18.0952H199.219V20.0199H199.347C199.837 18.7486 201.009 17.9531 202.629 17.9531C204.901 17.9531 206.393 19.5156 206.393 22.0582V29.0043H203.367V22.598C203.374 21.2628 202.643 20.4673 201.428 20.4673C200.207 20.4673 199.369 21.2912 199.362 22.6974Z" fill="white"/>
<path d="M189.002 29.2173C185.692 29.2173 183.633 26.9517 183.633 23.5923C183.633 20.2116 185.692 17.9531 189.002 17.9531C192.312 17.9531 194.371 20.2116 194.371 23.5923C194.371 26.9517 192.312 29.2173 189.002 29.2173ZM189.016 26.8736C190.515 26.8736 191.296 25.4744 191.296 23.571C191.296 21.6676 190.515 20.2614 189.016 20.2614C187.489 20.2614 186.708 21.6676 186.708 23.571C186.708 25.4744 187.489 26.8736 189.016 26.8736Z" fill="white"/>
<path d="M181.919 21.206L179.149 21.3764C179 20.6733 178.375 20.098 177.324 20.098C176.386 20.098 175.648 20.5241 175.655 21.1776C175.648 21.7031 176.024 22.0511 177.04 22.2713L179.014 22.669C181.131 23.1023 182.161 24.0469 182.168 25.6236C182.161 27.7756 180.136 29.2173 177.31 29.2173C174.419 29.2173 172.643 27.9318 172.359 25.8438L175.335 25.6875C175.52 26.5753 176.237 27.0369 177.317 27.0369C178.375 27.0369 179.078 26.5753 179.092 25.929C179.078 25.3821 178.645 25.0341 177.693 24.8423L175.804 24.4659C173.673 24.0398 172.643 22.9815 172.651 21.348C172.643 19.2457 174.483 17.9531 177.274 17.9531C180.03 17.9531 181.649 19.196 181.919 21.206Z" fill="white"/>
<path d="M164.656 29.0028V18.0938H167.589V19.9972H167.703C168.101 18.6477 169.102 17.9375 170.324 17.9375C170.629 17.9375 171.006 17.9801 171.276 18.044V20.7287C170.991 20.6364 170.416 20.5653 169.997 20.5653C168.662 20.5653 167.682 21.4886 167.682 22.831V29.0028H164.656Z" fill="white"/>
<path d="M157.678 29.2173C154.318 29.2173 152.266 27.0582 152.266 23.5994C152.266 20.233 154.347 17.9531 157.557 17.9531C160.44 17.9531 162.685 19.7855 162.685 23.4929V24.3239H155.256V24.331C155.256 25.9574 156.214 26.9588 157.727 26.9588C158.736 26.9588 159.517 26.5256 159.822 25.6946L162.621 25.8793C162.195 27.9034 160.376 29.2173 157.678 29.2173ZM155.256 22.4489H159.837C159.83 21.1491 158.92 20.2116 157.607 20.2116C156.264 20.2116 155.32 21.206 155.256 22.4489Z" fill="white"/>
<path d="M140.047 33.0952V18.0952H143.03V19.9276H143.165C143.57 19.0398 144.443 17.9531 146.268 17.9531C148.662 17.9531 150.686 19.8139 150.686 23.5639C150.686 27.2145 148.747 29.1818 146.261 29.1818C144.5 29.1818 143.584 28.1662 143.165 27.2571H143.072V33.0952H140.047ZM143.009 23.5497C143.009 25.4957 143.847 26.7741 145.303 26.7741C146.787 26.7741 147.597 25.4531 147.597 23.5497C147.597 21.6605 146.801 20.3608 145.303 20.3608C143.832 20.3608 143.009 21.6037 143.009 23.5497Z" fill="white"/>
<path d="M131.863 29.0028V18.0938H134.797V19.9972H134.91C135.308 18.6477 136.309 17.9375 137.531 17.9375C137.836 17.9375 138.213 17.9801 138.483 18.044V20.7287C138.199 20.6364 137.623 20.5653 137.204 20.5653C135.869 20.5653 134.889 21.4886 134.889 22.831V29.0028H131.863Z" fill="white"/>
<path d="M124.885 29.2173C121.525 29.2173 119.473 27.0582 119.473 23.5994C119.473 20.233 121.554 17.9531 124.764 17.9531C127.647 17.9531 129.892 19.7855 129.892 23.4929V24.3239H122.463V24.331C122.463 25.9574 123.422 26.9588 124.934 26.9588C125.943 26.9588 126.724 26.5256 127.029 25.6946L129.828 25.8793C129.402 27.9034 127.583 29.2173 124.885 29.2173ZM122.463 22.4489H127.044C127.037 21.1491 126.127 20.2116 124.814 20.2116C123.471 20.2116 122.527 21.206 122.463 22.4489Z" fill="white"/>
<path d="M118.058 18.0941V20.3668H116.005V25.6509C116.005 26.489 116.424 26.7163 117.028 26.7163C117.312 26.7163 117.632 26.6452 117.781 26.6168L118.257 28.8683C117.951 28.9677 117.397 29.1239 116.616 29.1523C114.422 29.2447 112.966 28.1864 112.98 26.0487V20.3668H111.488V18.0941H112.98V15.4805H116.005V18.0941H118.058Z" fill="white"/>
<path d="M102.838 22.6974V29.0043H99.8125V18.0952H102.696V20.0199H102.824C103.314 18.7486 104.486 17.9531 106.105 17.9531C108.378 17.9531 109.869 19.5156 109.869 22.0582V29.0043H106.844V22.598C106.851 21.2628 106.119 20.4673 104.905 20.4673C103.683 20.4673 102.845 21.2912 102.838 22.6974Z" fill="white"/>
<path d="M97.3409 14.457V29.0025H94.2656V14.457H97.3409Z" fill="white"/>
</svg>
