<svg width="355" height="42" viewBox="0 0 355 42" fill="none" xmlns="http://www.w3.org/2000/svg">
<path d="M308.27 42.0009L355.002 21.0932L308.27 0.185547L301.406 7.81267L308.27 14.678L301.406 21.0932L308.27 27.5085L301.406 34.372L308.27 42.0009Z" fill="#EECF93"/>
<rect x="47" y="41.998" width="47" height="41.82" rx="9" transform="rotate(180 47 41.998)" fill="#393C47"/>
<path d="M23 42.0009L301.041 42.0009H307.906L301.041 34.372L307.906 27.5085L301.041 21.0932L307.906 14.678L301.041 7.81267L307.906 0.185547L301.041 0.185547L23 0.18555L23 42.0009Z" fill="#491E5E"/>
<path d="M338.047 28.6731V13.5039L354.999 21.0885L338.047 28.6731Z" fill="#21282A"/>
<path d="M256.111 29.2154C252.752 29.2154 250.699 27.0563 250.699 23.5975C250.699 20.231 252.78 17.9512 255.99 17.9512C258.874 17.9512 261.118 19.7836 261.118 23.4909V24.3219H253.689V24.329C253.689 25.9554 254.648 26.9569 256.161 26.9569C257.169 26.9569 257.951 26.5236 258.256 25.6926L261.054 25.8773C260.628 27.9015 258.81 29.2154 256.111 29.2154ZM253.689 22.4469H258.27C258.263 21.1472 257.354 20.2097 256.04 20.2097C254.698 20.2097 253.753 21.204 253.689 22.4469Z" fill="white"/>
<path d="M243.398 33.3205C240.457 33.3205 238.774 31.9995 238.412 30.2807L241.21 29.9043C241.459 30.5648 242.134 31.1472 243.469 31.1472C244.783 31.1472 245.741 30.5648 245.741 29.0662V27.0705H245.614C245.216 27.9725 244.243 28.8461 242.503 28.8461C240.045 28.8461 238.078 27.1557 238.078 23.5265C238.078 19.812 240.102 17.9512 242.496 17.9512C244.321 17.9512 245.209 19.0378 245.614 19.9256H245.727V18.0932H248.732V29.1088C248.732 31.9 246.516 33.3205 243.398 33.3205ZM243.462 26.5733C244.918 26.5733 245.756 25.437 245.756 23.5123C245.756 21.6017 244.932 20.3588 243.462 20.3588C241.963 20.3588 241.168 21.6586 241.168 23.5123C241.168 25.3944 241.977 26.5733 243.462 26.5733Z" fill="white"/>
<path d="M229.788 29.18C227.302 29.18 225.363 27.2127 225.363 23.5621C225.363 19.8121 227.387 17.9514 229.781 17.9514C231.606 17.9514 232.48 19.038 232.885 19.9258H232.977V14.457H235.995V29.0025H233.012V27.2553H232.885C232.466 28.1644 231.549 29.18 229.788 29.18ZM230.747 26.7724C232.203 26.7724 233.041 25.494 233.041 23.5479C233.041 21.6019 232.217 20.359 230.747 20.359C229.248 20.359 228.453 21.6587 228.453 23.5479C228.453 25.4513 229.262 26.7724 230.747 26.7724Z" fill="white"/>
<path d="M218.787 29.2154C215.428 29.2154 213.375 27.0563 213.375 23.5975C213.375 20.231 215.456 17.9512 218.666 17.9512C221.55 17.9512 223.794 19.7836 223.794 23.4909V24.3219H216.365V24.329C216.365 25.9554 217.324 26.9569 218.837 26.9569C219.845 26.9569 220.626 26.5236 220.932 25.6926L223.73 25.8773C223.304 27.9015 221.486 29.2154 218.787 29.2154ZM216.365 22.4469H220.946C220.939 21.1472 220.03 20.2097 218.716 20.2097C217.374 20.2097 216.429 21.204 216.365 22.4469Z" fill="white"/>
<path d="M211.389 14.457V29.0025H208.363V14.457H211.389Z" fill="white"/>
<path d="M193.504 29.0028L190.535 18.0938H193.596L195.287 25.4233H195.386L197.147 18.0938H200.152L201.941 25.3807H202.034L203.696 18.0938H206.75L203.788 29.0028H200.585L198.71 22.142H198.575L196.7 29.0028H193.504Z" fill="white"/>
<path d="M184.291 29.2154C180.982 29.2154 178.922 26.9498 178.922 23.5904C178.922 20.2097 180.982 17.9512 184.291 17.9512C187.601 17.9512 189.661 20.2097 189.661 23.5904C189.661 26.9498 187.601 29.2154 184.291 29.2154ZM184.305 26.8716C185.804 26.8716 186.585 25.4725 186.585 23.5691C186.585 21.6657 185.804 20.2594 184.305 20.2594C182.778 20.2594 181.997 21.6657 181.997 23.5691C181.997 25.4725 182.778 26.8716 184.305 26.8716Z" fill="white"/>
<path d="M169.944 22.6955V29.0023H166.918V18.0932H169.801V20.0179H169.929C170.419 18.7466 171.591 17.9512 173.211 17.9512C175.483 17.9512 176.975 19.5137 176.975 22.0563V29.0023H173.949V22.5961C173.956 21.2608 173.225 20.4654 172.01 20.4654C170.789 20.4654 169.951 21.2892 169.944 22.6955Z" fill="white"/>
<path d="M155.277 29.0025V14.457H158.303V22.234H158.466L161.961 18.0934H165.434L161.385 22.8164L165.64 29.0025H162.096L159.12 24.6062L158.303 25.5366V29.0025H155.277Z" fill="white"/>
<path d="M140.801 33.0938C140.034 33.0938 139.331 32.9659 138.897 32.7813L139.579 30.5227C140.645 30.8494 141.404 30.7997 141.802 29.777L141.98 29.3153L138.066 18.0938H141.248L143.507 26.1051H143.62L145.9 18.0938H149.103L144.863 30.1818C144.245 31.9432 143.052 33.0938 140.801 33.0938Z" fill="white"/>
<path d="M130.414 29.0028V18.0938H133.347V19.9972H133.461C133.859 18.6477 134.86 17.9375 136.082 17.9375C136.387 17.9375 136.763 17.9801 137.033 18.044V20.7287C136.749 20.6364 136.174 20.5653 135.755 20.5653C134.42 20.5653 133.44 21.4886 133.44 22.831V29.0028H130.414Z" fill="white"/>
<path d="M128.445 18.0941V20.3668H126.392V25.6509C126.392 26.489 126.811 26.7163 127.415 26.7163C127.699 26.7163 128.018 26.6452 128.168 26.6168L128.643 28.8683C128.338 28.9677 127.784 29.1239 127.003 29.1523C124.808 29.2447 123.352 28.1864 123.366 26.0487V20.3668H121.875V18.0941H123.366V15.4805H126.392V18.0941H128.445Z" fill="white"/>
<path d="M120.489 21.204L117.719 21.3745C117.57 20.6713 116.945 20.0961 115.894 20.0961C114.957 20.0961 114.218 20.5222 114.225 21.1756C114.218 21.7012 114.594 22.0492 115.61 22.2694L117.585 22.6671C119.701 23.1003 120.731 24.0449 120.738 25.6216C120.731 27.7736 118.707 29.2154 115.88 29.2154C112.989 29.2154 111.214 27.9299 110.93 25.8418L113.906 25.6855C114.09 26.5733 114.808 27.035 115.887 27.035C116.945 27.035 117.648 26.5733 117.663 25.927C117.648 25.3801 117.215 25.0321 116.263 24.8404L114.374 24.464C112.244 24.0378 111.214 22.9796 111.221 21.3461C111.214 19.2438 113.053 17.9512 115.844 17.9512C118.6 17.9512 120.219 19.1941 120.489 21.204Z" fill="white"/>
<path d="M105.964 24.358V18.0938H108.99V29.0028H106.085V27.0213H105.972C105.482 28.2997 104.303 29.1449 102.662 29.1449C100.467 29.1449 98.9759 27.5895 98.9688 25.0398V18.0938H101.994V24.5C102.001 25.7855 102.74 26.5881 103.884 26.5881C104.97 26.5881 105.972 25.821 105.964 24.358Z" fill="white"/>
<path d="M90.2763 29.18C87.7905 29.18 85.8516 27.2127 85.8516 23.5621C85.8516 19.8121 87.8757 17.9514 90.2692 17.9514C92.0945 17.9514 92.968 19.038 93.3729 19.9258H93.4652V14.457H96.4837V29.0025H93.5007V27.2553H93.3729C92.9538 28.1644 92.0376 29.18 90.2763 29.18ZM91.2351 26.7724C92.6911 26.7724 93.5291 25.494 93.5291 23.5479C93.5291 21.6019 92.7053 20.359 91.2351 20.359C89.7365 20.359 88.9411 21.6587 88.9411 23.5479C88.9411 25.4513 89.7507 26.7724 91.2351 26.7724Z" fill="white"/>
<path d="M76.8381 22.6955V29.0023H73.8125V18.0932H76.696V20.0179H76.8239C77.3139 18.7466 78.4858 17.9512 80.1051 17.9512C82.3778 17.9512 83.8693 19.5137 83.8693 22.0563V29.0023H80.8438V22.5961C80.8509 21.2608 80.1193 20.4654 78.9048 20.4654C77.6832 20.4654 76.8452 21.2892 76.8381 22.6955Z" fill="white"/>
<path d="M71.3409 14.457V29.0025H68.2656V14.457H71.3409Z" fill="white"/>
</svg>
