<svg width="156" height="235" viewBox="0 0 156 235" fill="none" xmlns="http://www.w3.org/2000/svg">
<path d="M142.689 17.2939H0V234.209H142.689V17.2939Z" fill="#393C47"/>
<path d="M133.75 137.275C133.75 140.51 132.297 142.361 130.406 142.76L129.992 139.682C130.719 139.408 131.359 138.666 131.359 137.197C131.359 135.752 130.719 134.697 129.07 134.697L126.875 134.697L126.875 134.838C127.867 135.275 128.828 136.346 128.828 138.26C128.828 140.963 126.969 143.127 122.977 143.127C118.891 143.127 116.844 140.9 116.844 138.268C116.844 136.26 118.039 135.283 119.016 134.838L119.016 134.713L117 134.713L117 131.408L129.117 131.408C132.187 131.408 133.75 133.846 133.75 137.275ZM126.328 137.205C126.328 135.604 125.078 134.682 122.961 134.682C120.859 134.682 119.492 135.588 119.492 137.205C119.492 138.854 120.922 139.729 122.961 139.729C125.031 139.729 126.328 138.838 126.328 137.205Z" fill="white"/>
<path d="M122.062 153.039L129 153.039L129 156.367L117 156.367L117 153.195L119.117 153.195L119.117 153.055C117.719 152.516 116.844 151.227 116.844 149.445C116.844 146.945 118.562 145.305 121.359 145.305L129 145.305L129 148.633L121.953 148.633C120.484 148.625 119.609 149.43 119.609 150.766C119.609 152.109 120.516 153.031 122.062 153.039Z" fill="white"/>
<path d="M129 162.361L117 162.361L117 159.033L129 159.033L129 162.361ZM115.453 160.689C115.453 161.674 114.695 162.486 113.766 162.486C112.844 162.486 112.086 161.674 112.086 160.689C112.086 159.697 112.844 158.885 113.766 158.885C114.695 158.885 115.453 159.697 115.453 160.689Z" fill="white"/>
<path d="M129 178.707L117 181.973L117 178.605L125.062 176.746L125.062 176.637L117 174.699L117 171.395L125.016 169.426L125.016 169.324L117 167.496L117 164.137L129 167.395L129 170.918L121.453 172.98L121.453 173.129L129 175.191L129 178.707Z" fill="white"/>
<path d="M129.227 190.414C129.227 192.703 128.023 194.398 125.648 194.398C122.969 194.398 122.172 192.266 121.953 189.891C121.75 187.805 121.648 186.984 120.875 186.984L120.828 186.984C119.844 186.984 119.273 187.633 119.273 188.766C119.273 189.961 119.859 190.672 120.656 190.898L120.406 193.977C118.219 193.516 116.844 191.625 116.844 188.75C116.844 186.078 118.047 183.656 120.906 183.656L129 183.656L129 186.812L127.336 186.812L127.336 186.906C128.453 187.492 129.227 188.641 129.227 190.414ZM126.93 189.461C126.93 188 125.969 186.961 124.711 186.961L123.437 186.961C123.703 187.359 123.875 188.547 123.977 189.273C124.141 190.445 124.602 191.219 125.539 191.219C126.453 191.219 126.93 190.484 126.93 189.461Z" fill="white"/>
<path d="M129 202.494L117 202.494L117 199.268L119.094 199.268L119.094 199.143C117.609 198.705 116.828 197.604 116.828 196.26C116.828 195.924 116.875 195.51 116.945 195.213L119.898 195.213C119.797 195.525 119.719 196.158 119.719 196.619C119.719 198.088 120.734 199.166 122.211 199.166L129 199.166L129 202.494Z" fill="white"/>
<path d="M129 212.766L129 218.437L113 218.438L113 212.719C113 207.891 116 204.937 120.984 204.937C125.984 204.937 129 207.891 129 212.766ZM126.102 215.055L126.102 212.906C126.102 209.898 124.555 208.312 120.984 208.312C117.43 208.312 115.898 209.898 115.898 212.898L115.898 215.055L126.102 215.055Z" fill="white"/>
<path d="M29.4375 87.4087V17.2744H53.5174V87.4087L41.4766 76.1926L29.4375 87.4087Z" fill="#328F7D"/>
</svg>
