<svg width="629" height="427" viewBox="0 0 629 427" fill="none" xmlns="http://www.w3.org/2000/svg">
<g clip-path="url(#clip0_18764_31103)">
<path d="M373.784 171.784L411.457 179.141C411.457 179.141 448.089 185.795 441.374 177.593C432.403 166.622 433.261 155.267 429.725 147.903C428.326 144.99 427.27 141.224 426.475 137.147C424.774 128.418 424.258 118.26 424.115 111.909C424.02 108.159 424.067 105.725 424.067 105.725L424.616 102.741L409.454 68.9492C409.454 68.9492 390.296 85.865 388.699 102.685C387.245 118.021 372.099 154.924 373.792 171.776L373.784 171.784Z" fill="#EFAEA6"/>
<path opacity="0.14" d="M426.457 137.154C424.756 128.425 424.24 118.267 424.097 111.916L412.178 107.088C412.178 107.088 393.735 96.4841 390.461 100.825C385.717 107.088 406.226 139.827 426.465 137.154H426.457Z" fill="#1F1F3B"/>
<path d="M433.856 46.7812C448.564 79.2164 463.034 79.9026 452.132 85.1608C443.725 89.2142 465.585 112.354 456.463 116.295C434.364 125.846 405.838 119.918 398.567 109.713C391.296 99.5073 380.664 67.2158 380.664 67.2158L433.856 46.7892V46.7812Z" fill="#EFAEA6"/>
<path d="M416.644 73.2022C423.518 71.4388 424.344 72.9868 428.047 68.8456C431.75 64.7124 421.237 61.1777 429.239 56.3264C437.241 51.4751 446.442 47.2382 443.375 36.586C438.933 21.1783 427.244 28.4393 420.133 33.2109C415.556 36.2828 409.922 25.3594 400.116 29.7719C392.416 33.2348 395.19 37.6792 388.459 41.0783C384.399 43.1369 373.346 39.0755 368.816 46.9828C360.409 61.6564 375.284 69.8111 369.19 84.3411C362.086 101.289 399.647 116.792 401.602 112.372C403.891 107.209 393.505 96.605 396.103 92.1367C400.029 85.4023 402.691 90.1977 409.246 93.0303C416.255 96.0544 425.735 92.6872 415.993 85.3624C406.251 78.0376 410.43 74.798 416.652 73.1942L416.644 73.2022Z" fill="#1F1F3B"/>
<path d="M267.739 571.847C268.287 578.956 269.018 586.704 270.011 595.178C273.738 626.958 281.605 734.166 279.682 802.26C277.759 870.018 283.734 1028.54 283.734 1052.82C304.227 1061.84 316.917 1059.03 346.207 1052.82C346.207 1052.82 351.412 922.026 357.181 807.518C361.861 714.545 363.22 739.392 380.225 621.006V621.022C380.431 621.573 384.571 633.102 390.61 650.848C403.523 688.725 425.096 739.376 435.442 787.291C451.565 862.047 443.15 1056.9 449.896 1063.62C470.008 1075.52 504.034 1076.67 513.116 1060.15C513.116 1060.15 516.97 819.183 509.811 781.442C504.963 755.781 464.033 504.303 454.903 436.744C454.903 436.744 274.628 397.271 269.105 459.11C268.351 467.567 268.128 475.028 268.231 482.153C268.374 491.752 267.842 500.649 267.325 510.407C266.483 526.35 265.649 544.55 267.731 571.839L267.739 571.847Z" fill="#3B3B4D"/>
<path d="M378.717 137.416C395.078 132.956 396.675 160.101 413.163 161.418C421.872 162.112 419.949 158.298 424.058 154.268C426.592 151.787 428.96 149.002 432.965 153.127C514.366 236.996 429.604 448.458 439.966 463.22C448.436 475.292 379.551 501.631 336.284 491.035C276.95 476.505 280.558 411.802 282.274 399.443C283.991 387.083 322.212 177.041 322.212 177.041C322.212 177.041 352.264 161.082 378.709 137.424L378.717 137.416Z" fill="#EDEDED"/>
<path d="M498.032 401.95C512.645 386 530.437 382.209 530.437 359.836C530.437 310.062 490.404 156.289 432.969 153.129C432.969 153.129 430.951 167.164 435.663 203.772C441.893 252.15 414.772 286.564 420.271 345.099C427.383 420.804 395.813 486.249 414.375 503.317C425.19 513.259 446.08 519.841 464.182 500.963C492.668 471.256 481.051 381.005 478.453 357.857C477.444 348.849 475.219 336.705 473.312 324.121C470.952 308.474 468.782 315.177 459.891 299.227C458.532 296.793 436.378 347.724 434.471 382.178C432.452 418.642 435.957 403.187 444.952 425.249C451.873 442.204 487.13 413.839 498.008 401.958L498.032 401.95Z" fill="#0069A8"/>
<path d="M259.483 514.152C285.42 530.438 319.93 530.932 342.759 506.788C361.687 486.768 342.537 460.852 356.538 414.158C364.317 388.242 376.379 341.787 378.946 309.544C384.429 240.915 380.241 156.791 378.707 137.41C378.707 137.41 337.491 138.431 303.64 173.851C289.409 188.732 280.461 231.771 278.943 263.233C278.459 273.558 278.173 281.856 278.03 288.87C277.744 303.192 278.077 312.129 278.546 321.927C278.729 325.829 278.928 329.867 279.118 334.423C279.325 339.577 279.531 345.402 279.659 352.455C279.873 363.985 275.987 382.928 271.172 403.889H271.164C260.604 449.817 245.577 505.423 259.475 514.152H259.483Z" fill="#0069A8"/>
<path d="M393.566 281.138L398.62 276.047L389.808 267.222C389.41 266.831 389.005 266.744 388.322 266.776C386.907 266.839 384.412 270.031 384.309 270.757C384.206 271.483 384.357 271.922 384.754 272.321L393.566 281.146V281.138Z" fill="#1F1F3B"/>
<path d="M395.097 272.52L394.596 273.022L393.357 274.275L391.179 276.469L391.076 276.573L390.043 277.618L466.58 354.234L466.755 354.329L473.486 357.88C474.646 358.487 475.893 357.234 475.281 356.077L471.634 349.151L471.404 348.92L395.097 272.536V272.52Z" fill="#3B3B4D"/>
<path d="M466.59 354.233L475.553 359.388C476.364 359.858 477.277 358.941 476.809 358.127L471.652 349.142L471.564 349.055C470.476 349.637 470.007 349.127 469.633 349.581C469.156 350.156 470.102 351.528 469.53 352.103C468.958 352.677 468.616 351.807 468.052 352.382C467.488 352.956 467.837 353.308 467.488 353.659C467.138 354.01 467.377 353.443 466.59 354.241V354.233Z" fill="#EFAEA6"/>
<path d="M473.608 358.273L476.81 360.116C477.279 360.388 477.796 359.861 477.533 359.39L475.698 356.191C475.674 356.143 475.618 356.127 475.571 356.143C474.728 356.462 475.102 357.124 474.665 357.475C474.45 357.643 474.037 357.874 473.624 358.09C473.552 358.13 473.552 358.233 473.624 358.273H473.608Z" fill="#1F1E39"/>
<path opacity="0.79" d="M391.179 276.471L391.076 276.574L390.043 277.62L466.58 354.235L467.478 353.653C459.89 344.525 428.431 313.925 418.657 304.158C410.918 296.418 399.944 284.905 391.187 276.471H391.179Z" fill="#1F1F3B"/>
<path d="M389.709 276.582C388.144 278.609 392.038 284.098 398.402 289.412C404.767 294.735 408.073 296.913 408.947 300.448" stroke="#1F1F3B" stroke-width="3.27" stroke-linecap="round" stroke-linejoin="round"/>
<path opacity="0.2" d="M379.808 308.93C351.679 317.563 309.302 328.566 308.348 320.906C306.846 308.81 334.722 248.169 333.768 247.849C332.814 247.53 275.308 289.325 275.308 289.325L282.189 361.959C282.189 361.959 263.023 434.377 264.183 433.851C267.163 432.494 363.097 391.099 363.097 391.099C363.097 391.099 364.909 382.768 396.209 371.646C403.837 368.941 381.985 336.769 379.514 317.715C378.56 310.374 379.8 308.922 379.8 308.922L379.808 308.93Z" fill="#1F1F3B"/>
<path d="M389.386 316.422C415.14 310.374 409.347 302.682 414.631 302.826C420.821 302.994 425.835 296.953 434.028 302.491C437.5 304.845 448.077 305.683 445.065 319.782C442.053 333.889 434.028 348.993 419.987 349.328C406.963 349.64 376.18 367.968 376.18 367.968L389.386 316.422Z" fill="#EFAEA6"/>
<path d="M352.078 219.363C324.544 260.926 291.504 316.764 293.729 338.778C294.381 345.225 386.437 302.792 391.586 306.558C398.579 311.665 405.246 369.41 398.261 371.325C391.268 373.24 247.133 425.296 232.409 396.85C206.989 347.715 292.474 187.223 303.988 173.826C315.502 160.429 365.213 154.66 364.681 178.645C364.148 202.63 352.078 219.379 352.078 219.379V219.363Z" fill="#0069A8"/>
<path opacity="0.26" d="M466.295 326.898C463.974 304.077 466.994 277.18 466.994 277.18L475.576 313.389L466.303 326.898H466.295Z" fill="#1F1F3B"/>
<path d="M580.273 311.092C579.494 310.701 498.094 274.89 479.285 294.128C463.17 310.605 422.049 428.098 421.858 437.704C421.667 447.311 432.013 450.359 432.013 450.359L580.273 311.1V311.092Z" fill="#D6D6D8"/>
<path d="M586.078 315.751C572.442 298.173 488.364 287.362 483.088 296.777C472.035 316.509 417.786 436.436 428.005 448.005C437.397 458.634 517.662 473.602 525.576 466.836C537.924 456.272 596.829 329.627 586.078 315.751Z" fill="white"/>
<path d="M545.546 398.032C539.825 401.064 535.057 407.064 531.752 412.952C525.149 424.722 518.688 427.945 530.234 439.3C541.78 450.654 546.635 445.914 553.739 439.986C560.851 434.057 574.51 408.899 565.015 400.896C557.927 394.928 551.26 394.999 545.539 398.032" fill="#EFAEA6"/>
<path opacity="0.28" d="M411.385 180.907C409.786 180.015 396.81 210.646 376.903 221.878C371.406 224.984 365.415 227.293 359.047 228.114C340.41 230.505 296.678 231.319 272.926 230.091C279.822 220.589 282.521 216.29 290.74 207.45C308.214 211.519 345.825 211.455 355.525 209.695C362.71 208.39 369.407 205.892 375.539 202.727C387.08 196.786 396.646 188.477 403.824 181.35C407.481 177.712 407.664 172.563 412.355 172.037C418.581 171.334 413.437 182.047 411.379 180.913L411.385 180.907Z" fill="#1F1F39"/>
<path d="M419.451 167.779C418.981 164.537 416.235 159.447 409.268 160.227C404.018 160.817 403.753 162.949 399.661 167.024C387.362 179.259 368.76 194.548 345.607 198.753C322.454 202.963 266.776 176.708 232.806 186.611C198.835 196.52 190.739 227.753 141.476 239.216C92.2126 250.678 36.9291 233.883 22.413 237.444C7.8969 241.005 -0.76926 244.826 0.0538486 250.53C0.876958 256.235 8.95518 265.175 19.6203 268.482C30.2796 271.789 121.833 271.204 145.627 266.268C184.471 258.207 215.456 220.909 240.572 216.852C265.689 212.795 320.037 223.147 349.558 219.356C382.476 215.128 406.382 175.303 408.674 176.572C410.967 177.848 413.096 179.088 417.252 177.73C420.11 176.797 419.922 171.015 419.451 167.773V167.779Z" fill="#F4AD00"/>
</g>
<defs>
<clipPath id="clip0_18764_31103">
<rect width="629" height="427" fill="white"/>
</clipPath>
</defs>
</svg>
