<svg width="140" height="140" viewBox="0 0 140 140" fill="none" xmlns="http://www.w3.org/2000/svg">
<path d="M36 35H94V103H36V35Z" fill="#E0F0FF"/>
<path d="M86.3351 69.9869C86.3351 79.02 79.0052 86.3512 69.9738 86.3512C60.9424 86.3512 53.6126 79.02 53.6126 69.9869C53.6126 60.9538 60.9424 53.6226 69.9738 53.6226C79.0052 53.6226 86.3351 60.9538 86.3351 69.9869ZM96.8063 69.9869C96.8063 84.7803 84.7644 96.8244 69.9738 96.8244C55.1832 96.8244 43.1414 84.7803 43.1414 69.9869C43.1414 55.1936 55.1832 43.1494 69.9738 43.1494C84.7644 43.1494 96.8063 55.1936 96.8063 69.9869ZM90.2618 69.9869C90.2618 58.8068 81.1518 49.6952 69.9738 49.6952C58.7958 49.6952 49.6859 58.8068 49.6859 69.9869C49.6859 81.167 58.7958 90.2787 69.9738 90.2787C81.1518 90.2787 90.2618 81.167 90.2618 69.9869ZM140 69.9869C140 74.7784 139.529 79.5437 138.56 84.1257C138.377 84.9897 137.644 85.6181 136.78 85.6967L121.597 86.7701C120.707 89.5455 119.607 92.19 118.351 94.625L128.298 106.093C128.874 106.748 128.953 107.716 128.455 108.45C123.272 116.357 116.335 123.269 108.455 128.453C107.723 128.925 106.754 128.872 106.099 128.296L94.6335 118.347C92.1989 119.604 89.555 120.677 86.7801 121.593L85.7068 136.779C85.6544 137.644 85 138.377 84.1361 138.56C79.5288 139.503 74.7906 140 70 140C65.2094 140 60.445 139.529 55.8639 138.56C55 138.377 54.3717 137.644 54.2932 136.779L53.2199 121.593C50.445 120.703 47.801 119.604 45.3665 118.347L33.9005 128.296C33.2461 128.872 32.2775 128.925 31.5445 128.453C23.6387 123.269 16.7277 116.331 11.5445 108.45C11.0733 107.716 11.1257 106.748 11.7016 106.093L21.6492 94.625C20.3927 92.19 19.3194 89.5455 18.4031 86.7701L3.2199 85.6967C2.35602 85.6443 1.62304 84.9897 1.43979 84.1257C0.497383 79.5175 0 74.7784 0 69.9869C0 65.1954 0.471205 60.4301 1.43979 55.8481C1.62304 54.9841 2.35602 54.3557 3.2199 54.2772L18.4031 53.2037C19.2932 50.4283 20.3927 47.7838 21.6492 45.3488L11.7016 33.8807C11.1257 33.2261 11.0471 32.2573 11.5445 31.5242C16.7277 23.617 23.6649 16.7047 31.5445 11.5205C32.2775 11.0492 33.2461 11.1016 33.9005 11.6776L45.3665 21.6271C47.801 20.3703 50.445 19.2968 53.2199 18.3804L54.2932 3.19431C54.3455 2.33028 55 1.59716 55.8639 1.41388C65.0524 -0.471292 74.9476 -0.471292 84.1361 1.41388C85 1.59716 85.6283 2.33028 85.7068 3.19431L86.7801 18.3804C89.555 19.2706 92.1989 20.3703 94.6335 21.6271L106.099 11.6776C106.754 11.1016 107.723 11.0492 108.455 11.5205C116.361 16.7047 123.272 23.6432 128.455 31.5242C128.927 32.2573 128.874 33.2261 128.298 33.8807L118.351 45.3488C119.607 47.7838 120.681 50.4283 121.597 53.2037L136.78 54.2772C137.644 54.3295 138.377 54.9841 138.56 55.8481C139.503 60.4563 140 65.1954 140 69.9869ZM100.733 69.9869C100.733 53.0204 86.9372 39.222 69.9738 39.222C53.0105 39.222 39.2147 53.0204 39.2147 69.9869C39.2147 86.9534 53.0105 100.752 69.9738 100.752C86.9372 100.752 100.733 86.9534 100.733 69.9869Z" fill="#E0F0FF"/>
<path fill-rule="evenodd" clip-rule="evenodd" d="M121.597 86.7701L136.78 85.6967C137.644 85.6181 138.377 84.9897 138.56 84.1257C139.529 79.5437 140 74.7784 140 69.9869C140 65.1954 139.503 60.4563 138.56 55.8481C138.377 54.9841 137.644 54.3295 136.78 54.2772L121.597 53.2037C120.681 50.4283 119.607 47.7838 118.351 45.3488L128.298 33.8807C128.874 33.2261 128.927 32.2573 128.455 31.5242C123.272 23.6432 116.361 16.7047 108.455 11.5205C107.723 11.0492 106.754 11.1016 106.099 11.6776L94.6335 21.6271C92.1989 20.3703 89.555 19.2706 86.7801 18.3804L85.7068 3.19431C85.6283 2.33028 85 1.59716 84.1361 1.41388C74.9476 -0.471292 65.0524 -0.471292 55.8639 1.41388C55 1.59716 54.3455 2.33028 54.2932 3.19431L53.2199 18.3804C50.445 19.2968 47.801 20.3703 45.3665 21.6271L33.9005 11.6776C33.2461 11.1016 32.2775 11.0492 31.5445 11.5205C23.6649 16.7047 16.7277 23.617 11.5445 31.5242C11.0471 32.2573 11.1257 33.2261 11.7016 33.8807L21.6492 45.3488C20.3927 47.7838 19.2932 50.4283 18.4031 53.2037L3.2199 54.2772C2.35602 54.3557 1.62304 54.9841 1.43979 55.8481C0.471205 60.4301 0 65.1954 0 69.9869C0 74.7784 0.497383 79.5175 1.43979 84.1257C1.62304 84.9897 2.35602 85.6443 3.2199 85.6967L18.4031 86.7701C19.3194 89.5455 20.3927 92.19 21.6492 94.625L11.7016 106.093C11.1257 106.748 11.0733 107.716 11.5445 108.45C16.7277 116.331 23.6387 123.269 31.5445 128.453C32.2775 128.925 33.2461 128.872 33.9005 128.296L45.3665 118.347C47.801 119.604 50.445 120.703 53.2199 121.593L54.2932 136.779C54.3717 137.644 55 138.377 55.8639 138.56C60.445 139.529 65.2094 140 70 140C74.7906 140 79.5288 139.503 84.1361 138.56C85 138.377 85.6544 137.644 85.7068 136.779L86.7801 121.593C89.555 120.677 92.1989 119.604 94.6335 118.347L106.099 128.296C106.754 128.872 107.723 128.925 108.455 128.453C116.335 123.269 123.272 116.357 128.455 108.45C128.953 107.716 128.874 106.748 128.298 106.093L118.351 94.625C119.607 92.19 120.707 89.5455 121.597 86.7701ZM107.537 124.247C114.016 119.759 119.768 114.022 124.252 107.532L113.553 95.1989L114.796 92.7907C115.949 90.557 116.964 88.1179 117.788 85.5486L118.615 82.971L134.94 81.8168C135.65 77.9781 136 74.0001 136 69.9869C136 65.9916 135.633 62.0309 134.932 58.1565L118.639 57.0045L117.798 54.4576C116.935 51.8428 115.939 49.3981 114.796 47.1831L113.553 44.7749L124.25 32.4432C119.762 25.963 114.027 20.2099 107.538 15.7249L95.2076 26.425L92.7987 25.1814C90.5655 24.0286 88.1269 23.0133 85.5582 22.1892L82.9809 21.3624L81.8275 5.04262C74.1018 3.65246 65.8982 3.65246 58.1725 5.04262L57.0209 21.3376L54.4743 22.1786C51.86 23.042 49.4158 24.0382 47.2013 25.1814L44.7924 26.425L32.4632 15.7264C25.9844 20.2152 20.2325 25.9519 15.7484 32.4416L26.4466 44.7749L25.2038 47.1831C24.0512 49.4168 23.036 51.8559 22.2121 54.4252L21.3854 57.0028L5.05979 58.1571C4.34968 61.9958 4 65.9737 4 69.9869C4 73.9822 4.36704 77.943 5.06826 81.8174L21.3607 82.9693L22.2015 85.5162C23.0647 88.131 24.0608 90.5757 25.2038 92.7907L26.4466 95.1989L15.7498 107.531C20.2378 114.011 25.9733 119.764 32.4616 124.249L44.7924 113.549L47.2013 114.792C49.4345 115.945 51.8731 116.961 54.4418 117.785L57.0191 118.611L58.1732 134.94C62.0109 135.65 65.9878 136 70 136C73.9943 136 77.954 135.633 81.8274 134.932L82.9791 118.636L85.5257 117.795C88.14 116.932 90.5841 115.936 92.7987 114.792L95.2076 113.549L107.537 124.247ZM69.9738 82.3512C76.7954 82.3512 82.3351 76.8116 82.3351 69.9869C82.3351 63.1622 76.7954 57.6226 69.9738 57.6226C63.1522 57.6226 57.6126 63.1622 57.6126 69.9869C57.6126 76.8116 63.1522 82.3512 69.9738 82.3512ZM69.9738 35.222C89.147 35.222 104.733 50.812 104.733 69.9869C104.733 89.1619 89.147 104.752 69.9738 104.752C50.8006 104.752 35.2147 89.1619 35.2147 69.9869C35.2147 50.812 50.8006 35.222 69.9738 35.222ZM69.9738 86.3512C79.0052 86.3512 86.3351 79.02 86.3351 69.9869C86.3351 60.9538 79.0052 53.6226 69.9738 53.6226C60.9424 53.6226 53.6126 60.9538 53.6126 69.9869C53.6126 79.02 60.9424 86.3512 69.9738 86.3512ZM69.9738 96.8244C84.7644 96.8244 96.8063 84.7803 96.8063 69.9869C96.8063 55.1936 84.7644 43.1494 69.9738 43.1494C55.1832 43.1494 43.1414 55.1936 43.1414 69.9869C43.1414 84.7803 55.1832 96.8244 69.9738 96.8244ZM69.9738 49.6952C81.1518 49.6952 90.2618 58.8068 90.2618 69.9869C90.2618 81.167 81.1518 90.2787 69.9738 90.2787C58.7958 90.2787 49.6859 81.167 49.6859 69.9869C49.6859 58.8068 58.7958 49.6952 69.9738 49.6952ZM69.9738 39.222C86.9372 39.222 100.733 53.0204 100.733 69.9869C100.733 86.9534 86.9372 100.752 69.9738 100.752C53.0105 100.752 39.2147 86.9534 39.2147 69.9869C39.2147 53.0204 53.0105 39.222 69.9738 39.222Z" fill="#78B6FD"/>
</svg>
