<svg width="105" height="120" viewBox="0 0 105 120" fill="none" xmlns="http://www.w3.org/2000/svg">
<path opacity="0.06" d="M63.75 71.25C86.4844 71.25 105 89.7656 105 112.5C105 116.719 101.484 120 97.5 120H7.5C3.28125 120 0 116.719 0 112.5C0 89.7656 18.2812 71.25 41.25 71.25H63.75ZM11.25 108.75H93.5156C91.6406 93.9844 78.9844 82.5 63.75 82.5H41.25C25.7812 82.5 13.125 93.9844 11.25 108.75ZM52.5 60C35.8594 60 22.5 46.6406 22.5 30C22.5 13.5938 35.8594 0 52.5 0C68.9062 0 82.5 13.5938 82.5 30C82.5 46.6406 68.9062 60 52.5 60ZM52.5 11.25C41.9531 11.25 33.75 19.6875 33.75 30C33.75 40.5469 41.9531 48.75 52.5 48.75C62.8125 48.75 71.25 40.5469 71.25 30C71.25 19.6875 62.8125 11.25 52.5 11.25Z" fill="#1D1E24"/>
</svg>
