<svg width="847" height="427" viewBox="0 0 847 427" fill="none" xmlns="http://www.w3.org/2000/svg">
<g clip-path="url(#clip0_18764_31062)">
<mask id="mask0_18764_31062" style="mask-type:luminance" maskUnits="userSpaceOnUse" x="-14" y="-16" width="872" height="650">
<path d="M-13.8655 -16H858V634H-13.8655V-16Z" fill="white"/>
</mask>
<g mask="url(#mask0_18764_31062)">
<path d="M264.792 969.342C264.792 969.342 394.46 862.474 432.293 778.14C456.622 713.231 463.082 640.146 475.896 578.431C475.896 578.431 533.672 718.357 553.156 766.056C572.641 813.744 587.845 987.277 588.922 997.535C589.998 1007.8 650.184 991.594 648.886 984.571C647.588 977.547 620.521 779.021 615.938 745.354C611.355 711.686 559.677 479.181 536.745 414.648L511.359 421.158C511.359 421.158 383.598 439.416 382.22 448.592C381.54 453.115 380.932 457.879 380.373 462.855C380.353 463.016 380.333 463.177 380.313 463.333C377.646 487.225 376.258 515.826 375.589 545.71C373.642 631.624 377.646 728.133 374.422 753.77C369.838 790.235 249.709 899.13 226.778 929.99C222.195 931.388 235.748 951.105 264.792 969.342Z" fill="#3B3B4C"/>
<path d="M122.711 234.58C106.828 234.962 78.9362 242.649 75.6963 231.053C72.8387 220.835 72.1193 219.602 65.1867 222.083C62.8473 222.923 61.7907 240.25 54.204 241.96C23.8975 248.772 -4.97516 234.414 2.86308 252.631C9.73537 268.599 36.6108 278.525 56.3221 272.971C64.9049 270.551 85.6576 264.448 110.878 269.012C134.081 273.207 122.711 234.58 122.711 234.58Z" fill="#EFAEA6"/>
<path d="M741.087 98.1707C746.933 83.6513 764.848 77.7198 765.079 67.4315C765.311 57.1432 763.927 50.1703 770.915 48.8069C773.275 48.3491 781.963 63.7086 789.459 63.0948C814.086 61.0724 823.992 51.1463 841.691 58.5318C856.562 64.74 834.97 85.1053 812.441 86.9718C802.505 87.7968 780.756 95.7508 773.733 113.067C764.974 134.67 741.087 98.1656 741.087 98.1656V98.1707Z" fill="#EFAEA6"/>
<path d="M426.01 188.079L462.409 186.041C462.409 186.041 497.697 183.586 489.597 177.629C478.78 169.67 476.929 159.05 471.973 153.133C469.307 149.949 466.857 145.185 464.744 140.118C459.99 128.723 456.946 115.779 456.946 115.779L456.82 113.847L456.755 112.916L434.94 85.457C434.94 85.457 421.236 105.445 423.676 121.242C425.9 135.641 420.542 173.016 426.021 188.074L426.01 188.079Z" fill="#EFAEA6"/>
<path opacity="0.14" d="M464.746 140.114C459.992 128.719 456.948 115.774 456.948 115.774L456.822 113.842L447.143 112.529C447.143 112.529 427.371 112.841 425.354 117.59C422.325 124.729 442.031 136.336 464.746 140.114Z" fill="#1F1F3B"/>
<path d="M441.841 55.4375C452.23 62.9588 479.734 68.3268 474.129 74.9174C468.525 81.5079 496.095 90.785 490.379 98.0196C476.529 115.537 449.277 125.956 439.255 121.157C429.233 116.357 407.454 95.5896 407.454 95.5896L441.841 55.4425V55.4375Z" fill="#EFAEA6"/>
<path d="M436.334 81.0052C441.501 76.1704 442.9 77.086 444.278 71.7683C445.657 66.4506 435.006 68.5384 439.791 60.5291C444.575 52.5148 450.663 44.4401 443.317 36.8635C432.687 25.896 425.774 37.7439 421.724 45.2602C419.118 50.0949 409.434 43.5245 402.894 52.0419C397.762 58.723 402.114 61.163 397.797 67.326C395.191 71.0489 383.841 72.9506 383.409 81.8856C382.609 98.4576 399.065 98.1909 400.197 113.525C401.52 131.41 440.842 126.389 440.591 121.675C440.294 116.172 426.635 112.172 426.916 107.111C427.344 99.4738 431.756 102.261 438.679 101.491C446.069 100.671 452.786 93.2002 441.129 91.6909C429.472 90.1816 431.661 85.3871 436.334 81.0102V81.0052Z" fill="#1F1F3B"/>
<path d="M424.555 147.276C438.37 141.143 443.351 164.975 458.041 163.939C465.799 163.39 463.6 160.271 466.694 156.151C468.596 153.615 470.322 150.833 474.387 153.952C557.086 217.387 510.308 416.075 521.371 427.767C530.416 437.331 473.245 469.866 433.757 466.259C379.608 461.314 374.265 403.498 374.155 392.319C374.039 381.14 380.036 189.923 380.036 189.923C380.036 189.923 404.391 171.767 424.555 147.276Z" fill="white"/>
<path d="M744.119 83.9902C739.385 90.8776 666.899 157.246 640.361 159.751C612.187 162.408 535.289 151.752 473.298 153.951C473.298 153.951 473.363 166.659 482.112 198.46C493.668 240.488 474.807 274.608 487.042 325.738C497.401 369.039 504.424 435.076 485.125 457.559C471.818 473.065 487.611 494.854 512.509 485.536C524.805 480.938 548.702 483.428 554.839 460.829C563.241 429.894 547.806 359.873 542.609 339.714C540.587 331.866 539.409 305.79 538.675 294.445C537.342 273.919 538.398 250.027 552.455 234.411C570.39 214.483 617.681 221.698 648.642 213.532C681.61 204.839 781.011 117.094 783.587 112.546C789.126 102.766 748.546 77.5657 744.129 83.9953L744.119 83.9902Z" fill="#0771A5"/>
<path d="M90.2321 228.302C94.5839 229.167 196.803 237.373 235.405 232.493C280.095 226.848 367.554 161.712 424.715 147.273C428.046 146.433 442.907 238.218 447.013 299.752C448.939 328.675 444.558 371.443 441.197 395.445C436.443 429.55 447.747 449.448 446.001 466.292C445.544 470.794 444.145 475.076 441.262 479.357C424.766 503.792 368.112 519.101 348.748 500.276C326.119 478.275 363.438 439.849 366.608 397.76V397.75C366.9 393.992 367.156 390.294 367.388 386.722C368.318 372.036 367.317 347.666 366.905 345.05C366.15 340.236 371.624 275.573 349.986 261.355C331.789 249.397 255.932 285.952 237.82 284.976C213.244 283.648 115.055 281.756 94.5386 276.428C83.9484 273.676 84.2201 227.11 90.2321 228.307V228.302Z" fill="#0771A5"/>
<path opacity="0.2" d="M455.616 169.301C454.388 168.355 440.216 193.062 422.457 200.377C417.552 202.4 412.325 203.683 406.952 203.647C391.23 203.542 326.577 192.941 326.577 192.941C326.577 192.941 345.976 183.136 353.774 176.52C367.811 182.014 397.846 187.87 406.086 187.483C412.194 187.196 418.02 185.828 423.458 183.83C433.691 180.077 442.551 174.075 449.297 168.803C452.733 166.111 453.458 161.724 457.412 161.82C462.654 161.936 457.196 170.508 455.616 169.301Z" fill="#1F1F39"/>
<path d="M463.799 164.151C463.774 161.611 462.234 157.4 456.957 157.279C452.982 157.188 452.57 158.803 449.109 161.515C438.705 169.655 423.295 179.496 405.596 180.326C387.897 181.161 348.987 155.166 322.645 159.266C296.303 163.366 287.132 186.569 249.224 190.272C211.315 193.975 171.752 175.305 160.563 176.543C149.374 177.775 142.527 179.818 142.567 184.295C142.607 188.773 147.744 196.495 155.366 200.148C162.988 203.8 231.359 212.861 249.606 211.533C279.394 209.365 306.255 183.868 325.402 183.354C344.55 182.841 384.063 196.455 406.471 196.601C431.455 196.767 453.289 168.589 454.874 169.806C456.459 171.024 457.923 172.201 461.163 171.587C463.386 171.164 463.824 166.692 463.804 164.151H463.799Z" fill="#F4AD00"/>
</g>
</g>
<defs>
<clipPath id="clip0_18764_31062">
<rect width="847" height="427" fill="white"/>
</clipPath>
</defs>
</svg>
