<svg width="128" height="67" viewBox="0 0 128 67" fill="none" xmlns="http://www.w3.org/2000/svg">
<path d="M125.505 57.3805C125.425 57.7405 125.292 57.9871 125.105 58.1205C124.932 58.2538 124.625 58.3205 124.185 58.3205C123.438 58.3205 123.065 58.0605 123.065 57.5405C123.065 57.2071 123.145 56.6805 123.305 55.9605C123.478 55.2271 123.725 54.2538 124.045 53.0405C124.472 51.4138 124.805 50.0538 125.045 48.9605C125.178 48.3071 125.652 47.9805 126.465 47.9805C126.865 47.9805 127.172 48.0538 127.385 48.2005C127.598 48.3471 127.678 48.5471 127.625 48.8005L125.505 57.3805ZM123.405 61.7605C123.058 61.7605 122.758 61.6338 122.505 61.3805C122.252 61.1138 122.125 60.8071 122.125 60.4605C122.125 60.1138 122.285 59.7938 122.605 59.5005C122.925 59.1938 123.318 59.0405 123.785 59.0405C124.198 59.0405 124.545 59.1405 124.825 59.3405C125.105 59.5271 125.245 59.8205 125.245 60.2205C125.245 60.6338 125.052 60.9938 124.665 61.3005C124.292 61.6071 123.872 61.7605 123.405 61.7605Z" fill="#CD1017"/>
<path d="M119.364 53.7605C119.204 53.6805 119.004 53.6405 118.764 53.6405C118.164 53.6405 117.564 53.7605 116.964 54.0005C116.364 54.2405 116.064 54.5471 116.064 54.9205C116.064 55.1871 116.184 55.4005 116.424 55.5605C116.664 55.7205 117.044 55.9005 117.564 56.1005C118.124 56.3271 118.577 56.5405 118.924 56.7405C119.271 56.9405 119.571 57.2338 119.824 57.6205C120.091 57.9938 120.224 58.4738 120.224 59.0605C120.224 60.0205 119.824 60.7605 119.024 61.2805C118.237 61.7871 117.177 62.0405 115.844 62.0405C115.191 62.0405 114.584 61.9405 114.024 61.7405C113.464 61.5405 113.017 61.2871 112.684 60.9805C112.364 60.6605 112.191 60.3471 112.164 60.0405C112.164 59.7205 112.304 59.4605 112.584 59.2605C112.864 59.0471 113.257 58.9071 113.764 58.8405C113.777 59.1071 113.917 59.3605 114.184 59.6005C114.451 59.8271 114.764 60.0138 115.124 60.1605C115.497 60.2938 115.817 60.3605 116.084 60.3605C116.537 60.3605 116.951 60.2405 117.324 60.0005C117.697 59.7471 117.884 59.4538 117.884 59.1205C117.884 58.5071 117.291 58.0205 116.104 57.6605C115.344 57.4338 114.757 57.0738 114.344 56.5805C113.944 56.0871 113.744 55.5671 113.744 55.0205C113.744 53.9405 114.231 53.1671 115.204 52.7005C116.191 52.2205 117.444 51.9805 118.964 51.9805C119.817 51.9805 120.477 52.0805 120.944 52.2805C121.411 52.4805 121.644 52.8271 121.644 53.3205C121.644 53.6538 121.517 53.9471 121.264 54.2005C121.024 54.4538 120.677 54.5805 120.224 54.5805C119.824 54.5805 119.564 54.5538 119.444 54.5005C119.337 54.4338 119.277 54.3271 119.264 54.1805C119.264 54.0471 119.297 53.9071 119.364 53.7605Z" fill="#CD1017"/>
<path d="M106.975 59.2996C106.975 59.6063 107.055 59.8529 107.215 60.0396C107.375 60.2129 107.602 60.2996 107.895 60.2996C108.295 60.2996 108.622 60.1863 108.875 59.9596C109.142 59.7196 109.422 59.3863 109.715 58.9596C109.929 58.6529 110.102 58.4329 110.235 58.2996C110.369 58.1663 110.522 58.0996 110.695 58.0996C111.042 58.0996 111.289 58.1463 111.435 58.2396C111.582 58.3196 111.655 58.4929 111.655 58.7596C111.655 58.8796 111.642 59.0263 111.615 59.1996C111.589 59.3596 111.555 59.4796 111.515 59.5596C111.195 60.2396 110.669 60.8263 109.935 61.3196C109.215 61.8129 108.395 62.0596 107.475 62.0596C106.555 62.0596 105.862 61.8396 105.395 61.3996C104.929 60.9463 104.695 60.3063 104.695 59.4796C104.695 59.3596 104.755 59.0463 104.875 58.5396C104.995 58.0329 105.149 57.4263 105.335 56.7196L105.895 54.4396L104.675 54.5396C104.515 54.5396 104.395 54.4796 104.315 54.3596C104.235 54.2396 104.195 54.0929 104.195 53.9196C104.195 53.5863 104.315 53.2529 104.555 52.9196C104.582 52.8796 104.715 52.8396 104.955 52.7996C105.195 52.7596 105.489 52.7196 105.835 52.6796L106.375 52.6196L107.055 49.6996C107.189 49.3529 107.389 49.0863 107.655 48.8996C107.935 48.6996 108.195 48.5996 108.435 48.5996C108.702 48.5996 108.929 48.6796 109.115 48.8396C109.302 48.9996 109.402 49.1863 109.415 49.3996L108.695 52.3996C109.215 52.3329 109.695 52.2796 110.135 52.2396C110.589 52.1863 110.942 52.1596 111.195 52.1596C111.702 52.1596 111.955 52.4529 111.955 53.0396C111.955 53.2663 111.855 53.4729 111.655 53.6596C111.469 53.8329 111.262 53.9396 111.035 53.9796L108.235 54.2596L106.975 59.2996Z" fill="#CD1017"/>
<path d="M100.809 49.6191C100.809 49.2057 100.936 48.8391 101.189 48.5191C101.456 48.1991 101.822 48.0391 102.289 48.0391C102.782 48.0391 103.209 48.1924 103.569 48.4991C103.942 48.8057 104.129 49.1524 104.129 49.5391C104.129 49.9257 103.942 50.2591 103.569 50.5391C103.196 50.8191 102.762 50.9591 102.269 50.9591C101.789 50.9591 101.422 50.8391 101.169 50.5991C100.929 50.3457 100.809 50.0191 100.809 49.6191ZM102.909 53.1591C102.202 56.0391 101.662 58.2057 101.289 59.6591C101.236 59.8724 101.209 60.1057 101.209 60.3591L101.229 60.9191C101.229 61.1457 101.156 61.3057 101.009 61.3991C100.876 61.4924 100.582 61.5457 100.129 61.5591C99.6891 61.5591 99.3557 61.5124 99.1291 61.4191C98.9024 61.3257 98.7891 61.1257 98.7891 60.8191C98.7891 60.6724 98.9557 59.8924 99.2891 58.4791C99.6357 57.0657 100.102 55.2257 100.689 52.9591L100.229 52.3591C100.189 52.3191 100.169 52.2724 100.169 52.2191C100.169 52.0857 100.316 51.9791 100.609 51.8991C100.902 51.8057 101.309 51.7591 101.829 51.7591C102.282 51.7591 102.569 51.8924 102.689 52.1591C102.822 52.4124 102.896 52.7457 102.909 53.1591Z" fill="#CD1017"/>
<path d="M88.9869 52.3598C88.9469 52.3198 88.9269 52.2731 88.9269 52.2198C88.9269 52.0864 89.0735 51.9798 89.3669 51.8998C89.6602 51.8064 90.0669 51.7598 90.5869 51.7598C91.0669 51.7598 91.4202 51.8864 91.6469 52.1398C91.8735 52.3798 92.0069 52.6731 92.0469 53.0198L91.6869 54.3198C91.9669 53.9331 92.3602 53.5664 92.8669 53.2198C93.3735 52.8598 93.8869 52.5731 94.4069 52.3598C94.9269 52.1464 95.3535 52.0398 95.6869 52.0398C96.3935 52.0398 96.9069 52.1731 97.2269 52.4398C97.5469 52.6931 97.7069 53.0998 97.7069 53.6598C96.9202 55.7131 96.4002 57.9264 96.1469 60.2998L96.4269 61.2798C96.2669 61.5864 96.0402 61.8264 95.7469 61.9998C95.4669 62.1864 95.0535 62.2798 94.5069 62.2798C94.1869 62.2798 93.9535 62.1731 93.8069 61.9598C93.6602 61.7464 93.5869 61.4798 93.5869 61.1598C93.5869 60.2664 93.7135 59.2864 93.9669 58.2198C94.2335 57.1398 94.5402 56.0398 94.8869 54.9198C95.0202 54.4931 95.0869 54.2731 95.0869 54.2598C95.0869 54.0731 94.9802 53.9798 94.7669 53.9798C94.4735 53.9798 94.0269 54.1864 93.4269 54.5998C92.8402 55.0131 92.2335 55.7131 91.6069 56.6998C90.9802 57.6731 90.4735 58.9531 90.0869 60.5398C90.0602 60.6198 90.0269 60.7664 89.9869 60.9798C89.9469 61.1931 89.8402 61.3464 89.6669 61.4398C89.4935 61.5198 89.2135 61.5598 88.8269 61.5598C88.3869 61.5598 88.0602 61.5131 87.8469 61.4198C87.6469 61.3264 87.5469 61.1264 87.5469 60.8198C87.5869 60.6331 87.6469 60.4064 87.7269 60.1398C88.5002 57.0331 89.0935 54.6398 89.5069 52.9598L88.9869 52.3598Z" fill="#CD1017"/>
<path d="M84.9781 61.4409C84.9248 61.6676 84.8048 61.8209 84.6181 61.9009C84.4315 61.9943 84.1848 62.0409 83.8781 62.0409C82.9581 62.0409 82.4981 61.8343 82.4981 61.4209L82.6181 60.6609C82.2448 60.9409 81.8048 61.2209 81.2981 61.5009C80.7915 61.7809 80.3715 61.9209 80.0381 61.9209C78.0648 61.9209 77.0781 61.2743 77.0781 59.9809C77.0781 57.7809 77.7381 55.3943 79.0581 52.8209C79.2181 52.5143 79.3848 52.2943 79.5581 52.1609C79.7448 52.0276 80.0581 51.9609 80.4981 51.9609C80.9648 51.9609 81.3115 52.0276 81.5381 52.1609C81.7781 52.2809 81.8981 52.4276 81.8981 52.6009C81.8981 52.6409 81.8248 52.7609 81.6781 52.9609C81.5315 53.1343 81.4048 53.3076 81.2981 53.4809C80.0448 55.5743 79.4181 57.6143 79.4181 59.6009C79.4181 59.7743 79.4848 59.9276 79.6181 60.0609C79.7515 60.1943 79.8715 60.2609 79.9781 60.2609C80.2715 60.2609 80.7648 60.1209 81.4581 59.8409C82.1648 59.5609 82.7048 59.2743 83.0781 58.9809L83.4781 57.3609C83.9581 55.4276 84.2581 54.2409 84.3781 53.8009C84.5248 53.2676 84.7115 52.8343 84.9381 52.5009C85.1781 52.1543 85.5515 51.9809 86.0581 51.9809C86.7648 51.9809 87.1181 52.1943 87.1181 52.6209C87.1181 52.6876 87.0981 52.7743 87.0581 52.8809C87.0315 52.9743 87.0115 53.0543 86.9981 53.1209L86.1981 56.3609C85.5581 58.9343 85.1515 60.6276 84.9781 61.4409Z" fill="#CD1017"/>
<path d="M63.8878 66.0396C63.2745 66.0396 62.6945 65.9063 62.1478 65.6396C61.6145 65.3729 61.1678 65.0263 60.8078 64.5996C60.4345 64.1863 60.1678 63.7663 60.0078 63.3396C60.0211 63.0996 60.1411 62.8596 60.3678 62.6196C60.5811 62.3929 60.9611 62.2796 61.5078 62.2796C61.6811 62.2796 61.8278 62.3463 61.9478 62.4796C62.0811 62.6129 62.2278 62.8263 62.3878 63.1196C62.6012 63.5196 62.8211 63.8263 63.0478 64.0396C63.2878 64.2663 63.6145 64.3796 64.0278 64.3796C64.4945 64.3796 64.9411 64.1929 65.3678 63.8196C65.8078 63.4596 66.1811 62.9663 66.4878 62.3396C66.8078 61.7129 67.0278 61.0196 67.1478 60.2596C66.8545 60.6596 66.5145 60.9663 66.1278 61.1796C65.7545 61.3929 65.4012 61.4996 65.0678 61.4996C64.0012 61.4996 63.1545 61.2663 62.5278 60.7996C61.9145 60.3196 61.6078 59.4729 61.6078 58.2596C61.6078 57.1663 61.9078 56.1463 62.5078 55.1996C63.1211 54.2529 63.9345 53.4996 64.9478 52.9396C65.9611 52.3796 67.0478 52.0996 68.2078 52.0996C68.9678 52.0996 69.5278 52.2529 69.8878 52.5596C70.2612 52.8663 70.4878 53.2529 70.5678 53.7196C70.7945 53.8263 70.9145 53.9329 70.9278 54.0396C70.9278 54.0796 70.9011 54.2196 70.8478 54.4596C70.5945 55.5529 70.0612 57.7129 69.2478 60.9396L69.0278 61.8196C68.6945 63.1129 68.0545 64.1396 67.1078 64.8996C66.1745 65.6596 65.1012 66.0396 63.8878 66.0396ZM68.4078 54.1596C68.3011 53.9729 68.1945 53.8529 68.0878 53.7996C67.9945 53.7463 67.8478 53.7196 67.6478 53.7196C67.0211 53.7196 66.4145 53.9263 65.8278 54.3396C65.2411 54.7396 64.7678 55.2663 64.4078 55.9196C64.0478 56.5596 63.8678 57.2196 63.8678 57.8996C63.8678 58.3929 63.9545 58.8196 64.1278 59.1796C64.3145 59.5396 64.6078 59.7463 65.0078 59.7996C65.5411 59.7063 66.0411 59.4663 66.5078 59.0796C66.9878 58.6929 67.3145 58.1929 67.4878 57.5796L68.4078 54.1596Z" fill="#CD1017"/>
<path d="M52.19 52.3598C52.15 52.3198 52.13 52.2731 52.13 52.2198C52.13 52.0864 52.2767 51.9798 52.57 51.8998C52.8633 51.8064 53.27 51.7598 53.79 51.7598C54.27 51.7598 54.6233 51.8864 54.85 52.1398C55.0767 52.3798 55.21 52.6731 55.25 53.0198L54.89 54.3198C55.17 53.9331 55.5633 53.5664 56.07 53.2198C56.5767 52.8598 57.09 52.5731 57.61 52.3598C58.13 52.1464 58.5567 52.0398 58.89 52.0398C59.5967 52.0398 60.11 52.1731 60.43 52.4398C60.75 52.6931 60.91 53.0998 60.91 53.6598C60.1233 55.7131 59.6033 57.9264 59.35 60.2998L59.63 61.2798C59.47 61.5864 59.2433 61.8264 58.95 61.9998C58.67 62.1864 58.2567 62.2798 57.71 62.2798C57.39 62.2798 57.1567 62.1731 57.01 61.9598C56.8633 61.7464 56.79 61.4798 56.79 61.1598C56.79 60.2664 56.9167 59.2864 57.17 58.2198C57.4367 57.1398 57.7433 56.0398 58.09 54.9198C58.2233 54.4931 58.29 54.2731 58.29 54.2598C58.29 54.0731 58.1833 53.9798 57.97 53.9798C57.6767 53.9798 57.23 54.1864 56.63 54.5998C56.0433 55.0131 55.4367 55.7131 54.81 56.6998C54.1833 57.6731 53.6767 58.9531 53.29 60.5398C53.2633 60.6198 53.23 60.7664 53.19 60.9798C53.15 61.1931 53.0433 61.3464 52.87 61.4398C52.6967 61.5198 52.4167 61.5598 52.03 61.5598C51.59 61.5598 51.2633 61.5131 51.05 61.4198C50.85 61.3264 50.75 61.1264 50.75 60.8198C50.79 60.6331 50.85 60.4064 50.93 60.1398C51.7033 57.0331 52.2967 54.6398 52.71 52.9598L52.19 52.3598Z" fill="#CD1017"/>
<path d="M47.6997 49.6191C47.6997 49.2057 47.8264 48.8391 48.0797 48.5191C48.3464 48.1991 48.713 48.0391 49.1797 48.0391C49.673 48.0391 50.0997 48.1924 50.4597 48.4991C50.833 48.8057 51.0197 49.1524 51.0197 49.5391C51.0197 49.9257 50.833 50.2591 50.4597 50.5391C50.0864 50.8191 49.653 50.9591 49.1597 50.9591C48.6797 50.9591 48.313 50.8391 48.0597 50.5991C47.8197 50.3457 47.6997 50.0191 47.6997 49.6191ZM49.7997 53.1591C49.093 56.0391 48.553 58.2057 48.1797 59.6591C48.1264 59.8724 48.0997 60.1057 48.0997 60.3591L48.1197 60.9191C48.1197 61.1457 48.0464 61.3057 47.8997 61.3991C47.7664 61.4924 47.473 61.5457 47.0197 61.5591C46.5797 61.5591 46.2464 61.5124 46.0197 61.4191C45.793 61.3257 45.6797 61.1257 45.6797 60.8191C45.6797 60.6724 45.8464 59.8924 46.1797 58.4791C46.5264 57.0657 46.993 55.2257 47.5797 52.9591L47.1197 52.3591C47.0797 52.3191 47.0597 52.2724 47.0597 52.2191C47.0597 52.0857 47.2064 51.9791 47.4997 51.8991C47.793 51.8057 48.1997 51.7591 48.7197 51.7591C49.173 51.7591 49.4597 51.8924 49.5797 52.1591C49.713 52.4124 49.7864 52.7457 49.7997 53.1591Z" fill="#CD1017"/>
<path d="M35.8775 52.3598C35.8375 52.3198 35.8175 52.2731 35.8175 52.2198C35.8175 52.0864 35.9642 51.9798 36.2575 51.8998C36.5508 51.8064 36.9575 51.7598 37.4775 51.7598C37.9575 51.7598 38.3108 51.8864 38.5375 52.1398C38.7642 52.3798 38.8975 52.6731 38.9375 53.0198L38.5775 54.3198C38.8575 53.9331 39.2508 53.5664 39.7575 53.2198C40.2642 52.8598 40.7775 52.5731 41.2975 52.3598C41.8175 52.1464 42.2442 52.0398 42.5775 52.0398C43.2842 52.0398 43.7975 52.1731 44.1175 52.4398C44.4375 52.6931 44.5975 53.0998 44.5975 53.6598C43.8108 55.7131 43.2908 57.9264 43.0375 60.2998L43.3175 61.2798C43.1575 61.5864 42.9308 61.8264 42.6375 61.9998C42.3575 62.1864 41.9442 62.2798 41.3975 62.2798C41.0775 62.2798 40.8442 62.1731 40.6975 61.9598C40.5508 61.7464 40.4775 61.4798 40.4775 61.1598C40.4775 60.2664 40.6042 59.2864 40.8575 58.2198C41.1242 57.1398 41.4308 56.0398 41.7775 54.9198C41.9108 54.4931 41.9775 54.2731 41.9775 54.2598C41.9775 54.0731 41.8708 53.9798 41.6575 53.9798C41.3642 53.9798 40.9175 54.1864 40.3175 54.5998C39.7308 55.0131 39.1242 55.7131 38.4975 56.6998C37.8708 57.6731 37.3642 58.9531 36.9775 60.5398C36.9508 60.6198 36.9175 60.7664 36.8775 60.9798C36.8375 61.1931 36.7308 61.3464 36.5575 61.4398C36.3842 61.5198 36.1042 61.5598 35.7175 61.5598C35.2775 61.5598 34.9508 61.5131 34.7375 61.4198C34.5375 61.3264 34.4375 61.1264 34.4375 60.8198C34.4775 60.6331 34.5375 60.4064 34.6175 60.1398C35.3908 57.0331 35.9842 54.6398 36.3975 52.9598L35.8775 52.3598Z" fill="#CD1017"/>
<path d="M28.7353 60.7389C28.722 60.8189 28.6886 60.9789 28.6353 61.2189C28.5953 61.4456 28.482 61.6056 28.2953 61.6989C28.122 61.7922 27.842 61.8389 27.4553 61.8389C27.0153 61.8389 26.6953 61.7922 26.4953 61.6989C26.2953 61.6056 26.1953 61.4056 26.1953 61.0989L27.1553 57.2789C27.6886 55.0789 28.042 53.6789 28.2153 53.0789L27.7153 52.4789C27.6753 52.4389 27.6553 52.3922 27.6553 52.3389C27.6553 52.2056 27.802 52.0989 28.0953 52.0189C28.3886 51.9256 28.7953 51.8789 29.3153 51.8789C29.782 51.8789 30.0953 52.0122 30.2553 52.2789C30.4153 52.5322 30.5153 52.8656 30.5553 53.2789L30.4153 53.7989C30.842 53.2789 31.3353 52.8522 31.8953 52.5189C32.4686 52.1722 32.9753 51.9989 33.4153 51.9989C33.9886 51.9989 34.4353 52.0989 34.7553 52.2989C35.0753 52.4989 35.2353 52.7589 35.2353 53.0789C35.2353 53.3589 35.1353 53.6522 34.9353 53.9589C34.7486 54.2522 34.5086 54.5056 34.2153 54.7189C33.922 54.9189 33.6353 55.0322 33.3553 55.0589C33.0886 55.0589 32.9086 55.0256 32.8153 54.9589C32.722 54.8922 32.6753 54.7922 32.6753 54.6589L32.7953 53.9989C31.7286 54.2922 30.762 54.9989 29.8953 56.1189L28.7353 60.7389Z" fill="#CD1017"/>
<path d="M24.0144 60.46C24.041 60.8067 24.0877 61.12 24.1544 61.4C24.1277 61.48 24.0077 61.56 23.7944 61.64C23.5944 61.72 23.421 61.76 23.2744 61.76C22.7944 61.76 22.4477 61.6867 22.2344 61.54C22.0344 61.4067 21.9344 61.2 21.9344 60.92C21.9344 60.6533 21.961 60.3867 22.0144 60.12C21.721 60.52 21.2877 60.8533 20.7144 61.12C20.1544 61.3733 19.701 61.5 19.3544 61.5C18.461 61.5 17.7144 61.24 17.1144 60.72C16.5277 60.2 16.2344 59.3667 16.2344 58.22C16.2344 57.14 16.4877 56.1267 16.9944 55.18C17.5144 54.22 18.2277 53.4533 19.1344 52.88C20.041 52.2933 21.0477 52 22.1544 52C22.3677 52 22.6477 52.06 22.9944 52.18C23.341 52.2867 23.6877 52.48 24.0344 52.76C24.3944 53.0267 24.6944 53.3733 24.9344 53.8C25.041 53.8 25.1677 53.8533 25.3144 53.96C25.461 54.0667 25.5344 54.1733 25.5344 54.28C25.5344 54.4 25.5144 54.52 25.4744 54.64L24.0144 60.46ZM23.1144 54.86C23.0344 54.5667 22.8744 54.32 22.6344 54.12C22.4077 53.92 22.201 53.82 22.0144 53.82C21.401 53.82 20.821 54.04 20.2744 54.48C19.741 54.9067 19.3077 55.44 18.9744 56.08C18.641 56.72 18.4744 57.3267 18.4744 57.9C18.4744 58.46 18.541 58.92 18.6744 59.28C18.8077 59.64 19.0677 59.82 19.4544 59.82C19.7877 59.82 20.1677 59.72 20.5944 59.52C21.0344 59.32 21.421 59.0533 21.7544 58.72C22.101 58.3733 22.3277 58.0133 22.4344 57.64L23.1144 54.86Z" fill="#CD1017"/>
<path d="M9.74438 61.9195C8.43771 61.9195 7.48437 61.6595 6.88437 61.1395C6.28437 60.6195 5.98437 59.9262 5.98437 59.0595C5.98437 57.7929 6.29771 56.6195 6.92437 55.5395C7.56437 54.4595 8.41104 53.6062 9.46437 52.9795C10.531 52.3395 11.6777 52.0195 12.9044 52.0195C13.651 52.0195 14.2777 52.2329 14.7844 52.6595C15.291 53.0729 15.5444 53.6862 15.5444 54.4995C15.5444 54.9662 15.391 55.3529 15.0844 55.6595C14.791 55.9529 14.3644 56.2195 13.8044 56.4595C13.2444 56.6862 12.3377 57.0129 11.0844 57.4395C9.95104 57.8129 9.03104 58.1262 8.32438 58.3795C8.27104 58.5795 8.24438 58.7862 8.24438 58.9995C8.24438 59.3729 8.39771 59.6595 8.70437 59.8595C9.02437 60.0595 9.47104 60.1595 10.0444 60.1595C10.4044 60.1595 10.8177 60.0862 11.2844 59.9395C11.751 59.7929 12.0444 59.6062 12.1644 59.3795C12.6177 58.5529 13.031 58.1395 13.4044 58.1395C13.951 58.1395 14.3177 58.2462 14.5044 58.4595C14.7044 58.6595 14.811 58.8862 14.8244 59.1395C14.6644 59.5662 14.351 59.9995 13.8844 60.4395C13.4177 60.8662 12.8244 61.2195 12.1044 61.4995C11.3844 61.7795 10.5977 61.9195 9.74438 61.9195ZM8.88437 56.5395C10.2044 56.1129 11.291 55.7195 12.1444 55.3595C12.9977 54.9862 13.4244 54.6195 13.4244 54.2595C13.4244 54.0995 13.3377 53.9729 13.1644 53.8795C12.991 53.7729 12.8044 53.7195 12.6044 53.7195C12.2044 53.7195 11.7444 53.8729 11.2244 54.1795C10.7177 54.4862 10.2444 54.8595 9.80437 55.2995C9.36437 55.7395 9.05771 56.1529 8.88437 56.5395Z" fill="#CD1017"/>
<path d="M5.22 50.62C3.71333 56.9533 2.82667 60.5733 2.56 61.48C2.53333 61.56 2.39333 61.66 2.14 61.78C1.9 61.9133 1.73333 61.98 1.64 61.98C1.26667 61.98 0.906667 61.8867 0.56 61.7C0.213334 61.5133 0.0266666 61.2133 -3.29828e-08 60.8C0.0133333 60.7733 0.0799998 60.6333 0.2 60.38C0.32 60.1267 0.44 59.7667 0.56 59.3C0.866667 58.1533 1.21333 56.7933 1.6 55.22C2 53.6467 2.26667 52.5933 2.4 52.06L3.34 48.24C3.32667 48.1333 3.32 47.58 3.32 46.58C3.36 46.4067 3.50667 46.2667 3.76 46.16C4.02667 46.0533 4.26667 46 4.48 46C4.81333 46 5.15333 46.1133 5.5 46.34C5.86 46.5667 6.04667 46.84 6.06 47.16L5.22 50.62Z" fill="#CD1017"/>
<path d="M101.559 30.7605C101.399 30.6805 101.199 30.6405 100.959 30.6405C100.359 30.6405 99.7594 30.7605 99.1594 31.0005C98.5594 31.2405 98.2594 31.5471 98.2594 31.9205C98.2594 32.1871 98.3794 32.4005 98.6194 32.5605C98.8594 32.7205 99.2394 32.9005 99.7594 33.1005C100.319 33.3271 100.773 33.5405 101.119 33.7405C101.466 33.9405 101.766 34.2338 102.019 34.6205C102.286 34.9938 102.419 35.4738 102.419 36.0605C102.419 37.0205 102.019 37.7605 101.219 38.2805C100.433 38.7871 99.3727 39.0405 98.0394 39.0405C97.386 39.0405 96.7794 38.9405 96.2194 38.7405C95.6594 38.5405 95.2127 38.2871 94.8794 37.9805C94.5594 37.6605 94.386 37.3471 94.3594 37.0405C94.3594 36.7205 94.4994 36.4605 94.7794 36.2605C95.0594 36.0471 95.4527 35.9071 95.9594 35.8405C95.9727 36.1071 96.1127 36.3605 96.3794 36.6005C96.646 36.8271 96.9594 37.0138 97.3194 37.1605C97.6927 37.2938 98.0127 37.3605 98.2794 37.3605C98.7327 37.3605 99.146 37.2405 99.5194 37.0005C99.8927 36.7471 100.079 36.4538 100.079 36.1205C100.079 35.5071 99.486 35.0205 98.2994 34.6605C97.5394 34.4338 96.9527 34.0738 96.5394 33.5805C96.1394 33.0871 95.9394 32.5671 95.9394 32.0205C95.9394 30.9405 96.426 30.1671 97.3994 29.7005C98.386 29.2205 99.6394 28.9805 101.159 28.9805C102.013 28.9805 102.673 29.0805 103.139 29.2805C103.606 29.4805 103.839 29.8271 103.839 30.3205C103.839 30.6538 103.713 30.9471 103.459 31.2005C103.219 31.4538 102.873 31.5805 102.419 31.5805C102.019 31.5805 101.759 31.5538 101.639 31.5005C101.533 31.4338 101.473 31.3271 101.459 31.1805C101.459 31.0471 101.493 30.9071 101.559 30.7605Z" fill="#CD1017"/>
<path d="M92.5612 37.46C92.5879 37.8067 92.6346 38.12 92.7012 38.4C92.6746 38.48 92.5546 38.56 92.3412 38.64C92.1412 38.72 91.9679 38.76 91.8213 38.76C91.3413 38.76 90.9946 38.6867 90.7812 38.54C90.5812 38.4067 90.4812 38.2 90.4812 37.92C90.4812 37.6533 90.5079 37.3867 90.5612 37.12C90.2679 37.52 89.8346 37.8533 89.2612 38.12C88.7012 38.3733 88.2479 38.5 87.9012 38.5C87.0079 38.5 86.2612 38.24 85.6612 37.72C85.0746 37.2 84.7812 36.3667 84.7812 35.22C84.7812 34.14 85.0346 33.1267 85.5412 32.18C86.0612 31.22 86.7746 30.4533 87.6813 29.88C88.5879 29.2933 89.5946 29 90.7012 29C90.9146 29 91.1946 29.06 91.5412 29.18C91.8879 29.2867 92.2346 29.48 92.5812 29.76C92.9412 30.0267 93.2412 30.3733 93.4812 30.8C93.5879 30.8 93.7146 30.8533 93.8612 30.96C94.0079 31.0667 94.0812 31.1733 94.0812 31.28C94.0812 31.4 94.0612 31.52 94.0212 31.64L92.5612 37.46ZM91.6612 31.86C91.5812 31.5667 91.4213 31.32 91.1813 31.12C90.9546 30.92 90.7479 30.82 90.5612 30.82C89.9479 30.82 89.3679 31.04 88.8213 31.48C88.2879 31.9067 87.8546 32.44 87.5212 33.08C87.1879 33.72 87.0212 34.3267 87.0212 34.9C87.0212 35.46 87.0879 35.92 87.2212 36.28C87.3546 36.64 87.6146 36.82 88.0013 36.82C88.3346 36.82 88.7146 36.72 89.1413 36.52C89.5813 36.32 89.9679 36.0533 90.3012 35.72C90.6479 35.3733 90.8746 35.0133 90.9812 34.64L91.6612 31.86Z" fill="#CD1017"/>
<path d="M70.2056 29.3598C70.1656 29.3198 70.1456 29.2731 70.1456 29.2198C70.1456 29.0864 70.2923 28.9798 70.5856 28.8998C70.879 28.8064 71.2856 28.7598 71.8056 28.7598C72.2856 28.7598 72.639 28.8864 72.8656 29.1398C73.0923 29.3798 73.2256 29.6731 73.2656 30.0198L72.9056 31.3198C73.1856 30.9331 73.579 30.5664 74.0856 30.2198C74.5923 29.8598 75.1056 29.5731 75.6256 29.3598C76.1456 29.1464 76.5723 29.0398 76.9056 29.0398C77.6123 29.0398 78.1256 29.1731 78.4456 29.4398C78.7656 29.6931 78.9256 30.0998 78.9256 30.6598C78.139 32.7131 77.619 34.9264 77.3656 37.2998L77.6456 38.2798C77.4856 38.5864 77.259 38.8264 76.9656 38.9998C76.6856 39.1864 76.2723 39.2798 75.7256 39.2798C75.4056 39.2798 75.1723 39.1731 75.0256 38.9598C74.879 38.7464 74.8056 38.4798 74.8056 38.1598C74.8056 37.2664 74.9323 36.2864 75.1856 35.2198C75.4523 34.1398 75.759 33.0398 76.1056 31.9198C76.239 31.4931 76.3056 31.2731 76.3056 31.2598C76.3056 31.0731 76.199 30.9798 75.9856 30.9798C75.6923 30.9798 75.2456 31.1864 74.6456 31.5998C74.059 32.0131 73.4523 32.7131 72.8256 33.6998C72.199 34.6731 71.6923 35.9531 71.3056 37.5398C71.279 37.6198 71.2456 37.7664 71.2056 37.9798C71.1656 38.1931 71.059 38.3464 70.8856 38.4398C70.7123 38.5198 70.4323 38.5598 70.0456 38.5598C69.6056 38.5598 69.279 38.5131 69.0656 38.4198C68.8656 38.3264 68.7656 38.1264 68.7656 37.8198C68.8056 37.6331 68.8656 37.4064 68.9456 37.1398C69.719 34.0331 70.3123 31.6398 70.7256 29.9598L70.2056 29.3598Z" fill="#CD1017"/>
<path d="M61.5547 34.18C61.088 35.6467 60.488 36.7933 59.7547 37.62C59.0347 38.4467 58.3014 38.86 57.5547 38.86C56.2214 38.86 55.5547 37.66 55.5547 35.26C55.5547 34.26 55.6747 33.28 55.9147 32.32C56.168 31.36 56.448 30.5333 56.7547 29.84C56.9947 29.28 57.4214 29 58.0347 29C58.728 29 59.0747 29.3067 59.0747 29.92C59.0747 29.9867 58.9947 30.2467 58.8347 30.7C58.1147 32.6467 57.7547 34.14 57.7547 35.18C57.7547 35.6733 57.7947 36.08 57.8747 36.4C57.968 36.7067 58.1147 36.86 58.3147 36.86C58.6747 36.86 59.0747 36.4533 59.5147 35.64C59.968 34.8133 60.3814 33.8333 60.7547 32.7C61.1414 31.5533 61.4147 30.5533 61.5747 29.7C61.6014 29.5267 61.728 29.3733 61.9547 29.24C62.1947 29.1067 62.4014 29.04 62.5747 29.04C62.9214 29.04 63.168 29.12 63.3147 29.28C63.4614 29.4267 63.5347 29.6667 63.5347 30C63.5347 30.0667 63.4947 30.2733 63.4147 30.62C63.2147 31.6867 63.0547 32.5933 62.9347 33.34C62.828 34.0733 62.7747 34.76 62.7747 35.4C62.7747 35.8267 62.8414 36.18 62.9747 36.46C63.1214 36.7267 63.3014 36.86 63.5147 36.86C64.128 36.86 64.688 36.1 65.1947 34.58C65.7147 33.06 66.1347 31.42 66.4547 29.66C66.508 29.3133 66.8014 29.14 67.3347 29.14C67.628 29.14 67.9147 29.1933 68.1947 29.3C68.4747 29.3933 68.6214 29.5 68.6347 29.62L68.4147 30.64C68.0414 32.3867 67.688 33.7933 67.3547 34.86C67.0214 35.9267 66.5214 36.86 65.8547 37.66C65.188 38.46 64.3214 38.86 63.2547 38.86C62.068 38.86 61.4747 37.9133 61.4747 36.02C61.4747 35.4333 61.528 34.82 61.6347 34.18L61.5547 34.18Z" fill="#CD1017"/>
<path d="M48.7981 38.9202C47.6248 38.9202 46.7115 38.5202 46.0581 37.7202C45.4048 36.9202 45.0781 35.9002 45.0781 34.6602C45.0781 33.6202 45.3248 32.6402 45.8181 31.7202C46.3248 30.8002 47.0115 30.0602 47.8781 29.5002C48.7448 28.9402 49.6981 28.6602 50.7381 28.6602C51.7648 28.6602 52.6048 29.0002 53.2581 29.6802C53.9248 30.3468 54.2581 31.3335 54.2581 32.6402C54.2581 33.5602 54.0048 34.5135 53.4981 35.5002C52.9915 36.4868 52.3115 37.3068 51.4581 37.9602C50.6181 38.6002 49.7315 38.9202 48.7981 38.9202ZM49.0981 37.3202C49.5248 37.3202 49.9515 37.0535 50.3781 36.5202C50.8181 35.9868 51.1781 35.3135 51.4581 34.5002C51.7381 33.6868 51.8781 32.8935 51.8781 32.1202C51.8781 30.9335 51.3848 30.3402 50.3981 30.3402C49.8515 30.3402 49.3515 30.6002 48.8981 31.1202C48.4448 31.6402 48.0848 32.2868 47.8181 33.0602C47.5515 33.8202 47.4181 34.5335 47.4181 35.2002C47.4181 35.5868 47.5048 35.9468 47.6781 36.2802C47.8515 36.6002 48.0648 36.8535 48.3181 37.0402C48.5848 37.2268 48.8448 37.3202 49.0981 37.3202Z" fill="#CD1017"/>
<path d="M35.44 29.3598C35.4 29.3198 35.38 29.2731 35.38 29.2198C35.38 29.0864 35.5267 28.9798 35.82 28.8998C36.1133 28.8064 36.52 28.7598 37.04 28.7598C37.52 28.7598 37.8733 28.8864 38.1 29.1398C38.3267 29.3798 38.46 29.6731 38.5 30.0198L38.14 31.3198C38.42 30.9331 38.8133 30.5664 39.32 30.2198C39.8267 29.8598 40.34 29.5731 40.86 29.3598C41.38 29.1464 41.8067 29.0398 42.14 29.0398C42.8467 29.0398 43.36 29.1731 43.68 29.4398C44 29.6931 44.16 30.0998 44.16 30.6598C43.3733 32.7131 42.8533 34.9264 42.6 37.2998L42.88 38.2798C42.72 38.5864 42.4933 38.8264 42.2 38.9998C41.92 39.1864 41.5067 39.2798 40.96 39.2798C40.64 39.2798 40.4067 39.1731 40.26 38.9598C40.1133 38.7464 40.04 38.4798 40.04 38.1598C40.04 37.2664 40.1667 36.2864 40.42 35.2198C40.6867 34.1398 40.9933 33.0398 41.34 31.9198C41.4733 31.4931 41.54 31.2731 41.54 31.2598C41.54 31.0731 41.4333 30.9798 41.22 30.9798C40.9267 30.9798 40.48 31.1864 39.88 31.5998C39.2933 32.0131 38.6867 32.7131 38.06 33.6998C37.4333 34.6731 36.9267 35.9531 36.54 37.5398C36.5133 37.6198 36.48 37.7664 36.44 37.9798C36.4 38.1931 36.2933 38.3464 36.12 38.4398C35.9467 38.5198 35.6667 38.5598 35.28 38.5598C34.84 38.5598 34.5133 38.5131 34.3 38.4198C34.1 38.3264 34 38.1264 34 37.8198C34.04 37.6331 34.1 37.4064 34.18 37.1398C34.9533 34.0331 35.5467 31.6398 35.96 29.9598L35.44 29.3598Z" fill="#CD1017"/>
<path d="M33.5163 29.54C33.5696 29.62 33.6363 29.7733 33.7163 30C33.8096 30.2133 33.8563 30.38 33.8563 30.5C33.8563 30.5667 33.8496 30.6067 33.8363 30.62C33.7696 30.7 33.6163 30.7667 33.3763 30.82C33.1363 30.8733 32.9763 30.9067 32.8963 30.92C32.4829 31.1867 31.8229 31.6133 30.9163 32.2C30.0229 32.7733 29.3696 33.1933 28.9562 33.46C28.9829 33.78 29.2229 34.2733 29.6763 34.94C30.1296 35.5933 30.6162 36.2133 31.1362 36.8C31.6562 37.3867 31.9696 37.68 32.0763 37.68C32.1963 37.68 32.3429 37.78 32.5163 37.98C32.7029 38.18 32.7962 38.36 32.7962 38.52C32.7962 38.6667 32.7029 38.76 32.5163 38.8C32.3963 38.8267 32.1696 38.8733 31.8363 38.94C31.5163 39.0067 31.2363 39.04 30.9963 39.04C30.7829 39.04 30.6163 39.0133 30.4963 38.96C30.1896 38.8533 29.7696 38.5 29.2363 37.9C28.7163 37.2867 28.2163 36.6067 27.7363 35.86C27.2563 35.1 26.9429 34.4467 26.7962 33.9C26.3696 35.62 26.0696 36.8 25.8963 37.44C25.7229 38.0667 25.5829 38.4733 25.4762 38.66C25.3696 38.86 25.2429 38.96 25.0962 38.96L24.5363 38.98C23.6563 38.98 23.1962 38.6267 23.1562 37.92C23.4229 37.2667 23.6096 36.7267 23.7163 36.3C25.0363 31.4067 25.9763 27.72 26.5363 25.24C26.5229 25.04 26.5096 24.7667 26.4963 24.42C26.4829 24.06 26.4762 23.78 26.4762 23.58C26.5162 23.4067 26.6629 23.2667 26.9162 23.16C27.1829 23.0533 27.4229 23 27.6362 23C27.9696 23 28.3229 23.1133 28.6963 23.34C29.0696 23.5667 29.2629 23.84 29.2762 24.16L27.4963 31.14L27.1562 32.52C27.4363 32.1733 27.9096 31.7467 28.5763 31.24C29.2563 30.7333 29.9496 30.28 30.6562 29.88C31.3762 29.48 31.9496 29.24 32.3763 29.16C32.4829 29.16 32.6762 29.1933 32.9562 29.26C33.2496 29.3267 33.4363 29.42 33.5163 29.54Z" fill="#CD1017"/>
<path d="M120.22 15.9202C119.047 15.9202 118.133 15.5202 117.48 14.7202C116.827 13.9202 116.5 12.9002 116.5 11.6602C116.5 10.6202 116.747 9.64016 117.24 8.72016C117.747 7.80016 118.433 7.06016 119.3 6.50016C120.167 5.94016 121.12 5.66016 122.16 5.66016C123.187 5.66016 124.027 6.00016 124.68 6.68016C125.347 7.34682 125.68 8.33349 125.68 9.64016C125.68 10.5602 125.427 11.5135 124.92 12.5002C124.413 13.4868 123.733 14.3068 122.88 14.9602C122.04 15.6002 121.153 15.9202 120.22 15.9202ZM120.52 14.3202C120.947 14.3202 121.373 14.0535 121.8 13.5202C122.24 12.9868 122.6 12.3135 122.88 11.5002C123.16 10.6868 123.3 9.89349 123.3 9.12016C123.3 7.93349 122.807 7.34016 121.82 7.34016C121.273 7.34016 120.773 7.60016 120.32 8.12016C119.867 8.64016 119.507 9.28682 119.24 10.0602C118.973 10.8202 118.84 11.5335 118.84 12.2002C118.84 12.5868 118.927 12.9468 119.1 13.2802C119.273 13.6002 119.487 13.8535 119.74 14.0402C120.007 14.2268 120.267 14.3202 120.52 14.3202Z" fill="#CD1017"/>
<path d="M113.778 7.76047C113.618 7.68047 113.418 7.64047 113.178 7.64047C112.578 7.64047 111.978 7.76047 111.378 8.00047C110.778 8.24047 110.478 8.54714 110.478 8.92047C110.478 9.18714 110.598 9.40047 110.838 9.56047C111.078 9.72047 111.458 9.90047 111.978 10.1005C112.538 10.3271 112.991 10.5405 113.338 10.7405C113.685 10.9405 113.985 11.2338 114.238 11.6205C114.505 11.9938 114.638 12.4738 114.638 13.0605C114.638 14.0205 114.238 14.7605 113.438 15.2805C112.651 15.7871 111.591 16.0405 110.258 16.0405C109.605 16.0405 108.998 15.9405 108.438 15.7405C107.878 15.5405 107.431 15.2871 107.098 14.9805C106.778 14.6605 106.605 14.3471 106.578 14.0405C106.578 13.7205 106.718 13.4605 106.998 13.2605C107.278 13.0471 107.671 12.9071 108.178 12.8405C108.191 13.1071 108.331 13.3605 108.598 13.6005C108.865 13.8271 109.178 14.0138 109.538 14.1605C109.911 14.2938 110.231 14.3605 110.498 14.3605C110.951 14.3605 111.365 14.2405 111.738 14.0005C112.111 13.7471 112.298 13.4538 112.298 13.1205C112.298 12.5071 111.705 12.0205 110.518 11.6605C109.758 11.4338 109.171 11.0738 108.758 10.5805C108.358 10.0871 108.158 9.56714 108.158 9.02047C108.158 7.94047 108.645 7.16714 109.618 6.70047C110.605 6.22047 111.858 5.98047 113.378 5.98047C114.231 5.98047 114.891 6.08047 115.358 6.28047C115.825 6.48047 116.058 6.82714 116.058 7.32047C116.058 7.6538 115.931 7.94714 115.678 8.20047C115.438 8.4538 115.091 8.58047 114.638 8.58047C114.238 8.58047 113.978 8.5538 113.858 8.50047C113.751 8.4338 113.691 8.32714 113.678 8.18047C113.678 8.04714 113.711 7.90714 113.778 7.76047Z" fill="#CD1017"/>
<path d="M106.298 4.62C104.791 10.9533 103.905 14.5733 103.638 15.48C103.611 15.56 103.471 15.66 103.218 15.78C102.978 15.9133 102.811 15.98 102.718 15.98C102.345 15.98 101.985 15.8867 101.638 15.7C101.291 15.5133 101.105 15.2133 101.078 14.8C101.091 14.7733 101.158 14.6333 101.278 14.38C101.398 14.1267 101.518 13.7667 101.638 13.3C101.945 12.1533 102.291 10.7933 102.678 9.22C103.078 7.64667 103.345 6.59333 103.478 6.06L104.418 2.24C104.405 2.13333 104.398 1.58 104.398 0.58C104.438 0.406666 104.585 0.266666 104.838 0.16C105.105 0.0533334 105.345 9.50856e-09 105.558 9.98398e-09C105.891 1.07268e-08 106.231 0.113333 106.578 0.34C106.938 0.566667 107.125 0.84 107.138 1.16L106.298 4.62Z" fill="#CD1017"/>
<path d="M99.0769 14.46C99.1035 14.8067 99.1502 15.12 99.2169 15.4C99.1902 15.48 99.0702 15.56 98.8569 15.64C98.6569 15.72 98.4835 15.76 98.3369 15.76C97.8569 15.76 97.5102 15.6867 97.2969 15.54C97.0969 15.4067 96.9969 15.2 96.9969 14.92C96.9969 14.6533 97.0235 14.3867 97.0769 14.12C96.7835 14.52 96.3502 14.8533 95.7769 15.12C95.2169 15.3733 94.7635 15.5 94.4169 15.5C93.5235 15.5 92.7769 15.24 92.1769 14.72C91.5902 14.2 91.2969 13.3667 91.2969 12.22C91.2969 11.14 91.5502 10.1267 92.0569 9.18C92.5769 8.22 93.2902 7.45333 94.1969 6.88C95.1035 6.29333 96.1102 6 97.2169 6C97.4302 6 97.7102 6.06 98.0569 6.18C98.4035 6.28667 98.7502 6.48 99.0969 6.76C99.4569 7.02667 99.7569 7.37333 99.9969 7.8C100.104 7.8 100.23 7.85333 100.377 7.96C100.524 8.06667 100.597 8.17333 100.597 8.28C100.597 8.4 100.577 8.52 100.537 8.64L99.0769 14.46ZM98.1769 8.86C98.0969 8.56667 97.9369 8.32 97.6969 8.12C97.4702 7.92 97.2635 7.82 97.0769 7.82C96.4635 7.82 95.8835 8.04 95.3369 8.48C94.8035 8.90667 94.3702 9.44 94.0369 10.08C93.7035 10.72 93.5369 11.3267 93.5369 11.9C93.5369 12.46 93.6035 12.92 93.7369 13.28C93.8702 13.64 94.1302 13.82 94.5169 13.82C94.8502 13.82 95.2302 13.72 95.6569 13.52C96.0969 13.32 96.4835 13.0533 96.8169 12.72C97.1635 12.3733 97.3902 12.0133 97.4969 11.64L98.1769 8.86Z" fill="#CD1017"/>
<path d="M79.6038 15.9195C78.2971 15.9195 77.3438 15.6595 76.7438 15.1395C76.1438 14.6195 75.8437 13.9262 75.8437 13.0595C75.8437 11.7929 76.1571 10.6195 76.7838 9.53953C77.4238 8.45953 78.2704 7.6062 79.3238 6.97953C80.3904 6.33953 81.5371 6.01953 82.7637 6.01953C83.5104 6.01953 84.1371 6.23286 84.6438 6.65953C85.1504 7.07287 85.4038 7.6862 85.4038 8.49953C85.4038 8.9662 85.2504 9.35286 84.9437 9.65953C84.6504 9.95287 84.2237 10.2195 83.6637 10.4595C83.1037 10.6862 82.1971 11.0129 80.9437 11.4395C79.8104 11.8129 78.8904 12.1262 78.1838 12.3795C78.1304 12.5795 78.1038 12.7862 78.1038 12.9995C78.1038 13.3729 78.2571 13.6595 78.5638 13.8595C78.8838 14.0595 79.3304 14.1595 79.9037 14.1595C80.2637 14.1595 80.6771 14.0862 81.1438 13.9395C81.6104 13.7929 81.9038 13.6062 82.0238 13.3795C82.4771 12.5529 82.8904 12.1395 83.2637 12.1395C83.8104 12.1395 84.1771 12.2462 84.3638 12.4595C84.5638 12.6595 84.6704 12.8862 84.6838 13.1395C84.5238 13.5662 84.2104 13.9995 83.7438 14.4395C83.2771 14.8662 82.6838 15.2195 81.9638 15.4995C81.2438 15.7795 80.4571 15.9195 79.6038 15.9195ZM78.7438 10.5395C80.0638 10.1129 81.1504 9.71953 82.0038 9.35953C82.8571 8.9862 83.2838 8.61953 83.2838 8.25953C83.2838 8.09953 83.1971 7.97287 83.0238 7.87953C82.8504 7.77286 82.6638 7.71953 82.4638 7.71953C82.0638 7.71953 81.6038 7.87286 81.0838 8.17953C80.5771 8.4862 80.1037 8.85953 79.6637 9.29953C79.2237 9.73953 78.9171 10.1529 78.7438 10.5395Z" fill="#CD1017"/>
<path d="M70.0869 14.7389C70.0735 14.8189 70.0402 14.9789 69.9869 15.2189C69.9469 15.4456 69.8335 15.6056 69.6469 15.6989C69.4735 15.7922 69.1935 15.8389 68.8069 15.8389C68.3669 15.8389 68.0469 15.7922 67.8469 15.6989C67.6469 15.6056 67.5469 15.4056 67.5469 15.0989L68.5069 11.2789C69.0402 9.07891 69.3935 7.67891 69.5669 7.07891L69.0669 6.47891C69.0269 6.43891 69.0069 6.39224 69.0069 6.33891C69.0069 6.20557 69.1535 6.09891 69.4469 6.01891C69.7402 5.92557 70.1469 5.87891 70.6669 5.87891C71.1335 5.87891 71.4469 6.01224 71.6069 6.27891C71.7669 6.53224 71.8669 6.86557 71.9069 7.27891L71.7669 7.79891C72.1935 7.27891 72.6869 6.85224 73.2469 6.51891C73.8202 6.17224 74.3269 5.99891 74.7669 5.99891C75.3402 5.99891 75.7869 6.09891 76.1069 6.29891C76.4269 6.49891 76.5869 6.75891 76.5869 7.07891C76.5869 7.35891 76.4869 7.65224 76.2869 7.95891C76.1002 8.25224 75.8602 8.50557 75.5669 8.71891C75.2735 8.91891 74.9869 9.03224 74.7069 9.05891C74.4402 9.05891 74.2602 9.02557 74.1669 8.95891C74.0735 8.89224 74.0269 8.79224 74.0269 8.65891L74.1469 7.99891C73.0802 8.29224 72.1135 8.99891 71.2469 10.1189L70.0869 14.7389Z" fill="#CD1017"/>
<path d="M65.3659 14.46C65.3926 14.8067 65.4393 15.12 65.5059 15.4C65.4793 15.48 65.3593 15.56 65.1459 15.64C64.9459 15.72 64.7726 15.76 64.6259 15.76C64.1459 15.76 63.7993 15.6867 63.5859 15.54C63.3859 15.4067 63.2859 15.2 63.2859 14.92C63.2859 14.6533 63.3126 14.3867 63.3659 14.12C63.0726 14.52 62.6393 14.8533 62.0659 15.12C61.5059 15.3733 61.0526 15.5 60.7059 15.5C59.8126 15.5 59.0659 15.24 58.4659 14.72C57.8793 14.2 57.5859 13.3667 57.5859 12.22C57.5859 11.14 57.8393 10.1267 58.3459 9.18C58.8659 8.22 59.5793 7.45333 60.4859 6.88C61.3926 6.29333 62.3993 6 63.5059 6C63.7193 6 63.9993 6.06 64.3459 6.18C64.6926 6.28667 65.0393 6.48 65.3859 6.76C65.7459 7.02667 66.0459 7.37333 66.2859 7.8C66.3926 7.8 66.5193 7.85333 66.6659 7.96C66.8126 8.06667 66.8859 8.17333 66.8859 8.28C66.8859 8.4 66.8659 8.52 66.8259 8.64L65.3659 14.46ZM64.4659 8.86C64.3859 8.56667 64.2259 8.32 63.9859 8.12C63.7593 7.92 63.5526 7.82 63.3659 7.82C62.7526 7.82 62.1726 8.04 61.6259 8.48C61.0926 8.90667 60.6593 9.44 60.3259 10.08C59.9926 10.72 59.8259 11.3267 59.8259 11.9C59.8259 12.46 59.8926 12.92 60.0259 13.28C60.1593 13.64 60.4193 13.82 60.8059 13.82C61.1393 13.82 61.5193 13.72 61.9459 13.52C62.3859 13.32 62.7726 13.0533 63.1059 12.72C63.4526 12.3733 63.6793 12.0133 63.7859 11.64L64.4659 8.86Z" fill="#CD1017"/>
<path d="M45.8928 15.9195C44.5861 15.9195 43.6328 15.6595 43.0328 15.1395C42.4328 14.6195 42.1328 13.9262 42.1328 13.0595C42.1328 11.7929 42.4461 10.6195 43.0728 9.53953C43.7128 8.45953 44.5595 7.6062 45.6128 6.97953C46.6795 6.33953 47.8261 6.01953 49.0528 6.01953C49.7995 6.01953 50.4261 6.23286 50.9328 6.65953C51.4395 7.07287 51.6928 7.6862 51.6928 8.49953C51.6928 8.9662 51.5395 9.35286 51.2328 9.65953C50.9395 9.95287 50.5128 10.2195 49.9528 10.4595C49.3928 10.6862 48.4861 11.0129 47.2328 11.4395C46.0995 11.8129 45.1795 12.1262 44.4728 12.3795C44.4195 12.5795 44.3928 12.7862 44.3928 12.9995C44.3928 13.3729 44.5461 13.6595 44.8528 13.8595C45.1728 14.0595 45.6195 14.1595 46.1928 14.1595C46.5528 14.1595 46.9661 14.0862 47.4328 13.9395C47.8995 13.7929 48.1928 13.6062 48.3128 13.3795C48.7661 12.5529 49.1795 12.1395 49.5528 12.1395C50.0995 12.1395 50.4662 12.2462 50.6528 12.4595C50.8528 12.6595 50.9595 12.8862 50.9728 13.1395C50.8128 13.5662 50.4995 13.9995 50.0328 14.4395C49.5661 14.8662 48.9728 15.2195 48.2528 15.4995C47.5328 15.7795 46.7461 15.9195 45.8928 15.9195ZM45.0328 10.5395C46.3528 10.1129 47.4395 9.71953 48.2928 9.35953C49.1461 8.9862 49.5728 8.61953 49.5728 8.25953C49.5728 8.09953 49.4861 7.97287 49.3128 7.87953C49.1395 7.77286 48.9528 7.71953 48.7528 7.71953C48.3528 7.71953 47.8928 7.87286 47.3728 8.17953C46.8661 8.4862 46.3928 8.85953 45.9528 9.29953C45.5128 9.73953 45.2061 10.1529 45.0328 10.5395Z" fill="#CD1017"/>
<path d="M39.6531 7.76047C39.4931 7.68047 39.2931 7.64047 39.0531 7.64047C38.4531 7.64047 37.8531 7.76047 37.2531 8.00047C36.6531 8.24047 36.3531 8.54714 36.3531 8.92047C36.3531 9.18714 36.4731 9.40047 36.7131 9.56047C36.9531 9.72047 37.3331 9.90047 37.8531 10.1005C38.4131 10.3271 38.8665 10.5405 39.2131 10.7405C39.5598 10.9405 39.8598 11.2338 40.1131 11.6205C40.3798 11.9938 40.5131 12.4738 40.5131 13.0605C40.5131 14.0205 40.1131 14.7605 39.3131 15.2805C38.5265 15.7871 37.4665 16.0405 36.1331 16.0405C35.4798 16.0405 34.8731 15.9405 34.3131 15.7405C33.7531 15.5405 33.3065 15.2871 32.9731 14.9805C32.6531 14.6605 32.4798 14.3471 32.4531 14.0405C32.4531 13.7205 32.5931 13.4605 32.8731 13.2605C33.1531 13.0471 33.5465 12.9071 34.0531 12.8405C34.0665 13.1071 34.2065 13.3605 34.4731 13.6005C34.7398 13.8271 35.0531 14.0138 35.4131 14.1605C35.7865 14.2938 36.1065 14.3605 36.3731 14.3605C36.8265 14.3605 37.2398 14.2405 37.6131 14.0005C37.9865 13.7471 38.1731 13.4538 38.1731 13.1205C38.1731 12.5071 37.5798 12.0205 36.3931 11.6605C35.6331 11.4338 35.0465 11.0738 34.6331 10.5805C34.2331 10.0871 34.0331 9.56714 34.0331 9.02047C34.0331 7.94047 34.5198 7.16714 35.4931 6.70047C36.4798 6.22047 37.7331 5.98047 39.2531 5.98047C40.1065 5.98047 40.7665 6.08047 41.2331 6.28047C41.6998 6.48047 41.9331 6.82714 41.9331 7.32047C41.9331 7.6538 41.8065 7.94714 41.5531 8.20047C41.3131 8.4538 40.9665 8.58047 40.5131 8.58047C40.1131 8.58047 39.8531 8.5538 39.7331 8.50047C39.6265 8.4338 39.5665 8.32714 39.5531 8.18047C39.5531 8.04714 39.5865 7.90714 39.6531 7.76047Z" fill="#CD1017"/>
<path d="M26.4241 15.9195C25.1174 15.9195 24.1641 15.6595 23.5641 15.1395C22.9641 14.6195 22.6641 13.9262 22.6641 13.0595C22.6641 11.7929 22.9774 10.6195 23.6041 9.53953C24.2441 8.45953 25.0907 7.6062 26.1441 6.97953C27.2107 6.33953 28.3574 6.01953 29.5841 6.01953C30.3307 6.01953 30.9574 6.23286 31.4641 6.65953C31.9707 7.07287 32.2241 7.6862 32.2241 8.49953C32.2241 8.9662 32.0707 9.35286 31.7641 9.65953C31.4707 9.95287 31.0441 10.2195 30.4841 10.4595C29.9241 10.6862 29.0174 11.0129 27.7641 11.4395C26.6307 11.8129 25.7107 12.1262 25.0041 12.3795C24.9507 12.5795 24.9241 12.7862 24.9241 12.9995C24.9241 13.3729 25.0774 13.6595 25.3841 13.8595C25.7041 14.0595 26.1507 14.1595 26.7241 14.1595C27.0841 14.1595 27.4974 14.0862 27.9641 13.9395C28.4307 13.7929 28.7241 13.6062 28.8441 13.3795C29.2974 12.5529 29.7107 12.1395 30.0841 12.1395C30.6307 12.1395 30.9974 12.2462 31.1841 12.4595C31.3841 12.6595 31.4907 12.8862 31.5041 13.1395C31.3441 13.5662 31.0307 13.9995 30.5641 14.4395C30.0974 14.8662 29.5041 15.2195 28.7841 15.4995C28.0641 15.7795 27.2774 15.9195 26.4241 15.9195ZM25.5641 10.5395C26.8841 10.1129 27.9707 9.71953 28.8241 9.35953C29.6774 8.9862 30.1041 8.61953 30.1041 8.25953C30.1041 8.09953 30.0174 7.97287 29.8441 7.87953C29.6707 7.77286 29.4841 7.71953 29.2841 7.71953C28.8841 7.71953 28.4241 7.87286 27.9041 8.17953C27.3974 8.4862 26.9241 8.85953 26.4841 9.29953C26.0441 9.73953 25.7374 10.1529 25.5641 10.5395Z" fill="#CD1017"/>
<path d="M15.3528 8.9C15.6595 8.3 16.0795 7.78667 16.6128 7.36C17.1595 6.93333 17.7128 6.60667 18.2728 6.38C18.8328 6.15333 19.2928 6.04 19.6528 6.04C20.3461 6.04 20.8461 6.17333 21.1528 6.44C21.4595 6.69333 21.6128 7.1 21.6128 7.66C20.8261 9.71333 20.3061 11.9267 20.0528 14.3L20.3328 15.28C20.1728 15.5867 19.9595 15.8267 19.6928 16C19.4261 16.1867 19.0195 16.28 18.4728 16.28C18.1528 16.28 17.9195 16.1733 17.7728 15.96C17.6261 15.7467 17.5528 15.48 17.5528 15.16C17.5528 14.2667 17.6795 13.2867 17.9328 12.22C18.1995 11.14 18.5061 10.04 18.8528 8.92C18.9861 8.49333 19.0528 8.27333 19.0528 8.26C19.0528 8.07333 18.9461 7.98 18.7328 7.98C18.4528 7.98 18.0461 8.18667 17.5128 8.6C16.9795 9.01333 16.4261 9.71333 15.8528 10.7C15.2795 11.6733 14.7995 12.9533 14.4128 14.54C14.3995 14.6067 14.3661 14.7467 14.3128 14.96C14.2595 15.1733 14.1395 15.3267 13.9528 15.42C13.7661 15.5133 13.4795 15.56 13.0928 15.56C12.6261 15.56 12.2661 15.5133 12.0128 15.42C11.7595 15.3133 11.6328 15.1133 11.6328 14.82C13.3795 7.95333 14.4595 3.66 14.8728 1.94C14.8595 1.76667 14.8461 1.54 14.8328 1.26C14.8328 0.966667 14.8328 0.74 14.8328 0.58C14.8728 0.393333 15.0128 0.253333 15.2528 0.16C15.5061 0.0533334 15.7595 9.19655e-09 16.0128 9.76112e-09C16.4395 1.0712e-08 16.7995 0.113333 17.0928 0.34C17.3861 0.566667 17.5461 0.853333 17.5728 1.2L15.3528 8.9Z" fill="#CD1017"/>
<path d="M6.22188 14.3002C6.11521 14.7668 5.94854 15.1268 5.72188 15.3802C5.50854 15.6335 5.15521 15.7602 4.66188 15.7602C4.24854 15.7602 3.94187 15.6868 3.74187 15.5402C3.55521 15.4068 3.46187 15.1735 3.46187 14.8402C3.46187 14.6935 3.48187 14.5535 3.52187 14.4202L5.96187 4.74016C5.94854 4.74016 5.51521 4.78682 4.66188 4.88016C3.63521 4.96016 2.99521 5.02682 2.74188 5.08016C2.47521 4.98682 2.26854 4.84682 2.12187 4.66016C1.98854 4.46016 1.92187 4.22682 1.92187 3.96016C1.92187 3.74682 1.99521 3.54682 2.14187 3.36016C2.30187 3.16016 2.48854 3.01349 2.70187 2.92016C3.36854 2.78682 4.30188 2.67349 5.50188 2.58016C6.70188 2.48682 8.24187 2.38682 10.1219 2.28016C11.0819 2.24016 11.7285 2.20016 12.0619 2.16016C12.2752 2.25349 12.4552 2.40016 12.6019 2.60016C12.7619 2.78682 12.8419 2.98682 12.8419 3.20016C12.8419 3.44016 12.7219 3.67349 12.4819 3.90016C12.2419 4.12682 11.9685 4.28682 11.6619 4.38016L8.16188 4.56016C8.30854 4.61349 8.38188 4.79349 8.38188 5.10016C8.38188 5.26016 8.36854 5.38016 8.34188 5.46016C8.11521 6.47349 7.80188 7.78682 7.40188 9.40016C7.01521 11.0135 6.75521 12.1068 6.62187 12.6802C6.54187 13.0135 6.46854 13.3135 6.40188 13.5802C6.33521 13.8468 6.27521 14.0868 6.22188 14.3002Z" fill="#CD1017"/>
</svg>
