<svg width="58" height="71" viewBox="0 0 58 71" fill="none" xmlns="http://www.w3.org/2000/svg">
<path d="M41.6221 37.7603C47.3863 30.2771 45.9928 19.5379 38.5097 13.7737C31.0265 8.00939 20.2873 9.40287 14.523 16.8861C8.75879 24.3692 10.1523 35.1084 17.6354 40.8727C25.1186 46.6369 35.8578 45.2435 41.6221 37.7603Z" fill="#F4AD00"/>
<path d="M32.0391 47.4283C32.101 47.5686 32.1718 47.7171 32.2498 47.8725C34.7303 52.7547 45.4724 64.3544 47.662 64.395C48.5071 64.4103 48.7779 63.9941 48.8866 63.3883C48.9536 63.0142 48.9594 62.5654 48.9993 62.1027C49.0701 61.3129 49.244 60.4753 50.0058 59.8721C50.5027 59.4782 52.0525 59.1725 53.4652 58.833C54.0815 58.6859 54.672 58.5313 55.1371 58.3616C55.9912 58.0494 56.4216 57.6844 55.816 57.204C54.2162 55.933 45.2264 48.512 40.8238 43.5702C40.3541 43.0425 39.9348 42.5426 39.5845 42.0806C39.5845 42.0806 30.0401 42.8522 32.0408 47.4297L32.0391 47.4283Z" fill="#C62020"/>
<path d="M37.7567 43.7801C38.0915 44.5189 41.4775 48.2453 44.7267 51.446C47.3976 54.0769 50.8776 57.2758 53.4697 58.8303C54.0861 58.6831 54.6765 58.5285 55.1416 58.3588C53.2173 57.5109 49.8765 54.7951 45.6737 50.658C41.9308 46.9733 39.1197 43.7438 38.8979 43.2854L37.7552 43.7803L37.7567 43.7801Z" fill="white"/>
<path d="M32.9341 46.5051C33.6475 47.7194 36.341 51.3669 39.8567 55.3341C44.5816 60.6666 47.3418 62.6739 48.885 63.3886C48.952 63.0145 48.9563 62.5659 48.9977 62.103C47.0756 61.0315 44.2209 58.4041 40.8224 54.5701C37.506 50.827 34.743 47.1369 34.0236 45.9125L32.9328 46.5068L32.9341 46.5051Z" fill="white"/>
<path d="M14.616 65.9788C15.1098 65.9459 15.7122 65.8475 16.336 65.7337C17.765 65.4718 19.3063 65.125 19.9203 65.2843C20.8608 65.5292 21.3584 66.2234 21.7421 66.9184C21.9668 67.3264 22.1523 67.7333 22.3666 68.049C22.7108 68.5601 23.1254 68.8311 23.8927 68.4755C25.7836 67.5978 30.5279 54.0074 31.2343 47.9842C31.2936 47.4784 31.3239 47.0263 31.3223 46.6409C31.3016 41.6441 22.2601 44.7987 22.2601 44.7987C22.0604 45.6303 21.763 46.5994 21.394 47.6543C19.1775 54 14.4285 63.4753 13.5274 65.1942C13.1682 65.8794 13.7103 66.0385 14.6175 65.9786L14.616 65.9788Z" fill="#C62020"/>
<path d="M24.6238 45.6152C24.6166 46.4265 23.0255 51.203 21.3478 55.4443C19.9689 58.9317 18.078 63.2631 16.3361 65.7343C15.7123 65.8481 15.1099 65.9465 14.6161 65.9794C16.0337 64.4261 17.9904 60.5905 20.1615 55.1095C22.0947 50.2261 23.3596 46.1368 23.3778 45.627L24.6224 45.6169L24.6238 45.6152Z" fill="white"/>
<path d="M30.1264 46.159C29.9645 47.5587 28.9756 51.9822 27.3639 57.0331C25.1984 63.8202 23.4862 66.7732 22.3621 68.0495C22.1494 67.7336 21.9639 67.3267 21.7392 66.9187C23.0632 65.1621 24.6126 61.6042 26.1698 56.7228C27.6891 51.9587 28.7238 47.4667 28.8874 46.0559L30.1264 46.159Z" fill="white"/>
<path opacity="0.24" d="M32.0393 47.4279C32.1012 47.5682 32.172 47.7167 32.25 47.8721C32.6107 47.8003 33.0654 47.6711 33.583 47.4962C33.9538 47.37 34.3574 47.2193 34.7802 47.0489C36.0234 46.5456 37.4394 45.8591 38.7196 45.0763C39.0783 44.8564 39.4268 44.6301 39.7572 44.3967C40.1391 44.127 40.4983 43.8509 40.8238 43.5682C40.3541 43.0405 39.9348 42.5407 39.5845 42.0787C39.5845 42.0787 30.0401 42.8503 32.0408 47.4277L32.0393 47.4279Z" fill="#191930"/>
<path opacity="0.24" d="M21.3839 47.654C21.7923 47.7212 22.2602 47.7776 22.7709 47.8269C23.1694 47.8657 23.5921 47.8983 24.0297 47.9259C25.4828 48.0184 27.0992 48.0569 28.518 48.0539C28.9646 48.0537 29.3901 48.0485 29.7855 48.0393C30.3351 48.0273 30.8246 48.0091 31.2257 47.9836C31.2849 47.4779 31.3153 47.0258 31.3137 46.6404C31.293 41.6436 22.2515 44.7982 22.2515 44.7982C22.0518 45.6297 21.7544 46.5989 21.3854 47.6538L21.3839 47.654Z" fill="#191930"/>
<path d="M23.3422 8.56414C24.7805 8.19328 26.2221 7.99217 27.6478 7.94613C28.1951 7.9282 28.7377 7.9343 29.2785 7.9625C36.4492 8.33111 42.9695 12.6282 46.08 19.2241C46.6031 20.3319 47.0284 21.5039 47.3459 22.7352C47.5759 23.6297 47.7422 24.5262 47.844 25.4186C48.9539 35.0439 42.8233 44.2551 33.175 46.7404C31.6067 47.1438 30.0343 47.3478 28.4832 47.3664C27.3764 47.3804 26.2808 47.2993 25.2081 47.1309C17.6741 45.9476 11.1929 40.4245 9.16978 32.5696C6.45456 22.0283 12.7981 11.2813 23.3409 8.56588L23.3422 8.56414ZM41.9342 33.4566C41.9342 33.4566 41.9354 33.4533 41.9367 33.4516C42.9232 31.2954 43.3967 28.8919 43.2444 26.4307C43.2432 26.4215 43.242 26.4123 43.2425 26.4044C43.1847 25.4892 43.0402 24.568 42.8021 23.648C42.4659 22.3442 41.9661 21.1272 41.3296 20.0122C41.3034 19.9672 41.279 19.9235 41.2529 19.8785C41.2227 19.8262 41.1927 19.7755 41.1609 19.7234C41.1332 19.6786 41.1071 19.6336 41.0794 19.5888C41.0678 19.5715 41.0576 19.5526 41.046 19.5353C41.0204 19.4949 40.9964 19.4543 40.9709 19.4139C40.9378 19.3636 40.9063 19.313 40.873 19.2611C40.8124 19.1675 40.7506 19.0756 40.6871 18.9839C40.6753 18.9651 40.6622 18.9481 40.6506 18.9309C40.6293 18.8993 40.6063 18.8664 40.5835 18.835C40.5742 18.8237 40.5663 18.8107 40.5585 18.7992C40.5301 18.7607 40.5031 18.7205 40.4747 18.682C40.4364 18.6277 40.3967 18.575 40.3571 18.5224C40.3214 18.4755 40.2854 18.4271 40.2497 18.3802C40.2081 18.3247 40.165 18.2694 40.1219 18.2141C40.092 18.1758 40.0603 18.1362 40.0286 18.0966C39.9914 18.0499 39.9541 18.0032 39.9154 17.9583C39.8784 17.9131 39.8395 17.8666 39.8007 17.8202C39.7252 17.7316 39.6497 17.643 39.5711 17.5549C39.5584 17.5409 39.5472 17.5267 39.5344 17.5128C39.4651 17.4359 39.396 17.3606 39.3269 17.2852C39.2852 17.2407 39.2435 17.1961 39.2021 17.1531C39.164 17.1127 39.1262 17.0739 39.0884 17.0351C39.0864 17.0322 39.0832 17.0311 39.0812 17.0282C39.0397 16.9852 38.9985 16.9437 38.9556 16.9025C38.9126 16.8596 38.8713 16.8181 38.8285 16.7769C38.7856 16.7356 38.7428 16.6943 38.7 16.653C38.6591 16.6146 38.6182 16.5762 38.5773 16.5378C38.46 16.4281 38.3399 16.3203 38.2184 16.2143C38.1918 16.1897 38.1638 16.1667 38.1358 16.1438C38.0585 16.0774 37.9814 16.0124 37.9027 15.9477C37.8572 15.9099 37.8117 15.8721 37.7649 15.836C37.73 15.8077 37.6936 15.7796 37.6587 15.7514C37.65 15.7447 37.6429 15.7378 37.6344 15.7327C37.6153 15.718 37.5962 15.7033 37.5771 15.6886C37.5388 15.6577 37.4991 15.6285 37.4609 15.5991C37.4227 15.5697 37.3848 15.5418 37.3466 15.5124C37.2998 15.4763 37.2516 15.442 37.2034 15.4076C37.1657 15.3813 37.1292 15.3532 37.0915 15.3269C37.0724 15.3122 37.0535 15.2991 37.0331 15.2861C36.9126 15.2002 36.7893 15.1163 36.6649 15.0357C36.641 15.02 36.6154 15.003 36.5913 14.9859C36.5863 14.9834 36.5828 14.9807 36.5794 14.9781C36.5435 14.9546 36.5077 14.9312 36.4721 14.9092C36.4414 14.8898 36.4108 14.8703 36.3802 14.8509C36.3548 14.8354 36.3309 14.8198 36.3054 14.8044C36.2748 14.7849 36.2444 14.767 36.2138 14.7476C36.1883 14.7321 36.1629 14.7167 36.1375 14.7013C36.0086 14.6227 35.8787 14.5475 35.7473 14.474C35.7171 14.4576 35.6869 14.4412 35.658 14.4231C35.5858 14.3841 35.5134 14.3435 35.4414 14.306C35.4196 14.2948 35.3977 14.282 35.3759 14.2708C35.3307 14.247 35.2854 14.2232 35.2404 14.2009C35.1986 14.1798 35.1586 14.16 35.1168 14.1389C35.0717 14.1166 35.0267 14.0944 34.9816 14.0721C34.9516 14.0573 34.9201 14.0426 34.89 14.0278C34.8467 14.0069 34.8051 13.9873 34.7618 13.9664C34.712 13.9432 34.6606 13.9202 34.6107 13.897C34.5709 13.8787 34.5328 13.8618 34.493 13.8436C34.3606 13.7858 34.2282 13.728 34.0946 13.6735C34.05 13.6544 34.004 13.6369 33.9595 13.6192C33.9101 13.5991 33.8608 13.5805 33.8131 13.5617C33.7687 13.5441 33.7244 13.528 33.6802 13.5119C33.654 13.5028 33.6276 13.4921 33.6 13.4832C33.4605 13.4311 33.3201 13.3837 33.1796 13.3363C33.1454 13.3252 33.111 13.3125 33.0754 13.303C33.0411 13.2919 33.0069 13.2807 32.9727 13.2695C32.9482 13.2618 32.9254 13.2538 32.8996 13.2478C32.854 13.2334 32.8099 13.2188 32.7646 13.206C32.7157 13.1904 32.6655 13.1767 32.6151 13.1613C32.5599 13.1451 32.5065 13.1302 32.4515 13.1154C32.4484 13.1158 32.4467 13.1145 32.4449 13.1132C32.3899 13.0984 32.3349 13.0837 32.28 13.069C32.2315 13.0566 32.183 13.0441 32.1361 13.0315C32.1005 13.022 32.0652 13.0141 32.0296 13.0047C31.9586 12.9873 31.8877 12.97 31.8154 12.9544C31.7816 12.9463 31.7479 12.9397 31.7156 12.9314C31.6062 12.9066 31.4955 12.8835 31.385 12.8619C31.3352 12.8512 31.2841 12.8422 31.2345 12.8331C31.1383 12.8143 31.0409 12.7973 30.9436 12.7818C30.9133 12.7764 30.8829 12.7709 30.8527 12.767C30.816 12.7609 30.7811 12.756 30.7443 12.7499C30.7109 12.7448 30.6775 12.7398 30.644 12.7348C30.5693 12.7242 30.493 12.7138 30.4167 12.7034C30.3802 12.6988 30.3436 12.6941 30.3071 12.6895C30.2706 12.6849 30.2341 12.6803 30.1978 12.6772C30.1613 12.6725 30.125 12.6694 30.0885 12.6648C29.9223 12.6473 29.7547 12.6316 29.5862 12.6207C29.635 12.6237 29.6825 12.6285 29.7297 12.6317C29.826 12.6395 29.9209 12.6491 30.0174 12.6584C30.0648 12.6632 30.114 12.6693 30.1615 12.6741C30.2089 12.6788 30.2581 12.6849 30.3058 12.6912C30.3519 12.6977 30.3994 12.7025 30.447 12.7088C30.447 12.7088 30.4486 12.7086 30.4501 12.7084C30.5264 12.7188 30.6027 12.7292 30.6777 12.7414C30.9323 12.7786 31.1849 12.8239 31.4352 12.8757C31.4817 12.8853 31.5282 12.8949 31.5747 12.9044C32.1801 13.0336 32.7734 13.2017 33.3526 13.406C33.3969 13.4221 33.4426 13.4381 33.4869 13.4542C33.5311 13.4703 33.5754 13.4864 33.6196 13.5025C33.7081 13.5348 33.7953 13.5687 33.8842 13.604C33.9286 13.6217 33.9715 13.6395 34.016 13.6572C34.1033 13.6927 34.1909 13.7298 34.2769 13.767C34.32 13.7864 34.3629 13.8042 34.4061 13.8236C34.4923 13.8624 34.5785 13.9012 34.6632 13.9401C34.7048 13.9597 34.7479 13.9791 34.7897 14.0002C34.833 14.0212 34.8761 14.0405 34.9194 14.0615C34.9611 14.0826 35.0043 14.102 35.0462 14.1246C35.32 14.2609 35.5886 14.4056 35.852 14.5588C35.8822 14.5751 35.9111 14.5932 35.9416 14.6111C35.9737 14.6304 36.0059 14.6496 36.0381 14.6689C36.0787 14.6933 36.1193 14.7177 36.1584 14.7423C36.1958 14.7655 36.2347 14.7886 36.2721 14.8118C36.2755 14.8145 36.2805 14.817 36.284 14.8196C36.3181 14.8418 36.352 14.8623 36.3861 14.8845C36.3913 14.8885 36.3963 14.891 36.4031 14.8948C36.4406 14.9196 36.478 14.9428 36.5156 14.9676C36.5549 14.9937 36.5942 15.0199 36.6333 15.0445C36.6641 15.0654 36.6947 15.0849 36.7255 15.1059C36.7392 15.115 36.7546 15.1255 36.7683 15.1347C36.8009 15.157 36.8352 15.1806 36.8677 15.2029C36.9244 15.2424 36.9828 15.2833 37.0396 15.3243C37.0722 15.3466 37.1034 15.3706 37.136 15.393C37.1618 15.4115 37.1876 15.43 37.2136 15.45C37.2446 15.4726 37.2759 15.4966 37.3069 15.5191C37.331 15.5363 37.3535 15.5537 37.3778 15.5724C37.4141 15.5989 37.449 15.6272 37.4854 15.6552C37.5305 15.69 37.5773 15.726 37.6211 15.7625C37.6525 15.7881 37.6837 15.8122 37.7152 15.8378C37.7429 15.8591 37.7693 15.8822 37.7971 15.9036C37.8216 15.9239 37.8461 15.9441 37.8705 15.9644C37.8983 15.9857 37.9247 16.0088 37.9509 16.0304C37.9826 16.0575 38.0142 16.0847 38.0458 16.1118C38.0757 16.1376 38.1071 16.1632 38.1372 16.1905C38.1829 16.2298 38.2288 16.2707 38.273 16.3103C38.3048 16.3389 38.3364 16.3661 38.3667 16.3949C38.386 16.4112 38.4037 16.4276 38.4217 16.4456C38.5262 16.5413 38.631 16.6386 38.7313 16.738C38.7635 16.7697 38.7955 16.7999 38.8262 16.8318C38.8671 16.8702 38.9067 16.9104 38.9447 16.9507C38.9682 16.9757 38.9931 16.9991 39.0167 17.0241C39.2257 17.239 39.4295 17.4624 39.6263 17.6913C39.6501 17.7179 39.6723 17.7447 39.6962 17.7728C39.7238 17.8052 39.7515 17.8375 39.7775 17.87C40.0031 18.1405 40.2207 18.4214 40.4268 18.7101C40.4459 18.7373 40.4668 18.7658 40.4859 18.793C40.5547 18.8902 40.622 18.9876 40.6882 19.0884C40.7093 19.1184 40.729 19.1502 40.7501 19.1803C40.7597 19.1946 40.7694 19.209 40.7776 19.2235C40.7952 19.2509 40.8127 19.2783 40.8319 19.3055C40.8497 19.3344 40.869 19.3631 40.8868 19.392C40.9124 19.4324 40.9381 19.4744 40.9637 19.5148C41.0686 19.6854 41.1719 19.8562 41.2697 20.0325C41.286 20.0616 41.3025 20.0922 41.3187 20.1213C41.335 20.1505 41.3515 20.1811 41.3679 20.2118C41.3844 20.2424 41.4026 20.2744 41.4191 20.3051C41.4355 20.3357 41.4522 20.3679 41.4687 20.3986C41.4913 20.4409 41.5142 20.4848 41.5355 20.5288C41.6214 20.6973 41.7059 20.8674 41.7861 21.0397C41.8014 21.0736 41.8165 21.106 41.8319 21.1399C41.8427 21.1635 41.8534 21.1855 41.8627 21.2093C41.8802 21.2476 41.8976 21.286 41.9136 21.3245C41.9289 21.3584 41.9427 21.3925 41.958 21.4264C41.9734 21.4604 41.9872 21.4945 42.0012 21.5301C42.0169 21.5671 42.0326 21.6041 42.0466 21.6398C42.0831 21.7287 42.1197 21.8177 42.1548 21.9083C42.171 21.9484 42.1856 21.9887 42.2017 22.0287C42.2066 22.0422 42.2132 22.0569 42.218 22.0703C42.2443 22.1403 42.2705 22.2103 42.2954 22.282C42.332 22.3834 42.3671 22.485 42.4006 22.5869C42.4136 22.6273 42.4284 22.6691 42.4415 22.7096C42.4423 22.7157 42.4461 22.7215 42.4469 22.7276C42.4577 22.7621 42.4701 22.798 42.4809 22.8325C42.4863 22.8505 42.4918 22.8686 42.4972 22.8866C42.5076 22.918 42.5162 22.9482 42.5248 22.9783C42.5279 22.9904 42.5326 23.0022 42.5359 23.0159C42.5464 23.0488 42.5552 23.0805 42.5657 23.1135C42.5745 23.1451 42.585 23.1781 42.5938 23.2098C42.6047 23.2458 42.6159 23.2834 42.6253 23.3197C42.6372 23.3634 42.6493 23.4087 42.6612 23.4524C42.6731 23.4961 42.6852 23.5414 42.6956 23.5853C42.7273 23.7092 42.7575 23.8334 42.7861 23.9577C42.7959 23.997 42.8038 24.0334 42.8116 24.0699C42.833 24.1624 42.8526 24.2535 42.8709 24.3464C42.8785 24.3813 42.8847 24.4164 42.891 24.4531C42.8963 24.482 42.903 24.5093 42.9068 24.5384C42.9152 24.5795 42.9219 24.6192 42.9288 24.6605C42.9312 24.6789 42.9349 24.6956 42.9389 24.7138C42.9487 24.7656 42.9572 24.8192 42.9655 24.8712C42.9667 24.8804 42.9679 24.8896 42.9691 24.8988C42.9768 24.9462 42.9846 24.9936 42.9907 25.0412C42.9933 25.0612 42.9961 25.0827 42.9987 25.1027C43.0029 25.1349 43.0073 25.1687 43.0114 25.2009C43.0162 25.2378 43.021 25.2746 43.0258 25.3115C43.03 25.3437 43.0344 25.3775 43.0385 25.4098C43.0411 25.4297 43.0439 25.4512 43.0467 25.4727C43.0521 25.5142 43.0577 25.5572 43.0631 25.5986C43.0662 25.6232 43.0694 25.6478 43.0711 25.6725C43.0767 25.7155 43.0809 25.7602 43.0849 25.8034L43.0917 25.8557C43.0932 25.8914 43.0963 25.9269 43.0995 25.9639C43.1039 25.9977 43.1052 26.0319 43.1081 26.0659C43.1113 26.1029 43.1146 26.14 43.1163 26.1772C43.1189 26.1972 43.1199 26.2174 43.121 26.2375C43.1242 26.2746 43.1257 26.3103 43.129 26.3473C43.1313 26.3892 43.1336 26.431 43.1361 26.4744C43.1385 26.4929 43.1378 26.5117 43.1387 26.5303C43.1404 26.5676 43.1419 26.6033 43.1436 26.6405C43.1447 26.6732 43.1458 26.7058 43.1485 26.7383C43.1503 26.7521 43.1492 26.7678 43.1494 26.7819C43.1514 26.8331 43.1532 26.8829 43.1536 26.9343C43.1544 26.9889 43.1553 27.0434 43.1563 27.0995C43.1563 27.1354 43.1563 27.1713 43.1562 27.2072C43.1573 27.2399 43.1567 27.2712 43.1563 27.304C43.1553 27.5493 43.148 27.7938 43.1359 28.0374C43.1334 28.0783 43.1309 28.1192 43.1284 28.1601C43.1255 28.198 43.1244 28.2371 43.1215 28.275C43.1175 28.3286 43.1135 28.3822 43.1095 28.4358C43.1083 28.45 43.107 28.4642 43.1057 28.4785C43.1019 28.5211 43.0978 28.5622 43.094 28.6049C43.0907 28.6397 43.0872 28.6729 43.0839 28.7077C43.0801 28.7503 43.0761 28.7915 43.0707 28.8343C43.0645 28.8944 43.0582 28.9546 43.0504 29.0149C43.0428 29.0768 43.0355 29.1402 43.0263 29.2023C43.0267 29.2054 43.0269 29.2069 43.0258 29.2102C43.0185 29.2626 43.0111 29.3136 43.0039 29.366C43.0014 29.3835 42.999 29.401 42.9966 29.4185C42.9894 29.471 42.9808 29.5252 42.972 29.5778C42.9722 29.5794 42.9726 29.5824 42.9713 29.5842C42.9629 29.6399 42.953 29.6958 42.9429 29.7502C42.9412 29.7614 42.9395 29.7725 42.9376 29.7821C42.929 29.8363 42.9187 29.8892 42.9086 29.9436C42.9077 29.9484 42.9069 29.9548 42.906 29.9596C42.897 30.0107 42.8865 30.062 42.876 30.1133C42.8732 30.1278 42.8702 30.1406 42.8673 30.1551C42.858 30.2031 42.8473 30.2529 42.8363 30.3012C42.8333 30.314 42.8316 30.3252 42.8286 30.3381C42.8187 30.3815 42.8087 30.425 42.8003 30.4682C42.7965 30.4874 42.7926 30.5051 42.7871 30.523C42.7743 30.5809 42.7598 30.6374 42.747 30.6953C42.7315 30.7566 42.716 30.818 42.7006 30.8793C42.687 30.931 42.6747 30.981 42.6596 31.0329C42.6377 31.117 42.6143 31.2012 42.5892 31.2841C42.5765 31.331 42.5623 31.3781 42.5479 31.4237C42.4521 31.7437 42.3464 32.0603 42.2294 32.3738C42.2176 32.4034 42.206 32.4346 42.1958 32.464C42.1831 32.4984 42.1688 32.5331 42.1559 32.566C42.1489 32.5841 42.1419 32.6021 42.1349 32.6202C42.121 32.6579 42.1054 32.6943 42.0901 32.7322C42.0819 32.7536 42.0738 32.7749 42.0639 32.7949C42.0462 32.8394 42.027 32.884 42.0078 32.9287C42.0067 32.9319 42.0056 32.9352 42.0044 32.9385C41.9877 32.9781 41.9696 33.0195 41.9529 33.0592C41.9385 33.0922 41.9254 33.1236 41.9094 33.1569C41.8914 33.1983 41.872 33.2414 41.8524 33.283C41.8328 33.3245 41.8149 33.3675 41.7938 33.4092C41.7756 33.4491 41.7571 33.4874 41.7387 33.5257C41.7168 33.5738 41.6934 33.6221 41.6698 33.6689C41.65 33.7089 41.6303 33.749 41.6105 33.789C41.5932 33.8241 41.5745 33.8608 41.5572 33.8959C41.5511 33.9091 41.5435 33.9226 41.5361 33.9376C41.515 33.9794 41.4923 34.0214 41.4712 34.0632C41.47 34.0664 41.4689 34.0697 41.466 34.0716C41.4411 34.1201 41.4146 34.1689 41.3881 34.2176C41.2733 34.4276 41.1552 34.6366 41.0304 34.8417C40.9635 34.9519 40.8964 35.0605 40.8276 35.1678C40.7952 35.2188 40.7627 35.2699 40.7286 35.3196C40.8137 35.1571 40.8968 34.9917 40.9767 34.8252C40.9914 34.7937 41.0075 34.7619 41.0222 34.7303C41.0431 34.687 41.0638 34.6422 41.083 34.5975C41.1132 34.5296 41.1435 34.4617 41.1737 34.3937C41.1893 34.3574 41.2064 34.3208 41.2218 34.2829C41.2216 34.2813 41.2242 34.2779 41.224 34.2763C41.2457 34.2267 41.2658 34.1772 41.2875 34.1276C41.3017 34.093 41.3173 34.0566 41.3315 34.0219C41.3422 33.9956 41.353 33.9708 41.3621 33.9446C41.3786 33.9034 41.3938 33.864 41.4103 33.8228C41.4268 33.7816 41.4433 33.7405 41.4581 33.6979C41.4627 33.6849 41.4686 33.67 41.4731 33.657C41.4904 33.6094 41.5091 33.5617 41.5264 33.5142C41.5448 33.4634 41.5632 33.4126 41.58 33.362C41.598 33.3082 41.6178 33.2557 41.6358 33.2018C41.654 33.1495 41.6706 33.0974 41.6873 33.0452C41.7221 32.9408 41.7552 32.835 41.7868 32.7294C41.8001 32.6871 41.8118 32.645 41.8235 32.6029C41.8377 32.5557 41.8516 32.5071 41.8641 32.4586C41.8879 32.3775 41.91 32.295 41.9305 32.2127C41.9398 32.1756 41.9506 32.1383 41.96 32.1027C41.9715 32.059 41.9815 32.0156 41.993 31.9719C42.0003 31.9444 42.0075 31.9154 42.0133 31.8881C42.0246 31.8429 42.0342 31.7964 42.0455 31.7512C42.0544 31.711 42.0632 31.6708 42.0722 31.6322C42.0871 31.5663 42.1006 31.5021 42.114 31.4363C42.1249 31.3881 42.1341 31.3385 42.1434 31.2904C42.1854 31.0726 42.2226 30.8539 42.255 30.6342C42.258 30.6088 42.2627 30.5848 42.2656 30.5595C42.2727 30.5055 42.2812 30.4513 42.2883 30.3973C42.2936 30.3544 42.2988 30.31 42.3042 30.2672C42.3083 30.2385 42.3108 30.2101 42.3149 30.1814C42.3186 30.1497 42.3223 30.118 42.326 30.0863C42.3398 29.9643 42.3504 29.8412 42.3612 29.7195C42.3659 29.6721 42.3692 29.6248 42.3726 29.5791C42.3751 29.5382 42.3774 29.4957 42.3814 29.4546C42.3852 29.3995 42.3877 29.3461 42.3916 29.2925C42.3941 29.2515 42.3953 29.2124 42.3978 29.1714C42.3992 29.1463 42.4006 29.1211 42.4005 29.0961C42.4022 29.0491 42.4041 29.0035 42.4058 28.9565C42.4069 28.9048 42.4094 28.8514 42.4105 28.7997C42.4099 28.7951 42.4106 28.7888 42.41 28.7842C42.4107 28.7295 42.4114 28.6747 42.4121 28.62C42.4128 28.5653 42.4135 28.5105 42.4127 28.456C42.4123 28.4529 42.4121 28.4514 42.4117 28.4483C42.4122 28.392 42.4112 28.3359 42.4101 28.2799C42.4101 28.2315 42.4087 28.1848 42.4071 28.1366C42.4061 28.068 42.4036 28.0012 42.401 27.9329C42.3986 27.8785 42.3961 27.8226 42.3937 27.7683C42.3914 27.714 42.3876 27.6614 42.3837 27.6072C42.3831 27.6026 42.3827 27.5995 42.3821 27.5949C42.38 27.5546 42.3766 27.516 42.3745 27.4757C42.3697 27.4029 42.3632 27.3289 42.3569 27.2563C42.3515 27.2023 42.3478 27.1497 42.3424 27.0958C42.3384 27.0651 42.3361 27.0357 42.3321 27.005C42.3276 26.9697 42.3245 26.9342 42.3213 26.8971C42.3207 26.8925 42.3201 26.8879 42.3195 26.8833C42.3079 26.7817 42.296 26.6787 42.2814 26.5775C42.266 26.4593 42.2474 26.3399 42.2288 26.2206C42.2112 26.1089 42.192 25.9974 42.1713 25.8861L42.1709 25.883C42.15 25.7702 42.1276 25.6575 42.105 25.5434C42.0811 25.4309 42.0569 25.317 42.0299 25.2049C42.0022 25.0883 41.9746 24.9717 41.9439 24.8554C39.9243 17.0157 31.9316 12.2976 24.0918 14.3172C20.428 15.261 17.4456 17.5092 15.5147 20.4374C15.5498 20.3704 15.5848 20.3034 15.6215 20.2378C15.6581 20.1706 15.6949 20.1049 15.7316 20.0392C15.7684 19.9736 15.8067 19.9077 15.8452 19.8434C15.8669 19.8062 15.8873 19.7708 15.9092 19.7352C15.9309 19.698 15.9526 19.6608 15.9745 19.6252C15.9757 19.6219 15.9784 19.6184 15.981 19.615C16.0169 19.5541 16.0544 19.4946 16.092 19.4351C16.1036 19.4164 16.1154 19.3992 16.1271 19.3806C16.1595 19.3295 16.1905 19.2802 16.2245 19.229C16.2298 19.222 16.2334 19.2137 16.2388 19.2068C16.2727 19.1556 16.3067 19.1043 16.3406 19.0531C16.3576 19.0274 16.3759 19.0001 16.3929 18.9745C16.4217 18.9317 16.4507 18.8905 16.4795 18.8477C16.4913 18.8305 16.5033 18.8149 16.5152 18.7978C16.544 18.755 16.5745 18.7136 16.6048 18.6706C16.6247 18.6431 16.6432 18.6172 16.6632 18.5912C16.6911 18.5532 16.7174 18.5155 16.7455 18.4791C16.7615 18.4582 16.7773 18.4359 16.7934 18.4151C16.8266 18.3702 16.86 18.3268 16.8934 18.2834C16.9041 18.2695 16.9148 18.2557 16.9255 18.2418C16.9602 18.1967 16.9949 18.1516 17.0299 18.108C17.0473 18.0855 17.0648 18.0644 17.0837 18.0417C17.1118 18.0053 17.1401 17.9704 17.1701 17.9368C17.193 17.9089 17.2159 17.8809 17.2403 17.8528C17.2659 17.8213 17.2902 17.7916 17.3162 17.7633C17.3418 17.7319 17.3689 17.7002 17.3962 17.6701C17.418 17.6455 17.4395 17.6192 17.4613 17.5946C17.4898 17.5612 17.5184 17.5294 17.5471 17.4976C17.5838 17.4553 17.6207 17.4146 17.6589 17.3722C17.7093 17.3157 17.7615 17.2605 17.8137 17.2053C17.8301 17.1876 17.8481 17.1696 17.8645 17.1519C17.9675 17.0433 18.0723 16.936 18.1774 16.8318C18.1954 16.8139 18.2149 16.7957 18.2328 16.7778C18.3519 16.6608 18.4743 16.545 18.5984 16.4306L18.6627 16.3723C18.7506 16.2922 18.839 16.2151 18.9289 16.1379C18.9584 16.1122 18.9894 16.0863 19.0188 16.0606C19.0793 16.0091 19.1399 15.959 19.2006 15.909C19.2612 15.859 19.3234 15.8088 19.3858 15.7601C19.4154 15.7359 19.4466 15.7116 19.4765 15.689C19.5404 15.6401 19.6028 15.5914 19.6667 15.5425C19.7306 15.4936 19.7934 15.448 19.8575 15.4007C19.8889 15.3778 19.9216 15.3533 19.953 15.3305C19.9859 15.3075 20.0173 15.2847 20.0502 15.2617C20.0845 15.2369 20.119 15.2137 20.1548 15.1888C20.2177 15.1447 20.2825 15.1019 20.3454 15.0579C18.0874 16.5593 16.313 18.6476 15.1805 21.0507C15.2707 20.9031 15.3626 20.7569 15.4579 20.6134C14.2686 22.8787 13.6649 25.4583 13.7935 28.1099C13.8449 29.0713 13.9927 30.042 14.2417 31.0105C16.0311 37.9543 22.4793 42.4653 29.3786 42.0541C30.0118 42.0125 30.6491 41.9298 31.2882 41.8016C31.5576 41.7479 31.826 41.6865 32.0949 41.6173C32.8775 41.4158 33.629 41.1544 34.347 40.8395C36.9854 39.6821 39.1535 37.8004 40.672 35.4971C40.523 35.7803 40.3654 36.0584 40.1994 36.3313C40.8821 35.4433 41.4629 34.4811 41.9289 33.4635L41.9342 33.4566Z" fill="#F4AD00"/>
<path opacity="0.78" d="M27.6468 7.94745C28.3022 9.46122 29.1015 11.0968 30.0835 12.6604C30.12 12.665 30.1563 12.6681 30.1928 12.6727C30.2293 12.6774 30.2657 12.6804 30.3022 12.6851C30.3387 12.6897 30.3752 12.6943 30.4117 12.699C30.4878 12.7078 30.5626 12.7184 30.6375 12.7306C30.671 12.7356 30.7044 12.7406 30.7378 12.7456C30.7744 12.7503 30.8095 12.7567 30.8462 12.7628C30.8766 12.7682 30.9068 12.7721 30.9372 12.7776C31.0344 12.7931 31.1319 12.8101 31.228 12.8288C31.2791 12.8378 31.3289 12.8485 31.3785 12.8577C31.489 12.8793 31.5997 12.9024 31.7091 12.9272C31.7428 12.9338 31.7766 12.9419 31.8089 12.9502C31.8797 12.966 31.9506 12.9833 32.0216 13.0006C32.057 13.0085 32.0925 13.018 32.1281 13.0274C32.1766 13.0399 32.2235 13.0525 32.2719 13.065C32.3269 13.0797 32.3819 13.0944 32.4371 13.1107C32.4386 13.1105 32.4419 13.1116 32.4437 13.1129C32.4987 13.1277 32.5539 13.1439 32.6075 13.1604C32.6577 13.1742 32.7065 13.1897 32.7569 13.205C32.8023 13.2179 32.8464 13.2324 32.892 13.2468C32.9164 13.2546 32.9408 13.2623 32.9637 13.2703C32.9979 13.2815 33.0322 13.2926 33.0664 13.3038C33.1007 13.315 33.1349 13.3262 33.1691 13.3373C33.3095 13.3847 33.4502 13.4336 33.5895 13.4842C33.6156 13.4933 33.642 13.5039 33.6699 13.5144C33.7141 13.5305 33.7586 13.5481 33.8028 13.5642C33.8521 13.5828 33.9015 13.603 33.9508 13.6215C33.9952 13.6392 34.0414 13.6582 34.0859 13.6759C34.2194 13.7304 34.3531 13.7864 34.4842 13.8459C34.5238 13.8626 34.5637 13.8808 34.602 13.8993C34.6518 13.9225 34.7032 13.9455 34.7531 13.9687C34.7964 13.9896 34.8395 14.009 34.8828 14.0299C34.9128 14.0448 34.9444 14.0594 34.9744 14.0742C35.0195 14.0965 35.0645 14.1188 35.1096 14.141C35.1513 14.1621 35.1914 14.1819 35.2331 14.203C35.2784 14.2268 35.3236 14.2506 35.3689 14.2744C35.3906 14.2857 35.4124 14.2969 35.4344 14.3097C35.5066 14.3487 35.5787 14.3877 35.6509 14.4268C35.6812 14.4431 35.7114 14.4595 35.7403 14.4776C35.8716 14.5511 36.0016 14.6264 36.1305 14.7049C36.1559 14.7203 36.1813 14.7358 36.2067 14.7512C36.2374 14.7707 36.2678 14.7886 36.2984 14.808C36.3239 14.8235 36.3477 14.8391 36.3732 14.8545C36.4038 14.874 36.4344 14.8934 36.465 14.9129C36.5007 14.9348 36.5365 14.9582 36.5723 14.9817C36.5758 14.9844 36.5808 14.9869 36.5843 14.9895C36.6099 15.0065 36.6338 15.0221 36.6579 15.0393C36.7825 15.1215 36.9041 15.2041 37.0261 15.2897C37.045 15.3029 37.0656 15.3174 37.0844 15.3306C37.1222 15.3569 37.1584 15.3834 37.1964 15.4113C37.2446 15.4456 37.2914 15.4817 37.3396 15.5161C37.3778 15.5455 37.4157 15.5733 37.4539 15.6027C37.4936 15.6319 37.5319 15.6628 37.5701 15.6922C37.5892 15.7069 37.6083 15.7216 37.6274 15.7363C37.636 15.743 37.6447 15.7497 37.6519 15.7566C37.6883 15.7846 37.7232 15.8129 37.7581 15.8412C37.8034 15.8774 37.8504 15.9151 37.8959 15.9529C37.9746 16.0176 38.0532 16.0823 38.129 16.149C38.157 16.1719 38.1836 16.1966 38.2115 16.2195C38.333 16.3255 38.4532 16.4333 38.5705 16.543C38.6114 16.5814 38.6523 16.6198 38.6931 16.6582C38.736 16.6995 38.7788 16.7408 38.8217 16.7821C38.8645 16.8233 38.9058 16.8648 38.9488 16.9076C38.9901 16.9491 39.0331 16.9919 39.0744 17.0334C39.0763 17.0363 39.0796 17.0374 39.0815 17.0403C39.1194 17.0791 39.1574 17.1195 39.1952 17.1583C39.2369 17.2028 39.2784 17.2458 39.3201 17.2904C39.3907 17.3655 39.4598 17.4409 39.5276 17.518C39.5404 17.5319 39.5531 17.5459 39.5643 17.56C39.6412 17.6469 39.7182 17.7352 39.7939 17.8253C39.8325 17.8703 39.8713 17.9168 39.9086 17.9635C39.9474 18.01 39.9847 18.0566 40.0218 18.1018C40.0533 18.1399 40.0834 18.1797 40.1151 18.2193C40.1582 18.2746 40.2013 18.3299 40.2444 18.3852C40.2801 18.4321 40.3161 18.4805 40.3518 18.5274C40.3915 18.58 40.4295 18.6328 40.4678 18.6872C40.4962 18.7257 40.5248 18.7657 40.5517 18.8044C40.5594 18.8158 40.5689 18.8287 40.5767 18.8401C40.5995 18.8715 40.6209 18.9047 40.6437 18.936C40.6569 18.9531 40.6687 18.9718 40.6803 18.9891C40.7437 19.0808 40.8056 19.1727 40.8661 19.2663C40.8992 19.3167 40.9323 19.367 40.964 19.4191C40.9896 19.4595 41.0151 19.4999 41.0407 19.5403C41.0523 19.5575 41.0623 19.575 41.0741 19.5937C41.1018 19.6386 41.1295 19.6834 41.1556 19.7284C41.1556 19.7284 41.1556 19.7284 41.1558 19.7299C41.186 19.7822 41.2176 19.8328 41.2478 19.885C41.2737 19.9285 41.2999 19.9735 41.3243 20.0172C42.7734 20.0306 44.3519 19.7898 46.0731 19.2293C42.9644 12.6347 36.4441 8.33763 29.2716 7.96769C28.7309 7.93949 28.1868 7.93359 27.641 7.95132L27.6468 7.94745Z" fill="#F4C83D"/>
<path opacity="0.02" d="M14.2461 31.0037C16.0355 37.9475 22.4836 42.4584 29.383 42.0472C30.0162 42.0057 30.6534 41.923 31.2925 41.7948L33.7129 40.5455L34.4745 40.6387C34.4419 40.7007 34.4003 40.7654 34.3513 40.8327C36.9897 39.6753 39.1578 37.7936 40.6764 35.4903C40.5273 35.7735 40.3698 36.0516 40.2038 36.3245C40.8864 35.4365 41.4673 34.4743 41.9332 33.4567C42.9211 31.2988 43.3959 28.8936 43.2449 26.4306C43.2437 26.4214 43.2425 26.4122 43.2431 26.4043C43.1852 25.4891 43.0407 24.5679 42.8027 23.6479C42.4664 22.3441 41.9666 21.1271 41.3301 20.0121C41.3039 19.9671 41.2795 19.9234 41.2534 19.8784C41.2232 19.8261 41.1932 19.7754 41.1614 19.7233C41.1338 19.6785 41.1076 19.6335 41.08 19.5887C41.0684 19.5714 41.0581 19.5525 41.0465 19.5352C41.021 19.4948 40.9969 19.4542 40.9714 19.4138C40.9383 19.3635 40.9068 19.3129 40.8735 19.261C40.813 19.1674 40.7511 19.0755 40.6877 18.9838C40.6759 18.965 40.6627 18.948 40.6511 18.9308C40.6298 18.8992 40.6068 18.8663 40.584 18.8349C40.5747 18.8236 40.5668 18.8106 40.5591 18.7991C40.5307 18.7606 40.5036 18.7204 40.4752 18.6819C40.4369 18.6276 40.3973 18.5749 40.3576 18.5223C40.3219 18.4754 40.286 18.427 40.2502 18.3801C40.2087 18.3246 40.1656 18.2693 40.1225 18.214C40.0925 18.1757 40.0608 18.1361 40.0292 18.0965C39.9919 18.0499 39.9546 18.0031 39.916 17.9582C39.8789 17.913 39.8401 17.8666 39.8013 17.8201C39.7257 17.7315 39.6502 17.6429 39.5717 17.5548C39.5589 17.5408 39.5477 17.5267 39.535 17.5127C39.4657 17.4358 39.3966 17.3605 39.3275 17.2851C39.2858 17.2406 39.2441 17.196 39.2026 17.153C39.1645 17.1126 39.1267 17.0738 39.0889 17.035C39.087 17.0322 39.0837 17.031 39.0818 17.0282C39.0403 16.9851 38.999 16.9437 38.9561 16.9024C38.9131 16.8596 38.8718 16.8181 38.829 16.7768C38.7862 16.7355 38.7433 16.6942 38.7005 16.6529C38.6596 16.6145 38.6187 16.5761 38.5778 16.5377C38.4605 16.428 38.3404 16.3203 38.2189 16.2142C38.1923 16.1896 38.1643 16.1667 38.1364 16.1437C38.059 16.0773 37.9819 16.0123 37.9033 15.9476C37.8578 15.9098 37.8123 15.872 37.7654 15.8359C37.7305 15.8076 37.6941 15.7796 37.6592 15.7513C37.6505 15.7446 37.6434 15.7378 37.6349 15.7326C37.6158 15.7179 37.5968 15.7032 37.5777 15.6885C37.5393 15.6576 37.4996 15.6284 37.4614 15.599C37.4233 15.5696 37.3853 15.5417 37.3472 15.5123C37.3003 15.4762 37.2521 15.4419 37.204 15.4076C37.1662 15.3812 37.1298 15.3532 37.092 15.3268C37.0729 15.3121 37.054 15.299 37.0336 15.286C36.9132 15.2001 36.7899 15.1162 36.6654 15.0356C36.6415 15.0199 36.6159 15.003 36.5918 14.9858C36.5868 14.9833 36.5834 14.9806 36.5799 14.978C36.5441 14.9545 36.5082 14.9311 36.4726 14.9092C36.442 14.8897 36.4113 14.8702 36.3807 14.8508C36.3553 14.8354 36.3314 14.8197 36.306 14.8043C36.2753 14.7848 36.2449 14.7669 36.2143 14.7475C36.1889 14.7321 36.1634 14.7166 36.138 14.7012C36.0092 14.6226 35.8792 14.5474 35.7479 14.4739C35.7176 14.4575 35.6874 14.4411 35.6585 14.423C35.5863 14.384 35.5139 14.3434 35.4419 14.3059C35.4201 14.2947 35.3982 14.2819 35.3764 14.2707C35.3312 14.2469 35.286 14.2231 35.2409 14.2008C35.1991 14.1797 35.1591 14.1599 35.1173 14.1388C35.0723 14.1166 35.0272 14.0943 34.9822 14.072C34.9521 14.0572 34.9206 14.0426 34.8906 14.0277C34.8473 14.0068 34.8057 13.9872 34.7624 13.9663C34.7125 13.9431 34.6611 13.9201 34.6113 13.8969C34.5714 13.8786 34.5333 13.8617 34.4935 13.8435C34.3611 13.7857 34.2287 13.728 34.0951 13.6735C34.0505 13.6543 34.0045 13.6368 33.9601 13.6192C33.9106 13.599 33.8614 13.5804 33.8137 13.5616C33.7692 13.544 33.7249 13.5279 33.6807 13.5118C33.6545 13.5027 33.6282 13.492 33.6005 13.4831C33.461 13.431 33.3206 13.3836 33.1802 13.3363C33.1459 13.3251 33.1115 13.3124 33.0759 13.3029C33.0417 13.2918 33.0074 13.2806 32.9732 13.2694C32.9488 13.2617 32.9259 13.2537 32.9001 13.2477C32.8545 13.2333 32.8105 13.2187 32.7651 13.2059C32.7162 13.1904 32.666 13.1766 32.6157 13.1613C32.5605 13.145 32.507 13.1301 32.452 13.1153C32.4489 13.1157 32.4472 13.1144 32.4455 13.1131C32.3905 13.0983 32.3355 13.0836 32.2805 13.0689C32.232 13.0565 32.1836 13.044 32.1366 13.0314C32.1011 13.0219 32.0657 13.014 32.0301 13.0046C31.9592 12.9873 31.8882 12.9699 31.8159 12.9543C31.7821 12.9462 31.7485 12.9396 31.7162 12.9313C31.6068 12.9065 31.496 12.8834 31.3855 12.8618C31.3357 12.8511 31.2846 12.8422 31.235 12.833C31.1389 12.8142 31.0414 12.7972 30.9442 12.7817C30.9138 12.7763 30.8834 12.7709 30.8533 12.767C30.8165 12.7608 30.7816 12.756 30.7449 12.7498C30.7114 12.7448 30.678 12.7397 30.6445 12.7347C30.5698 12.7241 30.4935 12.7137 30.4172 12.7033C30.3807 12.6987 30.3442 12.694 30.3077 12.6894C30.2712 12.6848 30.2346 12.6802 30.1983 12.6771C30.1618 12.6724 30.1255 12.6693 30.089 12.6647C29.9228 12.6472 29.7552 12.6315 29.5868 12.6206C29.6355 12.6236 29.683 12.6284 29.7303 12.6316C29.8265 12.6394 29.9214 12.649 30.0179 12.6583C30.0654 12.6631 30.1146 12.6692 30.162 12.674C33.2363 13.023 36.1072 14.343 38.367 16.3933C38.3846 16.4082 38.4023 16.4246 38.4201 16.4411C40.4419 18.2928 41.9686 20.7334 42.7041 23.5858C43.7294 27.5653 43.0188 31.5828 41.0447 34.8398C40.947 35.0008 40.8459 35.1607 40.7429 35.3177C41.5067 33.8634 42.0288 32.2795 42.2707 30.6306C42.2739 30.6068 42.277 30.5829 42.2804 30.5606C42.5277 28.8204 42.4629 27.0099 42.0425 25.2017C42.0149 25.0851 41.9873 24.9685 41.9566 24.8522C39.9369 17.0124 31.9442 12.2944 24.1044 14.314C20.4406 15.2578 17.4582 17.506 15.5273 20.4342C16.6529 18.2912 18.3022 16.43 20.3552 15.0566C18.0971 16.5581 16.3227 18.6463 15.1903 21.0494C15.2804 20.9018 15.3723 20.7557 15.4677 20.6121C14.2783 22.8774 13.6747 25.457 13.8033 28.1087C13.8546 29.07 14.0024 30.0407 14.2515 31.0093L14.2461 31.0037Z" fill="#F4C83D"/>
<path opacity="0.19" d="M29.3854 42.0465C30.0067 42.0096 30.6308 41.9334 31.2571 41.8146C31.5725 41.7549 31.8897 41.6841 32.2039 41.6028C32.9335 41.4144 33.6378 41.1747 34.3112 40.889C36.6906 39.8777 38.6978 38.2838 40.2049 36.3255C40.3724 36.0524 40.53 35.7743 40.6775 35.4913C39.1589 37.7946 36.9908 39.6763 34.3524 40.8337C33.636 41.1484 32.8845 41.4098 32.1004 41.6115C31.8314 41.6807 31.5615 41.7423 31.2937 41.7958C30.6559 41.9223 30.0188 42.0065 29.3841 42.0483L29.3854 42.0465Z" fill="#D39333"/>
<path opacity="0.19" d="M15.5289 20.4276C17.4597 17.4993 20.4422 15.2512 24.106 14.3074C31.9458 12.2878 39.9385 17.0058 41.9581 24.8456C42.9019 28.5094 42.3745 32.2064 40.743 35.3113C42.944 31.9748 43.7799 27.7553 42.704 23.5794C41.0811 17.2807 35.6023 12.9968 29.4448 12.6029C29.385 12.5997 29.3236 12.5952 29.2638 12.592C27.815 12.5209 26.3315 12.6634 24.8523 13.0442C23.4352 13.4092 22.1197 13.9687 20.9262 14.6856C20.8827 14.7116 20.8408 14.7373 20.7988 14.7631C20.7715 14.7807 20.7439 14.7967 20.718 14.8141C20.6631 14.8478 20.6096 14.8813 20.5564 14.9163C18.4098 16.3018 16.6889 18.213 15.5287 20.426L15.5289 20.4276Z" fill="#D39333"/>
<path opacity="0.19" d="M13.804 28.1044C13.677 25.4525 14.2791 22.8731 15.4685 20.6078C15.3733 20.7529 15.2812 20.8976 15.1911 21.0451C14.171 23.2072 13.6713 25.625 13.804 28.1044Z" fill="#D39333"/>
<path d="M15.5292 20.4289C17.46 17.5007 20.4425 15.2526 24.1063 14.3088C31.9461 12.2891 39.9388 17.0072 41.9584 24.8469C42.9022 28.5107 42.3481 32.3986 40.7167 35.505C43.1517 32.1663 43.8793 27.8469 42.8035 23.6709C41.1806 17.3722 35.6043 12.9995 29.4468 12.6056C29.3871 12.6024 29.3256 12.5979 29.2659 12.5947C27.8167 12.5205 26.3329 12.6614 24.8538 13.0423C23.4366 13.4073 22.1214 13.9683 20.9282 14.6883C20.8848 14.7143 20.8428 14.74 20.8009 14.7657C20.7735 14.7834 20.7459 14.7994 20.7201 14.8168C20.6651 14.8505 20.6119 14.8855 20.5584 14.919C18.4118 16.3045 16.6909 18.2156 15.5307 20.4287L15.5292 20.4289Z" fill="#CC820A"/>
<path d="M13.5005 32.3388C15.259 39.1648 21.5461 43.6249 28.3184 43.3301C29.323 43.2872 30.3389 43.1382 31.3511 42.8772C31.691 42.7894 32.0265 42.6912 32.3542 42.5816C35.7317 41.4532 38.4556 39.1856 40.2018 36.3265C40.3693 36.0534 40.5269 35.7754 40.6744 35.4924C39.1558 37.7957 36.9877 39.6774 34.3493 40.8347C33.6329 41.1494 32.8815 41.4108 32.0973 41.6125C31.8283 41.6818 31.5584 41.7433 31.2906 41.7968C30.6528 41.9233 30.0157 42.0075 29.381 42.0493C22.4884 42.5002 16.0317 38.0076 14.2454 31.0759C13.9903 30.0847 13.8426 29.0906 13.7946 28.1069C13.6675 25.4551 14.2696 22.8756 15.459 20.6104C15.3638 20.7554 15.2717 20.9001 15.1816 21.0477C13.1897 24.3117 12.4688 28.3461 13.4979 32.3423L13.5005 32.3388Z" fill="#F4C83D"/>
<path d="M25.1305 17.174L23.6016 24.1268C23.5768 24.2486 23.4932 24.35 23.3776 24.3978L17.5513 26.5809C17.2625 26.7011 17.1762 27.3962 17.4477 27.5514L22.9698 30.9537C23.0779 31.0162 23.1483 31.1258 23.1583 31.2509L23.7052 37.8844C23.7316 38.1964 24.1035 38.3433 24.3355 38.1336L29.7667 33.5552C29.8589 33.4714 29.9859 33.4393 30.1066 33.4674L36.1396 34.8142C36.4439 34.8856 36.9166 34.4136 36.7889 34.1273L33.7914 28.5097C33.7407 28.3961 33.7488 28.2655 33.813 28.1588L37.2702 22.4703C37.4322 22.2026 37.2182 21.865 36.9072 21.8991L30.2895 22.6157C30.1663 22.6286 30.0445 22.5803 29.9621 22.4864L25.7995 17.0232C25.5954 16.7858 25.1936 16.866 25.1303 17.1724L25.1305 17.174Z" fill="#CC820A"/>
<path d="M25.3678 16.6784L24.0037 23.1929C23.979 23.3148 23.8953 23.4162 23.7797 23.464L17.6399 26.0344C17.351 26.1546 17.3264 26.5543 17.5979 26.7096L23.3719 30.0199C23.48 30.0824 23.5504 30.1919 23.5604 30.3171L24.1073 36.9506C24.1337 37.2625 24.5056 37.4094 24.7376 37.1998L29.6709 32.7312C29.7631 32.6475 29.8901 32.6154 30.0109 32.6434L36.4891 34.1729C36.7934 34.2443 37.0485 33.9364 36.9208 33.6501L34.1952 27.5772C34.1446 27.4636 34.1526 27.3329 34.2168 27.2262L37.6741 21.5378C37.836 21.2701 37.6221 20.9325 37.3111 20.9666L30.6934 21.6832C30.5702 21.696 30.4484 21.6478 30.3659 21.5539L26.0249 16.5088C25.8208 16.2714 25.4341 16.3716 25.3693 16.6782L25.3678 16.6784Z" fill="#FCBE32"/>
</svg>
