<svg width="209" height="271" viewBox="0 0 209 271" fill="none" xmlns="http://www.w3.org/2000/svg">
<g filter="url(#filter0_d_13922_21997)">
<path d="M55.3194 253.505C47.3158 242.046 52.5651 113.976 62.3315 50.4894C78.5423 42.2077 189.441 34.1787 192.961 44.5212C196.482 54.8637 197.605 236.809 194.514 250.161C191.341 253.323 78.9893 256.646 55.3194 253.505Z" fill="white"/>
</g>
<g filter="url(#filter1_d_13922_21997)">
<path d="M151.171 8.77662C160.063 19.5597 165.05 147.641 160.38 211.704C144.881 221.253 34.9773 238.105 30.6426 228.076C26.3078 218.047 10.6712 36.7713 12.6866 23.2153C15.5976 19.8109 127.326 7.53383 151.171 8.77662Z" fill="white"/>
</g>
<path d="M203.82 54.048C203.464 53.0769 188.687 52.9569 181.343 53.0183L180.525 70.8793C187.693 71.0087 202.235 71.1577 203.056 70.7179C204.082 70.1682 196.004 61.9314 197.502 62C199 62.0686 204.264 55.262 203.82 54.048Z" fill="#F1D14B"/>
<g filter="url(#filter2_d_13922_21997)">
<path d="M33.4184 236.286C25.9461 224.475 37.0351 96.777 49.6889 33.8026C66.2607 26.2694 177.41 23.3102 180.455 33.8026C183.5 44.2949 176.318 226.102 172.621 239.299C169.307 242.313 56.9203 240.505 33.4184 236.286Z" fill="white"/>
</g>
<path d="M134.109 60.8009C134.923 60.9743 135.576 61.3809 136.069 62.0209C136.563 62.6476 136.809 63.3676 136.809 64.1809C136.809 65.3543 136.396 66.2876 135.569 66.9809C134.756 67.6609 133.616 68.0009 132.149 68.0009H125.609V53.9609H131.929C133.356 53.9609 134.469 54.2876 135.269 54.9409C136.083 55.5943 136.489 56.4809 136.489 57.6009C136.489 58.4276 136.269 59.1143 135.829 59.6609C135.403 60.2076 134.829 60.5876 134.109 60.8009ZM129.029 59.6409H131.269C131.829 59.6409 132.256 59.5209 132.549 59.2809C132.856 59.0276 133.009 58.6609 133.009 58.1809C133.009 57.7009 132.856 57.3343 132.549 57.0809C132.256 56.8276 131.829 56.7009 131.269 56.7009H129.029V59.6409ZM131.549 65.2409C132.123 65.2409 132.563 65.1143 132.869 64.8609C133.189 64.5943 133.349 64.2143 133.349 63.7209C133.349 63.2276 133.183 62.8409 132.849 62.5609C132.529 62.2809 132.083 62.1409 131.509 62.1409H129.029V65.2409H131.549Z" fill="#6A6A77"/>
<path d="M108.578 62.4207C108.578 61.2607 108.811 60.2473 109.278 59.3807C109.758 58.514 110.418 57.8473 111.258 57.3807C112.111 56.914 113.085 56.6807 114.178 56.6807C115.578 56.6807 116.745 57.0473 117.678 57.7807C118.625 58.514 119.245 59.5473 119.538 60.8807H115.898C115.591 60.0273 114.998 59.6007 114.118 59.6007C113.491 59.6007 112.991 59.8473 112.618 60.3407C112.245 60.8207 112.058 61.514 112.058 62.4207C112.058 63.3273 112.245 64.0273 112.618 64.5207C112.991 65.0007 113.491 65.2407 114.118 65.2407C114.998 65.2407 115.591 64.814 115.898 63.9607H119.538C119.245 65.2673 118.625 66.294 117.678 67.0407C116.731 67.7873 115.565 68.1607 114.178 68.1607C113.085 68.1607 112.111 67.9273 111.258 67.4607C110.418 66.994 109.758 66.3273 109.278 65.4607C108.811 64.594 108.578 63.5807 108.578 62.4207Z" fill="#6A6A77"/>
<path d="M105.079 55.6805C104.479 55.6805 103.986 55.5071 103.599 55.1605C103.226 54.8005 103.039 54.3605 103.039 53.8405C103.039 53.3071 103.226 52.8671 103.599 52.5205C103.986 52.1605 104.479 51.9805 105.079 51.9805C105.666 51.9805 106.146 52.1605 106.519 52.5205C106.906 52.8671 107.099 53.3071 107.099 53.8405C107.099 54.3605 106.906 54.8005 106.519 55.1605C106.146 55.5071 105.666 55.6805 105.079 55.6805ZM106.779 56.8405V68.0005H103.359V56.8405H106.779Z" fill="#6A6A77"/>
<path d="M93.2091 58.4207C93.5424 57.9007 94.0024 57.4807 94.5891 57.1607C95.1757 56.8407 95.8624 56.6807 96.6491 56.6807C97.5691 56.6807 98.4024 56.914 99.1491 57.3807C99.8957 57.8473 100.482 58.514 100.909 59.3807C101.349 60.2473 101.569 61.254 101.569 62.4007C101.569 63.5473 101.349 64.5607 100.909 65.4407C100.482 66.3073 99.8957 66.9807 99.1491 67.4607C98.4024 67.9273 97.5691 68.1607 96.6491 68.1607C95.8757 68.1607 95.1891 68.0007 94.5891 67.6807C94.0024 67.3607 93.5424 66.9473 93.2091 66.4407V73.3207H89.7891V56.8407H93.2091V58.4207ZM98.0891 62.4007C98.0891 61.5473 97.8491 60.8807 97.3691 60.4007C96.9024 59.9073 96.3224 59.6607 95.6291 59.6607C94.9491 59.6607 94.3691 59.9073 93.8891 60.4007C93.4224 60.894 93.1891 61.5673 93.1891 62.4207C93.1891 63.274 93.4224 63.9473 93.8891 64.4407C94.3691 64.934 94.9491 65.1807 95.6291 65.1807C96.3091 65.1807 96.8891 64.934 97.3691 64.4407C97.8491 63.934 98.0891 63.254 98.0891 62.4007Z" fill="#6A6A77"/>
<path d="M82.135 68.1607C81.0417 68.1607 80.055 67.9273 79.175 67.4607C78.3083 66.994 77.6217 66.3273 77.115 65.4607C76.6217 64.594 76.375 63.5807 76.375 62.4207C76.375 61.274 76.6283 60.2673 77.135 59.4007C77.6417 58.5207 78.335 57.8473 79.215 57.3807C80.095 56.914 81.0817 56.6807 82.175 56.6807C83.2683 56.6807 84.255 56.914 85.135 57.3807C86.015 57.8473 86.7083 58.5207 87.215 59.4007C87.7217 60.2673 87.975 61.274 87.975 62.4207C87.975 63.5673 87.715 64.5807 87.195 65.4607C86.6883 66.3273 85.9883 66.994 85.095 67.4607C84.215 67.9273 83.2283 68.1607 82.135 68.1607ZM82.135 65.2007C82.7883 65.2007 83.3417 64.9607 83.795 64.4807C84.2617 64.0007 84.495 63.314 84.495 62.4207C84.495 61.5273 84.2683 60.8407 83.815 60.3607C83.375 59.8807 82.8283 59.6407 82.175 59.6407C81.5083 59.6407 80.955 59.8807 80.515 60.3607C80.075 60.8273 79.855 61.514 79.855 62.4207C79.855 63.314 80.0683 64.0007 80.495 64.4807C80.935 64.9607 81.4817 65.2007 82.135 65.2007Z" fill="#6A6A77"/>
<path d="M75.3366 53.9609V56.7009H71.6166V68.0009H68.1966V56.7009H64.4766V53.9609H75.3366Z" fill="#6A6A77"/>
<rect x="64" y="113.998" width="39" height="4" rx="2" fill="#6A6A77"/>
<rect x="109" y="113.998" width="19" height="4" rx="2" fill="#6A6A77"/>
<rect x="118" y="141.998" width="19" height="4" rx="2" fill="#6A6A77"/>
<rect x="135" y="113.998" width="17" height="4" rx="2" fill="#6A6A77"/>
<rect x="65" y="85.998" width="44" height="4" rx="2" fill="#6A6A77"/>
<rect x="120" y="85.998" width="30" height="4" rx="2" fill="#6A6A77"/>
<rect x="63" y="127.998" width="26" height="4" rx="2" fill="#6A6A77"/>
<rect x="94" y="126.998" width="34" height="4" rx="2" fill="#6A6A77"/>
<rect x="63" y="155.998" width="34" height="4" rx="2" fill="#6A6A77"/>
<rect x="63" y="141.998" width="48" height="4" rx="2" fill="#6A6A77"/>
<rect x="63" y="169.998" width="20" height="4" rx="2" fill="#6A6A77"/>
<rect x="91" y="169.998" width="25" height="4" rx="2" fill="#6A6A77"/>
<rect x="124" y="169.998" width="25" height="4" rx="2" fill="#6A6A77"/>
<rect x="65" y="99.998" width="18" height="4" rx="2" fill="#6A6A77"/>
<rect x="94" y="99.998" width="44" height="4" rx="2" fill="#6A6A77"/>
<defs>
<filter id="filter0_d_13922_21997" x="39.4062" y="31.6309" width="168.914" height="239.138" filterUnits="userSpaceOnUse" color-interpolation-filters="sRGB">
<feFlood flood-opacity="0" result="BackgroundImageFix"/>
<feColorMatrix in="SourceAlpha" type="matrix" values="0 0 0 0 0 0 0 0 0 0 0 0 0 0 0 0 0 0 127 0" result="hardAlpha"/>
<feOffset dy="4"/>
<feGaussianBlur stdDeviation="6"/>
<feComposite in2="hardAlpha" operator="out"/>
<feColorMatrix type="matrix" values="0 0 0 0 0 0 0 0 0 0 0 0 0 0 0 0 0 0 0.16 0"/>
<feBlend mode="normal" in2="BackgroundImageFix" result="effect1_dropShadow_13922_21997"/>
<feBlend mode="normal" in="SourceGraphic" in2="effect1_dropShadow_13922_21997" result="shape"/>
</filter>
<filter id="filter1_d_13922_21997" x="0.507812" y="0.688477" width="173.656" height="246.468" filterUnits="userSpaceOnUse" color-interpolation-filters="sRGB">
<feFlood flood-opacity="0" result="BackgroundImageFix"/>
<feColorMatrix in="SourceAlpha" type="matrix" values="0 0 0 0 0 0 0 0 0 0 0 0 0 0 0 0 0 0 127 0" result="hardAlpha"/>
<feOffset dy="4"/>
<feGaussianBlur stdDeviation="6"/>
<feComposite in2="hardAlpha" operator="out"/>
<feColorMatrix type="matrix" values="0 0 0 0 0 0 0 0 0 0 0 0 0 0 0 0 0 0 0.16 0"/>
<feBlend mode="normal" in2="BackgroundImageFix" result="effect1_dropShadow_13922_21997"/>
<feBlend mode="normal" in="SourceGraphic" in2="effect1_dropShadow_13922_21997" result="shape"/>
</filter>
<filter id="filter2_d_13922_21997" x="19" y="18.998" width="174.188" height="237.798" filterUnits="userSpaceOnUse" color-interpolation-filters="sRGB">
<feFlood flood-opacity="0" result="BackgroundImageFix"/>
<feColorMatrix in="SourceAlpha" type="matrix" values="0 0 0 0 0 0 0 0 0 0 0 0 0 0 0 0 0 0 127 0" result="hardAlpha"/>
<feOffset dy="4"/>
<feGaussianBlur stdDeviation="6"/>
<feComposite in2="hardAlpha" operator="out"/>
<feColorMatrix type="matrix" values="0 0 0 0 0 0 0 0 0 0 0 0 0 0 0 0 0 0 0.16 0"/>
<feBlend mode="normal" in2="BackgroundImageFix" result="effect1_dropShadow_13922_21997"/>
<feBlend mode="normal" in="SourceGraphic" in2="effect1_dropShadow_13922_21997" result="shape"/>
</filter>
</defs>
</svg>
