<svg width="80" height="60" viewBox="0 0 80 60" fill="none" xmlns="http://www.w3.org/2000/svg">
<path d="M76.6215 46.8358C76.5205 47.8808 76.2132 49.6733 76.3871 50.9876C76.5425 52.1646 78.5996 54.2282 77.3186 54.2964C76.4678 54.3415 43.4219 59.6634 42.5518 59.1904C41.6817 58.7175 39.3392 53.2487 40.6773 52.7084C42.0154 52.1682 45.3623 51.0204 45.3623 51.0204L76.6206 46.834L76.6215 46.8358Z" fill="white"/>
<path d="M77.673 55.2578C75.5974 55.6625 42.548 60.0004 42.548 60.0004C42.548 60.0004 42.3873 59.9207 42.0861 59.7719C38.0421 57.7694 8.71886 43.1936 8.34483 41.4338C7.94271 39.5448 8.54414 35.8295 10.4854 35.6958C10.9165 35.6657 12.7049 35.4513 15.2546 35.1476C24.168 34.0821 42.3767 31.9079 44.354 32.5898C46.8984 33.4675 78.2902 46.3296 77.0856 46.8531C71.4682 49.2921 44.3733 51.1351 42.857 52.3458C42.051 52.9896 40.7235 56.3196 42.0141 57.889C42.3987 58.3557 43.0168 58.6675 43.9519 58.702C48.0187 58.8535 77.6712 54.2614 77.6712 54.2614C77.6712 54.2614 79.7459 54.8539 77.6712 55.2578H77.673Z" fill="#FCBA02"/>
<path opacity="0.28" d="M42.015 57.8889C41.9904 57.9837 41.9685 58.0705 41.9457 58.1448C41.8596 58.4291 41.9263 59.019 42.0861 59.7718C38.0421 57.7693 8.71886 43.1935 8.34483 41.4337C7.94271 39.5447 8.54414 35.8294 10.4854 35.6957C10.9165 35.6656 12.705 35.4512 15.2546 35.1475C15.2696 36.46 15.3214 37.8867 15.7402 39.2055C16.6436 42.0413 39.3336 50.9535 42.857 52.3457C42.051 52.9895 40.7235 56.3195 42.0141 57.8889H42.015Z" fill="#1F1F39"/>
<path d="M77.4956 35.7527C77.3946 36.7978 77.0873 38.5903 77.2612 39.9046C77.4166 41.0816 78.1427 43.2568 78.1427 43.2568C77.3007 43.387 44.2969 48.5803 43.4268 48.1074C42.5567 47.6345 40.2142 42.1657 41.5523 41.6254C42.8904 41.0852 46.2373 39.9374 46.2373 39.9374L77.4956 35.751V35.7527Z" fill="white"/>
<path d="M78.1388 44.2537C76.0632 44.6584 43.423 48.9183 43.423 48.9183C43.423 48.9183 43.2623 48.8386 42.9611 48.6898C38.9171 46.6874 9.59386 32.1116 9.21983 30.3518C8.81771 28.4627 9.41914 24.7475 11.3604 24.6137C11.7915 24.5836 13.5799 24.3693 16.1296 24.0655C25.043 23.0001 43.2517 20.8259 45.229 21.5078C47.7734 22.3855 79.1652 35.2476 77.9606 35.771C72.3432 38.2101 45.2483 40.0531 43.732 41.2637C42.926 41.9076 41.5985 45.2376 42.8891 46.807C43.2737 47.2737 43.8918 47.5854 44.8269 47.62C48.8937 47.7714 78.1371 43.2582 78.1371 43.2582C78.1371 43.2582 80.2118 43.8507 78.1371 44.2545L78.1388 44.2537Z" fill="#8DC9DB"/>
<path opacity="0.28" d="M42.89 46.8059C42.8654 46.9006 42.8435 46.9874 42.8206 47.0618C42.7346 47.3461 42.8013 47.936 42.9611 48.6888C38.9171 46.6863 9.59386 32.1105 9.21983 30.3507C8.81771 28.4616 9.41914 24.7464 11.3604 24.6127C11.7915 24.5825 13.5799 24.3682 16.1296 24.0645C16.1446 25.377 16.1964 26.8037 16.6152 28.1224C17.5186 30.9583 40.2086 39.8704 43.7329 41.2627C42.9269 41.9065 41.5994 45.2365 42.89 46.8059Z" fill="#1F1F39"/>
<path d="M68.3949 25.4578C68.294 26.5029 67.9867 28.2954 68.1605 29.6097C68.3159 30.7867 70.3731 32.8503 69.0921 32.9184C68.2413 32.9636 35.1954 38.2854 34.3253 37.8125C33.4552 37.3396 31.1127 31.8707 32.4507 31.3305C33.7888 30.7903 37.1357 29.6425 37.1357 29.6425L68.394 25.4561L68.3949 25.4578Z" fill="white"/>
<path d="M69.4464 33.8808C67.3708 34.2855 34.3214 38.6234 34.3214 38.6234C34.3214 38.6234 34.1607 38.5437 33.8596 38.3949C29.8155 36.3925 0.492296 21.8166 0.118271 20.0569C-0.28385 18.1678 0.317576 14.4525 2.25882 14.3188C2.68991 14.2887 4.47839 14.0744 7.02808 13.7706C15.9415 12.7052 34.1502 10.5309 36.1274 11.2129C38.6718 12.0905 70.0636 24.9527 68.859 25.4761C63.2416 27.9151 36.1467 29.7582 34.6304 30.9688C33.8244 31.6127 32.4969 34.9427 33.7876 36.512C34.1721 36.9788 34.7902 37.2905 35.7253 37.3251C39.7922 37.4765 69.4446 32.8845 69.4446 32.8845C69.4446 32.8845 71.5193 33.477 69.4446 33.8808H69.4464Z" fill="#419F81"/>
<path opacity="0.28" d="M33.7884 36.51C33.7639 36.6047 33.7419 36.6915 33.7191 36.7659C33.633 37.0502 33.6998 37.6401 33.8596 38.3929C29.8155 36.3904 0.492296 21.8146 0.118271 20.0548C-0.28385 18.1658 0.317576 14.4505 2.25882 14.3168C2.68991 14.2866 4.47839 14.0723 7.02808 13.7686C7.04301 15.0811 7.09481 16.5078 7.51361 17.8265C8.41707 20.6624 31.1071 29.5745 34.6304 30.9668C33.8244 31.6106 32.4969 34.9406 33.7876 36.51H33.7884Z" fill="#1F1F39"/>
<path d="M69.2534 14.3738C69.1525 15.4189 68.8452 17.2114 69.019 18.5257C69.1744 19.7027 69.9005 21.8779 69.9005 21.8779C69.0585 22.008 36.0547 27.2014 35.1846 26.7285C34.3145 26.2556 31.9721 20.7867 33.3101 20.2465C34.6482 19.7063 37.9951 18.5585 37.9951 18.5585L69.2534 14.3721V14.3738Z" fill="white"/>
<path d="M69.8966 22.8757C67.8211 23.2805 35.1808 27.5404 35.1808 27.5404C35.1808 27.5404 35.0201 27.4607 34.7189 27.3119C30.6749 25.3095 1.35167 10.7336 0.977646 8.97387C0.575525 7.0848 1.17695 3.36954 3.11819 3.23581C3.54929 3.2057 5.33776 2.99138 7.88746 2.6876C16.8008 1.62218 35.0096 -0.552069 36.9868 0.129873C39.5312 1.00754 70.923 13.8697 69.7184 14.3931C64.101 16.8321 37.0061 18.6752 35.4898 19.8858C34.6838 20.5297 33.3563 23.8597 34.6469 25.429C35.0315 25.8958 35.6496 26.2075 36.5847 26.2421C40.6515 26.3935 69.8949 21.8794 69.8949 21.8794C69.8949 21.8794 71.9696 22.4719 69.8949 22.8757H69.8966Z" fill="#8C4E30"/>
<path opacity="0.28" d="M34.6478 25.427C34.6232 25.5217 34.6013 25.6085 34.5785 25.6829C34.4924 25.9672 34.5591 26.5571 34.7189 27.3098C30.6749 25.3074 1.35167 10.7316 0.977646 8.97181C0.575525 7.08274 1.17695 3.36748 3.11819 3.23375C3.54929 3.20364 5.33776 2.98932 7.88746 2.68555C7.90238 3.99806 7.95418 5.42482 8.37299 6.74354C9.27644 9.57936 31.9664 18.4915 35.4907 19.8838C34.6847 20.5276 33.3572 23.8576 34.6478 25.427Z" fill="#1F1F39"/>
</svg>
