<svg width="61" height="59" viewBox="0 0 61 59" fill="none" xmlns="http://www.w3.org/2000/svg">
<path d="M57.274 17.5369C57.719 19.0928 59.9758 18.9332 60.1903 17.3214C61.2392 9.39818 60.1903 0.150373 56.3046 0.349851C52.999 0.517413 55.3908 10.8743 57.274 17.5289V17.5369Z" fill="white"/>
<path d="M25.6254 52.8209C27.1034 52.2704 26.8173 50.0921 25.2519 49.9325C14.2544 48.7675 0.269201 50.9698 0.928732 56.4754C1.50086 61.2309 17.3058 55.9487 25.6254 52.8209Z" fill="white"/>
<path d="M39.7071 24.2149C40.7957 25.3559 42.6711 24.2468 42.2102 22.7388C38.9682 12.1265 31.467 0.0860341 26.6754 2.85479C22.5355 5.24852 33.5806 17.7678 39.7071 24.2149Z" fill="white"/>
<path d="M26.9356 32.7932C28.4136 33.5034 29.7882 31.6442 28.6758 30.4314C24.0034 25.3088 17.5909 21.032 15.5169 23.6651C13.7529 25.9072 21.3733 30.1202 26.9356 32.7932Z" fill="white"/>
</svg>
