<svg width="156" height="235" viewBox="0 0 156 235" fill="none" xmlns="http://www.w3.org/2000/svg">
<path d="M142.689 17.8486H0V234.763H142.689V17.8486Z" fill="#393C47"/>
<path d="M30.7188 87.9702V17.8359H54.7987V87.9702L42.7578 76.7542L30.7188 87.9702Z" fill="#3591FB"/>
<path d="M122.062 59.0996L129 59.0996L129 62.4277L117 62.4277L117 59.2559L119.117 59.2559L119.117 59.1152C117.719 58.5762 116.844 57.2871 116.844 55.5059C116.844 53.0059 118.562 51.3652 121.359 51.3652L129 51.3652L129 54.6934L121.953 54.6934C120.484 54.6855 119.609 55.4902 119.609 56.8262C119.609 58.1699 120.516 59.0918 122.062 59.0996Z" fill="white"/>
<path d="M129.234 70.498C129.234 74.1387 126.742 76.4043 123.047 76.4043C119.328 76.4043 116.844 74.1387 116.844 70.498C116.844 66.8574 119.328 64.5918 123.047 64.5918C126.742 64.5918 129.234 66.8574 129.234 70.498ZM126.656 70.4824C126.656 68.834 125.117 67.9746 123.023 67.9746C120.93 67.9746 119.383 68.834 119.383 70.4824C119.383 72.1621 120.93 73.0215 123.023 73.0215C125.117 73.0215 126.656 72.1621 126.656 70.4824Z" fill="white"/>
<path d="M129 81.9141L117 81.9141L117 78.5859L129 78.5859L129 81.9141ZM115.453 80.2422C115.453 81.2266 114.695 82.0391 113.766 82.0391C112.844 82.0391 112.086 81.2266 112.086 80.2422C112.086 79.25 112.844 78.4375 113.766 78.4375C114.695 78.4375 115.453 79.25 115.453 80.2422Z" fill="white"/>
<path d="M117 84.082L119.5 84.082L119.5 86.3398L125.312 86.3398C126.234 86.3398 126.484 85.8789 126.484 85.2148C126.484 84.9023 126.406 84.5508 126.375 84.3867L128.852 83.8633C128.961 84.1992 129.133 84.8086 129.164 85.668C129.266 88.082 128.102 89.6836 125.75 89.668L119.5 89.668L119.5 91.3086L117 91.3086L117 89.668L114.125 89.668L114.125 86.3398L117 86.3398L117 84.082Z" fill="white"/>
<path d="M129.227 99.8047C129.227 102.094 128.023 103.789 125.648 103.789C122.969 103.789 122.172 101.656 121.953 99.2812C121.75 97.1953 121.648 96.375 120.875 96.375L120.828 96.375C119.844 96.375 119.273 97.0234 119.273 98.1562C119.273 99.3516 119.859 100.062 120.656 100.289L120.406 103.367C118.219 102.906 116.844 101.016 116.844 98.1406C116.844 95.4687 118.047 93.0469 120.906 93.0469L129 93.0469L129 96.2031L127.336 96.2031L127.336 96.2969C128.453 96.8828 129.227 98.0312 129.227 99.8047ZM126.93 98.8516C126.93 97.3906 125.969 96.3516 124.711 96.3516L123.437 96.3516C123.703 96.75 123.875 97.9375 123.977 98.6641C124.141 99.8359 124.602 100.609 125.539 100.609C126.453 100.609 126.93 99.875 126.93 98.8516Z" fill="white"/>
<path d="M129.234 110.717C129.234 114.412 126.695 116.623 123.047 116.623C119.367 116.623 116.844 114.373 116.844 110.732C116.844 107.6 118.664 105.498 121.437 105.357L121.437 108.498C120.242 108.678 119.437 109.459 119.437 110.678C119.437 112.225 120.734 113.24 123 113.24C125.297 113.24 126.602 112.232 126.602 110.678C126.602 109.537 125.883 108.693 124.602 108.498L124.602 105.357C127.359 105.514 129.234 107.521 129.234 110.717Z" fill="white"/>
<path d="M129 122.133L117 122.133L117 118.805L129 118.805L129 122.133ZM115.453 120.461C115.453 121.445 114.695 122.258 113.766 122.258C112.844 122.258 112.086 121.445 112.086 120.461C112.086 119.469 112.844 118.656 113.766 118.656C114.695 118.656 115.453 119.469 115.453 120.461Z" fill="white"/>
<path d="M122.062 132.49L129 132.49L129 135.818L117 135.818L117 132.646L119.117 132.646L119.117 132.506C117.719 131.967 116.844 130.678 116.844 128.896C116.844 126.396 118.562 124.756 121.359 124.756L129 124.756L129 128.084L121.953 128.084C120.484 128.076 119.609 128.881 119.609 130.217C119.609 131.561 120.516 132.482 122.062 132.49Z" fill="white"/>
<path d="M123.891 141.809L117 141.809L117 138.48L129 138.48L129 141.676L126.82 141.676L126.82 141.801C128.227 142.34 129.156 143.637 129.156 145.441C129.156 147.855 127.445 149.496 124.641 149.504L117 149.504L117 146.176L124.047 146.176C125.461 146.168 126.344 145.355 126.344 144.098C126.344 142.902 125.5 141.801 123.891 141.809Z" fill="white"/>
<path d="M129 169.57L117 169.57L117 166.398L119.117 166.398L119.117 166.258C117.703 165.758 116.844 164.531 116.844 162.914C116.844 161.266 117.727 160.039 119.117 159.656L119.117 159.531C117.742 159.039 116.844 157.672 116.844 155.914C116.844 153.68 118.328 152.133 120.93 152.133L129 152.133L129 155.453L121.586 155.453C120.25 155.453 119.586 156.25 119.586 157.312C119.586 158.523 120.43 159.234 121.672 159.234L129 159.234L129 162.461L121.516 162.461C120.336 162.461 119.586 163.195 119.586 164.289C119.586 165.398 120.469 166.242 121.797 166.242L129 166.242L129 169.57Z" fill="white"/>
<path d="M129 189.637L117 189.637L117 186.465L119.117 186.465L119.117 186.324C117.703 185.824 116.844 184.598 116.844 182.98C116.844 181.332 117.727 180.105 119.117 179.723L119.117 179.598C117.742 179.105 116.844 177.738 116.844 175.98C116.844 173.746 118.328 172.199 120.93 172.199L129 172.199L129 175.52L121.586 175.52C120.25 175.52 119.586 176.316 119.586 177.379C119.586 178.59 120.43 179.301 121.672 179.301L129 179.301L129 182.527L121.516 182.527C120.336 182.527 119.586 183.262 119.586 184.355C119.586 185.465 120.469 186.309 121.797 186.309L129 186.309L129 189.637Z" fill="white"/>
<path d="M129.234 197.707C129.234 201.348 126.742 203.613 123.047 203.613C119.328 203.613 116.844 201.348 116.844 197.707C116.844 194.066 119.328 191.801 123.047 191.801C126.742 191.801 129.234 194.066 129.234 197.707ZM126.656 197.691C126.656 196.043 125.117 195.184 123.023 195.184C120.93 195.184 119.383 196.043 119.383 197.691C119.383 199.371 120.93 200.23 123.023 200.23C125.117 200.23 126.656 199.371 126.656 197.691Z" fill="white"/>
<path d="M118.602 205.492L118.602 208.914C116.844 209.172 115.773 210.508 115.773 212.359C115.773 214.836 117.672 216.461 121 216.461C124.422 216.461 126.227 214.812 126.227 212.383C126.227 210.578 125.242 209.234 123.531 208.914L123.547 205.492C126.492 205.859 129.219 208.336 129.219 212.437C129.219 216.719 126.219 219.891 121 219.891C115.766 219.891 112.781 216.664 112.781 212.438C112.781 208.734 114.906 205.937 118.602 205.492Z" fill="white"/>
</svg>
