<svg width="360" height="640" viewBox="0 0 360 640" fill="none" xmlns="http://www.w3.org/2000/svg">
<g clip-path="url(#clip0_13911_21333)">
<rect width="360" height="640" fill="#023E83"/>
<path fill-rule="evenodd" clip-rule="evenodd" d="M435.613 400.707L320.896 466.934C314.341 470.719 312.073 479.179 315.858 485.733C312.073 479.179 303.612 476.911 297.057 480.696L182.339 546.924C175.785 550.708 173.517 559.168 177.302 565.722L275.07 735.044C278.855 741.598 287.316 743.866 293.87 740.081L390.344 684.388C402.5 689.807 416.987 689.529 429.393 682.37C441.799 675.211 449.286 662.799 450.664 649.566L547.137 593.872C553.692 590.087 555.96 581.627 552.175 575.073L454.407 405.744C450.622 399.19 442.161 396.922 435.606 400.707H435.613Z" fill="#419F81"/>
<path d="M314.733 483.761L189.094 556.292L288.01 727.603L413.649 655.072L314.733 483.761Z" fill="white"/>
<path d="M314.733 483.761L189.094 556.292L288.01 727.603L413.649 655.072L314.733 483.761Z" fill="black" fill-opacity="0.28"/>
<path d="M440.374 411.206L314.734 483.736L413.65 655.047L539.29 582.516L440.374 411.206Z" fill="#A8A8AA"/>
<path fill-rule="evenodd" clip-rule="evenodd" d="M174.742 531.448L281.611 469.75C291.053 463.746 300.224 464.045 308.984 473.813L407.9 645.125C404.15 638.627 389.621 635.044 379.741 641.521L273.658 702.76L174.742 531.448Z" fill="#E0E1EA"/>
<path fill-rule="evenodd" clip-rule="evenodd" d="M173.906 500.161C187.245 509.101 203.395 514.918 222.432 503.925L281.624 469.75C291.066 463.746 300.237 464.045 308.997 473.813L407.913 645.125C404.163 638.627 389.635 635.044 379.754 641.521L324.326 673.518C305.574 683.224 288.624 681.123 272.822 671.473L173.906 500.161Z" fill="white"/>
<path fill-rule="evenodd" clip-rule="evenodd" d="M426.026 386.384L319.157 448.075C309.235 453.251 304.914 461.343 308.984 473.81L407.9 645.122C404.15 638.624 408.304 624.25 418.859 618.934L524.942 557.696L426.026 386.384Z" fill="#E0E1EA"/>
<path fill-rule="evenodd" clip-rule="evenodd" d="M407.915 645.123C406.843 629.1 409.877 612.207 428.914 601.222L488.106 567.047C498.029 561.871 502.35 553.779 498.279 541.312L399.363 370C403.114 376.498 398.96 390.872 388.404 396.188L332.976 428.185C315.199 439.567 308.539 455.298 308.999 473.811L407.915 645.123Z" fill="#F3F3F7"/>
<path d="M226.101 558.82L242.815 511.586L196.46 530.603L197.235 540.616L206.733 540.383L206.649 549.577L215.828 549.041L216.062 558.538L226.101 558.82Z" fill="#EECF93"/>
<path d="M33.5944 761.035L221.217 563.943L225.849 559.077L215.809 558.795L215.576 549.298L206.397 549.834L206.481 540.64L196.982 540.873L196.208 530.86L191.576 535.726L3.95313 732.818L33.5944 761.035Z" fill="#491E5E"/>
<path d="M236.745 528.719L225.992 518.482L242.808 511.584L236.745 528.719Z" fill="#21282A"/>
<path d="M167.487 504.582L159.56 455.108L127.957 493.99L133.429 502.41L141.658 497.661L145.984 505.775L153.787 500.911L158.537 509.138L167.487 504.582Z" fill="#EECF93"/>
<path d="M95.2409 774.258L165.67 511.413L167.409 504.924L158.458 509.481L153.708 501.253L145.905 506.117L141.579 498.003L133.35 502.753L127.879 494.332L126.14 500.821L55.7109 763.666L95.2409 774.258Z" fill="#419F81"/>
<path d="M162.442 473.053L148.102 469.211L159.566 455.106L162.442 473.053Z" fill="#21282A"/>
</g>
<defs>
<clipPath id="clip0_13911_21333">
<rect width="360" height="640" fill="white"/>
</clipPath>
</defs>
</svg>
