<svg width="54" height="64" viewBox="0 0 54 64" fill="none" xmlns="http://www.w3.org/2000/svg">
<g clip-path="url(#clip0_15076_32463)">
<path d="M23.6601 49.4525C22.2922 48.6858 21.4953 47.1118 21.7897 45.4844C21.8211 45.3089 22.578 41.1433 23.3345 37.4971C24.2172 33.2471 28.3437 31.2107 32.3356 29.2441C35.8344 27.519 39.4525 25.7346 39.9887 23.0446C40.395 21.006 39.5088 16.9742 36.8428 15.0157C33.7892 12.7731 29.5115 14.291 26.4619 15.9583C24.6332 16.9589 22.3386 16.2863 21.3349 14.4568C20.3343 12.6253 21.0057 10.3321 22.8344 9.33146C26.4564 7.35245 29.9143 6.34198 33.1155 6.32847C36.1428 6.3149 38.9771 7.21549 41.3132 8.92989C46.5209 12.7544 48.335 19.819 47.3967 24.5232C46.1324 30.86 40.3371 33.7172 35.6809 36.0128C34.2644 36.7113 32.9251 37.3709 31.9311 38.0253C30.998 38.6392 30.7623 38.9983 30.724 39.0666C29.9888 42.61 29.2303 46.7921 29.2216 46.8349C28.8506 48.8856 26.8847 50.247 24.8323 49.8725C24.4087 49.7956 24.0152 49.6515 23.6601 49.4525Z" fill="#F4AD00"/>
<path d="M22.6982 61.062C25.2139 61.3983 27.5246 59.6326 27.8593 57.1182C28.1941 54.6038 26.4261 52.2929 23.9105 51.9566C21.3948 51.6203 19.0841 53.386 18.7494 55.9004C18.4146 58.4147 20.1826 60.7257 22.6982 61.062Z" fill="#F4AD00"/>
</g>
<defs>
<clipPath id="clip0_15076_32463">
<rect width="30" height="55" fill="white" transform="translate(26.9688 0.77832) rotate(29.2689)"/>
</clipPath>
</defs>
</svg>
