<svg width="156" height="235" viewBox="0 0 156 235" fill="none" xmlns="http://www.w3.org/2000/svg">
<path d="M142.689 17.8564H0V234.771H142.689V17.8564Z" fill="#393C47"/>
<path d="M30.3359 87.979V17.8447H54.4158V87.979L42.375 76.763L30.3359 87.979Z" fill="#F1D14B"/>
<path d="M132.75 82.9316C132.75 86.166 131.297 88.0176 129.406 88.416L128.992 85.3379C129.719 85.0645 130.359 84.3223 130.359 82.8535C130.359 81.4082 129.719 80.3535 128.07 80.3535L125.875 80.3535L125.875 80.4941C126.867 80.9316 127.828 82.002 127.828 83.916C127.828 86.6191 125.969 88.7832 121.977 88.7832C117.891 88.7832 115.844 86.5566 115.844 83.9238C115.844 81.916 117.039 80.9395 118.016 80.4941L118.016 80.3691L116 80.3691L116 77.0645L128.117 77.0645C131.187 77.0645 132.75 79.502 132.75 82.9316ZM125.328 82.8613C125.328 81.2598 124.078 80.3379 121.961 80.3379C119.859 80.3379 118.492 81.2441 118.492 82.8613C118.492 84.5098 119.922 85.3848 121.961 85.3848C124.031 85.3848 125.328 84.4941 125.328 82.8613Z" fill="white"/>
<path d="M121.062 98.6953L128 98.6953L128 102.023L116 102.023L116 98.8516L118.117 98.8516L118.117 98.7109C116.719 98.1719 115.844 96.8828 115.844 95.1016C115.844 92.6016 117.562 90.9609 120.359 90.9609L128 90.9609L128 94.2891L120.953 94.2891C119.484 94.2813 118.609 95.0859 118.609 96.4219C118.609 97.7656 119.516 98.6875 121.062 98.6953Z" fill="white"/>
<path d="M128 108.018L116 108.018L116 104.689L128 104.689L128 108.018ZM114.453 106.346C114.453 107.33 113.695 108.143 112.766 108.143C111.844 108.143 111.086 107.33 111.086 106.346C111.086 105.354 111.844 104.541 112.766 104.541C113.695 104.541 114.453 105.354 114.453 106.346Z" fill="white"/>
<path d="M128 128.084L116 128.084L116 124.912L118.117 124.912L118.117 124.771C116.703 124.271 115.844 123.045 115.844 121.428C115.844 119.779 116.727 118.553 118.117 118.17L118.117 118.045C116.742 117.553 115.844 116.186 115.844 114.428C115.844 112.193 117.328 110.646 119.93 110.646L128 110.646L128 113.967L120.586 113.967C119.25 113.967 118.586 114.764 118.586 115.826C118.586 117.037 119.43 117.748 120.672 117.748L128 117.748L128 120.975L120.516 120.975C119.336 120.975 118.586 121.709 118.586 122.803C118.586 123.912 119.469 124.756 120.797 124.756L128 124.756L128 128.084Z" fill="white"/>
<path d="M128 148.15L116 148.15L116 144.979L118.117 144.979L118.117 144.838C116.703 144.338 115.844 143.111 115.844 141.494C115.844 139.846 116.727 138.619 118.117 138.236L118.117 138.111C116.742 137.619 115.844 136.252 115.844 134.494C115.844 132.26 117.328 130.713 119.93 130.713L128 130.713L128 134.033L120.586 134.033C119.25 134.033 118.586 134.83 118.586 135.893C118.586 137.104 119.43 137.814 120.672 137.814L128 137.814L128 141.041L120.516 141.041C119.336 141.041 118.586 141.775 118.586 142.869C118.586 143.979 119.469 144.822 120.797 144.822L128 144.822L128 148.15Z" fill="white"/>
<path d="M128.227 157.49C128.227 159.779 127.023 161.475 124.648 161.475C121.969 161.475 121.172 159.342 120.953 156.967C120.75 154.881 120.648 154.061 119.875 154.061L119.828 154.061C118.844 154.061 118.273 154.709 118.273 155.842C118.273 157.037 118.859 157.748 119.656 157.975L119.406 161.053C117.219 160.592 115.844 158.701 115.844 155.826C115.844 153.154 117.047 150.732 119.906 150.732L128 150.732L128 153.889L126.336 153.889L126.336 153.982C127.453 154.568 128.227 155.717 128.227 157.49ZM125.93 156.537C125.93 155.076 124.969 154.037 123.711 154.037L122.437 154.037C122.703 154.436 122.875 155.623 122.977 156.35C123.141 157.521 123.602 158.295 124.539 158.295C125.453 158.295 125.93 157.561 125.93 156.537Z" fill="white"/>
<path d="M128 169.57L116 169.57L116 166.344L118.094 166.344L118.094 166.219C116.609 165.781 115.828 164.68 115.828 163.336C115.828 163 115.875 162.586 115.945 162.289L118.898 162.289C118.797 162.602 118.719 163.234 118.719 163.695C118.719 165.164 119.734 166.242 121.211 166.242L128 166.242L128 169.57Z" fill="white"/>
<path d="M132.75 178.086C132.75 181.32 131.297 183.172 129.406 183.57L128.992 180.492C129.719 180.219 130.359 179.477 130.359 178.008C130.359 176.562 129.719 175.508 128.07 175.508L125.875 175.508L125.875 175.648C126.867 176.086 127.828 177.156 127.828 179.07C127.828 181.773 125.969 183.937 121.977 183.937C117.891 183.937 115.844 181.711 115.844 179.078C115.844 177.07 117.039 176.094 118.016 175.648L118.016 175.523L116 175.523L116 172.219L128.117 172.219C131.187 172.219 132.75 174.656 132.75 178.086ZM125.328 178.016C125.328 176.414 124.078 175.492 121.961 175.492C119.859 175.492 118.492 176.398 118.492 178.016C118.492 179.664 119.922 180.539 121.961 180.539C124.031 180.539 125.328 179.648 125.328 178.016Z" fill="white"/>
<path d="M128.234 191.562C128.234 195.203 125.742 197.469 122.047 197.469C118.328 197.469 115.844 195.203 115.844 191.562C115.844 187.922 118.328 185.656 122.047 185.656C125.742 185.656 128.234 187.922 128.234 191.562ZM125.656 191.547C125.656 189.898 124.117 189.039 122.023 189.039C119.93 189.039 118.383 189.898 118.383 191.547C118.383 193.227 119.93 194.086 122.023 194.086C124.117 194.086 125.656 193.227 125.656 191.547Z" fill="white"/>
<path d="M128 205.428L116 205.428L116 202.201L118.094 202.201L118.094 202.076C116.609 201.639 115.828 200.537 115.828 199.193C115.828 198.857 115.875 198.443 115.945 198.146L118.898 198.146C118.797 198.459 118.719 199.092 118.719 199.553C118.719 201.021 119.734 202.1 121.211 202.1L128 202.1L128 205.428Z" fill="white"/>
<path d="M128 219.609L112 219.609L112 213.297C112 209.664 114.242 207.562 117.422 207.562C120.617 207.562 122.812 209.703 122.812 213.383L122.812 216.227L128 216.227L128 219.609ZM120.102 216.227L120.102 213.93C120.102 211.992 119.008 211.047 117.422 211.047C115.828 211.047 114.766 211.992 114.766 213.945L114.766 216.227L120.102 216.227Z" fill="white"/>
</svg>
