<svg width="120" height="106" viewBox="0 0 120 106" fill="none" xmlns="http://www.w3.org/2000/svg">
<path opacity="0.06" d="M64.9219 23C72.6562 23 78.75 29.0938 78.75 36.5938C78.75 41.2812 76.1719 45.7344 71.9531 48.3125L63.0469 53.7031V54.1719C63.0469 56.5156 60.9375 58.625 58.3594 58.625C55.7812 58.625 53.6719 56.5156 53.6719 54.1719V50.8906C53.6719 49.4844 54.375 47.8438 56.0156 46.9062L67.0312 40.3438C68.4375 39.6406 69.1406 38.2344 69.1406 36.5938C69.1406 34.25 67.2656 32.375 64.9219 32.375H54.8438C52.5 32.375 50.625 34.25 50.625 36.5938C50.625 39.1719 48.2812 41.2812 45.9375 41.2812C43.3594 41.2812 41.25 39.1719 41.25 36.5938C41.25 29.0938 47.1094 23 54.8438 23H64.9219ZM58.3594 63.3125C61.875 63.3125 64.4531 66.125 64.4531 69.4062C64.4531 72.9219 61.6406 75.5 58.3594 75.5C55.0781 75.5 52.5 72.9219 52.5 69.4062C52.5 66.125 55.0781 63.3125 58.3594 63.3125ZM60 0.5C93.0469 0.5 119.766 22.5312 119.766 49.25C119.766 76.2031 93.0469 98 60 98C52.2656 98 44.7656 96.8281 38.2031 94.7188C31.1719 99.6406 19.9219 105.5 5.625 105.5C3.28125 105.5 1.17188 104.328 0.46875 101.984C-0.234375 99.875 0 97.5312 1.64062 95.8906C1.64062 95.8906 8.90625 87.9219 12.4219 78.7812C4.6875 70.5781 0 60.2656 0 49.25C0 22.2969 26.7188 0.5 60 0.5ZM60 86.75C86.7188 86.75 108.281 70.1094 108.281 49.25C108.281 28.625 86.4844 11.75 59.7656 11.75C33.0469 11.75 11.25 28.625 11.25 49.25C11.25 59.3281 16.1719 66.8281 20.3906 71.2812L25.3125 76.4375L22.7344 83C21.5625 86.2812 19.9219 89.5625 18.0469 92.375C23.6719 90.5 28.3594 87.9219 31.6406 85.5781L36.0938 82.2969L41.4844 83.9375C47.3438 85.8125 53.6719 86.75 60 86.75Z" fill="#1D1E24"/>
</svg>
