<svg width="629" height="427" viewBox="0 0 629 427" fill="none" xmlns="http://www.w3.org/2000/svg">
<g clip-path="url(#clip0_18764_31103)">
<g clip-path="url(#clip1_18764_31103)">
<path d="M578.179 188.497C569.184 164.669 533.543 114.977 525.612 109.339C516.907 103.151 492.333 103.501 494.744 111.327C497.16 119.153 524.863 111.345 525.074 127.383C525.171 134.653 501.473 135.632 507.586 147.676C519.16 170.47 530.39 154.045 538.455 183.663C544.894 207.315 559.307 205.363 559.307 205.363L578.173 188.497H578.179Z" fill="#EFAEA6"/>
<path d="M414.577 183.319L377.239 172.876C376.895 155.829 395.114 120.036 397.814 104.771C400.774 88.0256 421.427 72.5977 421.427 72.5977L433.974 107.732L433.183 110.681C433.183 110.681 430.313 140.062 435.496 153.454C438.456 161.117 436.68 172.441 444.835 184.171C450.943 192.951 414.583 183.313 414.583 183.313L414.577 183.319Z" fill="#EFAEA6"/>
<path opacity="0.14" d="M432.911 116.978C432.911 116.978 431.377 135.887 433.763 147.024C410.572 157.612 398.261 131.27 404.115 124.725C407.775 120.634 421.119 111.086 421.119 111.086L432.911 116.978Z" fill="#1F1F3B"/>
<path d="M443.556 61.2658C448.232 73.4426 468.686 93.282 460.253 95.7899C451.82 98.2977 470.16 121.509 461.28 124.494C439.763 131.74 410.761 125.486 404.884 115.829C399.012 106.172 391.98 76.3856 391.98 76.3856L443.556 61.2598V61.2658Z" fill="#EFAEA6"/>
<path d="M424.678 79.9926C431.764 78.7357 432.446 80.2948 436.572 76.5299C440.698 72.7651 430.465 68.6316 438.983 64.4559C447.506 60.2862 457.171 56.7812 455.117 46.2421C452.145 30.9954 439.683 37.256 432.066 41.4137C427.167 44.0907 422.558 33.1165 412.258 36.7363C404.182 39.5826 406.532 44.0787 399.434 46.931C395.145 48.6533 384.422 43.9759 379.1 51.3485C369.218 65.03 383.389 73.9375 375.845 87.6311C367.049 103.609 403.33 121.158 405.734 117C408.537 112.148 399.114 101.155 402.17 96.9978C406.773 90.7251 408.984 95.5535 415.309 98.7382C422.062 102.14 431.927 99.5057 422.836 91.7464C413.744 83.9871 418.263 81.1166 424.678 79.9805V79.9926Z" fill="#1F1F3B"/>
<path d="M272.682 572.648C273.268 580.148 274.041 588.306 275.092 597.244C276.36 607.988 278.07 626.897 279.749 650H385.596C387.402 637.907 389.437 624.117 391.745 608.103V608.121C391.745 608.121 391.763 608.139 391.763 608.157C391.763 608.17 391.775 608.188 391.781 608.206C391.781 608.224 391.793 608.254 391.805 608.278C391.842 608.387 391.902 608.55 391.975 608.762C392.023 608.889 392.071 609.04 392.132 609.203C392.186 609.354 392.24 609.511 392.307 609.692C393.183 612.122 395.001 617.234 397.496 624.389C397.58 624.637 397.671 624.885 397.756 625.139C397.852 625.423 397.949 625.7 398.052 625.985C398.245 626.54 398.438 627.096 398.637 627.658C398.716 627.882 398.795 628.106 398.873 628.335C398.946 628.547 399.024 628.764 399.097 628.976C400.208 632.203 401.428 635.744 402.727 639.557C403.851 642.839 405.035 646.326 406.267 649.982H505.015C491.363 565.783 476.05 469.07 470.776 430.177C470.776 430.177 279.979 388.558 274.125 453.757C273.328 462.671 273.092 470.545 273.201 478.056C273.352 488.178 272.79 497.563 272.241 507.849C271.353 524.66 270.465 543.853 272.67 572.624L272.682 572.648Z" fill="#3B3B4D"/>
<path d="M386.148 139.409C402.676 134.925 404.289 162.24 420.955 163.563C429.75 164.258 427.805 160.427 431.961 156.372C434.517 153.876 436.915 151.072 440.962 155.224C523.201 239.639 437.567 452.476 448.036 467.33C456.596 479.477 387 505.987 343.289 495.321C283.347 480.697 286.989 415.571 288.723 403.134C290.457 390.698 329.075 179.281 329.075 179.281C329.075 179.281 359.436 163.219 386.148 139.409Z" fill="white"/>
<path d="M528.934 171.056C521.733 176.325 563.886 256.124 563.886 256.124C527.164 219.388 507.519 174.905 440.956 155.217C440.956 155.217 438.914 169.345 443.681 206.19C449.969 254.879 422.574 289.524 428.132 348.438C435.32 424.641 416.564 502.464 435.32 519.638C446.248 529.651 461.398 531.573 479.69 512.574C508.468 482.679 489.548 384.575 486.926 361.279C485.906 352.209 483.658 339.99 481.731 327.323C479.351 311.575 474.827 268.536 484.287 271.068C500.917 275.516 571.479 356.638 608.497 353.109C669.539 347.29 575.387 165.841 570.035 163.224C559.349 158.003 536.134 165.798 528.934 171.062V171.056Z" fill="#0069A8"/>
<path d="M265.683 518.593C291.888 534.988 326.749 535.477 349.819 511.184C368.938 491.036 349.589 464.948 363.737 417.957C371.596 391.876 383.78 345.12 386.378 312.663C391.917 243.591 387.682 158.915 386.142 139.408C386.142 139.408 344.503 140.429 310.3 176.084C295.923 191.064 286.88 234.387 285.346 266.047C284.857 276.441 284.567 284.792 284.422 291.851C284.132 306.269 284.476 315.262 284.941 325.124C285.128 329.052 285.322 333.113 285.521 337.705V337.718C285.726 342.896 285.938 348.764 286.071 355.859C286.288 367.468 282.362 386.527 277.493 407.624L277.481 407.636C266.813 453.847 251.626 509.818 265.671 518.605L265.683 518.593Z" fill="#0069A8"/>
<path d="M359.243 221.89C267.351 372.617 262.313 352.638 260.017 377.3C257.722 401.962 320.787 535.441 320.787 535.441C320.787 535.441 282.924 556.58 278.726 550.095C274.527 543.611 193.436 394.311 196.656 362.204C200.208 326.84 299.023 189.53 310.651 176.042C322.286 162.553 372.508 156.752 371.971 180.888C371.433 205.03 359.237 221.884 359.237 221.884L359.243 221.89Z" fill="#0069A8"/>
<path opacity="0.18" d="M277.508 407.619C312.031 376.745 314.453 298.596 314.453 298.596L285.536 337.7V337.712C285.741 342.891 285.953 348.759 286.086 355.854C286.303 367.462 282.377 386.522 277.508 407.619Z" fill="#1F1F3B"/>
<path opacity="0.18" d="M271.973 431.283C274.335 442.221 317.139 528.305 317.139 528.305L275.494 416.176L271.973 431.283Z" fill="#1F1F3B"/>
<path opacity="0.28" d="M422.681 179.324C421.038 178.411 407.706 209.756 387.252 221.25C381.604 224.429 375.448 226.792 368.906 227.632C349.757 230.079 296.791 229.946 272.387 228.689C279.473 218.966 282.245 214.567 290.69 205.52C308.643 209.684 355.32 210.584 365.288 208.783C372.669 207.448 379.55 204.892 385.85 201.653C397.708 195.573 407.537 187.071 414.912 179.777C418.67 176.054 418.857 170.785 423.677 170.247C430.075 169.528 424.789 180.49 422.675 179.33L422.681 179.324Z" fill="#1F1F39"/>
<path d="M430.967 165.889C430.483 162.571 427.662 157.362 420.504 158.16C415.11 158.764 414.838 160.946 410.634 165.116C397.996 177.637 378.883 193.282 355.095 197.585C331.306 201.894 274.1 175.026 239.197 185.16C204.293 195.301 195.975 227.263 145.36 238.992C94.7442 250.722 37.943 233.535 23.0283 237.179C8.1137 240.823 -0.790379 244.733 0.055327 250.571C0.901033 256.408 9.20103 265.557 20.159 268.942C31.1109 272.326 125.178 271.727 149.624 266.675C189.536 258.427 221.371 220.259 247.177 216.107C272.983 211.955 328.824 222.549 359.154 218.669C392.976 214.342 417.538 173.588 419.894 174.887C422.25 176.193 424.437 177.462 428.708 176.072C431.643 175.117 431.45 169.201 430.967 165.883V165.889Z" fill="#F4AD00"/>
</g>
</g>
<defs>
<clipPath id="clip0_18764_31103">
<rect width="629" height="427" fill="white"/>
</clipPath>
<clipPath id="clip1_18764_31103">
<rect width="629" height="614" fill="white" transform="translate(0 36)"/>
</clipPath>
</defs>
</svg>
