<svg width="1440" height="768" viewBox="0 0 1440 768" fill="none" xmlns="http://www.w3.org/2000/svg">
<g clip-path="url(#clip0_13911_21516)">
<rect width="1440" height="768" fill="#023E83"/>
<path fill-rule="evenodd" clip-rule="evenodd" d="M1564.81 370.481L1365.02 485.823C1353.6 492.414 1349.65 507.149 1356.24 518.563C1349.65 507.149 1334.92 503.199 1323.5 509.79L1123.71 625.132C1112.29 631.723 1108.34 646.458 1114.93 657.872L1285.21 952.762C1291.8 964.177 1306.54 968.127 1317.95 961.535L1485.97 864.539C1507.14 873.978 1532.37 873.493 1553.98 861.025C1575.58 848.557 1588.62 826.94 1591.02 803.893L1759.04 706.897C1770.46 700.305 1774.41 685.571 1767.81 674.157L1597.54 379.254C1590.95 367.84 1576.21 363.89 1564.8 370.481H1564.81Z" fill="#419F81"/>
<path d="M1354.27 515.128L1135.46 641.447L1307.73 939.802L1526.55 813.482L1354.27 515.128Z" fill="white"/>
<path d="M1354.27 515.128L1135.46 641.447L1307.73 939.802L1526.55 813.482L1354.27 515.128Z" fill="black" fill-opacity="0.28"/>
<path d="M1573.09 388.765L1354.27 515.084L1526.55 813.438L1745.36 687.119L1573.09 388.765Z" fill="#A8A8AA"/>
<path fill-rule="evenodd" clip-rule="evenodd" d="M1110.48 598.177L1296.6 490.723C1313.04 480.266 1329.02 480.787 1344.27 497.8L1516.54 796.156C1510.01 784.839 1484.71 778.598 1467.5 789.879L1282.75 896.533L1110.48 598.177Z" fill="#E0E1EA"/>
<path fill-rule="evenodd" clip-rule="evenodd" d="M1109 543.687C1132.23 559.257 1160.36 569.387 1193.51 550.242L1296.6 490.723C1313.05 480.266 1329.02 480.787 1344.27 497.8L1516.55 796.156C1510.01 784.839 1484.71 778.598 1467.5 789.879L1370.97 845.605C1338.31 862.508 1308.79 858.849 1281.27 842.043L1109 543.687Z" fill="white"/>
<path fill-rule="evenodd" clip-rule="evenodd" d="M1548.11 345.533L1361.99 452.974C1344.71 461.989 1337.18 476.081 1344.27 497.795L1516.54 796.151C1510.01 784.834 1517.25 759.8 1535.63 750.543L1720.38 643.889L1548.11 345.533Z" fill="#E0E1EA"/>
<path fill-rule="evenodd" clip-rule="evenodd" d="M1516.55 796.153C1514.69 768.248 1519.97 738.828 1553.13 719.695L1656.21 660.177C1673.5 651.162 1681.02 637.07 1673.93 615.356L1501.66 317C1508.19 328.317 1500.96 353.351 1482.57 362.608L1386.04 418.334C1355.08 438.158 1343.48 465.554 1344.28 497.797L1516.55 796.153Z" fill="#F3F3F7"/>
<path d="M1199.93 645.848L1229.04 563.585L1148.31 596.706L1149.66 614.143L1166.2 613.738L1166.05 629.751L1182.04 628.816L1182.45 645.357L1199.93 645.848Z" fill="#EECF93"/>
<path d="M864.67 998.027L1191.43 654.771L1199.5 646.297L1182.02 645.805L1181.61 629.265L1165.62 630.199L1165.77 614.186L1149.23 614.592L1147.88 597.154L1139.81 605.628L813.047 948.884L864.67 998.027Z" fill="#491E5E"/>
<path d="M1218.47 593.423L1199.74 575.596L1229.03 563.581L1218.47 593.423Z" fill="#21282A"/>
<path d="M1097.84 551.387L1084.04 465.225L1029 532.94L1038.53 547.606L1052.86 539.333L1060.39 553.465L1073.98 544.994L1082.25 559.323L1097.84 551.387Z" fill="#EECF93"/>
<path d="M972.002 1021.06L1094.66 563.285L1097.69 551.984L1082.1 559.92L1073.83 545.59L1060.24 554.062L1052.7 539.93L1038.37 548.203L1028.84 533.537L1025.82 544.838L903.156 1002.61L972.002 1021.06Z" fill="#419F81"/>
<path d="M1089.05 496.482L1064.07 489.79L1084.04 465.226L1089.05 496.482Z" fill="#21282A"/>
<path fill-rule="evenodd" clip-rule="evenodd" d="M231.873 508.225L1.1777 508.218C-12.0041 508.219 -22.7927 519.003 -22.7907 532.185C-22.7927 519.003 -33.5791 508.215 -46.7609 508.216L-277.457 508.208C-290.639 508.209 -301.427 518.994 -301.425 532.175L-301.41 872.694C-301.408 885.875 -290.622 896.664 -277.44 896.663L-83.4333 896.671C-69.8187 915.431 -47.7269 927.626 -22.7808 927.631C2.16535 927.637 24.2663 915.436 37.8674 896.677L231.874 896.685C245.055 896.684 255.844 885.899 255.842 872.718L255.833 532.188C255.831 519.007 245.045 508.218 231.863 508.219L231.873 508.225Z" fill="#419F81"/>
<path d="M229.9 528.194L-22.7578 528.184L-22.7431 872.702L229.914 872.713L229.9 528.194Z" fill="#A8A8AA"/>
<path fill-rule="evenodd" clip-rule="evenodd" d="M-275.442 478.246L-60.5282 478.249C-41.0585 477.416 -27.4873 485.853 -22.7806 508.214L-22.7668 852.734C-22.7647 839.667 -41.5572 821.612 -62.1 822.778L-275.428 822.766L-275.442 478.246Z" fill="#E0E1EA"/>
<path fill-rule="evenodd" clip-rule="evenodd" d="M-249.478 430.316C-237.145 455.416 -217.852 478.252 -179.566 478.25L-60.5289 478.25C-41.0592 477.416 -27.4879 485.853 -22.7813 508.214L-22.7674 852.734C-22.7654 839.667 -41.5578 821.612 -62.1007 822.778L-173.564 822.771C-210.299 821.08 -234.034 803.151 -249.464 774.837L-249.478 430.316Z" fill="white"/>
<path fill-rule="evenodd" clip-rule="evenodd" d="M229.883 478.266L14.9749 478.251C-4.49793 477.418 -18.0612 485.859 -22.7787 508.209L-22.7648 852.729C-22.7628 839.662 -3.98074 821.599 16.5683 822.774L229.896 822.786L229.883 478.266Z" fill="#E0E1EA"/>
<path fill-rule="evenodd" clip-rule="evenodd" d="M-22.7577 852.736C-10.4212 827.636 8.86465 804.8 47.1443 804.808L166.181 804.808C185.654 805.641 199.217 797.2 203.935 774.851L203.921 430.331C203.919 443.398 185.137 461.46 164.588 460.286L53.1249 460.279C16.3995 461.966 -7.34259 479.893 -22.7716 508.216L-22.7577 852.736Z" fill="white"/>
</g>
<defs>
<clipPath id="clip0_13911_21516">
<rect width="1440" height="768" fill="white"/>
</clipPath>
</defs>
</svg>
