<svg width="43" height="79" viewBox="0 0 43 79" fill="none" xmlns="http://www.w3.org/2000/svg">
<g clip-path="url(#clip0_13936_22229)">
<path d="M29.9731 63.312C27.7255 63.312 25.626 61.8993 24.8537 59.6535C24.77 59.4116 22.7973 53.6605 21.1881 48.5607C19.3134 42.6156 23.046 37.1662 26.659 31.8987C29.8249 27.2801 33.0984 22.5035 31.8837 18.7564C30.9631 15.9167 27.0296 11.4873 22.3239 10.9055C16.9342 10.2399 12.6493 15.1458 10.0047 19.3765C8.41935 21.9145 5.07891 22.683 2.54191 21.0956C0.00729105 19.5034 -0.760267 16.1586 0.825063 13.6206C3.96703 8.59736 7.58245 4.90296 11.5757 2.63795C15.3513 0.495046 19.5262 -0.366903 23.6486 0.140689C32.8401 1.27559 40.059 8.85355 42.1823 15.4068C45.0422 24.2346 39.7984 31.8843 35.5852 38.0305C34.3035 39.9005 33.0912 41.6675 32.3069 43.1855C31.5704 44.6101 31.5274 45.2254 31.5274 45.3379C33.0912 50.2941 35.0735 56.0668 35.0926 56.1267C36.0658 58.9567 34.5618 62.043 31.733 63.0151C31.1496 63.2162 30.5566 63.312 29.9731 63.312Z" fill="#F4AD00"/>
<path d="M36.9051 78.5335C40.2862 77.1882 41.938 73.3532 40.5946 69.9676C39.2511 66.582 35.4211 64.928 32.04 66.2732C28.6589 67.6185 27.0071 71.4535 28.3505 74.8391C29.694 78.2247 33.524 79.8787 36.9051 78.5335Z" fill="#F4AD00"/>
</g>
<defs>
<clipPath id="clip0_13936_22229">
<rect width="43" height="79" fill="white"/>
</clipPath>
</defs>
</svg>
