<svg width="355" height="42" viewBox="0 0 355 42" fill="none" xmlns="http://www.w3.org/2000/svg">
<path d="M46.7296 -0.000927055L-0.0015915 20.9068L46.7296 41.8145L53.5938 34.1873L46.7296 27.322L53.5938 20.9068L46.7296 14.4915L53.5938 7.62797L46.7296 -0.000927055Z" fill="#EECF93"/>
<rect x="308" y="0.00195312" width="47" height="41.82" rx="9" fill="#393C47"/>
<path d="M332 -0.000934699L53.9586 -0.000927055H47.0944L53.9586 7.62797L47.0944 14.4915L53.9586 20.9068L47.0944 27.322L53.9586 34.1873L47.0944 41.8145H53.9586L332 41.8144V-0.000934699Z" fill="#328F7D"/>
<path d="M16.9531 13.3269V28.4961L0.000874945 20.9115L16.9531 13.3269Z" fill="#21282A"/>
<path d="M255.763 20.706L252.993 20.8764C252.844 20.1733 252.219 19.598 251.168 19.598C250.23 19.598 249.491 20.0241 249.499 20.6776C249.491 21.2031 249.868 21.5511 250.884 21.7713L252.858 22.169C254.974 22.6023 256.004 23.5469 256.011 25.1236C256.004 27.2756 253.98 28.7173 251.153 28.7173C248.263 28.7173 246.487 27.4318 246.203 25.3438L249.179 25.1875C249.364 26.0753 250.081 26.5369 251.161 26.5369C252.219 26.5369 252.922 26.0753 252.936 25.429C252.922 24.8821 252.489 24.5341 251.537 24.3423L249.648 23.9659C247.517 23.5398 246.487 22.4815 246.494 20.848C246.487 18.7457 248.327 17.4531 251.118 17.4531C253.874 17.4531 255.493 18.696 255.763 20.706Z" fill="white"/>
<path d="M244.26 13.957V28.5025H241.234V13.957H244.26Z" fill="white"/>
<path d="M238.811 13.957V28.5025H235.785V13.957H238.811Z" fill="white"/>
<path d="M230.336 28.5034V17.5943H233.362V28.5034H230.336ZM231.856 16.188C230.961 16.188 230.223 15.4991 230.223 14.6539C230.223 13.8159 230.961 13.127 231.856 13.127C232.758 13.127 233.497 13.8159 233.497 14.6539C233.497 15.4991 232.758 16.188 231.856 16.188Z" fill="white"/>
<path d="M218.695 28.5025V13.957H221.721V21.734H221.884L225.379 17.5934H228.852L224.803 22.3164L229.058 28.5025H225.513L222.538 24.1062L221.721 25.0366V28.5025H218.695Z" fill="white"/>
<path d="M216.544 20.706L213.774 20.8764C213.625 20.1733 213 19.598 211.949 19.598C211.011 19.598 210.273 20.0241 210.28 20.6776C210.273 21.2031 210.649 21.5511 211.665 21.7713L213.639 22.169C215.756 22.6023 216.786 23.5469 216.793 25.1236C216.786 27.2756 214.761 28.7173 211.935 28.7173C209.044 28.7173 207.268 27.4318 206.984 25.3438L209.96 25.1875C210.145 26.0753 210.862 26.5369 211.942 26.5369C213 26.5369 213.703 26.0753 213.717 25.429C213.703 24.8821 213.27 24.5341 212.318 24.3423L210.429 23.9659C208.298 23.5398 207.268 22.4815 207.276 20.848C207.268 18.7457 209.108 17.4531 211.899 17.4531C214.655 17.4531 216.274 18.696 216.544 20.706Z" fill="white"/>
<path d="M200.412 13.957V28.5025H197.387V13.957H200.412Z" fill="white"/>
<path d="M188.896 28.7102C186.815 28.7102 185.273 27.6165 185.273 25.4574C185.273 23.0213 187.212 22.2969 189.371 22.098C191.268 21.9134 192.013 21.821 192.013 21.1179V21.0753C192.013 20.1804 191.424 19.6619 190.394 19.6619C189.308 19.6619 188.661 20.1946 188.455 20.919L185.657 20.6918C186.076 18.7031 187.795 17.4531 190.408 17.4531C192.837 17.4531 195.039 18.5469 195.039 21.1463V28.5043H192.17V26.9915H192.085C191.552 28.0071 190.508 28.7102 188.896 28.7102ZM189.762 26.6222C191.09 26.6222 192.035 25.7486 192.035 24.6051V23.4474C191.673 23.6889 190.593 23.8452 189.933 23.9375C188.867 24.0866 188.164 24.5057 188.164 25.358C188.164 26.1889 188.832 26.6222 189.762 26.6222Z" fill="white"/>
<path d="M178.979 28.7173C175.619 28.7173 173.609 26.4091 173.609 23.0923C173.609 19.7472 175.655 17.4531 178.964 17.4531C181.813 17.4531 183.723 19.108 183.851 21.6293H180.996C180.832 20.5426 180.122 19.8111 179.014 19.8111C177.608 19.8111 176.685 20.9901 176.685 23.0497C176.685 25.1378 177.601 26.3239 179.014 26.3239C180.051 26.3239 180.818 25.6705 180.996 24.5057H183.851C183.709 27.0128 181.884 28.7173 178.979 28.7173Z" fill="white"/>
<path d="M168.598 28.5034V17.5943H171.624V28.5034H168.598ZM170.118 16.188C169.223 16.188 168.484 15.4991 168.484 14.6539C168.484 13.8159 169.223 13.127 170.118 13.127C171.02 13.127 171.759 13.8159 171.759 14.6539C171.759 15.4991 171.02 16.188 170.118 16.188Z" fill="white"/>
<path d="M159.182 22.1974V28.5043H156.156V17.5952H159.04V19.5199H159.168C159.658 18.2486 160.83 17.4531 162.449 17.4531C164.722 17.4531 166.213 19.0156 166.213 21.5582V28.5043H163.188V22.098C163.195 20.7628 162.463 19.9673 161.249 19.9673C160.027 19.9673 159.189 20.7912 159.182 22.1974Z" fill="white"/>
<path d="M146.701 22.1957V28.5025H143.676V13.957H146.616V19.5181H146.744C147.241 18.2326 148.349 17.4514 150.004 17.4514C152.277 17.4514 153.782 18.9996 153.775 21.5565V28.5025H150.75V22.0962C150.757 20.7539 150.032 19.9656 148.804 19.9656C147.568 19.9656 146.708 20.7894 146.701 22.1957Z" fill="white"/>
<path d="M136.869 28.7173C133.51 28.7173 131.5 26.4091 131.5 23.0923C131.5 19.7472 133.545 17.4531 136.855 17.4531C139.703 17.4531 141.614 19.108 141.741 21.6293H138.886C138.723 20.5426 138.013 19.8111 136.905 19.8111C135.499 19.8111 134.575 20.9901 134.575 23.0497C134.575 25.1378 135.491 26.3239 136.905 26.3239C137.942 26.3239 138.709 25.6705 138.886 24.5057H141.741C141.599 27.0128 139.774 28.7173 136.869 28.7173Z" fill="white"/>
<path d="M124.959 28.7173C121.599 28.7173 119.547 26.5582 119.547 23.0994C119.547 19.733 121.628 17.4531 124.838 17.4531C127.722 17.4531 129.966 19.2855 129.966 22.9929V23.8239H122.537V23.831C122.537 25.4574 123.496 26.4588 125.009 26.4588C126.017 26.4588 126.798 26.0256 127.104 25.1946L129.902 25.3793C129.476 27.4034 127.658 28.7173 124.959 28.7173ZM122.537 21.9489H127.118C127.111 20.6491 126.202 19.7116 124.888 19.7116C123.545 19.7116 122.601 20.706 122.537 21.9489Z" fill="white"/>
<path d="M107.711 16.4925V13.957L119.657 13.957V16.4925H115.204V28.5025H112.164V16.4925H107.711Z" fill="white"/>
</svg>
