<svg width="608" height="189" viewBox="0 0 608 189" fill="none" xmlns="http://www.w3.org/2000/svg">
<mask id="mask0_13922_22658" style="mask-type:alpha" maskUnits="userSpaceOnUse" x="0" y="0" width="608" height="189">
<path d="M0 0H608V189H0V0Z" fill="#D9D9D9"/>
</mask>
<g mask="url(#mask0_13922_22658)">
<path d="M36 159H94V227H36V159Z" fill="#E0F0FF"/>
<path d="M86.3351 193.987C86.3351 203.02 79.0052 210.351 69.9738 210.351C60.9424 210.351 53.6126 203.02 53.6126 193.987C53.6126 184.954 60.9424 177.623 69.9738 177.623C79.0052 177.623 86.3351 184.954 86.3351 193.987ZM96.8063 193.987C96.8063 208.78 84.7644 220.824 69.9738 220.824C55.1832 220.824 43.1414 208.78 43.1414 193.987C43.1414 179.194 55.1832 167.149 69.9738 167.149C84.7644 167.149 96.8063 179.194 96.8063 193.987ZM90.2618 193.987C90.2618 182.807 81.1518 173.695 69.9738 173.695C58.7958 173.695 49.6859 182.807 49.6859 193.987C49.6859 205.167 58.7958 214.279 69.9738 214.279C81.1518 214.279 90.2618 205.167 90.2618 193.987ZM140 193.987C140 198.778 139.529 203.544 138.56 208.126C138.377 208.99 137.644 209.618 136.78 209.697L121.597 210.77C120.707 213.546 119.607 216.19 118.351 218.625L128.298 230.093C128.874 230.748 128.953 231.716 128.455 232.45C123.272 240.357 116.335 247.269 108.455 252.453C107.723 252.925 106.754 252.872 106.099 252.296L94.6335 242.347C92.1989 243.604 89.555 244.677 86.7801 245.593L85.7068 260.779C85.6544 261.644 85 262.377 84.1361 262.56C79.5288 263.503 74.7906 264 70 264C65.2094 264 60.445 263.529 55.8639 262.56C55 262.377 54.3717 261.644 54.2932 260.779L53.2199 245.593C50.445 244.703 47.801 243.604 45.3665 242.347L33.9005 252.296C33.2461 252.872 32.2775 252.925 31.5445 252.453C23.6387 247.269 16.7277 240.331 11.5445 232.45C11.0733 231.716 11.1257 230.748 11.7016 230.093L21.6492 218.625C20.3927 216.19 19.3194 213.546 18.4031 210.77L3.2199 209.697C2.35602 209.644 1.62304 208.99 1.43979 208.126C0.497383 203.517 0 198.778 0 193.987C0 189.195 0.471205 184.43 1.43979 179.848C1.62304 178.984 2.35602 178.356 3.2199 178.277L18.4031 177.204C19.2932 174.428 20.3927 171.784 21.6492 169.349L11.7016 157.881C11.1257 157.226 11.0471 156.257 11.5445 155.524C16.7277 147.617 23.6649 140.705 31.5445 135.52C32.2775 135.049 33.2461 135.102 33.9005 135.678L45.3665 145.627C47.801 144.37 50.445 143.297 53.2199 142.38L54.2932 127.194C54.3455 126.33 55 125.597 55.8639 125.414C65.0524 123.529 74.9476 123.529 84.1361 125.414C85 125.597 85.6283 126.33 85.7068 127.194L86.7801 142.38C89.555 143.271 92.1989 144.37 94.6335 145.627L106.099 135.678C106.754 135.102 107.723 135.049 108.455 135.52C116.361 140.705 123.272 147.643 128.455 155.524C128.927 156.257 128.874 157.226 128.298 157.881L118.351 169.349C119.607 171.784 120.681 174.428 121.597 177.204L136.78 178.277C137.644 178.33 138.377 178.984 138.56 179.848C139.503 184.456 140 189.195 140 193.987ZM100.733 193.987C100.733 177.02 86.9372 163.222 69.9738 163.222C53.0105 163.222 39.2147 177.02 39.2147 193.987C39.2147 210.953 53.0105 224.752 69.9738 224.752C86.9372 224.752 100.733 210.953 100.733 193.987Z" fill="#E0F0FF"/>
<path fill-rule="evenodd" clip-rule="evenodd" d="M121.597 210.77L136.78 209.697C137.644 209.618 138.377 208.99 138.56 208.126C139.529 203.544 140 198.778 140 193.987C140 189.195 139.503 184.456 138.56 179.848C138.377 178.984 137.644 178.33 136.78 178.277L121.597 177.204C120.681 174.428 119.607 171.784 118.351 169.349L128.298 157.881C128.874 157.226 128.927 156.257 128.455 155.524C123.272 147.643 116.361 140.705 108.455 135.52C107.723 135.049 106.754 135.102 106.099 135.678L94.6335 145.627C92.1989 144.37 89.555 143.271 86.7801 142.38L85.7068 127.194C85.6283 126.33 85 125.597 84.1361 125.414C74.9476 123.529 65.0524 123.529 55.8639 125.414C55 125.597 54.3455 126.33 54.2932 127.194L53.2199 142.38C50.445 143.297 47.801 144.37 45.3665 145.627L33.9005 135.678C33.2461 135.102 32.2775 135.049 31.5445 135.52C23.6649 140.705 16.7277 147.617 11.5445 155.524C11.0471 156.257 11.1257 157.226 11.7016 157.881L21.6492 169.349C20.3927 171.784 19.2932 174.428 18.4031 177.204L3.2199 178.277C2.35602 178.356 1.62304 178.984 1.43979 179.848C0.471205 184.43 0 189.195 0 193.987C0 198.778 0.497383 203.517 1.43979 208.126C1.62304 208.99 2.35602 209.644 3.2199 209.697L18.4031 210.77C19.3194 213.546 20.3927 216.19 21.6492 218.625L11.7016 230.093C11.1257 230.748 11.0733 231.716 11.5445 232.45C16.7277 240.331 23.6387 247.269 31.5445 252.453C32.2775 252.925 33.2461 252.872 33.9005 252.296L45.3665 242.347C47.801 243.604 50.445 244.703 53.2199 245.593L54.2932 260.779C54.3717 261.644 55 262.377 55.8639 262.56C60.445 263.529 65.2094 264 70 264C74.7906 264 79.5288 263.503 84.1361 262.56C85 262.377 85.6544 261.644 85.7068 260.779L86.7801 245.593C89.555 244.677 92.1989 243.604 94.6335 242.347L106.099 252.296C106.754 252.872 107.723 252.925 108.455 252.453C116.335 247.269 123.272 240.357 128.455 232.45C128.953 231.716 128.874 230.748 128.298 230.093L118.351 218.625C119.607 216.19 120.707 213.546 121.597 210.77ZM107.537 248.247C114.016 243.759 119.768 238.022 124.252 231.532L113.553 219.199L114.796 216.791C115.949 214.557 116.964 212.118 117.788 209.549L118.615 206.971L134.94 205.817C135.65 201.978 136 198 136 193.987C136 189.992 135.633 186.031 134.932 182.156L118.639 181.005L117.798 178.458C116.935 175.843 115.939 173.398 114.796 171.183L113.553 168.775L124.25 156.443C119.762 149.963 114.027 144.21 107.538 139.725L95.2076 150.425L92.7987 149.181C90.5655 148.029 88.1269 147.013 85.5582 146.189L82.9809 145.362L81.8275 129.043C74.1018 127.652 65.8982 127.652 58.1725 129.043L57.0209 145.338L54.4743 146.179C51.86 147.042 49.4158 148.038 47.2013 149.181L44.7924 150.425L32.4632 139.726C25.9844 144.215 20.2325 149.952 15.7484 156.442L26.4466 168.775L25.2038 171.183C24.0512 173.417 23.036 175.856 22.2121 178.425L21.3854 181.003L5.05979 182.157C4.34968 185.996 4 189.974 4 193.987C4 197.982 4.36704 201.943 5.06826 205.817L21.3607 206.969L22.2015 209.516C23.0647 212.131 24.0608 214.576 25.2038 216.791L26.4466 219.199L15.7498 231.531C20.2378 238.011 25.9733 243.764 32.4616 248.249L44.7924 237.549L47.2013 238.792C49.4345 239.945 51.8731 240.961 54.4418 241.785L57.0191 242.611L58.1732 258.94C62.0109 259.65 65.9878 260 70 260C73.9943 260 77.954 259.633 81.8274 258.932L82.9791 242.636L85.5257 241.795C88.14 240.932 90.5841 239.936 92.7987 238.792L95.2076 237.549L107.537 248.247ZM69.9738 206.351C76.7954 206.351 82.3351 200.812 82.3351 193.987C82.3351 187.162 76.7954 181.623 69.9738 181.623C63.1522 181.623 57.6126 187.162 57.6126 193.987C57.6126 200.812 63.1522 206.351 69.9738 206.351ZM69.9738 159.222C89.147 159.222 104.733 174.812 104.733 193.987C104.733 213.162 89.147 228.752 69.9738 228.752C50.8006 228.752 35.2147 213.162 35.2147 193.987C35.2147 174.812 50.8006 159.222 69.9738 159.222ZM69.9738 210.351C79.0052 210.351 86.3351 203.02 86.3351 193.987C86.3351 184.954 79.0052 177.623 69.9738 177.623C60.9424 177.623 53.6126 184.954 53.6126 193.987C53.6126 203.02 60.9424 210.351 69.9738 210.351ZM69.9738 220.824C84.7644 220.824 96.8063 208.78 96.8063 193.987C96.8063 179.194 84.7644 167.149 69.9738 167.149C55.1832 167.149 43.1414 179.194 43.1414 193.987C43.1414 208.78 55.1832 220.824 69.9738 220.824ZM69.9738 173.695C81.1518 173.695 90.2618 182.807 90.2618 193.987C90.2618 205.167 81.1518 214.279 69.9738 214.279C58.7958 214.279 49.6859 205.167 49.6859 193.987C49.6859 182.807 58.7958 173.695 69.9738 173.695ZM69.9738 163.222C86.9372 163.222 100.733 177.02 100.733 193.987C100.733 210.953 86.9372 224.752 69.9738 224.752C53.0105 224.752 39.2147 210.953 39.2147 193.987C39.2147 177.02 53.0105 163.222 69.9738 163.222Z" fill="#78B6FD"/>
<rect x="466" y="26" width="31" height="117" rx="13" fill="#66B600"/>
<rect x="521" y="26" width="31" height="117" rx="13" fill="#ED1C24"/>
<path d="M67 113C67 102.507 75.5066 94 86 94H112V306C112 316.493 103.493 325 93 325H86C75.5066 325 67 316.493 67 306V113Z" fill="#023269"/>
<rect x="82" y="124" width="15" height="4" fill="white"/>
<rect x="82" y="138" width="15" height="4" fill="white"/>
<rect x="82" y="152" width="15" height="4" fill="white"/>
<rect x="82" y="166" width="15" height="4" fill="white"/>
<rect x="82" y="180" width="15" height="4" fill="white"/>
<path fill-rule="evenodd" clip-rule="evenodd" d="M146.094 3C148.723 46.8976 208.809 82 282.547 82C356.285 82 416.371 46.8976 419 3H146.094Z" fill="#E0F0FF"/>
<path fill-rule="evenodd" clip-rule="evenodd" d="M189.663 55.5023C213.528 69.3575 246.268 78 282.547 78C318.825 78 351.566 69.3575 375.431 55.5023C397.687 42.5816 411.717 25.4759 414.555 7H150.539C153.377 25.4759 167.407 42.5816 189.663 55.5023ZM146.495 7C146.308 5.67538 146.174 4.3418 146.094 3H419C418.92 4.3418 418.786 5.67538 418.599 7C412.685 49.0107 354.031 82 282.547 82C211.063 82 152.409 49.0107 146.495 7Z" fill="#78B6FD"/>
<path d="M112 76C112 65.5066 120.507 57 131 57H589C599.493 57 608 65.5066 608 76V269C608 279.493 599.493 288 589 288H131C120.507 288 112 279.493 112 269V76Z" fill="#E0F0FF"/>
<path fill-rule="evenodd" clip-rule="evenodd" d="M589 61H131C122.716 61 116 67.7157 116 76V269C116 277.284 122.716 284 131 284H589C597.284 284 604 277.284 604 269V76C604 67.7157 597.284 61 589 61ZM131 57C120.507 57 112 65.5066 112 76V269C112 279.493 120.507 288 131 288H589C599.493 288 608 279.493 608 269V76C608 65.5066 599.493 57 589 57H131Z" fill="#78B6FD"/>
<path d="M231.311 153.279V173.999H226.523V153.279H231.311Z" fill="#023269"/>
<path d="M224 165.936C224 166.384 223.972 166.851 223.916 167.336H213.08C213.155 168.307 213.463 169.054 214.004 169.576C214.564 170.08 215.246 170.332 216.048 170.332C217.243 170.332 218.074 169.828 218.54 168.82H223.636C223.375 169.847 222.899 170.771 222.208 171.592C221.536 172.414 220.687 173.058 219.66 173.524C218.634 173.991 217.486 174.224 216.216 174.224C214.686 174.224 213.323 173.898 212.128 173.244C210.934 172.591 210 171.658 209.328 170.444C208.656 169.231 208.32 167.812 208.32 166.188C208.32 164.564 208.647 163.146 209.3 161.932C209.972 160.719 210.906 159.786 212.1 159.132C213.295 158.479 214.667 158.152 216.216 158.152C217.728 158.152 219.072 158.47 220.248 159.104C221.424 159.739 222.339 160.644 222.992 161.82C223.664 162.996 224 164.368 224 165.936ZM219.1 164.676C219.1 163.855 218.82 163.202 218.26 162.716C217.7 162.231 217 161.988 216.16 161.988C215.358 161.988 214.676 162.222 214.116 162.688C213.575 163.155 213.239 163.818 213.108 164.676H219.1Z" fill="#023269"/>
<path d="M189.316 166.159C189.316 164.554 189.615 163.145 190.212 161.931C190.828 160.718 191.659 159.785 192.704 159.131C193.75 158.478 194.916 158.151 196.204 158.151C197.231 158.151 198.164 158.366 199.004 158.795C199.863 159.225 200.535 159.803 201.02 160.531V153.279H205.808V173.999H201.02V171.759C200.572 172.506 199.928 173.103 199.088 173.551C198.267 173.999 197.306 174.223 196.204 174.223C194.916 174.223 193.75 173.897 192.704 173.243C191.659 172.571 190.828 171.629 190.212 170.415C189.615 169.183 189.316 167.765 189.316 166.159ZM201.02 166.187C201.02 164.993 200.684 164.05 200.012 163.359C199.359 162.669 198.556 162.323 197.604 162.323C196.652 162.323 195.84 162.669 195.168 163.359C194.515 164.031 194.188 164.965 194.188 166.159C194.188 167.354 194.515 168.306 195.168 169.015C195.84 169.706 196.652 170.051 197.604 170.051C198.556 170.051 199.359 169.706 200.012 169.015C200.684 168.325 201.02 167.382 201.02 166.187Z" fill="#023269"/>
<path d="M179.552 174.224C178.022 174.224 176.64 173.898 175.408 173.244C174.195 172.591 173.234 171.658 172.524 170.444C171.834 169.231 171.488 167.812 171.488 166.188C171.488 164.583 171.843 163.174 172.552 161.96C173.262 160.728 174.232 159.786 175.464 159.132C176.696 158.479 178.078 158.152 179.608 158.152C181.139 158.152 182.52 158.479 183.752 159.132C184.984 159.786 185.955 160.728 186.664 161.96C187.374 163.174 187.728 164.583 187.728 166.188C187.728 167.794 187.364 169.212 186.636 170.444C185.927 171.658 184.947 172.591 183.696 173.244C182.464 173.898 181.083 174.224 179.552 174.224ZM179.552 170.08C180.467 170.08 181.242 169.744 181.876 169.072C182.53 168.4 182.856 167.439 182.856 166.188C182.856 164.938 182.539 163.976 181.904 163.304C181.288 162.632 180.523 162.296 179.608 162.296C178.675 162.296 177.9 162.632 177.284 163.304C176.668 163.958 176.36 164.919 176.36 166.188C176.36 167.439 176.659 168.4 177.256 169.072C177.872 169.744 178.638 170.08 179.552 170.08Z" fill="#023269"/>
<path d="M168.994 154.344V174H164.206V162.212L159.81 174H155.946L151.522 162.184V174H146.734V154.344H152.39L157.906 167.952L163.366 154.344H168.994Z" fill="#023269"/>
<path d="M332.201 122.377L322.401 145.421H317.249L320.833 137.469L314.477 122.377H319.825L323.437 132.149L327.021 122.377H332.201Z" fill="#023269"/>
<path d="M298.336 130.188C298.336 128.564 298.663 127.146 299.316 125.932C299.988 124.719 300.912 123.786 302.088 123.132C303.283 122.479 304.645 122.152 306.176 122.152C308.136 122.152 309.769 122.666 311.076 123.692C312.401 124.719 313.269 126.166 313.68 128.032H308.584C308.155 126.838 307.324 126.24 306.092 126.24C305.215 126.24 304.515 126.586 303.992 127.276C303.469 127.948 303.208 128.919 303.208 130.188C303.208 131.458 303.469 132.438 303.992 133.128C304.515 133.8 305.215 134.136 306.092 134.136C307.324 134.136 308.155 133.539 308.584 132.344H313.68C313.269 134.174 312.401 135.611 311.076 136.656C309.751 137.702 308.117 138.224 306.176 138.224C304.645 138.224 303.283 137.898 302.088 137.244C300.912 136.591 299.988 135.658 299.316 134.444C298.663 133.231 298.336 131.812 298.336 130.188Z" fill="#023269"/>
<path d="M289.938 122.207C291.767 122.207 293.223 122.804 294.306 123.999C295.407 125.175 295.958 126.799 295.958 128.871V137.999H291.198V129.515C291.198 128.47 290.927 127.658 290.386 127.079C289.845 126.5 289.117 126.211 288.202 126.211C287.287 126.211 286.559 126.5 286.018 127.079C285.477 127.658 285.206 128.47 285.206 129.515V137.999H280.418V122.375H285.206V124.447C285.691 123.756 286.345 123.215 287.166 122.823C287.987 122.412 288.911 122.207 289.938 122.207Z" fill="#023269"/>
<path d="M277.895 129.936C277.895 130.384 277.867 130.851 277.811 131.336H266.975C267.05 132.307 267.358 133.054 267.899 133.576C268.459 134.08 269.14 134.332 269.943 134.332C271.138 134.332 271.968 133.828 272.435 132.82H277.531C277.27 133.847 276.794 134.771 276.103 135.592C275.431 136.414 274.582 137.058 273.555 137.524C272.528 137.991 271.38 138.224 270.111 138.224C268.58 138.224 267.218 137.898 266.023 137.244C264.828 136.591 263.895 135.658 263.223 134.444C262.551 133.231 262.215 131.812 262.215 130.188C262.215 128.564 262.542 127.146 263.195 125.932C263.867 124.719 264.8 123.786 265.995 123.132C267.19 122.479 268.562 122.152 270.111 122.152C271.623 122.152 272.967 122.47 274.143 123.104C275.319 123.739 276.234 124.644 276.887 125.82C277.559 126.996 277.895 128.368 277.895 129.936ZM272.995 128.676C272.995 127.855 272.715 127.202 272.155 126.716C271.595 126.231 270.895 125.988 270.055 125.988C269.252 125.988 268.571 126.222 268.011 126.688C267.47 127.155 267.134 127.818 267.003 128.676H272.995Z" fill="#023269"/>
<path d="M260.501 133.94V138H258.065C256.329 138 254.975 137.58 254.005 136.74C253.034 135.882 252.549 134.491 252.549 132.568V126.352H250.645V122.376H252.549V118.568H257.337V122.376H260.473V126.352H257.337V132.624C257.337 133.091 257.449 133.427 257.673 133.632C257.897 133.838 258.27 133.94 258.793 133.94H260.501Z" fill="#023269"/>
<path d="M249.266 129.936C249.266 130.384 249.238 130.851 249.182 131.336H238.346C238.421 132.307 238.729 133.054 239.27 133.576C239.83 134.08 240.511 134.332 241.314 134.332C242.509 134.332 243.339 133.828 243.806 132.82H248.902C248.641 133.847 248.165 134.771 247.474 135.592C246.802 136.414 245.953 137.058 244.926 137.524C243.899 137.991 242.751 138.224 241.482 138.224C239.951 138.224 238.589 137.898 237.394 137.244C236.199 136.591 235.266 135.658 234.594 134.444C233.922 133.231 233.586 131.812 233.586 130.188C233.586 128.564 233.913 127.146 234.566 125.932C235.238 124.719 236.171 123.786 237.366 123.132C238.561 122.479 239.933 122.152 241.482 122.152C242.994 122.152 244.338 122.47 245.514 123.104C246.69 123.739 247.605 124.644 248.258 125.82C248.93 126.996 249.266 128.368 249.266 129.936ZM244.366 128.676C244.366 127.855 244.086 127.202 243.526 126.716C242.966 126.231 242.266 125.988 241.426 125.988C240.623 125.988 239.942 126.222 239.382 126.688C238.841 127.155 238.505 127.818 238.374 128.676H244.366Z" fill="#023269"/>
<path d="M220.319 124.588C220.786 123.86 221.43 123.272 222.251 122.824C223.073 122.376 224.034 122.152 225.135 122.152C226.423 122.152 227.59 122.479 228.635 123.132C229.681 123.786 230.502 124.719 231.099 125.932C231.715 127.146 232.023 128.555 232.023 130.16C232.023 131.766 231.715 133.184 231.099 134.416C230.502 135.63 229.681 136.572 228.635 137.244C227.59 137.898 226.423 138.224 225.135 138.224C224.053 138.224 223.091 138 222.251 137.552C221.43 137.104 220.786 136.526 220.319 135.816V145.448H215.531V122.376H220.319V124.588ZM227.151 130.16C227.151 128.966 226.815 128.032 226.143 127.36C225.49 126.67 224.678 126.324 223.707 126.324C222.755 126.324 221.943 126.67 221.271 127.36C220.618 128.051 220.291 128.994 220.291 130.188C220.291 131.383 220.618 132.326 221.271 133.016C221.943 133.707 222.755 134.052 223.707 134.052C224.659 134.052 225.471 133.707 226.143 133.016C226.815 132.307 227.151 131.355 227.151 130.16Z" fill="#023269"/>
<path d="M205.827 122.207C207.768 122.207 209.308 122.795 210.447 123.971C211.604 125.147 212.183 126.78 212.183 128.871V137.999H207.423V129.515C207.423 128.507 207.152 127.732 206.611 127.191C206.088 126.631 205.36 126.351 204.427 126.351C203.493 126.351 202.756 126.631 202.215 127.191C201.692 127.732 201.431 128.507 201.431 129.515V137.999H196.671V129.515C196.671 128.507 196.4 127.732 195.859 127.191C195.336 126.631 194.608 126.351 193.675 126.351C192.741 126.351 192.004 126.631 191.463 127.191C190.94 127.732 190.679 128.507 190.679 129.515V137.999H185.891V122.375H190.679V124.335C191.164 123.682 191.799 123.168 192.583 122.795C193.367 122.403 194.253 122.207 195.243 122.207C196.419 122.207 197.464 122.459 198.379 122.963C199.312 123.467 200.04 124.186 200.563 125.119C201.104 124.26 201.841 123.56 202.775 123.019C203.708 122.478 204.725 122.207 205.827 122.207Z" fill="#023269"/>
<path d="M175.177 138.224C173.647 138.224 172.265 137.898 171.033 137.244C169.82 136.591 168.859 135.658 168.149 134.444C167.459 133.231 167.113 131.812 167.113 130.188C167.113 128.583 167.468 127.174 168.177 125.96C168.887 124.728 169.857 123.786 171.089 123.132C172.321 122.479 173.703 122.152 175.233 122.152C176.764 122.152 178.145 122.479 179.377 123.132C180.609 123.786 181.58 124.728 182.289 125.96C182.999 127.174 183.353 128.583 183.353 130.188C183.353 131.794 182.989 133.212 182.261 134.444C181.552 135.658 180.572 136.591 179.321 137.244C178.089 137.898 176.708 138.224 175.177 138.224ZM175.177 134.08C176.092 134.08 176.867 133.744 177.501 133.072C178.155 132.4 178.481 131.439 178.481 130.188C178.481 128.938 178.164 127.976 177.529 127.304C176.913 126.632 176.148 126.296 175.233 126.296C174.3 126.296 173.525 126.632 172.909 127.304C172.293 127.958 171.985 128.919 171.985 130.188C171.985 131.439 172.284 132.4 172.881 133.072C173.497 133.744 174.263 134.08 175.177 134.08Z" fill="#023269"/>
<path d="M145.926 128.143C145.926 126.202 146.346 124.475 147.186 122.963C148.026 121.432 149.192 120.247 150.686 119.407C152.198 118.548 153.906 118.119 155.81 118.119C158.143 118.119 160.14 118.735 161.802 119.967C163.463 121.199 164.574 122.879 165.134 125.007H159.87C159.478 124.186 158.918 123.56 158.19 123.131C157.48 122.702 156.668 122.487 155.754 122.487C154.279 122.487 153.084 123 152.17 124.027C151.255 125.054 150.798 126.426 150.798 128.143C150.798 129.86 151.255 131.232 152.17 132.259C153.084 133.286 154.279 133.799 155.754 133.799C156.668 133.799 157.48 133.584 158.19 133.155C158.918 132.726 159.478 132.1 159.87 131.279H165.134C164.574 133.407 163.463 135.087 161.802 136.319C160.14 137.532 158.143 138.139 155.81 138.139C153.906 138.139 152.198 137.719 150.686 136.879C149.192 136.02 148.026 134.835 147.186 133.323C146.346 131.811 145.926 130.084 145.926 128.143Z" fill="#023269"/>
<path d="M321.327 81.2793V101.999H316.539V81.2793H321.327Z" fill="#023269"/>
<path d="M296.586 94.1603C296.586 92.555 296.885 91.1457 297.482 89.9323C298.098 88.719 298.929 87.7857 299.974 87.1323C301.019 86.479 302.186 86.1523 303.474 86.1523C304.575 86.1523 305.537 86.3763 306.358 86.8243C307.198 87.2723 307.842 87.8603 308.29 88.5883V86.3763H313.078V102H308.29V99.7883C307.823 100.516 307.17 101.104 306.33 101.552C305.509 102 304.547 102.224 303.446 102.224C302.177 102.224 301.019 101.898 299.974 101.244C298.929 100.572 298.098 99.6297 297.482 98.4163C296.885 97.1843 296.586 95.7657 296.586 94.1603ZM308.29 94.1883C308.29 92.9937 307.954 92.051 307.282 91.3603C306.629 90.6697 305.826 90.3243 304.874 90.3243C303.922 90.3243 303.11 90.6697 302.438 91.3603C301.785 92.0323 301.458 92.9657 301.458 94.1603C301.458 95.355 301.785 96.307 302.438 97.0163C303.11 97.707 303.922 98.0523 304.874 98.0523C305.826 98.0523 306.629 97.707 307.282 97.0163C307.954 96.3257 308.29 95.383 308.29 94.1883Z" fill="#023269"/>
<path d="M288.188 86.207C290.017 86.207 291.473 86.8044 292.556 87.999C293.657 89.175 294.208 90.799 294.208 92.871V101.999H289.448V93.515C289.448 92.4697 289.177 91.6577 288.636 91.079C288.095 90.5004 287.367 90.211 286.452 90.211C285.537 90.211 284.809 90.5004 284.268 91.079C283.727 91.6577 283.456 92.4697 283.456 93.515V101.999H278.668V86.375H283.456V88.447C283.941 87.7564 284.595 87.215 285.416 86.823C286.237 86.4124 287.161 86.207 288.188 86.207Z" fill="#023269"/>
<path d="M267.955 102.224C266.424 102.224 265.043 101.898 263.811 101.244C262.597 100.591 261.636 99.6577 260.927 98.4443C260.236 97.231 259.891 95.8123 259.891 94.1883C259.891 92.583 260.245 91.1737 260.955 89.9603C261.664 88.7283 262.635 87.7857 263.867 87.1323C265.099 86.479 266.48 86.1523 268.011 86.1523C269.541 86.1523 270.923 86.479 272.155 87.1323C273.387 87.7857 274.357 88.7283 275.067 89.9603C275.776 91.1737 276.131 92.583 276.131 94.1883C276.131 95.7937 275.767 97.2123 275.039 98.4443C274.329 99.6577 273.349 100.591 272.099 101.244C270.867 101.898 269.485 102.224 267.955 102.224ZM267.955 98.0803C268.869 98.0803 269.644 97.7443 270.279 97.0723C270.932 96.4003 271.259 95.439 271.259 94.1883C271.259 92.9377 270.941 91.9763 270.307 91.3043C269.691 90.6323 268.925 90.2963 268.011 90.2963C267.077 90.2963 266.303 90.6323 265.687 91.3043C265.071 91.9577 264.763 92.919 264.763 94.1883C264.763 95.439 265.061 96.4003 265.659 97.0723C266.275 97.7443 267.04 98.0803 267.955 98.0803Z" fill="#023269"/>
<path d="M254.993 84.7523C254.153 84.7523 253.462 84.5096 252.921 84.0243C252.398 83.5203 252.137 82.9043 252.137 82.1763C252.137 81.4296 252.398 80.8136 252.921 80.3283C253.462 79.8243 254.153 79.5723 254.993 79.5723C255.814 79.5723 256.486 79.8243 257.009 80.3283C257.55 80.8136 257.821 81.4296 257.821 82.1763C257.821 82.9043 257.55 83.5203 257.009 84.0243C256.486 84.5096 255.814 84.7523 254.993 84.7523ZM257.373 86.3763V102H252.585V86.3763H257.373Z" fill="#023269"/>
<path d="M243.325 102.224C241.962 102.224 240.749 101.991 239.685 101.524C238.621 101.058 237.781 100.423 237.165 99.6203C236.549 98.799 236.204 97.8843 236.129 96.8763H240.861C240.917 97.4177 241.169 97.8563 241.617 98.1923C242.065 98.5283 242.616 98.6963 243.269 98.6963C243.866 98.6963 244.324 98.5843 244.641 98.3603C244.977 98.1177 245.145 97.8097 245.145 97.4363C245.145 96.9883 244.912 96.6617 244.445 96.4563C243.978 96.2323 243.222 95.9897 242.177 95.7283C241.057 95.467 240.124 95.1963 239.377 94.9163C238.63 94.6177 237.986 94.1603 237.445 93.5443C236.904 92.9097 236.633 92.0603 236.633 90.9963C236.633 90.1003 236.876 89.2883 237.361 88.5603C237.865 87.8137 238.593 87.2257 239.545 86.7963C240.516 86.367 241.664 86.1523 242.989 86.1523C244.949 86.1523 246.489 86.6377 247.609 87.6083C248.748 88.579 249.401 89.867 249.569 91.4723H245.145C245.07 90.931 244.828 90.5017 244.417 90.1843C244.025 89.867 243.502 89.7083 242.849 89.7083C242.289 89.7083 241.86 89.8203 241.561 90.0443C241.262 90.2497 241.113 90.539 241.113 90.9123C241.113 91.3603 241.346 91.6963 241.813 91.9203C242.298 92.1443 243.045 92.3683 244.053 92.5923C245.21 92.891 246.153 93.1897 246.881 93.4883C247.609 93.7683 248.244 94.235 248.785 94.8883C249.345 95.523 249.634 96.3817 249.653 97.4643C249.653 98.379 249.392 99.2003 248.869 99.9283C248.365 100.638 247.628 101.198 246.657 101.608C245.705 102.019 244.594 102.224 243.325 102.224Z" fill="#023269"/>
<path d="M227.712 102.224C226.349 102.224 225.136 101.991 224.072 101.524C223.008 101.058 222.168 100.423 221.552 99.6203C220.936 98.799 220.59 97.8843 220.516 96.8763H225.248C225.304 97.4177 225.556 97.8563 226.004 98.1923C226.452 98.5283 227.002 98.6963 227.656 98.6963C228.253 98.6963 228.71 98.5843 229.028 98.3603C229.364 98.1177 229.532 97.8097 229.532 97.4363C229.532 96.9883 229.298 96.6617 228.832 96.4563C228.365 96.2323 227.609 95.9897 226.564 95.7283C225.444 95.467 224.51 95.1963 223.764 94.9163C223.017 94.6177 222.373 94.1603 221.832 93.5443C221.29 92.9097 221.02 92.0603 221.02 90.9963C221.02 90.1003 221.262 89.2883 221.748 88.5603C222.252 87.8137 222.98 87.2257 223.932 86.7963C224.902 86.367 226.05 86.1523 227.376 86.1523C229.336 86.1523 230.876 86.6377 231.996 87.6083C233.134 88.579 233.788 89.867 233.956 91.4723H229.532C229.457 90.931 229.214 90.5017 228.804 90.1843C228.412 89.867 227.889 89.7083 227.236 89.7083C226.676 89.7083 226.246 89.8203 225.948 90.0443C225.649 90.2497 225.5 90.539 225.5 90.9123C225.5 91.3603 225.733 91.6963 226.2 91.9203C226.685 92.1443 227.432 92.3683 228.44 92.5923C229.597 92.891 230.54 93.1897 231.268 93.4883C231.996 93.7683 232.63 94.235 233.172 94.8883C233.732 95.523 234.021 96.3817 234.04 97.4643C234.04 98.379 233.778 99.2003 233.256 99.9283C232.752 100.638 232.014 101.198 231.044 101.608C230.092 102.019 228.981 102.224 227.712 102.224Z" fill="#023269"/>
<path d="M218.832 93.9363C218.832 94.3843 218.804 94.851 218.748 95.3363H207.912C207.987 96.307 208.295 97.0537 208.836 97.5763C209.396 98.0803 210.078 98.3323 210.88 98.3323C212.075 98.3323 212.906 97.8283 213.372 96.8203H218.468C218.207 97.847 217.731 98.771 217.04 99.5923C216.368 100.414 215.519 101.058 214.492 101.524C213.466 101.991 212.318 102.224 211.048 102.224C209.518 102.224 208.155 101.898 206.96 101.244C205.766 100.591 204.832 99.6577 204.16 98.4443C203.488 97.231 203.152 95.8123 203.152 94.1883C203.152 92.5643 203.479 91.1457 204.132 89.9323C204.804 88.719 205.738 87.7857 206.932 87.1323C208.127 86.479 209.499 86.1523 211.048 86.1523C212.56 86.1523 213.904 86.4697 215.08 87.1043C216.256 87.739 217.171 88.6443 217.824 89.8203C218.496 90.9963 218.832 92.3683 218.832 93.9363ZM213.932 92.6763C213.932 91.855 213.652 91.2017 213.092 90.7163C212.532 90.231 211.832 89.9883 210.992 89.9883C210.19 89.9883 209.508 90.2217 208.948 90.6883C208.407 91.155 208.071 91.8177 207.94 92.6763H213.932Z" fill="#023269"/>
<path d="M201.854 90.3528H199.278V102.001H194.49V90.3528H192.754V86.3768H194.49V85.9288C194.49 84.0062 195.041 82.5502 196.142 81.5608C197.243 80.5528 198.858 80.0488 200.986 80.0488C201.341 80.0488 201.602 80.0582 201.77 80.0768V84.1368C200.855 84.0808 200.211 84.2115 199.838 84.5288C199.465 84.8462 199.278 85.4155 199.278 86.2368V86.3768H201.854V90.3528Z" fill="#023269"/>
<path d="M183.298 102.224C181.768 102.224 180.386 101.898 179.154 101.244C177.941 100.591 176.98 99.6577 176.27 98.4443C175.58 97.231 175.234 95.8123 175.234 94.1883C175.234 92.583 175.589 91.1737 176.298 89.9603C177.008 88.7283 177.978 87.7857 179.21 87.1323C180.442 86.479 181.824 86.1523 183.354 86.1523C184.885 86.1523 186.266 86.479 187.498 87.1323C188.73 87.7857 189.701 88.7283 190.41 89.9603C191.12 91.1737 191.474 92.583 191.474 94.1883C191.474 95.7937 191.11 97.2123 190.382 98.4443C189.673 99.6577 188.693 100.591 187.442 101.244C186.21 101.898 184.829 102.224 183.298 102.224ZM183.298 98.0803C184.213 98.0803 184.988 97.7443 185.622 97.0723C186.276 96.4003 186.602 95.439 186.602 94.1883C186.602 92.9377 186.285 91.9763 185.65 91.3043C185.034 90.6323 184.269 90.2963 183.354 90.2963C182.421 90.2963 181.646 90.6323 181.03 91.3043C180.414 91.9577 180.106 92.919 180.106 94.1883C180.106 95.439 180.405 96.4003 181.002 97.0723C181.618 97.7443 182.384 98.0803 183.298 98.0803Z" fill="#023269"/>
<path d="M168.995 88.979C169.555 88.1204 170.255 87.4484 171.095 86.963C171.935 86.459 172.868 86.207 173.895 86.207V91.275H172.579C171.384 91.275 170.488 91.5364 169.891 92.059C169.294 92.563 168.995 93.459 168.995 94.747V101.999H164.207V86.375H168.995V88.979Z" fill="#023269"/>
<path d="M161.714 88.6718C161.714 89.8104 161.453 90.8557 160.93 91.8077C160.408 92.7411 159.605 93.4971 158.522 94.0758C157.44 94.6544 156.096 94.9438 154.49 94.9438H151.522V102H146.734V82.3438H154.49C156.058 82.3438 157.384 82.6144 158.466 83.1557C159.549 83.6971 160.361 84.4437 160.902 85.3957C161.444 86.3477 161.714 87.4397 161.714 88.6718ZM154.126 91.1357C155.041 91.1357 155.722 90.9211 156.17 90.4918C156.618 90.0624 156.842 89.4557 156.842 88.6718C156.842 87.8878 156.618 87.2811 156.17 86.8517C155.722 86.4224 155.041 86.2078 154.126 86.2078H151.522V91.1357H154.126Z" fill="#023269"/>
<path d="M410 103C410 91.9543 418.954 83 430 83H543C554.046 83 563 91.9543 563 103V112C563 123.046 554.046 132 543 132H430C418.954 132 410 123.046 410 112V103Z" fill="white"/>
<path fill-rule="evenodd" clip-rule="evenodd" d="M543 87H430C421.163 87 414 94.1634 414 103V112C414 120.837 421.163 128 430 128H543C551.837 128 559 120.837 559 112V103C559 94.1634 551.837 87 543 87ZM430 83C418.954 83 410 91.9543 410 103V112C410 123.046 418.954 132 430 132H543C554.046 132 563 123.046 563 112V103C563 91.9543 554.046 83 543 83H430Z" fill="#B1B5C9"/>
<mask id="mask1_13922_22658" style="mask-type:alpha" maskUnits="userSpaceOnUse" x="414" y="87" width="145" height="41">
<rect x="414" y="87" width="145" height="41" rx="16" fill="white"/>
</mask>
<g mask="url(#mask1_13922_22658)">
<rect x="417" y="115" width="4" height="18" fill="#01254F"/>
<rect x="425" y="115" width="4" height="18" fill="#01254F"/>
<rect x="433" y="115" width="4" height="18" fill="#01254F"/>
<rect x="441" y="115" width="4" height="18" fill="#01254F"/>
<rect x="449" y="115" width="4" height="18" fill="#01254F"/>
<rect x="457" y="115" width="4" height="18" fill="#01254F"/>
<rect x="465" y="115" width="4" height="18" fill="#01254F"/>
<rect x="473" y="115" width="4" height="18" fill="#01254F"/>
<rect x="481" y="115" width="4" height="18" fill="#01254F"/>
<rect x="489" y="115" width="4" height="18" fill="#01254F"/>
<rect x="497" y="115" width="4" height="18" fill="#01254F"/>
<rect x="505" y="115" width="4" height="18" fill="#01254F"/>
<rect x="513" y="115" width="4" height="18" fill="#01254F"/>
<rect x="521" y="115" width="4" height="18" fill="#01254F"/>
<rect x="529" y="115" width="4" height="18" fill="#01254F"/>
<rect x="537" y="115" width="4" height="18" fill="#01254F"/>
<rect x="545" y="115" width="4" height="18" fill="#01254F"/>
<rect x="553" y="115" width="4" height="18" fill="#01254F"/>
<rect x="472" y="108" width="3" height="20" fill="#ED1C24"/>
</g>
<rect x="160" y="42" width="244" height="15" fill="#023269"/>
<rect x="139" width="285" height="7" fill="#022F62"/>
<rect x="265" y="160" width="128" height="84" rx="12" fill="#023E83"/>
<circle cx="282" cy="175" r="7" fill="white"/>
<circle cx="305.5" cy="175" r="7" fill="white"/>
<circle cx="329" cy="175" r="7" fill="white"/>
<circle cx="352.5" cy="175" r="7" fill="white"/>
<circle cx="376" cy="175" r="7" fill="white"/>
<rect x="471" y="152" width="10" height="67" fill="#023269"/>
<rect x="501" y="152" width="10" height="67" fill="#023269"/>
<rect x="531" y="152" width="10" height="67" fill="#023269"/>
<rect x="561" y="152" width="10" height="67" fill="#023269"/>
<rect x="468" y="163" width="16" height="6" rx="2" fill="#CD1017"/>
<rect x="441" y="152" width="10" height="67" fill="#023269"/>
<rect x="438" y="173" width="16" height="6" rx="2" fill="#CD1017"/>
<rect x="498" y="170" width="16" height="6" rx="2" fill="#CD1017"/>
<rect x="528" y="163" width="16" height="6" rx="2" fill="#CD1017"/>
<rect x="558" y="172" width="16" height="6" rx="2" fill="#CD1017"/>
</g>
</svg>
