<svg width="120" height="120" viewBox="0 0 120 120" fill="none" xmlns="http://www.w3.org/2000/svg">
<path opacity="0.06" d="M60 108.75C86.7188 108.75 108.75 86.9531 108.75 60C108.75 33.2812 86.7188 11.25 60 11.25C33.0469 11.25 11.25 33.2812 11.25 60C11.25 64.2188 11.7188 68.2031 12.6562 72.1875C9.375 74.5312 7.5 78.2812 7.5 82.5V89.0625C2.57812 80.625 0 70.5469 0 60C0 26.9531 26.7188 0 60 0C93.0469 0 120 26.9531 120 60C120 93.2812 93.0469 120 60 120C57.4219 120 54.8438 120 52.5 119.766C53.4375 118.359 54.1406 116.953 54.8438 115.312L57.1875 108.75C58.125 108.75 59.0625 108.75 60 108.75ZM62.8125 72.1875L55.5469 74.7656L40.3125 71.25C38.2031 70.7812 37.0312 68.6719 37.5 66.7969C37.9688 64.6875 40.0781 63.5156 41.9531 63.9844L64.6875 69.375C66.5625 69.8438 68.4375 70.5469 70.0781 71.7188C67.7344 71.25 65.1562 71.25 62.8125 72.1875ZM48.75 45C48.75 49.2188 45.4688 52.5 41.25 52.5C37.0312 52.5 33.75 49.2188 33.75 45C33.75 41.0156 37.0312 37.5 41.25 37.5C45.4688 37.5 48.75 41.0156 48.75 45ZM71.25 48.75C71.25 44.7656 74.5312 41.25 78.75 41.25C82.9688 41.25 86.25 44.7656 86.25 48.75C86.25 52.9688 82.9688 56.25 78.75 56.25C74.5312 56.25 71.25 52.9688 71.25 48.75ZM50.625 33.9844C45.7031 30 38.9062 29.2969 33.2812 32.3438L31.6406 33.2812C30 34.4531 27.6562 33.75 26.7188 31.875C25.5469 30.2344 26.25 27.8906 28.125 26.9531L29.7656 26.0156C37.9688 21.0938 48.2812 22.2656 55.5469 28.3594L58.5938 30.9375C60.2344 32.3438 60.2344 34.6875 59.0625 36.3281C57.6562 37.9688 55.3125 37.9688 53.6719 36.7969L50.625 33.9844ZM26.25 93.9844L65.3906 79.2188C68.2031 78.0469 71.4844 79.6875 72.6562 82.5C73.8281 85.3125 72.1875 88.5938 69.375 89.7656L53.9062 95.3906C53.9062 95.625 53.9062 95.625 53.9062 95.8594L47.8125 112.734C46.1719 117.188 41.9531 120 37.2656 120H26.25C19.9219 120 15 115.078 15 108.75V82.5C15 79.4531 17.3438 76.875 20.625 76.875C23.6719 76.875 26.25 79.4531 26.25 82.5V93.9844Z" fill="#1D1E24"/>
</svg>
