<svg width="440" height="412" viewBox="0 0 440 412" fill="none" xmlns="http://www.w3.org/2000/svg">
<path d="M64.1069 115.141L65.9536 118.882L70.0819 119.483L67.0944 122.395L67.8002 126.507L64.1069 124.566L60.4137 126.507L61.1195 122.395L58.1309 119.483L62.2603 118.882L64.1069 115.141Z" fill="#C7CAD9"/>
<path d="M433.716 291.281L435.563 295.022L439.691 295.623L436.704 298.535L437.41 302.648L433.716 300.706L430.023 302.648L430.728 298.535L427.74 295.623L431.87 295.022L433.716 291.281Z" fill="#E0E1EA"/>
<path d="M360.507 399.863L362.354 403.604L366.483 404.204L363.495 407.117L364.201 411.23L360.507 409.288L356.814 411.23L357.52 407.117L354.531 404.204L358.661 403.604L360.507 399.863Z" fill="#E0E1EA"/>
<path d="M193.028 48.7955L193.713 50.1842L195.245 50.4069C195.628 50.4629 195.781 50.9322 195.503 51.2029L194.395 52.2843L194.656 53.8112C194.721 54.1926 194.322 54.4827 193.98 54.3034L192.609 53.5828L191.237 54.3034C190.894 54.4838 190.495 54.1926 190.561 53.8112L190.822 52.2843L189.714 51.2029C189.437 50.9334 189.589 50.4629 189.972 50.4069L191.504 50.1842L192.189 48.7955C192.362 48.4484 192.856 48.4484 193.028 48.7955Z" fill="#C7CAD9"/>
<path d="M4.40653 382.092L5.09173 383.481L6.62429 383.704C7.00686 383.76 7.15989 384.229 6.88238 384.5L5.7735 385.581L6.03502 387.108C6.10011 387.489 5.70041 387.78 5.35896 387.6L3.98741 386.88L2.61587 387.6C2.27327 387.78 1.87357 387.489 1.93981 387.108L2.20133 385.581L1.09244 384.5C0.81608 384.23 0.967968 383.76 1.35054 383.704L2.8831 383.481L3.5683 382.092C3.74074 381.745 4.23523 381.745 4.40653 382.092Z" fill="#E0E1EA"/>
<path d="M35.2143 34.1198L35.8995 35.5084L37.4321 35.7311C37.8146 35.7871 37.9677 36.2564 37.6902 36.5271L36.5813 37.6086L36.8428 39.1354C36.9079 39.5168 36.5082 39.8069 36.1656 39.6265L34.7941 38.9059L33.4237 39.6265C33.0811 39.8069 32.6814 39.5157 32.7465 39.1354L33.008 37.6086L31.8991 36.5271C31.6227 36.2576 31.7746 35.7871 32.1572 35.7311L33.6897 35.5084L34.3749 34.1198C34.5485 33.7726 35.043 33.7726 35.2143 34.1198Z" fill="#C7CAD9"/>
<path d="M33.3609 309.363C33.3609 310.2 32.6826 310.879 31.8455 310.879C31.0084 310.879 30.3301 310.2 30.3301 309.363C30.3301 308.526 31.0084 307.848 31.8455 307.848C32.6815 307.848 33.3609 308.526 33.3609 309.363Z" fill="#C7CAD9"/>
<path d="M249.814 119.304C249.814 120.142 249.136 120.82 248.299 120.82C247.462 120.82 246.783 120.142 246.783 119.304C246.783 118.467 247.462 117.789 248.299 117.789C249.136 117.789 249.814 118.467 249.814 119.304Z" fill="#C7CAD9"/>
<path d="M171.058 35.3748C171.058 36.2119 170.38 36.8902 169.543 36.8902C168.706 36.8902 168.027 36.2119 168.027 35.3748C168.027 34.5377 168.706 33.8594 169.543 33.8594C170.38 33.8594 171.058 34.5389 171.058 35.3748Z" fill="#E0E1EA"/>
<path d="M173.496 405.495C178.006 404.43 180.799 399.91 179.734 395.4C178.669 390.889 174.149 388.097 169.639 389.161C165.129 390.226 162.336 394.746 163.401 399.256C164.466 403.767 168.986 406.56 173.496 405.495Z" fill="#F3F3F7"/>
<path d="M168.65 392.465C166.868 392.465 165.212 393.036 163.865 394.018C163.419 395.046 163.168 396.176 163.168 397.364C163.168 402.001 166.925 405.746 171.562 405.746C173.126 405.746 174.599 405.312 175.856 404.56C175.844 404.548 175.844 404.548 175.856 404.548C176.484 403.383 176.838 402.059 176.838 400.643C176.838 396.131 173.172 392.465 168.65 392.465Z" fill="#C7CAD9"/>
<path d="M103.653 251.493H34.1562V220.117L103.653 137.508H136.902V221.896H154.135V251.493H136.902V277.156H103.653V251.493ZM103.653 221.896V178.685L66.9305 221.896H103.653Z" fill="#ED1C24"/>
<path d="M166.031 207.941C166.031 181.841 170.728 163.579 180.127 153.15C189.524 142.722 203.837 137.508 223.071 137.508C232.311 137.508 239.898 138.649 245.83 140.927C251.761 143.206 256.601 146.172 260.347 149.824C264.093 153.478 267.043 157.317 269.197 161.345C271.352 165.371 273.085 170.071 274.396 175.442C276.955 185.682 278.235 196.36 278.235 207.474C278.235 232.386 274.02 250.621 265.591 262.171C257.161 273.723 242.643 279.497 222.038 279.497C210.486 279.497 201.151 277.654 194.034 273.971C186.915 270.288 181.076 264.887 176.519 257.768C173.208 252.712 170.632 245.796 168.793 237.023C166.951 228.25 166.031 218.557 166.031 207.941ZM203.87 208.034C203.87 225.518 205.415 237.46 208.506 243.861C211.597 250.261 216.077 253.461 221.946 253.461C225.817 253.461 229.174 252.103 232.015 249.386C234.856 246.67 236.947 242.379 238.291 236.509C239.633 230.64 240.305 221.492 240.305 209.066C240.305 190.835 238.76 178.58 235.669 172.305C232.578 166.028 227.942 162.891 221.76 162.891C215.452 162.891 210.895 166.092 208.084 172.492C205.275 178.892 203.87 190.74 203.87 208.034Z" fill="#ED1C24"/>
<path d="M359.532 251.493H290.035V220.117L359.532 137.508H392.781V221.896H410.014V251.493H392.781V277.156H359.532V251.493ZM359.532 221.896V178.685L322.811 221.896H359.532Z" fill="#ED1C24"/>
<path d="M164.488 89.2978C164.488 90.474 163.535 91.4276 162.358 91.4276C161.182 91.4276 160.229 90.474 160.229 89.2978C160.229 88.1215 161.182 87.168 162.358 87.168C163.535 87.168 164.488 88.1215 164.488 89.2978Z" fill="#046EE7"/>
<path d="M18.3273 171.33C19.1617 171.33 19.8381 170.654 19.8381 169.819C19.8381 168.985 19.1617 168.309 18.3273 168.309C17.4929 168.309 16.8164 168.985 16.8164 169.819C16.8164 170.654 17.4929 171.33 18.3273 171.33Z" fill="#046EE7"/>
<path d="M267.384 391.484C268.578 391.484 269.546 390.516 269.546 389.322C269.546 388.128 268.578 387.16 267.384 387.16C266.191 387.16 265.223 388.128 265.223 389.322C265.223 390.516 266.191 391.484 267.384 391.484Z" fill="#046EE7"/>
<path d="M319.28 303.655C320.115 303.655 320.791 302.978 320.791 302.144C320.791 301.309 320.115 300.633 319.28 300.633C318.446 300.633 317.77 301.309 317.77 302.144C317.77 302.978 318.446 303.655 319.28 303.655Z" fill="#046EE7"/>
<path d="M419.406 32.2023C419.406 33.0371 418.73 33.7131 417.896 33.7131C417.061 33.7131 416.385 33.0371 416.385 32.2023C416.385 31.3675 417.061 30.6914 417.896 30.6914C418.73 30.6914 419.406 31.3675 419.406 32.2023Z" fill="#046EE7"/>
<path d="M132.285 1.75696C132.285 2.59176 131.609 3.26783 130.775 3.26783C129.94 3.26783 129.264 2.59176 129.264 1.75696C129.264 0.922155 129.94 0.246094 130.775 0.246094C131.609 0.246094 132.285 0.922155 132.285 1.75696Z" fill="#046EE7"/>
<path d="M252.128 80.9046C252.962 80.9046 253.639 80.2281 253.639 79.3937C253.639 78.5592 252.962 77.8828 252.128 77.8828C251.294 77.8828 250.617 78.5592 250.617 79.3937C250.617 80.2281 251.294 80.9046 252.128 80.9046Z" fill="#046EE7"/>
<path d="M96.2888 80.9096C110.108 80.9096 121.31 69.7072 121.31 55.8884C121.31 42.0696 110.108 30.8672 96.2888 30.8672C82.47 30.8672 71.2676 42.0696 71.2676 55.8884C71.2676 69.7072 82.47 80.9096 96.2888 80.9096Z" fill="url(#paint0_linear_9067_32393)"/>
<path opacity="0.7" d="M96.2888 80.9096C110.108 80.9096 121.31 69.7072 121.31 55.8884C121.31 42.0696 110.108 30.8672 96.2888 30.8672C82.47 30.8672 71.2676 42.0696 71.2676 55.8884C71.2676 69.7072 82.47 80.9096 96.2888 80.9096Z" fill="white"/>
<path opacity="0.2" d="M87.6652 37.0117C84.1582 37.0117 80.8292 37.7369 77.7972 39.0331C73.7431 43.4789 71.2695 49.4001 71.2695 55.8913C71.2695 69.706 82.4691 80.9056 96.2839 80.9056C99.8024 80.9056 103.155 80.1804 106.2 78.8729C106.2 78.8729 106.2 78.8729 106.2 78.8614C110.23 74.4145 112.691 68.5172 112.691 62.0386C112.692 48.2113 101.493 37.0117 87.6652 37.0117Z" fill="url(#paint1_linear_9067_32393)"/>
<path opacity="0.2" d="M85.1784 43.6273C85.1784 44.8903 84.154 45.9147 82.8909 45.9147C81.6279 45.9147 80.6035 44.8903 80.6035 43.6273C80.6035 42.3642 81.6279 41.3398 82.8909 41.3398C84.154 41.3398 85.1784 42.3642 85.1784 43.6273Z" fill="url(#paint2_linear_9067_32393)"/>
<path opacity="0.2" d="M112.083 41.3382C112.083 42.6013 111.058 43.6256 109.795 43.6256C108.532 43.6256 107.508 42.6013 107.508 41.3382C107.508 40.0752 108.532 39.0508 109.795 39.0508C111.058 39.0519 112.083 40.0752 112.083 41.3382Z" fill="url(#paint3_linear_9067_32393)"/>
<path opacity="0.2" d="M107.508 57.6458C107.508 59.7128 105.833 61.3893 103.765 61.3893C101.698 61.3893 100.021 59.7128 100.021 57.6458C100.021 55.5788 101.697 53.9023 103.765 53.9023C105.832 53.9023 107.508 55.5788 107.508 57.6458Z" fill="url(#paint4_linear_9067_32393)"/>
<path opacity="0.2" d="M95.6136 68.3156C95.6136 71.0792 93.373 73.3187 90.6105 73.3187C87.8469 73.3187 85.6074 71.0781 85.6074 68.3156C85.6074 65.552 87.848 63.3125 90.6105 63.3125C93.373 63.3125 95.6136 65.5531 95.6136 68.3156Z" fill="url(#paint5_linear_9067_32393)"/>
<path d="M392.837 357.766C395.624 345.965 388.316 334.14 376.515 331.353C364.714 328.567 352.889 335.874 350.102 347.675C347.316 359.476 354.623 371.302 366.424 374.088C378.225 376.875 390.051 369.567 392.837 357.766Z" fill="url(#paint6_linear_9067_32393)"/>
<path opacity="0.3" d="M392.837 357.766C395.624 345.965 388.316 334.14 376.515 331.353C364.714 328.567 352.889 335.874 350.102 347.675C347.316 359.476 354.623 371.302 366.424 374.088C378.225 376.875 390.051 369.567 392.837 357.766Z" fill="white"/>
<path opacity="0.4" d="M385.329 335.654C383.331 335.047 381.204 334.727 379.004 334.727C366.878 334.727 357.045 344.559 357.045 356.685C357.045 363.557 360.196 369.68 365.142 373.71C367.139 374.316 369.267 374.637 371.467 374.637C383.594 374.637 393.426 364.805 393.426 352.679C393.426 345.807 390.275 339.673 385.329 335.654Z" fill="url(#paint7_linear_9067_32393)"/>
<path d="M350.494 359.19C327.044 370.224 344.537 378.729 377.573 366.857C408.16 355.864 419.789 341.996 392.478 346.294C393.887 352.127 355.578 367.054 350.494 359.19Z" fill="url(#paint8_linear_9067_32393)"/>
<path opacity="0.2" d="M385.06 137.508C354.352 158.258 314.599 185.62 303.624 251.491H301.283C311.961 186.42 350.264 158.338 380.983 137.508H385.06Z" fill="#151617"/>
<path d="M226.232 343.564C206.852 343.565 187.622 334.814 178.284 320.511C172.513 311.673 165.813 293.16 185.77 268.461L187.547 269.898C173.429 287.369 170.819 304.9 180.197 319.263C191.61 336.746 218.563 345.536 241.556 339.28C265.114 332.87 279.416 312.378 280.797 283.062C285.519 182.786 338.792 151.897 377.691 129.343C401.858 115.33 419.319 105.205 415.481 83.8477C414.949 80.8842 413.767 78.8366 411.869 77.5884C406.897 74.3131 397.19 76.5766 385.952 79.1963C363.905 84.3319 333.71 91.3666 315.722 60.7713L317.691 59.6133C334.828 88.7606 362.888 82.2249 385.434 76.9705C397.185 74.2343 407.334 71.8692 413.125 75.6789C415.574 77.2914 417.081 79.8312 417.729 83.4434C421.851 106.377 402.869 117.384 378.836 131.318C340.392 153.609 287.741 184.137 283.077 283.168C281.647 313.54 266.732 334.795 242.155 341.483C236.976 342.892 231.596 343.562 226.232 343.564Z" fill="#046EE7"/>
<path opacity="0.2" d="M226.232 343.564C206.852 343.565 187.622 334.814 178.284 320.511C172.513 311.673 165.813 293.16 185.77 268.461L187.547 269.898C173.429 287.369 170.819 304.9 180.197 319.263C191.61 336.746 218.563 345.536 241.556 339.28C265.114 332.87 279.416 312.378 280.797 283.062C285.519 182.786 338.792 151.897 377.691 129.343C401.858 115.33 419.319 105.205 415.481 83.8477C414.949 80.8842 413.767 78.8366 411.869 77.5884C406.897 74.3131 397.19 76.5766 385.952 79.1963C363.905 84.3319 333.71 91.3666 315.722 60.7713L317.691 59.6133C334.828 88.7606 362.888 82.2249 385.434 76.9705C397.185 74.2343 407.334 71.8692 413.125 75.6789C415.574 77.2914 417.081 79.8312 417.729 83.4434C421.851 106.377 402.869 117.384 378.836 131.318C340.392 153.609 287.741 184.137 283.077 283.168C281.647 313.54 266.732 334.795 242.155 341.483C236.976 342.892 231.596 343.562 226.232 343.564Z" fill="white"/>
<path d="M292.172 33.7206C300 33.5778 307.683 36.1576 307.683 36.1576C307.683 36.1576 320.205 57.5941 321.731 62.5001C321.205 67.3422 313.035 75.2802 313.035 75.2802L292.172 33.7206Z" fill="#046EE7"/>
<path opacity="0.3" d="M292.172 33.7206C300 33.5778 307.683 36.1576 307.683 36.1576C307.683 36.1576 320.205 57.5941 321.731 62.5001C321.205 67.3422 313.035 75.2802 313.035 75.2802L292.172 33.7206Z" fill="white"/>
<path d="M329.378 137.85C324.655 131.857 320.017 125.752 316.178 119.138C315.218 117.486 314.309 115.803 313.449 114.096C312.961 113.127 312.488 112.149 312.029 111.165C311.628 110.305 310.743 109.039 310.654 108.1C309.282 93.6284 314.236 82.9758 309.48 71.3594L290.67 78.7104C290.67 78.7104 292.27 99.4057 295.921 111.786C298.187 119.467 303.315 126.117 308.258 132.27C309.804 134.196 311.294 136.164 312.837 138.092C314.298 139.917 315.934 141.591 317.398 143.407C319.622 146.163 320.362 148.793 318.672 152.042C318.582 152.215 318.487 152.388 318.39 152.559C317.91 153.405 320.155 154.364 321.566 152.583C323.898 149.635 323.531 149.817 325.519 147.303C326.726 145.778 328.113 144.13 329.309 142.698C330.479 141.301 330.505 139.28 329.378 137.85Z" fill="#046EE7"/>
<path opacity="0.7" d="M329.378 137.85C324.655 131.857 320.017 125.752 316.178 119.138C315.218 117.486 314.309 115.803 313.449 114.096C312.961 113.127 312.488 112.149 312.029 111.165C311.628 110.305 310.743 109.039 310.654 108.1C309.282 93.6284 314.236 82.9758 309.48 71.3594L290.67 78.7104C290.67 78.7104 292.27 99.4057 295.921 111.786C298.187 119.467 303.315 126.117 308.258 132.27C309.804 134.196 311.294 136.164 312.837 138.092C314.298 139.917 315.934 141.591 317.398 143.407C319.622 146.163 320.362 148.793 318.672 152.042C318.582 152.215 318.487 152.388 318.39 152.559C317.91 153.405 320.155 154.364 321.566 152.583C323.898 149.635 323.531 149.817 325.519 147.303C326.726 145.778 328.113 144.13 329.309 142.698C330.479 141.301 330.505 139.28 329.378 137.85Z" fill="white"/>
<path opacity="0.3" d="M324.779 131.898C322.261 134.942 317.141 138.89 314.885 140.49C315.376 141.037 315.862 141.595 316.35 142.154C320.996 139.119 324.668 135.183 326.062 133.584C325.631 133.03 325.205 132.464 324.779 131.898Z" fill="#046EE7"/>
<path opacity="0.3" d="M329.374 137.853C329.331 137.794 329.285 137.746 329.241 137.688C328.449 138.513 327.891 139.83 327.797 141.308C327.722 142.329 327.893 143.263 328.227 143.992C328.608 143.552 328.963 143.115 329.311 142.701C330.485 141.303 330.501 139.283 329.374 137.853Z" fill="#046EE7"/>
<path d="M287.701 47.4212C285.733 50.283 283.413 53.1037 280.42 55.6367C278.935 56.91 277.239 58.0623 275.376 59.0399C274.436 59.5195 273.448 59.9352 272.426 60.2789L271.655 60.5268L271.406 60.6044C271.226 60.6592 271.044 60.7083 270.862 60.7517C270.517 60.8294 270.171 60.8819 269.865 60.907C268.628 61.0007 267.732 60.8248 266.993 60.641C265.534 60.2435 264.56 59.7125 263.639 59.1975C262.731 58.6733 261.934 58.1365 261.179 57.5827C259.692 56.451 258.347 55.3147 257.093 54.1019C254.569 51.6922 252.33 49.1935 250.252 46.4105C249.304 45.1417 249.565 43.3454 250.833 42.3986C251.812 41.6666 253.106 41.6552 254.08 42.2707L254.167 42.3267C256.862 44.0374 259.581 45.8418 262.234 47.4566C263.573 48.2468 264.882 49.0417 266.169 49.6606C266.802 49.9804 267.422 50.2716 267.982 50.4783C268.526 50.6907 269.07 50.8118 269.212 50.7832C269.271 50.7798 269.2 50.6987 268.78 50.7135C268.678 50.7193 268.534 50.733 268.388 50.7649C268.304 50.7809 268.221 50.8026 268.139 50.8289C268.06 50.8552 268.172 50.8072 268.179 50.8003L268.557 50.6073C269.06 50.3515 269.542 50.0318 270.03 49.7063C271.008 49.0451 271.939 48.2057 272.889 47.2853C274.769 45.4181 276.577 43.0941 278.487 40.6776L278.512 40.6445C280.467 38.1687 284.06 37.7473 286.536 39.7024C288.906 41.5741 289.383 44.9647 287.701 47.4212Z" fill="#046EE7"/>
<path opacity="0.7" d="M287.701 47.4212C285.733 50.283 283.413 53.1037 280.42 55.6367C278.935 56.91 277.239 58.0623 275.376 59.0399C274.436 59.5195 273.448 59.9352 272.426 60.2789L271.655 60.5268L271.406 60.6044C271.226 60.6592 271.044 60.7083 270.862 60.7517C270.517 60.8294 270.171 60.8819 269.865 60.907C268.628 61.0007 267.732 60.8248 266.993 60.641C265.534 60.2435 264.56 59.7125 263.639 59.1975C262.731 58.6733 261.934 58.1365 261.179 57.5827C259.692 56.451 258.347 55.3147 257.093 54.1019C254.569 51.6922 252.33 49.1935 250.252 46.4105C249.304 45.1417 249.565 43.3454 250.833 42.3986C251.812 41.6666 253.106 41.6552 254.08 42.2707L254.167 42.3267C256.862 44.0374 259.581 45.8418 262.234 47.4566C263.573 48.2468 264.882 49.0417 266.169 49.6606C266.802 49.9804 267.422 50.2716 267.982 50.4783C268.526 50.6907 269.07 50.8118 269.212 50.7832C269.271 50.7798 269.2 50.6987 268.78 50.7135C268.678 50.7193 268.534 50.733 268.388 50.7649C268.304 50.7809 268.221 50.8026 268.139 50.8289C268.06 50.8552 268.172 50.8072 268.179 50.8003L268.557 50.6073C269.06 50.3515 269.542 50.0318 270.03 49.7063C271.008 49.0451 271.939 48.2057 272.889 47.2853C274.769 45.4181 276.577 43.0941 278.487 40.6776L278.512 40.6445C280.467 38.1687 284.06 37.7473 286.536 39.7024C288.906 41.5741 289.383 44.9647 287.701 47.4212Z" fill="white"/>
<path d="M245.951 39.958L247.289 42.2032C247.289 42.2032 248.311 45.1906 250.356 45.7434L255.9 43.9482L255.622 43.4822C255.625 43.4834 255.628 43.4834 255.63 43.4834C254.92 42.4019 254.996 40.3166 255.246 38.5819C255.495 36.8472 254.596 36.7855 253.931 37.2172C253.547 37.4662 253.275 38.2576 252.964 39.1106C252.691 38.7349 252.398 38.3729 252.068 38.044L250.375 36.3573C249.644 35.6298 248.473 35.5967 247.702 36.2819L246.33 37.5016C245.631 38.1228 245.472 39.154 245.951 39.958Z" fill="#046EE7"/>
<path opacity="0.7" d="M245.951 39.958L247.289 42.2032C247.289 42.2032 248.311 45.1906 250.356 45.7434L255.9 43.9482L255.622 43.4822C255.625 43.4834 255.628 43.4834 255.63 43.4834C254.92 42.4019 254.996 40.3166 255.246 38.5819C255.495 36.8472 254.596 36.7855 253.931 37.2172C253.547 37.4662 253.275 38.2576 252.964 39.1106C252.691 38.7349 252.398 38.3729 252.068 38.044L250.375 36.3573C249.644 35.6298 248.473 35.5967 247.702 36.2819L246.33 37.5016C245.631 38.1228 245.472 39.154 245.951 39.958Z" fill="white"/>
<path d="M297.787 31.7464C292.478 33.0346 285.184 36.0643 280.258 39.1329C278.512 40.2201 277.641 42.2848 278.052 44.3005C280.249 55.0809 285.262 69.5215 290.674 78.7078L315.925 68.2619C316.099 63.8081 309.968 49.3961 303.724 35.4671C302.602 32.9615 300.454 31.1001 297.787 31.7464Z" fill="#046EE7"/>
<path opacity="0.8" d="M297.787 31.7464C292.478 33.0346 285.184 36.0643 280.258 39.1329C278.512 40.2201 277.641 42.2848 278.052 44.3005C280.249 55.0809 285.262 69.5215 290.674 78.7078L315.925 68.2619C316.099 63.8081 309.968 49.3961 303.724 35.4671C302.602 32.9615 300.454 31.1001 297.787 31.7464Z" fill="white"/>
<path opacity="0.3" d="M307.632 44.301L302.621 42.6211C303.743 45.5526 307.798 49.2687 310.649 51.451C309.709 49.1602 308.691 46.7654 307.632 44.301Z" fill="#046EE7"/>
<path d="M296.122 20.4383C294.038 16.463 289.528 14.4622 284.113 14.9145C279.547 15.2959 275.498 19.9575 275.978 22.4768C276.458 24.9961 280.301 26.0627 280.996 26.9374L277.83 29.2329C276.254 30.376 275.945 32.5983 277.149 34.1286C278.482 35.8211 280.236 37.5889 281.258 38.8371C290.01 38.6098 296.483 35.2706 298.815 32.0582C297.977 27.971 298.195 24.3919 296.122 20.4383Z" fill="#046EE7"/>
<path opacity="0.8" d="M296.122 20.4383C294.038 16.463 289.528 14.4622 284.113 14.9145C279.547 15.2959 275.498 19.9575 275.978 22.4768C276.458 24.9961 280.301 26.0627 280.996 26.9374L277.83 29.2329C276.254 30.376 275.945 32.5983 277.149 34.1286C278.482 35.8211 280.236 37.5889 281.258 38.8371C290.01 38.6098 296.483 35.2706 298.815 32.0582C297.977 27.971 298.195 24.3919 296.122 20.4383Z" fill="white"/>
<path d="M291.831 22.897C293.569 27.3463 291.373 32.3619 286.923 34.1001C282.474 35.8382 277.459 33.6421 275.72 29.1929C273.982 24.7448 276.178 19.728 280.628 17.9899C285.076 16.2517 290.091 18.4489 291.831 22.897Z" fill="#011F42"/>
<path d="M365.977 125.82C365.85 122.064 365.688 122.44 365.579 119.238C365.512 117.293 365.504 115.139 365.492 113.273C365.479 111.451 364.192 109.893 362.407 109.531C360.894 109.223 359.376 108.931 357.865 108.609C355.894 108.189 353.946 107.737 352.01 107.175C350.51 106.738 349.022 106.258 347.551 105.728C345.975 105.16 344.421 104.538 342.881 103.878C341.081 103.106 339.303 102.284 337.539 101.436C335.569 100.491 333.614 99.513 331.666 98.5229C324.15 86.0808 323.988 77.8824 315.922 68.2656L298.609 76.0975C298.609 76.0975 311.33 98.6691 319.993 108.239C324.98 113.747 332.804 116.23 339.782 118.032C344.816 119.331 349.921 120.326 355.031 121.265C357.018 121.629 359.178 121.771 360.887 122.957C362.234 123.891 362.93 125.35 363.328 126.899C363.409 127.216 363.477 127.535 363.539 127.857C363.722 128.813 366.055 128.092 365.977 125.82Z" fill="#046EE7"/>
<path opacity="0.8" d="M365.977 125.82C365.85 122.064 365.688 122.44 365.579 119.238C365.512 117.293 365.504 115.139 365.492 113.273C365.479 111.451 364.192 109.893 362.407 109.531C360.894 109.223 359.376 108.931 357.865 108.609C355.894 108.189 353.946 107.737 352.01 107.175C350.51 106.738 349.022 106.258 347.551 105.728C345.975 105.16 344.421 104.538 342.881 103.878C341.081 103.106 339.303 102.284 337.539 101.436C335.569 100.491 333.614 99.513 331.666 98.5229C324.15 86.0808 323.988 77.8824 315.922 68.2656L298.609 76.0975C298.609 76.0975 311.33 98.6691 319.993 108.239C324.98 113.747 332.804 116.23 339.782 118.032C344.816 119.331 349.921 120.326 355.031 121.265C357.018 121.629 359.178 121.771 360.887 122.957C362.234 123.891 362.93 125.35 363.328 126.899C363.409 127.216 363.477 127.535 363.539 127.857C363.722 128.813 366.055 128.092 365.977 125.82Z" fill="white"/>
<path opacity="0.3" d="M357.199 108.466C356.518 108.316 355.825 108.163 355.137 108C355.191 111.943 353.342 118.754 352.662 120.818C353.383 120.954 354.114 121.093 354.834 121.23C356.838 115.811 357.154 110.075 357.199 108.466Z" fill="#046EE7"/>
<path opacity="0.3" d="M365.49 113.272C365.478 111.446 364.195 109.89 362.414 109.525C362.055 109.452 361.685 109.374 361.324 109.312C361.4 110.386 362.067 111.632 363.183 112.621C363.915 113.281 364.743 113.719 365.504 113.926C365.493 113.699 365.491 113.485 365.49 113.272Z" fill="#046EE7"/>
<path d="M290.215 22.9736C290.678 24.7049 288.74 26.5252 287.189 25.0281C285.93 23.813 284.035 21.778 282.487 20.8107C280.898 19.816 283.017 18.0847 285.513 18.7562C287.844 19.3843 289.753 21.2412 290.215 22.9736Z" fill="white"/>
<path d="M290.346 78.153C289.541 78.4499 291.012 79.8157 291.012 79.8157C291.012 79.8157 306.966 74.349 316.701 68.72C316.784 67.5426 315.927 66.918 315.927 66.918C315.927 66.918 304.082 73.0893 290.346 78.153Z" fill="#046EE7"/>
<path opacity="0.5" d="M290.346 78.153C289.541 78.4499 291.012 79.8157 291.012 79.8157C291.012 79.8157 306.966 74.349 316.701 68.72C316.784 67.5426 315.927 66.918 315.927 66.918C315.927 66.918 304.082 73.0893 290.346 78.153Z" fill="white"/>
<path d="M302.11 30.9928C305.259 32.5836 308.224 34.268 311.185 36.1329C312.66 37.0613 314.127 38.0149 315.573 39.0438C317.03 40.0522 318.468 41.1154 319.91 42.3123L320.451 42.7553L321.126 43.364C321.606 43.7866 321.958 44.176 322.311 44.5643C322.681 44.9651 322.986 45.3511 323.286 45.736C323.598 46.1231 323.893 46.508 324.16 46.8871C325.289 48.4037 326.209 49.9465 327.113 51.4768C328.868 54.5796 330.388 57.6779 331.642 61.0114C332.202 62.4982 331.45 64.1564 329.962 64.7172C328.845 65.1374 327.63 64.8177 326.858 64.0023L326.802 63.9406C324.508 61.5104 322.307 58.9466 320.093 56.5656C317.927 54.1913 315.625 51.7543 313.77 50.6945C311.177 49.0775 308.29 47.4718 305.422 45.8901L296.785 41.096L296.763 41.0846C294.005 39.5543 293.01 36.0781 294.541 33.3201C296.036 30.6307 299.388 29.6224 302.11 30.9928Z" fill="#046EE7"/>
<path opacity="0.8" d="M302.11 30.9928C305.259 32.5836 308.224 34.268 311.185 36.1329C312.66 37.0613 314.127 38.0149 315.573 39.0438C317.03 40.0522 318.468 41.1154 319.91 42.3123L320.451 42.7553L321.126 43.364C321.606 43.7866 321.958 44.176 322.311 44.5643C322.681 44.9651 322.986 45.3511 323.286 45.736C323.598 46.1231 323.893 46.508 324.16 46.8871C325.289 48.4037 326.209 49.9465 327.113 51.4768C328.868 54.5796 330.388 57.6779 331.642 61.0114C332.202 62.4982 331.45 64.1564 329.962 64.7172C328.845 65.1374 327.63 64.8177 326.858 64.0023L326.802 63.9406C324.508 61.5104 322.307 58.9466 320.093 56.5656C317.927 54.1913 315.625 51.7543 313.77 50.6945C311.177 49.0775 308.29 47.4718 305.422 45.8901L296.785 41.096L296.763 41.0846C294.005 39.5543 293.01 36.0781 294.541 33.3201C296.036 30.6307 299.388 29.6224 302.11 30.9928Z" fill="white"/>
<path d="M334.398 66.5957L333.429 64.169C333.429 64.169 332.887 61.0582 330.954 60.1914L325.198 61.0959L325.399 61.5995C325.397 61.5984 325.395 61.5972 325.391 61.5972C325.923 62.7758 325.52 64.8245 325.002 66.4975C324.483 68.1717 325.363 68.3738 326.087 68.0518C326.505 67.8656 326.898 67.1268 327.338 66.3331C327.55 66.7476 327.781 67.1508 328.055 67.5265L329.464 69.4576C330.071 70.2901 331.222 70.5071 332.091 69.9509L333.638 68.9608C334.427 68.4572 334.746 67.4648 334.398 66.5957Z" fill="#046EE7"/>
<path opacity="0.8" d="M334.398 66.5957L333.429 64.169C333.429 64.169 332.887 61.0582 330.954 60.1914L325.198 61.0959L325.399 61.5995C325.397 61.5984 325.395 61.5972 325.391 61.5972C325.923 62.7758 325.52 64.8245 325.002 66.4975C324.483 68.1717 325.363 68.3738 326.087 68.0518C326.505 67.8656 326.898 67.1268 327.338 66.3331C327.55 66.7476 327.781 67.1508 328.055 67.5265L329.464 69.4576C330.071 70.2901 331.222 70.5071 332.091 69.9509L333.638 68.9608C334.427 68.4572 334.746 67.4648 334.398 66.5957Z" fill="white"/>
<path opacity="0.3" d="M297.284 44.1211L295.892 44.2342L287.344 64.8861C287.846 64.9203 288.308 64.8781 288.735 64.773C288.735 64.773 299.881 60.6196 303.254 59.0973C300.984 54.3922 297.284 44.1211 297.284 44.1211Z" fill="#046EE7"/>
<path d="M281.676 49.539C282.152 53.2585 284.941 61.1634 287.346 64.8852C291.52 63.4462 298.492 60.7317 301.865 59.2094C299.594 54.5055 297.202 48.0235 295.894 44.2344C292.298 44.4731 284.46 47.4251 281.676 49.539Z" fill="white"/>
<path opacity="0.3" d="M290.162 54.0054C289.696 55.5642 288.054 56.4493 286.496 55.9822C284.938 55.5151 284.052 53.8741 284.519 52.3164C284.986 50.7576 286.627 49.8725 288.185 50.3396C289.743 50.8055 290.628 52.4466 290.162 54.0054Z" fill="#046EE7"/>
<path opacity="0.6" d="M292.349 50.0704C292.196 50.5808 291.658 50.8709 291.148 50.7179C290.638 50.5649 290.347 50.027 290.499 49.5165C290.652 49.006 291.19 48.716 291.701 48.869C292.212 49.0209 292.502 49.5588 292.349 50.0704Z" fill="#046EE7"/>
<path opacity="0.6" d="M294.896 49.0782C294.743 49.5887 294.205 49.8787 293.694 49.7257C293.184 49.5727 292.894 49.0348 293.047 48.5243C293.2 48.0138 293.738 47.7238 294.248 47.8768C294.759 48.0298 295.049 48.5677 294.896 49.0782Z" fill="#046EE7"/>
<path opacity="0.5" d="M298.489 57.9718L287.929 62.1447L287.291 60.0685L297.851 55.8945L298.489 57.9718Z" fill="#046EE7"/>
<path opacity="0.2" d="M240.207 216.689C239.979 225.3 239.339 231.912 238.289 236.503C236.941 242.373 234.851 246.667 232.008 249.385C229.176 252.103 225.818 253.462 221.947 253.462C216.077 253.462 211.589 250.264 208.505 243.857C208.003 242.818 207.546 241.63 207.124 240.306C200.603 245.913 194.527 252.034 188.943 258.612L182.879 265.761C186.156 269.084 189.879 271.813 194.036 273.972C201.151 277.649 210.481 279.499 222.038 279.499C224.071 279.499 226.035 279.442 227.942 279.328C234.931 268.981 240.721 257.858 245.186 246.187L262.145 201.969L240.207 216.689Z" fill="#151617"/>
<path d="M87.3281 276.972C93.7199 283.363 107.315 296.959 107.315 296.959L163.286 244.236C144.025 236.914 106.481 257.82 87.3281 276.972Z" fill="#023E83"/>
<path d="M157.03 346.672C150.638 340.28 137.043 326.684 137.043 326.684L189.766 270.715C197.088 289.975 176.183 327.519 157.03 346.672Z" fill="#023E83"/>
<path d="M233.516 220.719L255.318 178.684L213.282 200.486C199.777 207.491 187.309 216.333 176.231 226.761L104.574 294.219L139.782 329.426L207.24 257.769C217.669 246.693 226.511 234.225 233.516 220.719Z" fill="#046EE7"/>
<path opacity="0.6" d="M233.516 220.719L255.318 178.684L213.282 200.486C199.777 207.491 187.309 216.333 176.231 226.761L104.574 294.219L139.782 329.426L207.24 257.769C217.669 246.693 226.511 234.225 233.516 220.719Z" fill="white"/>
<path d="M188.748 259.989C196.884 259.989 203.479 253.394 203.479 245.258C203.479 237.123 196.884 230.527 188.748 230.527C180.613 230.527 174.018 237.123 174.018 245.258C174.018 253.394 180.613 259.989 188.748 259.989Z" fill="white"/>
<path d="M188.749 254.72C193.974 254.72 198.21 250.484 198.21 245.258C198.21 240.033 193.974 235.797 188.749 235.797C183.523 235.797 179.287 240.033 179.287 245.258C179.287 250.484 183.523 254.72 188.749 254.72Z" fill="#046EE7"/>
<path opacity="0.3" d="M151.689 316.78L117.221 282.314L145.441 255.746L178.255 288.56L151.689 316.78Z" fill="#046EE7"/>
<path d="M95.1306 308.562C69.3157 310.663 60.7644 327.184 57.8477 349.148C56.3608 360.35 55.7007 371.683 46.2941 378.241C43.6835 380.061 44.9797 384.118 48.1613 384.019C82.8084 382.938 98.9688 365.971 100.998 358.866C100.299 363.358 99.2806 366.9 98.1523 369.687C96.992 372.55 100.136 375.199 102.753 373.559C112.48 367.466 124.679 356.252 125.49 338.068C118.298 327.962 95.1306 308.562 95.1306 308.562Z" fill="#046EE7"/>
<path opacity="0.2" d="M95.1306 308.562C69.3157 310.663 60.7644 327.184 57.8477 349.148C56.3608 360.35 55.7007 371.683 46.2941 378.241C43.6835 380.061 44.9797 384.118 48.1613 384.019C82.8084 382.938 98.9688 365.971 100.998 358.866C100.299 363.358 99.2806 366.9 98.1523 369.687C96.992 372.55 100.136 375.199 102.753 373.559C112.48 367.466 124.679 356.252 125.49 338.068C118.298 327.962 95.1306 308.562 95.1306 308.562Z" fill="white"/>
<path d="M129.455 345.884L88.1191 304.548L110.14 299.785L134.219 323.863L129.455 345.884Z" fill="#046EE7"/>
<defs>
<linearGradient id="paint0_linear_9067_32393" x1="125.07" y1="30.8672" x2="62.7185" y2="77.9085" gradientUnits="userSpaceOnUse">
<stop stop-color="#D82D7E"/>
<stop offset="1" stop-color="#FA8F21"/>
</linearGradient>
<linearGradient id="paint1_linear_9067_32393" x1="115.804" y1="37.0117" x2="62.0589" y2="75.2754" gradientUnits="userSpaceOnUse">
<stop stop-color="#D82D7E"/>
<stop offset="1" stop-color="#FA8F21"/>
</linearGradient>
<linearGradient id="paint2_linear_9067_32393" x1="85.5221" y1="41.3398" x2="79.822" y2="45.6403" gradientUnits="userSpaceOnUse">
<stop stop-color="#D82D7E"/>
<stop offset="1" stop-color="#FA8F21"/>
</linearGradient>
<linearGradient id="paint3_linear_9067_32393" x1="112.426" y1="39.0508" x2="106.726" y2="43.3513" gradientUnits="userSpaceOnUse">
<stop stop-color="#D82D7E"/>
<stop offset="1" stop-color="#FA8F21"/>
</linearGradient>
<linearGradient id="paint4_linear_9067_32393" x1="108.071" y1="53.9023" x2="98.7424" y2="60.9403" gradientUnits="userSpaceOnUse">
<stop stop-color="#D82D7E"/>
<stop offset="1" stop-color="#FA8F21"/>
</linearGradient>
<linearGradient id="paint5_linear_9067_32393" x1="96.3655" y1="63.3125" x2="83.898" y2="72.7186" gradientUnits="userSpaceOnUse">
<stop stop-color="#D82D7E"/>
<stop offset="1" stop-color="#FA8F21"/>
</linearGradient>
<linearGradient id="paint6_linear_9067_32393" x1="355.906" y1="323.096" x2="383.505" y2="385.83" gradientUnits="userSpaceOnUse">
<stop stop-color="#D82D7E"/>
<stop offset="1" stop-color="#FA8F21"/>
</linearGradient>
<linearGradient id="paint7_linear_9067_32393" x1="396.159" y1="334.727" x2="347.868" y2="367.937" gradientUnits="userSpaceOnUse">
<stop stop-color="#D82D7E"/>
<stop offset="1" stop-color="#FA8F21"/>
</linearGradient>
<linearGradient id="paint8_linear_9067_32393" x1="412.968" y1="345.492" x2="383.977" y2="400.455" gradientUnits="userSpaceOnUse">
<stop stop-color="#D82D7E"/>
<stop offset="1" stop-color="#FA8F21"/>
</linearGradient>
</defs>
</svg>
