<svg width="94" height="86" viewBox="0 0 94 86" fill="none" xmlns="http://www.w3.org/2000/svg">
<path d="M49.5578 15.0819C48.8789 14.3956 48.0489 14.0398 47.2089 14.1559L45.0691 14.4534L44.9986 14.4633L44.7429 14.4964L35.89 15.7372C35.4629 15.7986 35.0704 15.9708 34.7336 16.2496C33.6809 17.0827 33.0987 18.7975 33.3612 20.6653L33.7366 23.3168L34.3294 27.5918L36.5561 27.2825L35.9566 22.9933L35.872 22.3809C35.6763 21.0012 36.0973 19.731 36.8689 19.0987C37.1269 18.8857 37.4298 18.7439 37.7606 18.6987L45.5694 17.6062L45.5741 17.6039L46.224 17.5133C47.5261 17.3366 48.798 18.6858 49.0538 20.5393L49.1242 21.0719L49.7385 25.4175L49.7401 25.4456L51.9668 25.1364L51.3511 20.751L50.9922 18.184C50.9703 18.0385 50.9483 17.893 50.9169 17.7519C50.8712 17.5309 50.811 17.3283 50.7486 17.121C50.4822 16.3052 50.0654 15.6117 49.5575 15.0936L49.5578 15.0819Z" fill="#201B2C"/>
<path d="M49.5709 15.0664C48.8945 14.3732 48.0575 14.0148 47.2106 14.1284L45.0771 14.4518L45.0137 14.4642L45.0089 14.4664L44.8517 14.4881L45.1612 15.1741L45.1679 15.1883L45.1856 15.2261L45.19 15.2356L45.653 16.2248L46.2258 17.4858C47.5326 17.3069 48.802 18.6631 49.0625 20.5144L49.0619 20.5378L49.137 21.0681L49.7444 25.4112L51.9641 25.0994L51.357 20.7446L50.9981 18.1777C50.9762 18.0322 50.9542 17.8866 50.9228 17.7456C50.8771 17.5246 50.8169 17.322 50.7545 17.1146C50.4976 16.2944 50.0788 15.5845 49.5709 15.0664Z" fill="#201B2C"/>
<path d="M78.7429 24.1871L83.3859 56.0907C83.6594 57.9821 82.3514 59.7366 80.4623 60.0149L80.359 60.0286L23.6031 69.0322C17.1849 69.9645 16.5685 65.4295 16.2949 63.5381L11.0125 33.5723C10.739 31.6809 12.2934 26.3722 17.4403 25.6945L68.0316 18.3007L69.9325 18.0228C74.1143 17.4159 78.1245 19.9068 78.7429 24.1871Z" fill="#603A3E"/>
<path d="M78.7495 24.1875L83.3925 56.0911C83.666 57.9826 82.3581 59.737 80.4689 60.0153L80.3657 60.0291C79.4349 58.2375 78.5825 55.3188 78.208 50.5609C77.3046 39.0632 72.1564 26.6326 68.0404 18.3059L69.9413 18.0279C74.1231 17.421 78.1333 19.912 78.7517 24.1923L78.7495 24.1875Z" fill="#775155"/>
</svg>
