<svg width="688" height="360" viewBox="0 0 688 360" fill="none" xmlns="http://www.w3.org/2000/svg">
<rect width="688" height="360" fill="#E0E1EA"/>
<path d="M326.458 156.625C330.927 156.625 334.708 160.406 334.708 164.875C334.708 169.516 330.927 173.125 326.458 173.125C321.818 173.125 318.208 169.516 318.208 164.875C318.208 160.406 321.818 156.625 326.458 156.625ZM377.161 141.5C383.349 141.5 388.161 146.484 388.161 152.5V207.5C388.161 213.688 383.177 218.5 377.161 218.5H311.161C305.146 218.5 300.161 213.688 300.161 207.5V152.5C300.161 146.484 305.146 141.5 311.161 141.5H377.161ZM379.911 206.469V152.5C379.911 151.125 378.708 149.75 377.161 149.75H311.161C309.786 149.75 308.411 151.125 308.411 152.5L308.583 207.5L321.474 191.344C322.161 190.656 323.021 190.141 324.052 190.141C325.083 190.141 325.943 190.656 326.63 191.344L332.99 199.25L351.208 174.5C351.896 173.641 352.755 173.125 353.958 173.125C354.99 173.125 355.849 173.641 356.365 174.5L379.911 206.469Z" fill="#B1B5C9"/>
</svg>
