<svg width="455" height="139" viewBox="0 0 455 139" fill="none" xmlns="http://www.w3.org/2000/svg">
<path d="M454.89 110.66C401.333 138.281 380.039 97.0984 371.617 83.4395L407.83 65.4856C410.243 70.1646 388.851 106.604 454.89 110.66Z" fill="white"/>
<path d="M368.617 118.236C317.89 122.451 286.617 115.236 198.117 118.236C109.617 121.236 65.6171 135.218 26.2055 111.366C-22.625 81.8132 7.11858 47.7358 32.3828 19.5087C60.1745 -11.5422 79.6658 2.03072 180.117 9.23536C280.569 16.44 289.742 -5.19245 359.117 9.23535C428.493 23.6632 419.315 22.2235 434.318 62.8616C443.512 87.7661 419.344 114.021 368.617 118.236Z" fill="white" />
</svg>