<svg width="84" height="87" viewBox="0 0 84 87" fill="none" xmlns="http://www.w3.org/2000/svg">
<path d="M27.9352 46.1499C27.9352 46.1499 24.2177 55.6083 16.4717 53.4807C5.77786 50.5524 2.3051 57.1399 2.3051 57.1399" stroke="#1F1F39" stroke-width="1.5" stroke-linecap="round" stroke-linejoin="round"/>
<path d="M64.3843 30.0987C64.4058 28.0864 63.7821 26.3975 62.5885 25.2052C61.3949 24.013 59.7393 23.4076 57.6813 23.4226C55.4363 23.4431 51.1592 21.2204 48.9887 19.8235C48.3447 19.4101 47.5137 19.3882 46.8468 19.7708C46.1799 20.1533 45.7926 20.8901 45.8388 21.6489C46.0106 24.6496 46.7244 27.0024 47.773 28.8189C47.7793 29.0293 47.809 29.2389 47.8854 29.4471L52.2557 41.4096C49.936 41.2803 47.3891 42.1519 45.316 44.0036C41.6252 47.2954 40.8438 52.4416 43.5669 55.4945C46.29 58.5473 51.4885 58.3447 55.1789 55.0411C58.6075 51.9793 59.5322 47.32 57.4511 44.2245C57.4664 43.9551 57.4347 43.6753 57.3328 43.3977L53.7397 33.564C54.837 33.882 55.9527 34.0356 57.0515 34.0144C59.9154 33.9636 61.2421 35.304 61.3388 35.4063C61.7989 35.9306 62.484 36.1556 63.1366 36.0776C63.1366 36.0776 63.16 36.0769 63.1717 36.0765C64.29 35.926 65.0661 34.8969 64.9156 33.7786C64.8863 33.5807 64.834 33.3952 64.7586 33.222C64.6263 32.7113 64.3551 31.468 64.3722 30.0874L64.3843 30.0987Z" fill="#1F1F39"/>
</svg>
