<svg width="528" height="498" viewBox="0 0 528 498" fill="none" xmlns="http://www.w3.org/2000/svg">
<g clip-path="url(#clip0_13867_28255)">
<path d="M369.916 44.9829C382.284 38.5486 408.111 20.1988 411.265 26.6701C412.98 30.1872 395.131 34.1275 399.258 38.8074C400.829 40.5906 406.905 50.6284 399.775 54.5769C391.772 59.0103 390.147 49.8107 375.683 61.7344C368.911 67.3141 369.911 44.9829 369.911 44.9829H369.916Z" fill="#EEADA5"/>
<path d="M444.82 423.389C444.799 415.496 442.244 395.749 442.244 395.749L421.273 397.101L425.384 426.725L440.143 434.791L444.82 423.389Z" fill="white"/>
<path d="M444.978 419.859C446.709 418.413 450.787 423.212 451.693 426.487C453.765 433.985 477.209 434.297 481.397 434.86C483.559 435.152 487.337 446.155 476.618 446.402C467.351 446.615 437.668 447.417 427.524 447.589C425.403 447.626 423.512 446.246 422.946 444.22C420.919 436.98 420.226 419.884 423.048 419.567C426.884 420.344 438.382 425.381 444.982 419.859H444.978Z" fill="#1F1F39"/>
<path d="M251.293 525.064C254.779 517.985 262.746 499.606 262.746 499.606L241.882 491.027L232.406 519.39L242.042 533.188L251.297 525.06L251.293 525.064Z" fill="white"/>
<path d="M449.315 406.612C447.887 415.857 429.707 414.62 418.54 412.258C414.344 410.175 403.1 327.35 395.934 304C394.239 298.482 368.453 291.571 340.353 290.338C339.636 290.301 338.922 290.272 338.204 290.252C321.155 289.677 303.258 288.46 292.248 288.013C288.314 287.852 285.258 287.795 283.436 287.893C282.136 287.967 281.512 287.77 281.59 288.029C283.256 293.642 295.423 334.113 307.122 379.811C314.436 408.375 261.707 508.995 261.707 508.995C247.173 508.913 228.537 505.942 229.501 497.807C229.92 494.281 269.353 409.106 265.945 384.663C263.668 368.314 237.792 329.462 219.726 296.949C210.959 281.176 204.289 269.256 203.555 266.758C202.177 262.074 200.95 257.801 199.293 253.293C198.075 249.957 196.942 246.403 195.888 242.298C188.197 212.271 282.386 218.348 282.386 218.348C317.427 237.914 407.957 240.002 428.825 273.069C442.275 294.381 449.307 406.616 449.307 406.616L449.315 406.612Z" fill="#3B3B4C"/>
<path opacity="0.46" d="M258.062 279.898C258.062 279.898 258.075 279.915 258.091 279.94C258.207 279.791 258.256 279.721 258.264 279.696C258.227 279.717 258.062 279.894 258.062 279.894V279.898Z" fill="#1F1F39"/>
<path opacity="0.45" d="M238.849 250.475C239.957 263.984 226.67 286.451 219.733 296.945C210.967 281.171 204.301 269.252 203.562 266.754C212.062 262.657 238.849 250.475 238.849 250.475Z" fill="#1F1F39"/>
<path d="M197.982 101.285L216.257 99.6907C216.257 99.6907 233.962 97.9075 229.798 95.0272C224.231 91.1897 223.136 85.8647 220.556 82.968C218.915 81.1314 217.397 78.1936 216.13 75.1819C213.886 69.8857 212.413 64.3881 212.413 64.3881L212.274 62.9459L209.369 59.511L200.874 49.4609C200.874 49.4609 192.522 59.548 193.994 67.4656C195.336 74.6847 194.991 93.7864 197.982 101.289V101.285Z" fill="#EFAEA6"/>
<path opacity="0.14" d="M216.132 75.1822C213.888 69.886 212.415 64.3885 212.415 64.3885L212.276 62.9463L209.371 59.5113L207.185 59.2812C207.185 59.2812 202.87 65.7361 201.926 68.1562C200.581 71.6322 208.366 79.7553 216.132 75.1822Z" fill="#1F1F39"/>
<path d="M195.048 84.7645C201.493 80.2448 206.473 92.2054 213.885 90.262C217.799 89.2348 216.355 87.8173 217.516 85.3726C218.229 83.8687 218.828 82.2499 221.228 83.4907C270.023 108.694 266.36 216.837 273.215 221.882C278.822 226.008 252.88 248.446 232.308 250.336C204.093 252.924 195.458 223.267 194.261 217.445C193.063 211.623 176.617 111.274 176.617 111.274C176.617 111.274 187.229 99.4739 195.048 84.7686V84.7645Z" fill="white"/>
<path d="M381.608 61.2453C380.525 63.8091 335.709 83.7079 314.394 92.6322C307.786 95.3974 295.11 99.0706 283.993 104.124C274.287 108.537 265.776 114.002 263.532 120.835C261.312 127.581 262.346 147.513 265.845 154.19C268.663 159.556 271.551 164.675 273.414 168.571C278.201 178.584 301.76 219.544 294.002 237.282C289.072 248.556 282.217 250.002 275.924 247.192C265.119 242.368 261.029 204.744 245.974 171.784C238.824 156.133 238.488 142.685 236.896 129.817C236.65 127.828 236.371 125.856 236.035 123.884C235.928 123.243 235.809 122.606 235.686 121.965C235.53 121.155 235.362 120.35 235.186 119.549C234.886 118.234 234.554 116.927 234.181 115.621C233.245 112.379 232.031 109.129 230.399 105.85C222.563 90.1135 221.234 83.4902 221.234 83.4902C264.889 78.0748 295.516 72.491 304.857 68.978C307.888 67.8357 315.432 64.7665 324.424 61.0809C333.346 57.4241 343.692 53.1715 352.462 49.6174C355.436 48.4094 358.23 47.2795 360.724 46.2811C363.267 45.2703 365.495 44.387 367.296 43.6967C369.4 42.8872 370.914 42.3408 371.615 42.1394C372.075 42.0121 372.932 42.5544 373.97 43.5529C374.072 43.6474 374.183 43.7583 374.294 43.8651C377.329 46.9508 381.608 53.492 381.989 58.328C382.071 59.4004 381.965 60.3947 381.608 61.2453Z" fill="#0267A4"/>
<path d="M202.406 272.543C216.308 275.879 231.461 270.793 237.627 256.424C242.738 244.509 243.243 245.162 239.309 222.42C237.311 210.874 231.437 205.742 226.895 187.545C224.131 176.472 224.122 165.834 223.766 164.499C220.783 153.273 223.335 144.649 219.475 133.568C217.723 128.53 210.417 118.406 208.727 113.858C207.644 110.937 206.102 104.958 205.093 102.333C201.355 92.6238 196.47 88.0014 195.046 84.7637C195.046 84.7637 177.202 91.5596 168.001 112.695C166.951 115.099 166.401 118.373 166.241 122.162C166.102 125.309 166.241 128.814 166.582 132.458C167.345 140.598 169.154 149.452 171.315 156.696C172.735 161.413 173.916 165.189 174.962 168.365C177.095 174.853 178.654 178.818 180.402 183.152C181.099 184.878 181.821 186.665 182.625 188.687C183.528 190.976 184.537 193.564 185.706 196.715C187.617 201.868 188.91 210.985 190.111 221.15C192.741 243.432 194.952 270.751 202.402 272.543H202.406Z" fill="#0267A4"/>
<path opacity="0.65" d="M342.444 290.046C341.747 290.153 341.049 290.248 340.356 290.334C339.638 290.297 338.924 290.268 338.207 290.248C321.158 289.672 303.26 288.456 292.25 288.008C288.669 287.655 285.679 287.532 283.439 287.889C282.733 288 282.097 288.164 281.539 288.378C279.419 282.162 277.605 275.793 277.605 275.793C285.543 275.444 317.216 279.129 342.444 290.046Z" fill="#1F1F39"/>
<path d="M211.774 35.1514C215.351 40.9037 227.723 49.0185 223.67 51.1263C219.617 53.2341 231.243 63.2759 227.009 65.6755C216.754 71.4853 201.359 71.1483 197.421 66.7972C193.478 62.446 186.977 47.9379 186.977 47.9379L211.778 35.1514H211.774Z" fill="#EFAEA6"/>
<path d="M203.991 46.5652C207.477 45.2298 207.982 45.9571 209.713 43.6274C211.444 41.2977 205.824 40.1966 209.758 37.23C213.692 34.2635 218.274 31.5271 216.195 26.35C213.184 18.8597 207.445 23.2807 203.97 26.1487C201.734 27.9935 198.309 22.8493 193.419 25.709C189.58 27.9524 191.221 30.0191 187.886 32.1721C185.871 33.4746 179.948 32.1393 177.954 36.4247C174.262 44.3752 182.356 47.5266 179.854 55.2593C176.937 64.2781 197.152 69.6647 197.969 67.3063C198.92 64.5534 193.042 59.8694 194.191 57.4493C195.922 53.7966 197.522 56.0441 201.058 57.0467C204.832 58.1191 209.602 55.8058 204.208 52.7366C198.814 49.6714 200.836 47.7608 203.995 46.5529L203.991 46.5652Z" fill="#1F1F39"/>
<path d="M187.839 88.6879C180.574 93.5403 91.0606 161.097 105.184 189.061C111.694 201.95 166.745 180.166 177.341 175.617C180.405 174.302 166.643 152.67 165.129 153.734C139.934 171.398 170.482 160.148 171.487 151.762C173.485 135.121 190.977 86.5924 187.834 88.6879H187.839Z" fill="#0267A4"/>
<path opacity="0.18" d="M213.219 96.6668C212.337 96.0833 203.632 113.558 191.723 119.392C188.433 121.007 184.893 122.137 181.197 122.375C170.376 123.078 162.303 122.244 148.684 120.629C153.056 116.566 155.325 114.803 160.994 110.924C170.884 113.965 174.26 112.112 179.913 111.442C184.102 110.949 188.052 109.733 191.711 108.11C198.594 105.061 204.432 100.55 208.85 96.638C211.102 94.6411 211.414 91.6294 214.133 91.4979C217.743 91.3212 214.351 97.4063 213.215 96.6626L213.219 96.6668Z" fill="#1F1F39"/>
<path d="M218.664 93.0635C218.541 91.3502 217.311 88.5891 213.701 88.7616C210.981 88.8931 210.768 90.0025 208.516 91.9993C201.751 97.994 191.635 105.382 179.575 106.807C167.515 108.233 139.829 92.6033 122.001 96.6546C104.178 100.702 98.8858 116.796 73.1407 121.143C47.3956 125.49 19.5707 114.832 11.9736 116.212C4.38048 117.589 -0.213932 119.302 0.0034824 122.318C0.220896 125.334 4.05641 130.293 9.41792 132.38C14.7794 134.472 61.8844 137.245 74.2975 135.458C94.5621 132.541 111.84 114.043 124.902 112.761C137.963 111.479 165.542 118.731 180.859 117.737C197.94 116.627 211.67 96.5642 212.802 97.312C213.935 98.0557 214.985 98.7788 217.175 98.2077C218.677 97.8133 218.788 94.7769 218.664 93.0635Z" fill="#F4AD00"/>
<path opacity="0.28" d="M161.058 155.115C163.318 154.059 168.203 152.649 166.386 151.725C164.569 150.8 165.402 147.559 167.723 142.924C170.045 138.285 169.549 130.137 167.613 134.472C165.681 138.807 156.221 147.23 158.645 147.53C162.276 147.974 157.279 153.94 155.803 155.008C148.296 160.419 159.564 155.821 161.053 155.123L161.058 155.115Z" fill="#1F1F39"/>
<path d="M474.54 449.307C474.54 449.307 474.536 449.307 474.532 449.299C473.433 447.688 471.936 446.69 470.286 446.661L466.102 446.6H465.987H465.979L465.462 446.587H465.458L448.114 446.332C447.278 446.32 446.478 446.558 445.743 447.015H445.739C443.483 448.387 441.887 451.699 441.871 455.594L441.846 461.124L441.793 470.036L446.154 470.102L446.203 461.161L446.211 459.887C446.227 457.011 447.388 454.558 449.046 453.506H449.05C449.608 453.149 450.231 452.952 450.883 452.964L466.172 453.186H466.176L467.456 453.211C470.016 453.252 472.067 456.411 472.042 460.274V461.375V461.379L471.993 470.43V470.484L476.358 470.554L476.403 461.412L476.436 456.054C476.44 455.75 476.427 455.446 476.411 455.15C476.391 454.907 476.374 454.669 476.349 454.431C476.12 452.442 475.472 450.663 474.553 449.311L474.54 449.307Z" fill="#3B3B4C"/>
<path d="M474.554 449.266C474.554 449.266 474.549 449.266 474.549 449.258C473.45 447.639 471.945 446.641 470.291 446.612L466.103 446.6H465.988H465.98H465.66L466.074 448.124L466.099 448.206L466.107 448.218L466.698 450.384V450.404L467.453 453.149C470.013 453.19 472.059 456.354 472.047 460.212L472.039 461.367L471.986 470.426L476.346 470.492L476.395 461.408L476.428 456.05C476.432 455.746 476.42 455.442 476.404 455.146C476.383 454.903 476.367 454.665 476.342 454.427C476.129 452.418 475.481 450.622 474.558 449.266H474.554Z" fill="#201B2C"/>
<path d="M527.999 477.05L527.99 501.974V513.08L527.978 543.62C527.978 547.556 524.975 550.737 521.263 550.704H521.058L409.586 551.23C401.989 551.164 399.011 547.688 397.846 544.08C397.083 541.71 397.095 539.281 397.095 537.724L397.038 535.661L395.352 474.913C395.352 470.965 399.831 460.627 409.894 460.865L441.837 461.128L446.194 461.165L472.025 461.379H472.029L476.385 461.412L509.08 461.679L512.8 461.704C520.992 461.777 527.995 468.126 527.986 477.05H527.999Z" fill="#603A3E"/>
<path d="M527.997 477.05L527.989 501.974V513.08L527.976 543.62C527.976 547.556 524.974 550.737 521.261 550.704H521.056C519.768 546.755 518.952 540.526 519.563 530.698C519.883 525.607 519.838 520.369 519.514 515.097C519.292 511.42 518.935 507.726 518.472 504.061C516.503 488.46 512.626 473.307 509.086 461.675L512.807 461.699C520.999 461.773 528.001 468.121 527.993 477.046L527.997 477.05Z" fill="#775155"/>
<path d="M168.168 158.587C181.881 152.576 204.566 132.673 207.618 138.93C209.276 142.328 191.825 149.872 195.812 154.396C197.33 156.117 202.704 162.408 195.812 166.221C188.076 170.506 190.365 164.097 177.947 171.377C170.633 175.667 168.168 158.587 168.168 158.587Z" fill="#EEADA5"/>
<path d="M178.755 20.5607C182.73 18.4406 177.664 9.00681 177.664 9.00681C177.664 9.00681 178.14 7.57695 178.948 8.23436C179.756 8.89176 189.618 18.4611 190.418 14.5495C191.222 10.638 192.805 14.9193 192.805 14.9193L190.249 27.899L179.407 23.8354L178.751 20.5566L178.755 20.5607Z" fill="#F4AD00"/>
<path opacity="0.39" d="M178.755 20.5607C182.73 18.4406 177.664 9.00681 177.664 9.00681C177.664 9.00681 178.14 7.57695 178.948 8.23436C179.756 8.89176 189.618 18.4611 190.418 14.5495C191.222 10.638 192.805 14.9193 192.805 14.9193L190.249 27.899L179.407 23.8354L178.751 20.5566L178.755 20.5607Z" fill="#E56E1F"/>
<path d="M173.488 27.2042C171.605 31.3048 161.908 26.7852 161.908 26.7852C161.908 26.7852 160.509 27.3398 161.214 28.1123C161.916 28.8847 172.028 38.187 168.176 39.2142C164.324 40.2414 168.68 41.5809 168.68 41.5809L181.471 38.2733L176.794 27.6685L173.488 27.2001V27.2042Z" fill="#F4AD00"/>
<path opacity="0.39" d="M173.488 27.2042C171.605 31.3048 161.908 26.7852 161.908 26.7852C161.908 26.7852 160.509 27.3398 161.214 28.1123C161.916 28.8847 172.028 38.187 168.176 39.2142C164.324 40.2414 168.68 41.5809 168.68 41.5809L181.471 38.2733L176.794 27.6685L173.488 27.2001V27.2042Z" fill="#E56E1F"/>
<path d="M157.056 37.0775C158.283 37.5911 161.175 39.0046 164.456 40.5618C170.142 43.2654 177.005 46.4086 178.44 46.1127C186.559 44.4323 196.986 32.4798 198.664 23.4816C198.898 22.2243 195.579 15.8187 192.728 10.5677C190.8 7.01364 189.09 3.99369 188.839 3.45544C188.22 2.1242 184.852 1.6106 186.366 4.64698C186.973 5.85907 188.015 7.88881 188.831 10.124C188.831 10.124 188.844 10.1569 188.864 10.2185C188.999 10.5924 189.127 10.9704 189.241 11.3525C189.25 11.3813 189.258 11.4059 189.266 11.4347C190.177 14.4218 190.472 17.5691 188.667 19.5495C187.039 21.3368 182.178 20.1001 177.645 18.3621C173.292 16.6939 169.243 14.5615 168.636 14.1958C167.393 13.4521 165.207 13.1973 166.877 16.0612C167.927 17.8649 171.84 23.4323 173.719 28.3176C174.827 31.1979 175.229 33.8398 173.924 35.3395C172.111 37.4227 169.03 37.4432 166.007 36.7817C161.966 35.8901 158.028 33.77 157.388 33.7166C156.268 33.618 153.7 35.6806 157.056 37.0899V37.0775Z" fill="#F4AD00"/>
<path d="M184.672 4.9305C185.796 5.99467 187.588 5.91661 188.675 4.76204C188.683 4.75382 188.692 4.7456 188.7 4.73328C188.917 4.49497 189.09 4.23201 189.217 3.95261C189.217 3.95261 189.217 3.95261 189.217 3.9485C189.225 3.93207 189.229 3.91563 189.237 3.90331C189.377 3.57871 189.455 3.23768 189.467 2.89255C189.5 2.10777 189.213 1.32299 188.61 0.747766C187.486 -0.312298 185.693 -0.23834 184.606 0.916226C184.187 1.35997 183.933 1.89411 183.847 2.4488C183.699 3.3404 183.978 4.2731 184.672 4.9305Z" fill="url(#paint0_radial_13867_28255)"/>
<path opacity="0.34" d="M184.672 4.93092C185.796 5.99509 187.588 5.91702 188.675 4.76246C188.683 4.75424 188.692 4.74602 188.7 4.7337C188.802 4.61043 188.999 4.30638 189.217 3.95303C189.217 3.95303 189.217 3.95303 189.217 3.94892C189.225 3.93249 189.229 3.91605 189.237 3.90372C189.377 3.57913 189.455 3.2381 189.467 2.89297C186.796 4.74602 185.488 3.63255 183.847 2.44922C183.699 3.34082 183.978 4.27351 184.672 4.93092Z" fill="#E56E1F"/>
<path opacity="0.57" d="M186.723 1.07617C187.518 1.10082 188.306 1.49527 188.614 2.40331" stroke="white" stroke-width="0.9" stroke-linecap="round" stroke-linejoin="round"/>
<path opacity="0.57" d="M184.977 1.72955C185.165 1.52822 185.42 1.36798 185.703 1.25293" stroke="white" stroke-width="0.9" stroke-linecap="round" stroke-linejoin="round"/>
<path d="M176.178 9.38876C177.081 10.2393 178.512 10.1818 179.386 9.25317C179.39 9.24495 179.398 9.24084 179.407 9.23263C179.583 9.04362 179.718 8.82997 179.821 8.60809C179.825 8.59577 179.833 8.58344 179.837 8.57111C179.948 8.31226 180.01 8.03697 180.022 7.76168C180.051 7.13304 179.821 6.5044 179.333 6.04422C178.434 5.1937 176.994 5.25533 176.125 6.17981C175.793 6.53316 175.587 6.96458 175.518 7.40833C175.403 8.12326 175.624 8.87105 176.178 9.39698V9.38876Z" fill="url(#paint1_radial_13867_28255)"/>
<path opacity="0.34" d="M176.178 9.38883C177.081 10.2394 178.512 10.1818 179.386 9.25325C179.39 9.24503 179.398 9.24092 179.407 9.2327C179.489 9.13409 179.649 8.88756 179.821 8.60817C179.825 8.59584 179.833 8.58352 179.837 8.57119C179.948 8.31234 180.01 8.03705 180.022 7.76176C177.881 9.24914 176.835 8.35753 175.518 7.4043C175.403 8.11922 175.624 8.86702 176.178 9.39294V9.38883Z" fill="#E56E1F"/>
<path opacity="0.57" d="M177.824 6.30273C178.464 6.32328 179.096 6.63965 179.342 7.36691" stroke="white" stroke-width="0.72" stroke-linecap="round" stroke-linejoin="round"/>
<path opacity="0.57" d="M176.422 6.8245C176.574 6.66426 176.775 6.53278 177.004 6.44238" stroke="white" stroke-width="0.72" stroke-linecap="round" stroke-linejoin="round"/>
<path d="M159.127 28.5069C160.03 29.3574 161.462 29.2999 162.335 28.3713C162.339 28.3672 162.348 28.359 162.356 28.3508C162.532 28.1618 162.668 27.9481 162.77 27.7263C162.774 27.7139 162.782 27.7016 162.786 27.6893C162.897 27.4304 162.959 27.1551 162.971 26.8798C163 26.2512 162.77 25.6226 162.282 25.1624C161.384 24.3119 159.944 24.3735 159.074 25.298C158.742 25.6513 158.537 26.0827 158.467 26.5265C158.352 27.2414 158.574 27.9892 159.127 28.5151V28.5069Z" fill="url(#paint2_radial_13867_28255)"/>
<path opacity="0.34" d="M159.127 28.507C160.03 29.3575 161.462 29.3 162.335 28.3714C162.339 28.3673 162.348 28.3591 162.356 28.3509C162.438 28.2523 162.598 28.0057 162.77 27.7263C162.774 27.714 162.782 27.7017 162.786 27.6894C162.897 27.4305 162.959 27.1552 162.971 26.8799C160.83 28.3673 159.784 27.4757 158.467 26.5225C158.352 27.2374 158.574 27.9852 159.127 28.5111V28.507Z" fill="#E56E1F"/>
<path opacity="0.57" d="M160.773 25.417C161.413 25.4375 162.045 25.7539 162.291 26.4812" stroke="white" stroke-width="0.72" stroke-linecap="round" stroke-linejoin="round"/>
<path opacity="0.57" d="M159.371 25.9427C159.523 25.7824 159.724 25.6509 159.954 25.5605" stroke="white" stroke-width="0.72" stroke-linecap="round" stroke-linejoin="round"/>
<path d="M164.745 16.4968C165.931 17.6185 167.822 17.5404 168.966 16.3201C168.974 16.3119 168.983 16.3037 168.991 16.2913C169.22 16.0407 169.401 15.7613 169.532 15.4696C169.532 15.4696 169.532 15.4696 169.532 15.4655C169.54 15.449 169.549 15.4326 169.553 15.4162C169.7 15.0751 169.782 14.7136 169.795 14.352C169.832 13.5261 169.528 12.6962 168.888 12.0922C167.703 10.9746 165.812 11.0527 164.667 12.2688C164.228 12.7372 163.957 13.3002 163.867 13.8836C163.715 14.8245 164.007 15.8106 164.737 16.5009L164.745 16.4968Z" fill="url(#paint3_radial_13867_28255)"/>
<path opacity="0.34" d="M164.745 16.497C165.931 17.6187 167.822 17.5406 168.966 16.3203C168.974 16.3121 168.983 16.3039 168.991 16.2915C169.101 16.1601 169.307 15.8396 169.532 15.4698C169.532 15.4698 169.532 15.4698 169.532 15.4657C169.54 15.4492 169.549 15.4328 169.553 15.4164C169.7 15.0753 169.782 14.7138 169.795 14.3522C166.977 16.308 165.598 15.1329 163.867 13.8838C163.715 14.8247 164.007 15.8108 164.737 16.5011L164.745 16.497Z" fill="#E56E1F"/>
<path opacity="0.57" d="M166.91 12.4375C167.751 12.4622 168.584 12.8812 168.904 13.8386" stroke="white" stroke-width="0.95" stroke-linecap="round" stroke-linejoin="round"/>
<path opacity="0.57" d="M165.066 13.1233C165.267 12.9097 165.534 12.7412 165.834 12.6221" stroke="white" stroke-width="0.95" stroke-linecap="round" stroke-linejoin="round"/>
<path d="M154.433 36.8397C155.557 37.9039 157.35 37.8258 158.437 36.6712C158.445 36.663 158.453 36.6548 158.462 36.6425C158.679 36.4041 158.851 36.1412 158.978 35.8618C158.978 35.8618 158.978 35.8618 158.978 35.8577C158.987 35.8412 158.991 35.8248 158.999 35.8125C159.138 35.4879 159.216 35.1469 159.229 34.8017C159.261 34.0169 158.974 33.2322 158.371 32.6569C157.247 31.5969 155.455 31.6708 154.368 32.8254C153.949 33.2692 153.695 33.8033 153.609 34.358C153.461 35.2496 153.74 36.1823 154.433 36.8397Z" fill="url(#paint4_radial_13867_28255)"/>
<path opacity="0.34" d="M154.433 36.8401C155.557 37.9043 157.35 37.8262 158.437 36.6716C158.445 36.6634 158.453 36.6552 158.462 36.6429C158.564 36.5196 158.761 36.2156 158.978 35.8622C158.978 35.8622 158.978 35.8622 158.978 35.8581C158.987 35.8417 158.991 35.8252 158.999 35.8129C159.138 35.4883 159.216 35.1473 159.229 34.8021C156.558 36.6552 155.25 35.5417 153.609 34.3584C153.461 35.25 153.74 36.1827 154.433 36.8401Z" fill="#E56E1F"/>
<path opacity="0.57" d="M156.488 32.9902C157.284 33.0149 158.072 33.4093 158.379 34.3174" stroke="white" stroke-width="0.9" stroke-linecap="round" stroke-linejoin="round"/>
<path opacity="0.57" d="M154.738 33.6426C154.927 33.4413 155.181 33.2811 155.464 33.166" stroke="white" stroke-width="0.9" stroke-linecap="round" stroke-linejoin="round"/>
<path opacity="0.3" d="M177.645 18.3542C183.703 21.7685 188.622 23.8969 190.332 22.0808C191.9 20.4168 190.144 14.1714 189.266 11.4268C190.177 14.4138 190.472 17.5612 188.667 19.5416C187.038 21.3289 182.177 20.0922 177.645 18.3542Z" fill="white"/>
<path opacity="0.3" d="M166.004 36.7734C169.958 38.5073 173.691 39.3743 174.975 37.8253C176.263 36.2681 175.722 31.8593 173.716 28.3135C174.824 31.1937 175.226 33.8357 173.921 35.3354C172.108 37.4185 169.027 37.4391 166.004 36.7776V36.7734Z" fill="white"/>
<path opacity="0.34" d="M164.457 40.5663C170.143 43.2699 177.006 46.4131 178.441 46.1173C186.559 44.4368 196.987 32.4844 198.665 23.4861C198.899 22.2289 195.58 15.8233 192.729 10.5723C195.908 19.4554 198.32 26.6376 189.722 36.6424C181.871 45.7845 172.805 42.6002 164.457 40.5663Z" fill="#E56E1F"/>
<path d="M197.431 19.7675C198.19 19.3443 200.007 20.9138 200.442 23.034C201.057 26.058 199.174 31.6501 192.857 38.1214C182.101 49.137 178.602 48.2742 176.785 47.2675C174.968 46.2609 174.032 45.2583 174.209 44.9378C174.705 44.0339 181.666 46.1787 190.449 36.1451C199.363 25.9594 196.955 20.0346 197.435 19.7675H197.431Z" fill="#E56E1F"/>
<path opacity="0.28" d="M283.993 104.125C274.287 108.538 265.775 114.002 263.531 120.835C265.078 108.451 271.973 100.09 283.406 103.907C283.615 103.977 283.812 104.051 283.993 104.125Z" fill="#1F1F39"/>
</g>
<defs>
<radialGradient id="paint0_radial_13867_28255" cx="0" cy="0" r="1" gradientUnits="userSpaceOnUse" gradientTransform="translate(184.879 4.72541) rotate(133.294) scale(2.88406 2.79979)">
<stop stop-color="white"/>
<stop offset="0.69" stop-color="#F4AD00"/>
</radialGradient>
<radialGradient id="paint1_radial_13867_28255" cx="0" cy="0" r="1" gradientUnits="userSpaceOnUse" gradientTransform="translate(175.969 9.63095) rotate(133.294) scale(2.30894 2.24148)">
<stop stop-color="white"/>
<stop offset="0.69" stop-color="#F4AD00"/>
</radialGradient>
<radialGradient id="paint2_radial_13867_28255" cx="0" cy="0" r="1" gradientUnits="userSpaceOnUse" gradientTransform="translate(158.847 28.8242) rotate(133.294) scale(2.30894 2.24148)">
<stop stop-color="white"/>
<stop offset="0.69" stop-color="#F4AD00"/>
</radialGradient>
<radialGradient id="paint3_radial_13867_28255" cx="0" cy="0" r="1" gradientUnits="userSpaceOnUse" gradientTransform="translate(165.004 16.2463) rotate(133.294) scale(3.04053 2.95169)">
<stop stop-color="white"/>
<stop offset="0.69" stop-color="#F4AD00"/>
</radialGradient>
<radialGradient id="paint4_radial_13867_28255" cx="0" cy="0" r="1" gradientUnits="userSpaceOnUse" gradientTransform="translate(154.52 36.7687) rotate(133.294) scale(2.88406 2.79979)">
<stop stop-color="white"/>
<stop offset="0.69" stop-color="#F4AD00"/>
</radialGradient>
<clipPath id="clip0_13867_28255">
<rect width="528" height="553" fill="white"/>
</clipPath>
</defs>
</svg>
