<svg width="107" height="120" viewBox="0 0 107 120" fill="none" xmlns="http://www.w3.org/2000/svg">
<path d="M64 23.5195L75.8737 3.0009" stroke="#F4AD00" stroke-width="3.5" stroke-linecap="round"/>
<path d="M44.125 24.6113L37.0017 2.0003" stroke="#F4AD00" stroke-width="3.5" stroke-linecap="round"/>
<path d="M24.6211 34.0938L2.00074 27.0001" stroke="#F4AD00" stroke-width="3.5" stroke-linecap="round"/>
<path d="M60.9583 103.778C61.7691 103.945 62.7153 103.963 63.7199 103.853C63.9768 103.828 64.2398 103.787 64.5052 103.743L64.5086 103.745C66.689 103.374 69.0213 102.457 70.7069 101.231C70.7387 101.208 70.7705 101.184 70.8 101.164C71.6908 100.5 72.3968 99.7436 72.7897 98.9317C73.1122 98.2645 73.2199 97.5545 73.0518 96.8307C72.99 96.5684 72.9611 96.2882 72.9639 95.9844C72.964 95.2605 73.1417 94.4209 73.4353 93.4735C74.003 91.6213 75.0332 89.3472 76.1421 86.6897C79.179 79.4325 82.8195 69.3286 79.393 57.1871C76.1114 45.5543 66.2097 33.3631 51.367 36.9348C51.2516 36.9614 51.1396 36.9903 51.0252 37.0227C36.3958 40.7126 27.9734 54.0479 32.533 70.018C36.8903 85.2913 51.0514 92.1128 56.4777 98.2723C57.5098 99.4458 58.2282 100.594 58.5016 101.774C58.5123 101.817 58.522 101.854 58.5351 101.894C58.8301 102.926 59.7329 103.525 60.9618 103.78L60.9583 103.778Z" fill="#F2B233"/>
<path opacity="0.75" d="M64.4752 104.961C64.4752 104.961 54.7538 75.0172 49.1586 75.5404C43.56 76.0611 46.9176 82.7968 50.9061 82.8304C56.2748 82.8733 63.5066 79.5354 61.7813 74.2897C60.4376 70.2074 55.3784 72.0015 56.4623 76.4125C57.1977 79.4079 60.1143 80.774 63.8207 79.5454C70.091 77.4693 72.8601 73.3594 68.725 70.4656C66.4534 68.8764 64.1432 71.5679 65.234 74.7042C66.3249 77.8405 70.9724 103.13 70.9724 103.13" stroke="white" stroke-width="1.4" stroke-linecap="round" stroke-linejoin="round"/>
<path d="M70.653 114.961L70.0613 115.129C65.5116 116.412 60.7867 113.764 59.5015 109.218C59.5015 109.218 55.5465 99.3844 56.426 98.3206C57.309 97.2591 72.7416 92.9364 73.4918 93.5055C74.242 94.0745 76.5673 104.403 76.5673 104.403C77.8501 108.953 75.2027 113.678 70.6564 114.963L70.653 114.961Z" fill="#454554"/>
<path d="M75.255 96.3681L75.3469 96.5925C75.5997 97.2102 75.304 97.9159 74.6863 98.1687L58.5373 104.779C57.9196 105.032 57.2139 104.736 56.9611 104.118L56.8692 103.894C56.6164 103.276 56.9122 102.57 57.5299 102.318L73.6788 95.7075C74.2965 95.4547 75.0022 95.7504 75.255 96.3681Z" fill="#AAAAAF"/>
<path d="M76.4543 100.145L76.5461 100.37C76.799 100.988 76.5032 101.693 75.8855 101.946L59.7365 108.556C59.1188 108.809 58.4132 108.513 58.1603 107.896L58.0685 107.671C57.8156 107.053 58.1114 106.348 58.7291 106.095L74.8781 99.4848C75.4957 99.232 76.2014 99.5278 76.4543 100.145Z" fill="#AAAAAF"/>
<path d="M77.7355 103.874L77.8274 104.098C78.0802 104.716 77.7844 105.422 77.1668 105.675L61.0178 112.285C60.4001 112.538 59.6944 112.242 59.4416 111.624L59.3497 111.4C59.0969 110.782 59.3927 110.076 60.0103 109.823L76.1593 103.213C76.777 102.961 77.4827 103.256 77.7355 103.874Z" fill="#AAAAAF"/>
<g opacity="0.65">
<path d="M39.4726 50.9754C39.6408 50.8073 39.8439 50.5819 40.0613 50.3359C40.2811 50.0864 40.5235 49.8119 40.7916 49.5299C41.0596 49.2478 41.3616 48.9537 41.7074 48.6698C42.0532 48.3858 42.4429 48.1121 42.8851 47.8801L42.8991 47.8746C43.868 47.3624 45.0701 47.7368 45.5822 48.7057C46.0944 49.6745 45.72 50.8766 44.7511 51.3887C44.7464 51.3956 44.7289 51.3987 44.7207 51.4032C44.4041 51.5648 44.0419 51.8576 43.6411 52.2714C43.4407 52.4784 43.2329 52.7107 42.999 52.9656C42.7686 53.2229 42.518 53.5019 42.1972 53.8084C41.4158 54.5634 40.174 54.5386 39.4189 53.7571C38.6708 52.9805 38.685 51.7466 39.4548 50.9936L39.4643 50.9799L39.4726 50.9754Z" fill="white"/>
<path d="M37.295 68.7903C36.9001 67.8726 36.5476 66.9233 36.2725 65.9362C35.9973 64.9491 35.7938 63.9252 35.6926 62.8861C35.5914 61.8469 35.5867 60.7935 35.6791 59.7619C35.768 58.7279 35.9515 57.719 36.1947 56.7416C36.4519 55.7076 37.4963 55.0799 38.5268 55.3346C39.5539 55.587 40.1806 56.6255 39.9317 57.655C39.5379 59.287 39.3904 60.9021 39.5659 62.4927C39.7332 64.0877 40.2153 65.6627 40.9008 67.2163L40.9042 67.2187C41.3428 68.2128 40.8892 69.3748 39.901 69.8124C38.907 70.2509 37.7483 69.7998 37.3074 68.8092L37.3019 68.7951L37.295 68.7903Z" fill="white"/>
</g>
<path opacity="0.19" d="M76.1432 86.6901C79.1801 79.4329 82.8206 69.329 79.3941 57.1875C76.1125 45.5547 66.2108 33.3635 51.3681 36.9352C51.2527 36.9618 51.1407 36.9907 51.0264 37.0231C78.4979 54.452 77.664 64.1426 76.1432 86.6901Z" fill="#EA4F26"/>
</svg>
