<svg width="45" height="45" viewBox="0 0 45 45" fill="none" xmlns="http://www.w3.org/2000/svg">
<path d="M22.2266 29.6328C20.9375 30.9219 21.0234 30.6641 20.5938 32.4688C20.25 33.3281 19.6484 34.0156 18.7891 34.2734C17.5859 34.6172 17.8438 34.5312 17.5 34.7031V44.5L12 41.75L6.5 44.5V34.7031C6.07031 34.5312 6.32812 34.6172 5.125 34.2734C4.26562 34.0156 3.57812 33.3281 3.32031 32.4688C2.89062 30.6641 2.97656 30.9219 1.6875 29.6328C1.08594 28.9453 0.828125 28 1.08594 27.1406C1.51562 25.3359 1.51562 25.5938 1.08594 23.875C0.828125 22.9297 1.08594 21.9844 1.6875 21.3828C2.97656 20.0938 2.89062 20.2656 3.32031 18.4609C3.57812 17.6016 4.26562 16.9141 5.125 16.6562C6.84375 16.2266 6.58594 16.3125 7.875 15.0234C8.5625 14.4219 9.50781 14.1641 10.3672 14.3359C12.0859 14.8516 11.8281 14.8516 13.5469 14.3359C14.4062 14.1641 15.3516 14.4219 16.0391 15.0234C17.3281 16.3125 17.0703 16.2266 18.7891 16.6562C19.6484 16.9141 20.3359 17.6016 20.5938 18.4609C21.0234 20.2656 20.9375 20.0938 22.2266 21.3828C22.8281 21.9844 23.0859 22.9297 22.9141 23.875C22.3984 25.5938 22.3984 25.3359 22.9141 27.1406C23.0859 28 22.8281 28.9453 22.2266 29.6328ZM12 30.75C15.0078 30.75 17.4141 28.3438 17.4141 25.25C17.4141 22.2422 15.0078 19.75 12 19.75C8.90625 19.75 6.5 22.2422 6.5 25.25C6.5 28.3438 8.90625 30.75 12 30.75ZM43.3672 8.57812C44.3984 9.60938 45 10.9844 44.9141 12.4453V39C44.9141 42.0938 42.4219 44.5 39.4141 44.5H20.1641L20.25 40.375H39.4141C40.1016 40.375 40.7891 39.7734 40.7891 39V14.25H34C32.4531 14.25 31.25 13.0469 31.25 11.5V4.71094H17.5C16.7266 4.71094 16.125 5.3125 16.125 6.08594L16.0391 11.9297C13.8047 11.0703 11.9141 11.9297 11.9141 11.9297V6C11.9141 2.99219 14.3203 0.5 17.4141 0.5H33.0547C34.5156 0.5 35.8906 1.10156 36.9219 2.13281L43.3672 8.57812Z" fill="#022F62"/>
</svg>
