<svg width="56" height="45" viewBox="0 0 56 45" fill="none" xmlns="http://www.w3.org/2000/svg">
<path d="M12.875 4.625C12.875 2.39062 14.6797 0.5 17 0.5C19.2344 0.5 21.125 2.39062 21.125 4.625C21.125 6.94531 19.2344 8.75 17 8.75C14.6797 8.75 12.875 6.94531 12.875 4.625ZM11.5 19.75L7.71875 26.2812C7.20312 27.3125 5.91406 27.6562 4.96875 27.0547C3.9375 26.5391 3.59375 25.25 4.19531 24.3047L9.17969 15.3672C10.5547 13.0469 13.0469 11.5 15.7969 11.5H18.1172C20.8672 11.5 23.3594 13.0469 24.7344 15.3672L29.7188 24.3047C30.3203 25.25 29.9766 26.5391 28.9453 27.0547C28 27.6562 26.7109 27.3125 26.1953 26.2812L22.5 19.75V40.375H53.4375C54.5547 40.375 55.5 41.3203 55.5 42.4375C55.5 43.6406 54.5547 44.5 53.4375 44.5H2.5625C1.35938 44.5 0.5 43.6406 0.5 42.4375C0.5 41.3203 1.35938 40.375 2.5625 40.375H11.5V19.75ZM15.7969 15.625C15.7109 15.625 15.625 15.625 15.625 15.7109V26.625H18.375V15.7109C18.2891 15.625 18.2031 15.625 18.1172 15.625H15.7969ZM18.375 40.375V30.75H15.625V40.375H18.375ZM52.0625 10.7266C52.8359 11.5 52.9219 12.7891 52.1484 13.6484C51.375 14.4219 50.0859 14.5078 49.2266 13.7344L45.1875 10.0391V34.1875C45.1875 35.3906 44.2422 36.25 43.125 36.25C41.9219 36.25 41.0625 35.3906 41.0625 34.1875V10.0391L36.9375 13.7344C36.0781 14.5078 34.7891 14.4219 34.0156 13.6484C33.2422 12.7891 33.3281 11.5 34.1016 10.7266L41.6641 3.85156C42.5234 3.07812 43.6406 3.07812 44.5 3.85156L52.0625 10.7266Z" fill="#022F62"/>
</svg>
