<svg width="45" height="39" viewBox="0 0 45 39" fill="none" xmlns="http://www.w3.org/2000/svg">
<path d="M42.7656 0.9375C44.1406 4.11719 45 7.98438 45 11.7656C45 22.7656 38.8984 31.9609 29.875 34.9688C28.1562 35.6562 26.2656 36 24.375 36C18.3594 36 13.1172 32.5625 10.7109 27.4062C6.24219 31.9609 5.125 36.7734 5.03906 37.1172C4.86719 38.1484 4.00781 38.75 3.0625 38.75C2.89062 38.75 2.71875 38.75 2.63281 38.75C1.51562 38.4922 0.742188 37.4609 1 36.3438C1 36.2578 2.54688 29.125 9.42188 23.1094C9.25 22.4219 9.25 21.6484 9.25 20.9609C9.25 12.5391 15.9531 5.75 24.375 5.75C25.4922 5.75 26.6953 5.92188 27.8125 6.17969C28.7578 6.4375 29.7031 6.52344 30.6484 6.52344C34.6016 6.52344 38.4688 4.63281 40.6172 0.9375C40.875 0.507812 41.3047 0.25 41.6484 0.25C42.0781 0.25 42.5078 0.507812 42.7656 0.9375ZM28.5859 31.0156C35.8906 28.6094 40.875 20.875 40.875 11.7656C40.875 10.3047 40.7031 8.75781 40.3594 7.29688C37.6094 9.35938 34.2578 10.5625 30.5625 10.5625C29.2734 10.5625 27.9844 10.3906 26.7812 10.1328C26.0078 9.96094 25.1484 9.875 24.2891 9.875C18.4453 9.875 13.6328 14.4297 13.2891 20.1875C17.2422 17.7812 22.2266 15.9766 28.8438 15.375C29.9609 15.2891 30.9922 16.0625 31.0781 17.1797C31.25 18.3828 30.3906 19.3281 29.2734 19.5C22.4844 20.1016 17.5859 22.1641 14.0625 24.5703C15.6094 28.7812 19.5625 31.875 24.2891 31.875C25.6641 31.875 27.0391 31.6172 28.3281 31.1016L28.5 31.0156H28.5859Z" fill="#022F62"/>
</svg>
