<svg width="40" height="45" viewBox="0 0 40 45" fill="none" xmlns="http://www.w3.org/2000/svg">
<path d="M31 11.5V12.875C31 18.9766 26.0156 23.875 20 23.875C13.8984 23.875 9 18.9766 9 12.875V11.5C9 5.48438 13.8984 0.5 20 0.5C26.0156 0.5 31 5.48438 31 11.5ZM26.875 12.875V11.5C26.875 10.5547 26.6172 9.60938 26.2734 8.75H26.1875C24.3828 8.75 22.8359 7.97656 21.8047 6.6875C20.6016 8.75 18.3672 10.125 15.875 10.125H13.2109C13.125 10.6406 13.125 11.0703 13.125 11.5V12.875C13.125 16.7422 16.1328 19.75 20 19.75C23.7812 19.75 26.875 16.7422 26.875 12.875ZM3.32812 44.5C1.86719 44.5 0.75 43.3828 0.75 41.9219C0.75 34.7031 6.16406 28.8594 13.125 28.0859L17.3359 36.5078L18.7109 31.4375L15.7891 26.625H24.0391L21.2031 31.4375L22.5781 36.5078L26.7891 28.0859C33.75 28.8594 39.25 34.7031 39.25 41.9219C39.25 43.3828 38.0469 44.5 36.5859 44.5H3.32812ZM29.0234 32.8984L25.2422 40.375H34.9531C34.4375 37.0234 32.1172 34.1875 29.0234 32.8984ZM4.96094 40.375H14.6719L10.8906 32.8984C7.79688 34.1875 5.47656 37.0234 4.96094 40.375Z" fill="#022F62"/>
</svg>
