<svg width="44" height="30" viewBox="0 0 44 30" fill="none" xmlns="http://www.w3.org/2000/svg">
<path d="M42.3906 4.76562C43.3281 8.04688 43.3281 15.0781 43.3281 15.0781C43.3281 15.0781 43.3281 22.0312 42.3906 25.3906C41.9219 27.2656 40.4375 28.6719 38.6406 29.1406C35.2812 30 22 30 22 30C22 30 8.64062 30 5.28125 29.1406C3.48438 28.6719 2 27.2656 1.53125 25.3906C0.59375 22.0312 0.59375 15.0781 0.59375 15.0781C0.59375 15.0781 0.59375 8.04688 1.53125 4.76562C2 2.89062 3.48438 1.40625 5.28125 0.9375C8.64062 0 22 0 22 0C22 0 35.2812 0 38.6406 0.9375C40.4375 1.40625 41.9219 2.89062 42.3906 4.76562ZM17.625 21.4062L28.7188 15.0781L17.625 8.75V21.4062Z" fill="#ED1C24"/>
</svg>
